<svg width="24" height="24" viewBox="0 0 24 24" fill="none" xmlns="http://www.w3.org/2000/svg">
<path fill-rule="evenodd" clip-rule="evenodd" d="M9.03407 7.33903C9.31643 7.3394 9.52175 7.42225 9.71219 7.61271C9.93875 7.8393 9.96984 7.93706 9.99822 8.51211C10.0621 9.80607 10.2296 10.5945 10.5961 11.3254C11.3309 12.7911 12.7046 13.5167 15.054 13.6802C15.7463 13.7284 15.8605 13.7616 16.0765 13.9776C16.2688 14.17 16.3612 14.3948 16.3612 14.6704C16.3612 14.9362 16.295 15.1107 16.1211 15.3031C15.886 15.5634 15.6361 15.645 15.0748 15.645C14.4648 15.645 13.6911 15.768 13.1124 15.957C12.4503 16.1732 11.9341 16.4833 11.4742 16.9413C10.9998 17.4136 10.6419 18.0238 10.3978 18.7764C10.1976 19.3936 10.1104 19.883 9.99677 21.0263C9.96058 21.3901 9.88636 21.5568 9.67641 21.7456C9.47294 21.9286 9.23202 22.0165 8.98625 21.9974C8.64517 21.971 8.31533 21.7594 8.16839 21.4728C8.09871 21.3368 8.05113 21.0119 8.0498 20.6626C8.0486 20.3501 7.97517 19.7097 7.89227 19.2887C7.75336 18.5831 7.43396 17.8047 7.09714 17.351C6.63453 16.7278 5.97142 16.2626 5.15659 15.9898C4.53127 15.7804 3.94585 15.6859 3.02536 15.6458C2.35317 15.6166 2.2138 15.5767 1.98532 15.3482C1.69834 15.0612 1.61744 14.6035 1.79099 14.2487C1.95318 13.9172 2.30269 13.6997 2.6732 13.6997C2.772 13.6997 3.03197 13.6858 3.25097 13.6688C5.87185 13.4653 7.30496 12.4078 7.83324 10.2876C7.96329 9.76574 8.01374 9.3918 8.04971 8.68333C8.07709 8.14379 8.08994 8.04757 8.15295 7.90995C8.25537 7.6862 8.39483 7.54107 8.61145 7.43281C8.77194 7.35262 8.83428 7.33876 9.03407 7.33903ZM9.02585 11.2231C8.66413 12.2757 8.06416 13.167 7.16383 13.8313C6.68819 14.1823 6.15731 14.4487 5.58089 14.6452C5.58866 14.6478 5.59643 14.6504 5.6042 14.653C6.66191 15.0072 7.57624 15.6312 8.22909 16.5108C8.58076 16.9845 8.87893 17.6255 9.08182 18.266C9.38286 17.3703 9.83814 16.581 10.4795 15.9424C11.0785 15.3459 11.7539 14.9353 12.5586 14.656C12.208 14.5418 11.875 14.4035 11.5611 14.2377C10.5659 13.7119 9.83156 12.9459 9.33588 11.9572C9.21501 11.7161 9.11259 11.4732 9.02585 11.2231Z" fill="#999999"/>
<path fill-rule="evenodd" clip-rule="evenodd" d="M17.491 1.7002C17.3681 1.70003 17.3297 1.70856 17.2309 1.75791C17.0976 1.82453 17.0118 1.91384 16.9488 2.05153C16.91 2.13622 16.9021 2.19543 16.8853 2.52746C16.8631 2.96344 16.8321 3.19356 16.752 3.51471C16.427 4.81946 15.545 5.47018 13.9322 5.59543C13.7974 5.60588 13.6374 5.61445 13.5766 5.61445C13.3486 5.61445 13.1335 5.7483 13.0337 5.95231C12.9269 6.17062 12.9767 6.45231 13.1533 6.62892C13.2939 6.76953 13.3797 6.79408 13.7934 6.81208C14.3598 6.83672 14.7201 6.89487 15.1049 7.02372C15.6063 7.19164 16.0144 7.47787 16.2991 7.86139C16.5063 8.14063 16.7029 8.61962 16.7884 9.05384C16.8394 9.31291 16.8846 9.70702 16.8853 9.89932C16.8861 10.1143 16.9154 10.3142 16.9583 10.3979C17.0487 10.5743 17.2517 10.7045 17.4616 10.7208C17.6128 10.7325 17.7611 10.6784 17.8863 10.5658C18.0155 10.4496 18.0612 10.347 18.0834 10.1231C18.1534 9.41955 18.2071 9.11839 18.3303 8.73857C18.4805 8.27545 18.7007 7.89995 18.9926 7.60931C19.2757 7.32745 19.5933 7.13658 20.0008 7.00354C20.3569 6.88727 20.833 6.81158 21.2084 6.81158C21.5538 6.81158 21.7076 6.76132 21.8523 6.60119C21.9593 6.48273 22 6.37537 22 6.21182C22 6.04219 21.9432 5.90385 21.8248 5.78549C21.6919 5.65257 21.6217 5.63214 21.1956 5.60248C19.7498 5.50186 18.9044 5.05533 18.4523 4.15337C18.2267 3.70354 18.1237 3.21837 18.0843 2.42209C18.0669 2.06821 18.0477 2.00805 17.9083 1.86861C17.7911 1.75141 17.6648 1.70043 17.491 1.7002ZM16.9577 10.0395C16.9577 10.0395 16.9579 10.0384 16.9582 10.0365ZM17.5278 7.73504C17.4324 7.53613 17.3237 7.34965 17.2046 7.18921C16.8912 6.76699 16.4892 6.43493 16.0301 6.19494C16.1918 6.11016 16.3469 6.01385 16.4946 5.90485C16.925 5.58732 17.2505 5.19341 17.4878 4.74326C17.8156 5.35853 18.2916 5.84128 18.9246 6.17562C18.9479 6.18795 18.9714 6.20003 18.995 6.21188C18.7052 6.37003 18.4413 6.56676 18.1969 6.81016C17.9236 7.08225 17.7028 7.39369 17.5278 7.73504Z" fill="#999999"/>
</svg>
