<svg width="24" height="24" viewBox="0 0 24 24" fill="none" xmlns="http://www.w3.org/2000/svg">
<path fill-rule="evenodd" clip-rule="evenodd" d="M16.5555 6.3148C14.161 3.52113 9.83902 3.52113 7.44444 6.3148L7.2037 6.59566C6.42695 7.50188 5.99998 8.65606 5.99998 9.84962V14C5.99998 14.6491 5.78945 15.2807 5.39998 15.8L4.19998 17.4C3.70556 18.0592 4.17594 19 4.99998 19H19C19.824 19 20.2944 18.0592 19.8 17.4L18.6 15.8C18.2105 15.2807 18 14.6491 18 14V9.84962C18 8.65606 17.573 7.50188 16.7963 6.59566L16.5555 6.3148ZM17 17C16.3509 16.1345 16 15.0819 16 14V9.84962C16 9.13349 15.7438 8.44098 15.2778 7.89725L15.037 7.61638C13.4406 5.75393 10.5593 5.75393 8.96296 7.61638L8.72222 7.89725C8.25616 8.44097 7.99998 9.13349 7.99998 9.84962V14C7.99998 15.0819 7.64909 16.1345 6.99998 17H17Z" fill="#666666"/>
<path fill-rule="evenodd" clip-rule="evenodd" d="M12 2C12.5523 2 13 2.44772 13 3V5C13 5.55228 12.5523 6 12 6C11.4477 6 11 5.55228 11 5V3C11 2.44772 11.4477 2 12 2Z" fill="#666666"/>
<path fill-rule="evenodd" clip-rule="evenodd" d="M8.39998 18.2C8.84181 17.8686 9.46861 17.9582 9.79998 18.4L10.4 19.2C11.2 20.2667 12.8 20.2667 13.6 19.2L14.2 18.4C14.5314 17.9582 15.1582 17.8686 15.6 18.2C16.0418 18.5314 16.1314 19.1582 15.8 19.6L15.2 20.4C13.6 22.5333 10.4 22.5333 8.79998 20.4L8.19998 19.6C7.86861 19.1582 7.95816 18.5314 8.39998 18.2Z" fill="#666666"/>
</svg>
