<svg width="20" height="20" viewBox="0 0 20 20" fill="none" xmlns="http://www.w3.org/2000/svg">
<rect x="2" y="16.2145" width="15.9966" height="0.695505" rx="0.347753" fill="#666666" stroke="#666666" stroke-width="0.5"/>
<path d="M12.9061 13.3537C12.8407 13.37 12.7728 13.3702 12.7087 13.3542C12.6446 13.3381 12.5866 13.3065 12.54 13.2621C12.4729 13.1934 12.4379 13.1008 12.4428 13.0045C12.4476 12.9083 12.4918 12.8162 12.5658 12.7485L15.3948 10.1531C15.4309 10.1165 15.474 10.0871 15.5216 10.0667C15.5692 10.0462 15.6202 10.0351 15.6716 10.0341C15.7229 10.0332 15.7735 10.0423 15.8202 10.0609C15.867 10.0795 15.9089 10.1073 15.9434 10.1425C15.9779 10.1777 16.0043 10.2196 16.021 10.2657C16.0377 10.3117 16.0443 10.361 16.0404 10.4104C16.0365 10.4598 16.0222 10.5083 15.9984 10.553C15.9746 10.5977 15.9417 10.6376 15.9019 10.6704L13.0802 13.2639C13.0295 13.3059 12.9699 13.3367 12.9061 13.3537Z" fill="#666666" stroke="#666666" stroke-width="0.5"/>
<path d="M10.6331 13.9139L7.83771 13.3836C7.75533 13.368 7.68344 13.3155 7.63783 13.2378C7.59222 13.1601 7.57663 13.0636 7.59451 12.9693C7.61239 12.8751 7.66225 12.791 7.73314 12.7354C7.80403 12.6798 7.89014 12.6573 7.97251 12.6729L10.7679 13.2032C10.8503 13.2188 10.9222 13.2713 10.9678 13.349C11.0134 13.4266 11.029 13.5232 11.0111 13.6174C10.9932 13.7117 10.9434 13.7958 10.8725 13.8514C10.8016 13.907 10.7155 13.9295 10.6331 13.9139Z" fill="#666666" stroke="#666666" stroke-width="0.5"/>
<path d="M2.30839 16.2146C2.25679 16.2138 2.20616 16.1981 2.16091 16.1688C2.11565 16.1395 2.07717 16.0976 2.04884 16.0466C2.00471 15.9652 1.98968 15.8664 2.00705 15.772C2.02443 15.6775 2.07279 15.5949 2.14154 15.5425L5.6702 12.8179C5.70369 12.786 5.74244 12.7627 5.78396 12.7496C5.82549 12.7364 5.86887 12.7336 5.91136 12.7414C5.95384 12.7491 5.99449 12.7674 6.0307 12.7948C6.0669 12.8222 6.09787 12.8583 6.12162 12.9006C6.14537 12.943 6.16137 12.9907 6.16862 13.0408C6.17586 13.0909 6.17417 13.1422 6.16368 13.1915C6.15318 13.2408 6.13411 13.287 6.10766 13.327C6.08122 13.3671 6.04799 13.4002 6.0101 13.4242L2.47525 16.1562C2.42511 16.1931 2.36745 16.2132 2.30839 16.2146V16.2146Z" fill="#666666" stroke="#666666" stroke-width="0.5"/>
<path d="M16.609 10.7621C16.3338 10.7621 16.0649 10.6773 15.8362 10.5183C15.6074 10.3593 15.4291 10.1334 15.3238 9.86905C15.2186 9.60471 15.191 9.31386 15.2447 9.03323C15.2984 8.75261 15.4308 8.49482 15.6254 8.2925C15.8199 8.09019 16.0678 7.9524 16.3376 7.89658C16.6074 7.84076 16.8871 7.86938 17.1413 7.97887C17.3955 8.08837 17.6127 8.27384 17.7656 8.51175C17.9184 8.74965 18 9.02931 18 9.31543C18 9.69911 17.8534 10.0671 17.5926 10.3384C17.3317 10.6097 16.9779 10.7621 16.609 10.7621ZM16.609 8.5921C16.4714 8.5921 16.3369 8.63456 16.2226 8.71404C16.1082 8.79352 16.0191 8.90645 15.9664 9.03862C15.9138 9.17079 15.9 9.31621 15.9268 9.45653C15.9537 9.59684 16.0199 9.72577 16.1172 9.82693C16.2144 9.92809 16.3384 9.99699 16.4733 10.0249C16.6082 10.0528 16.748 10.0385 16.8751 9.98375C17.0022 9.929 17.1108 9.83622 17.1873 9.71727C17.2637 9.59832 17.3045 9.45849 17.3045 9.31543C17.3045 9.12359 17.2312 8.93957 17.1008 8.80392C16.9703 8.66827 16.7934 8.5921 16.609 8.5921Z" fill="#666666" stroke="#666666" stroke-width="0.5"/>
<path d="M11.7404 14.7402C11.4653 14.7402 11.1964 14.6554 10.9676 14.4965C10.7389 14.3375 10.5606 14.1115 10.4553 13.8472C10.35 13.5829 10.3225 13.292 10.3761 13.0114C10.4298 12.7308 10.5623 12.473 10.7568 12.2707C10.9514 12.0683 11.1992 11.9305 11.469 11.8747C11.7389 11.8189 12.0186 11.8475 12.2727 11.957C12.5269 12.0665 12.7442 12.252 12.897 12.4899C13.0499 12.7278 13.1314 13.0075 13.1314 13.2936C13.1314 13.6773 12.9849 14.0452 12.724 14.3165C12.4631 14.5878 12.1093 14.7402 11.7404 14.7402ZM11.7404 12.5702C11.6029 12.5702 11.4684 12.6127 11.354 12.6922C11.2396 12.7717 11.1505 12.8846 11.0979 13.0168C11.0452 13.1489 11.0314 13.2944 11.0583 13.4347C11.0851 13.575 11.1514 13.7039 11.2486 13.8051C11.3459 13.9062 11.4698 13.9751 11.6047 14.003C11.7397 14.031 11.8795 14.0166 12.0066 13.9619C12.1337 13.9072 12.2423 13.8144 12.3187 13.6954C12.3951 13.5765 12.4359 13.4366 12.4359 13.2936C12.4359 13.1017 12.3627 12.9177 12.2322 12.7821C12.1018 12.6464 11.9249 12.5702 11.7404 12.5702Z" fill="#666666" stroke="#666666" stroke-width="0.5"/>
<path d="M6.86854 14.1281C6.59342 14.1281 6.3245 14.0465 6.09575 13.8937C5.867 13.7408 5.6887 13.5236 5.58342 13.2694C5.47814 13.0152 5.4506 12.7356 5.50427 12.4657C5.55794 12.1959 5.69041 11.948 5.88494 11.7535C6.07948 11.559 6.32734 11.4265 6.59717 11.3728C6.867 11.3191 7.14669 11.3467 7.40086 11.4519C7.65504 11.5572 7.87229 11.7356 8.02514 11.9643C8.17798 12.1931 8.25955 12.462 8.25955 12.7371C8.25955 13.106 8.11299 13.4598 7.85213 13.7206C7.59126 13.9815 7.23745 14.1281 6.86854 14.1281ZM6.86854 12.0416C6.73098 12.0416 6.59651 12.0824 6.48213 12.1588C6.36776 12.2352 6.27863 12.3438 6.22599 12.4709C6.17335 12.598 6.15957 12.7378 6.1864 12.8727C6.21324 13.0077 6.27948 13.1316 6.37675 13.2289C6.47402 13.3262 6.59795 13.3924 6.73287 13.4192C6.86778 13.4461 7.00761 13.4323 7.1347 13.3797C7.26179 13.327 7.37041 13.2378 7.44684 13.1235C7.52326 13.0091 7.56404 12.8746 7.56404 12.7371C7.56404 12.5526 7.49078 12.3757 7.36034 12.2452C7.22991 12.1148 7.053 12.0416 6.86854 12.0416Z" fill="#666666" stroke="#666666" stroke-width="0.5"/>
<path d="M3.74316 10.7951C3.69172 10.7943 3.64101 10.7825 3.59429 10.7606C3.54758 10.7386 3.5059 10.7069 3.47193 10.6676C3.44231 10.6314 3.42003 10.5896 3.40643 10.5446C3.39282 10.4997 3.38816 10.4524 3.3927 10.4055C3.39723 10.3587 3.41087 10.3133 3.43283 10.2719C3.45479 10.2305 3.48462 10.1939 3.5206 10.1644L7.0955 7.13143C7.32237 6.93731 7.59416 6.80553 7.88508 6.74848C8.17599 6.69143 8.47639 6.71104 8.75777 6.80549L11.345 7.68418C11.5355 7.74988 11.7406 7.75808 11.9356 7.70779C12.1305 7.65751 12.3071 7.55085 12.4439 7.40071L16.3527 3.14894C16.385 3.11573 16.4235 3.08943 16.4658 3.07144C16.5082 3.05345 16.5537 3.04419 16.5996 3.04419C16.6455 3.04419 16.6909 3.05345 16.7333 3.07144C16.7757 3.08943 16.8141 3.11573 16.8465 3.14894C16.8791 3.18188 16.905 3.22108 16.9226 3.26425C16.9403 3.30743 16.9494 3.35381 16.9494 3.40058C16.9494 3.44735 16.9403 3.49364 16.9226 3.53682C16.905 3.58 16.8791 3.61919 16.8465 3.65213L12.9377 7.93928C12.7112 8.18886 12.4187 8.36645 12.0954 8.45068C11.7721 8.53491 11.4319 8.52222 11.1155 8.41409L8.52824 7.5354C8.35918 7.47738 8.17833 7.46453 8.00298 7.49803C7.82764 7.53152 7.66367 7.61026 7.52671 7.72674L3.95183 10.7667C3.8867 10.7974 3.81393 10.8073 3.74316 10.7951V10.7951Z" fill="#666666" stroke="#666666" stroke-width="0.5"/>
<path d="M16.61 6.54314C16.5178 6.54314 16.4294 6.50578 16.3642 6.43934C16.2989 6.37289 16.2623 6.2828 16.2623 6.18883V3.70863H13.828C13.7358 3.70863 13.6473 3.67127 13.5821 3.60482C13.5169 3.53838 13.4803 3.44828 13.4803 3.35431C13.4803 3.26034 13.5169 3.17025 13.5821 3.1038C13.6473 3.03736 13.7358 3 13.828 3H16.61C16.7023 3 16.7907 3.03736 16.8559 3.1038C16.9212 3.17025 16.9578 3.26034 16.9578 3.35431V6.18883C16.9578 6.2828 16.9212 6.37289 16.8559 6.43934C16.7907 6.50578 16.7023 6.54314 16.61 6.54314Z" fill="#666666" stroke="#666666" stroke-width="0.5"/>
</svg>
