<svg width="24" height="24" viewBox="0 0 24 24" fill="none" xmlns="http://www.w3.org/2000/svg">
<path d="M16.6288 14.7836C16.167 14.7836 15.7854 14.4137 15.7854 13.9539C15.7854 13.494 16.167 13.1341 16.6288 13.1341C17.0907 13.1341 17.4723 13.494 17.4723 13.9539C17.4723 14.4137 17.0907 14.7836 16.6288 14.7836ZM7.39128 14.7836C6.9294 14.7836 6.54785 14.4137 6.54785 13.9539C6.54785 13.494 6.9294 13.1341 7.39128 13.1341C7.85316 13.1341 8.22467 13.494 8.22467 13.9539C8.22467 14.4137 7.85316 14.7836 7.39128 14.7836ZM16.9301 9.77522L18.6069 6.89616C18.6972 6.72622 18.637 6.51628 18.4763 6.42631C18.3056 6.32635 18.0948 6.38633 18.0245 6.55627L16.3075 9.46532C14.9562 8.84975 13.486 8.53585 12 8.54562C10.4638 8.54562 8.98777 8.87551 7.71259 9.45532L6.01569 6.54627C5.99439 6.5058 5.96496 6.4701 5.92925 6.4414C5.89353 6.4127 5.85227 6.39161 5.80803 6.37942C5.76379 6.36724 5.71751 6.36423 5.67206 6.37058C5.6266 6.37692 5.58294 6.39249 5.54377 6.41632C5.37308 6.50629 5.32287 6.71622 5.41324 6.88616L7.08001 9.76522C4.21838 11.3247 2.25038 14.2138 1.9592 17.6326H22.0408C21.7597 14.2238 19.8017 11.3347 16.9301 9.77522Z" fill="#666666"/>
</svg>
