<svg width="24" height="24" viewBox="0 0 24 24" fill="none" xmlns="http://www.w3.org/2000/svg">
<path fill-rule="evenodd" clip-rule="evenodd" d="M12.03 7.25C11.88 5.02 13.69 3.18 15.77 3C16.06 5.58 13.43 7.5 12.03 7.25ZM13.97 20.63C15 21.08 16.07 21.23 17.05 20.28L17.04 20.29C18.27 19.19 19.01 17.7 19.58 16.2C16.72 15.05 15.98 10.94 19.1 9.07C18.35 7.99 17.21 7.39 15.7 7.27C14.8956 7.21254 14.1442 7.47298 13.3989 7.73128C12.9768 7.87759 12.5567 8.02322 12.13 8.11C11.7951 8.08457 11.4333 7.94954 11.0247 7.79706C10.4694 7.58981 9.82775 7.35033 9.04998 7.31C3.50998 7.59 2.78998 15.25 7.66998 20.28C8.52998 21.07 9.28998 21.25 10.73 20.63C11.88 20.15 12.88 20.17 13.97 20.63Z" fill="#666666"/>
</svg>
