<svg width="24" height="24" viewBox="0 0 24 24" fill="none" xmlns="http://www.w3.org/2000/svg">
<path d="M4 18V8C4 5.79086 5.79086 4 8 4H9V6H8C6.89543 6 6 6.89543 6 8V18C6 19.1046 6.89543 20 8 20H16C17.1046 20 18 19.1046 18 18V8C18 6.89543 17.1046 6 16 6H15V4H16C18.2091 4 20 5.79086 20 8V18C20 20.2091 18.2091 22 16 22H8C5.79086 22 4 20.2091 4 18Z" fill="#666666"/>
<path d="M14 6V8H10V6H14ZM14 4H10V8C8.89543 8 8 7.10457 8 6V4C8 2.89543 8.89543 2 10 2H14C15.1046 2 16 2.89543 16 4V6C16 7.10457 15.1046 8 14 8V4Z" fill="#666666"/>
<path d="M8 11C13.5 11 15.5 11 16 11" stroke="#666666" stroke-width="2" stroke-linecap="round"/>
<path d="M8 14C13.5 14 15.5 14 16 14" stroke="#666666" stroke-width="2" stroke-linecap="round"/>
<path d="M8 17C13.5 17 15.5 17 16 17" stroke="#666666" stroke-width="2" stroke-linecap="round"/>
</svg>
