<svg width="24" height="24" viewBox="0 0 24 24" fill="none" xmlns="http://www.w3.org/2000/svg">
<path fill-rule="evenodd" clip-rule="evenodd" d="M17.2972 4.29289C16.9306 3.90237 16.3361 3.90237 15.9694 4.29289C15.6028 4.68342 15.6028 5.31658 15.9694 5.70711L17.1833 7H11.9389C11.4204 7 11 7.44772 11 8C11 8.55228 11.4204 9 11.9389 9H17.1833L15.9694 10.2929C15.6028 10.6834 15.6028 11.3166 15.9694 11.7071C16.3361 12.0976 16.9306 12.0976 17.2972 11.7071L19.45 9.41421C20.1833 8.63316 20.1833 7.36683 19.45 6.58579L17.2972 4.29289Z" fill="#666666"/>
<path fill-rule="evenodd" clip-rule="evenodd" d="M6.67103 12.3183C7.04393 11.9142 7.67064 11.8919 8.07085 12.2684C8.47105 12.6449 8.49319 13.2776 8.1203 13.6817L6.90372 15H12.0096C12.5566 15 13 15.4477 13 16C13 16.5523 12.5566 17 12.0096 17H6.90371L8.1203 18.3183C8.49319 18.7224 8.47105 19.3551 8.07085 19.7316C7.67064 20.1081 7.04393 20.0858 6.67103 19.6817L4.53161 17.3634C3.8228 16.5953 3.8228 15.4047 4.5316 14.6366L6.67103 12.3183Z" fill="#666666"/>
</svg>
