<svg width="24" height="24" viewBox="0 0 24 24" fill="none" xmlns="http://www.w3.org/2000/svg">
<path d="M16.6799 12.8926C17.0595 13.2447 17.1045 13.823 16.7991 14.2275L16.7336 14.3057L13.467 17.8281C12.6756 18.6814 11.3248 18.6813 10.5334 17.8281L7.26684 14.3057C6.89155 13.9007 6.91574 13.2681 7.32055 12.8926C7.7255 12.5173 8.35816 12.5414 8.73363 12.9463L11.0002 15.3906V7C11.0002 6.44772 11.4479 6 12.0002 6C12.5525 6.00001 13.0002 6.44772 13.0002 7V15.3906L15.2668 12.9463L15.3401 12.875C15.7204 12.5398 16.3002 12.5406 16.6799 12.8926Z" fill="#666666"/>
</svg>
