<svg width="24" height="24" viewBox="0 0 24 24" fill="none" xmlns="http://www.w3.org/2000/svg">
<path fill-rule="evenodd" clip-rule="evenodd" d="M11.7071 4.29289C11.3166 4.68342 11.3166 5.31658 11.7071 5.70711L18 12L11.7071 18.2929C11.3166 18.6834 11.3166 19.3166 11.7071 19.7071C12.0976 20.0976 12.7308 20.0976 13.1213 19.7071L19.4142 13.4142C20.1953 12.6332 20.1953 11.3668 19.4142 10.5858L13.1213 4.29289C12.7308 3.90237 12.0976 3.90237 11.7071 4.29289Z" fill="#666666"/>
<path fill-rule="evenodd" clip-rule="evenodd" d="M19.4142 12C19.4142 12.5523 18.9665 13 18.4142 13L5.41421 13C4.86193 13 4.41421 12.5523 4.41421 12C4.41421 11.4477 4.86193 11 5.41421 11L18.4142 11C18.9665 11 19.4142 11.4477 19.4142 12Z" fill="#666666"/>
</svg>
