<svg width="24" height="24" viewBox="0 0 24 24" fill="none" xmlns="http://www.w3.org/2000/svg">
<path fill-rule="evenodd" clip-rule="evenodd" d="M17.7805 3.38765C17.2481 2.87078 16.3849 2.87078 15.8525 3.38765C15.3201 3.90452 15.3201 4.74254 15.8525 5.25941L16.7971 6.17647H11.3633C10.6104 6.17647 10 6.76903 10 7.5C10 8.23097 10.6104 8.82353 11.3633 8.82353H16.7971L15.8525 9.74059C15.3201 10.2575 15.3201 11.0955 15.8525 11.6123C16.3849 12.1292 17.2481 12.1292 17.7805 11.6123L20.2813 9.18458C21.2396 8.25421 21.2396 6.74579 20.2813 5.81542L17.7805 3.38765Z" fill="#666666"/>
<path fill-rule="evenodd" clip-rule="evenodd" d="M6.09247 12.3877C6.60387 11.8708 7.43302 11.8708 7.94442 12.3877C8.45582 12.9045 8.45582 13.7425 7.94442 14.2594L7.03706 15.1765H12.6905C13.4137 15.1765 14 15.769 14 16.5C14 17.231 13.4137 17.8235 12.6905 17.8235H7.03706L7.94442 18.7406C8.45582 19.2575 8.45582 20.0955 7.94442 20.6123C7.43302 21.1292 6.60387 21.1292 6.09247 20.6123L3.69039 18.1846C2.76987 17.2542 2.76987 15.7458 3.69039 14.8154L6.09247 12.3877Z" fill="#666666"/>
</svg>
