<svg width="20" height="20" viewBox="0 0 20 20" fill="none" xmlns="http://www.w3.org/2000/svg">
<path fill-rule="evenodd" clip-rule="evenodd" d="M10.5893 16.4224C10.9148 16.097 10.9148 15.5694 10.5893 15.2439L5.34526 9.99986L10.5893 4.75578C10.9148 4.43034 10.9148 3.90271 10.5893 3.57727C10.2639 3.25183 9.73627 3.25183 9.41083 3.57727L4.16675 8.82135C3.51588 9.47222 3.51588 10.5275 4.16675 11.1784L9.41083 16.4224C9.73627 16.7479 10.2639 16.7479 10.5893 16.4224Z" fill="#4C831B"/>
<path fill-rule="evenodd" clip-rule="evenodd" d="M4.16675 9.99986C4.16675 9.53962 4.53985 9.16652 5.00009 9.16652H15.8334C16.2937 9.16652 16.6668 9.53962 16.6668 9.99986C16.6668 10.4601 16.2937 10.8332 15.8334 10.8332H5.00009C4.53985 10.8332 4.16675 10.4601 4.16675 9.99986Z" fill="#4C831B"/>
</svg>
