<svg width="24" height="24" viewBox="0 0 24 24" fill="none" xmlns="http://www.w3.org/2000/svg">
<path d="M7.32049 11.5755C6.9409 11.2234 6.89595 10.645 7.20135 10.2405L7.26678 10.1624L10.5334 6.63993C11.3248 5.78668 12.6756 5.7867 13.467 6.63993L16.7336 10.1624C17.1089 10.5673 17.0847 11.2 16.6799 11.5755C16.2749 11.9508 15.6422 11.9266 15.2668 11.5218L13.0002 9.07743V17.4681C13.0002 18.0203 12.5525 18.4681 12.0002 18.4681C11.4479 18.468 11.0002 18.0203 11.0002 17.4681V9.07743L8.73357 11.5218L8.66033 11.5931C8.27998 11.9282 7.70025 11.9274 7.32049 11.5755Z" fill="#666666"/>
</svg>
