<svg width="24" height="24" viewBox="0 0 24 24" fill="none" xmlns="http://www.w3.org/2000/svg">
<path d="M18.5077 15.9759C18.8982 16.3664 18.8982 16.9994 18.5077 17.39L16.5644 19.3333C15.7833 20.1143 14.5173 20.1143 13.7362 19.3333L11.7929 17.39C11.4024 16.9995 11.4024 16.3664 11.7929 15.9759C12.1834 15.5856 12.8165 15.5855 13.2069 15.9759L14.1503 16.9193V12.1488C14.1503 11.5965 14.598 11.1488 15.1503 11.1488C15.7025 11.1488 16.1503 11.5965 16.1503 12.1488V16.9193L17.0937 15.9759C17.4842 15.5854 18.1172 15.5854 18.5077 15.9759Z" fill="#666666"/>
<path d="M5.4929 8.0242C5.10238 7.63368 5.10238 7.00066 5.4929 6.61014L7.43626 4.66678C8.21729 3.88586 9.48337 3.88585 10.2644 4.66678L12.2077 6.61014C12.5982 7.00063 12.5982 7.63367 12.2077 8.0242C11.8172 8.41456 11.1842 8.41467 10.7937 8.0242L9.85033 7.08084V11.8513C9.85033 12.4036 9.40261 12.8513 8.85033 12.8513C8.29807 12.8513 7.85033 12.4036 7.85033 11.8513V7.08084L6.90697 8.0242C6.51644 8.41472 5.88343 8.41472 5.4929 8.0242Z" fill="#666666"/>
</svg>
