<svg width="20" height="20" viewBox="0 0 20 20" fill="none" xmlns="http://www.w3.org/2000/svg">
<path d="M18.6168 13.5168C18.7818 13.6809 18.8745 13.9042 18.8746 14.1369C18.8747 14.3696 18.7816 14.5928 18.6168 14.757L14.7408 18.6203C14.5763 18.7841 14.3529 18.8758 14.1207 18.8752C13.8885 18.8744 13.6661 18.7812 13.5026 18.6164L10.3258 15.4142L11.5602 14.175L14.1266 16.7619L16.7594 14.1389L14.1666 11.5607L15.4029 10.3205L18.6168 13.5168Z" fill="#666666"/>
<path d="M10.8561 13.465L9.62072 14.7043L8.39708 13.4709L9.63243 12.2316L10.8561 13.465Z" fill="#666666"/>
<path d="M7.79162 10.3771L6.5465 11.6056L5.32189 10.3723L6.56798 9.14374L7.79162 10.3771Z" fill="#666666"/>
<path d="M14.694 9.61542L13.4576 10.8556L12.2252 9.63006L13.4615 8.39081L14.694 9.61542Z" fill="#666666"/>
<path d="M5.1754 1.38006C5.51656 1.04008 6.06917 1.04053 6.41076 1.38006L9.69884 4.64959L8.45275 5.87909L5.79357 3.23553L3.23497 5.78436L5.86388 8.43377L4.61779 9.66229L1.37853 6.39764C1.03885 6.05517 1.04086 5.50188 1.38244 5.16131L5.1754 1.38006Z" fill="#666666"/>
<path d="M11.6402 6.57928L10.3932 7.80975L9.16173 6.58417L10.4078 5.35467L11.6402 6.57928Z" fill="#666666"/>
<path d="M11.988 15.6L14 13.6444M4.4 8.16886L5.83712 6.79998" stroke="#666666" stroke-width="1.35" stroke-miterlimit="10" stroke-linecap="round" stroke-linejoin="round"/>
<path fill-rule="evenodd" clip-rule="evenodd" d="M3.40211 16.5924H4.92701C5.15715 16.5924 5.37785 16.5007 5.54058 16.3374L16.5979 5.24532L14.8575 3.40754L3.66135 14.4548L2.44439 13.2136L13.6405 2.1664C14.3322 1.48388 15.4474 1.50284 16.1157 2.20849L17.8561 4.04627C18.5043 4.73074 18.4905 5.80875 17.825 6.47633L6.76773 17.5684C6.27954 18.0582 5.61741 18.3333 4.92701 18.3333H2.53439C2.05516 18.3333 1.66667 17.9436 1.66667 17.4628V15.0753C1.66667 14.3753 1.94687 13.7045 2.44439 13.2136L3.66135 14.4548C3.49551 14.6184 3.40211 14.842 3.40211 15.0753V16.5924Z" fill="#666666"/>
<path fill-rule="evenodd" clip-rule="evenodd" d="M12.3335 4.66098C12.6724 4.32104 13.2218 4.32104 13.5606 4.66098L15.2961 6.40189C15.6349 6.74182 15.6349 7.29296 15.2961 7.63289C14.9572 7.97283 14.4078 7.97283 14.0689 7.63289L12.3335 5.89199C11.9946 5.55205 11.9946 5.00091 12.3335 4.66098Z" fill="#666666"/>
</svg>
