<svg width="20" height="20" viewBox="0 0 20 20" fill="none" xmlns="http://www.w3.org/2000/svg">
<g clip-path="url(#clip0_1_3880)">
<path d="M9.99993 2.5C9.78993 2.5 9.62493 2.335 9.62493 2.125V1.375C9.62493 1.165 9.78993 1 9.99993 1C10.2099 1 10.3749 1.165 10.3749 1.375V2.125C10.3749 2.335 10.2099 2.5 9.99993 2.5Z" fill="#666666" stroke="#666666" stroke-width="0.5"/>
<path d="M6.23511 3.45996C6.10011 3.45996 5.97261 3.39246 5.90511 3.26496L5.54511 2.60496C5.44761 2.42496 5.51511 2.19246 5.69511 2.09496C5.87511 1.99746 6.10761 2.06496 6.20511 2.24496L6.56511 2.90496C6.66261 3.08496 6.59511 3.31746 6.41511 3.41496C6.35511 3.44496 6.29511 3.45996 6.23511 3.45996Z" fill="#666666" stroke="#666666" stroke-width="0.5"/>
<path d="M3.38499 6.09988C3.31749 6.09988 3.24249 6.07738 3.18249 6.03988L2.55249 5.63488C2.37999 5.52238 2.32749 5.28988 2.43999 5.11738C2.55249 4.94488 2.78499 4.89238 2.95749 5.00488L3.58749 5.40988C3.75999 5.52238 3.81249 5.75488 3.69999 5.92738C3.62499 6.03988 3.50499 6.09988 3.38499 6.09988Z" fill="#666666" stroke="#666666" stroke-width="0.5"/>
<path d="M13.7651 3.45996C13.7051 3.45996 13.6451 3.44496 13.5851 3.41496C13.4051 3.31746 13.3376 3.08496 13.4351 2.90496L13.7951 2.24496C13.8926 2.06496 14.1251 1.99746 14.3051 2.09496C14.4851 2.19246 14.5526 2.42496 14.4551 2.60496L14.095 3.26496C14.0275 3.39246 13.9001 3.45996 13.7651 3.45996Z" fill="#666666" stroke="#666666" stroke-width="0.5"/>
<path d="M16.6151 6.09988C16.4951 6.09988 16.3751 6.03988 16.3001 5.92738C16.1876 5.75488 16.2401 5.52238 16.4126 5.40988L17.0426 5.00488C17.2151 4.89238 17.4476 4.94488 17.5601 5.11738C17.6726 5.28988 17.6201 5.52238 17.4476 5.63488L16.8176 6.03988C16.7576 6.07738 16.6826 6.09988 16.6151 6.09988Z" fill="#666666" stroke="#666666" stroke-width="0.5"/>
<path d="M9.99993 19.0001C9.78993 19.0001 9.62493 18.8351 9.62493 18.6251V17.8751C9.62493 17.6651 9.78993 17.5001 9.99993 17.5001C10.2099 17.5001 10.3749 17.6651 10.3749 17.8751V18.6251C10.3749 18.8351 10.2099 19.0001 9.99993 19.0001Z" fill="#666666" stroke="#666666" stroke-width="0.5"/>
<path d="M5.87511 17.9496C5.81511 17.9496 5.75511 17.9346 5.69511 17.9046C5.51511 17.8071 5.44761 17.5746 5.54511 17.3946L5.90511 16.7346C6.00261 16.5546 6.23511 16.4871 6.41511 16.5846C6.59511 16.6821 6.66261 16.9146 6.56511 17.0946L6.20511 17.7546C6.13761 17.8821 6.01011 17.9496 5.87511 17.9496Z" fill="#666666" stroke="#666666" stroke-width="0.5"/>
<path d="M2.75499 15.055C2.63499 15.055 2.50749 14.995 2.43999 14.8825C2.32749 14.71 2.37999 14.4775 2.55249 14.365L3.18249 13.96C3.35499 13.8475 3.58749 13.9 3.69999 14.0725C3.81249 14.245 3.75999 14.4775 3.58749 14.59L2.95749 14.995C2.89749 15.0325 2.82249 15.055 2.75499 15.055Z" fill="#666666" stroke="#666666" stroke-width="0.5"/>
<path d="M14.1251 17.9496C13.9901 17.9496 13.8626 17.8821 13.7951 17.7546L13.4351 17.0946C13.3376 16.9146 13.4051 16.6821 13.5851 16.5846C13.7651 16.4871 13.9975 16.5546 14.095 16.7346L14.4551 17.3946C14.5526 17.5746 14.4851 17.8071 14.3051 17.9046C14.2451 17.9346 14.1851 17.9496 14.1251 17.9496Z" fill="#666666" stroke="#666666" stroke-width="0.5"/>
<path d="M17.2451 15.055C17.1776 15.055 17.1026 15.0325 17.0426 14.995L16.4126 14.59C16.2401 14.4775 16.1876 14.245 16.3001 14.0725C16.4126 13.9 16.6451 13.8475 16.8176 13.96L17.4476 14.365C17.6201 14.4775 17.6726 14.71 17.5601 14.8825C17.4851 14.995 17.3651 15.055 17.2451 15.055Z" fill="#666666" stroke="#666666" stroke-width="0.5"/>
<path d="M10 15.625C6.895 15.625 4.375 13.105 4.375 10C4.375 6.895 6.895 4.375 10 4.375C13.105 4.375 15.625 6.895 15.625 10C15.625 13.105 13.105 15.625 10 15.625ZM10 5.125C7.315 5.125 5.125 7.315 5.125 10C5.125 12.685 7.315 14.875 10 14.875C12.685 14.875 14.875 12.685 14.875 10C14.875 7.315 12.685 5.125 10 5.125Z" fill="#666666" stroke="#666666" stroke-width="0.5"/>
<path d="M10 15.625C4.99 15.625 1.225 10.435 1.0675 10.2175C0.9775 10.09 0.9775 9.91 1.0675 9.7825C1.225 9.565 4.99 4.375 10 4.375C15.01 4.375 18.775 9.5575 18.9325 9.7825C19.0225 9.91 19.0225 10.09 18.9325 10.2175C18.775 10.435 15.01 15.625 10 15.625ZM1.8475 10C2.6125 10.975 5.935 14.875 10 14.875C14.065 14.875 17.3875 10.975 18.1525 10C17.3875 9.025 14.065 5.125 10 5.125C5.935 5.125 2.6125 9.025 1.8475 10Z" fill="#666666" stroke="#666666" stroke-width="0.75"/>
<path d="M10 13.375C8.14 13.375 6.625 11.86 6.625 10C6.625 8.14 8.14 6.625 10 6.625C11.86 6.625 13.375 8.14 13.375 10C13.375 11.86 11.86 13.375 10 13.375ZM10 7.375C8.5525 7.375 7.375 8.5525 7.375 10C7.375 11.4475 8.5525 12.625 10 12.625C11.4475 12.625 12.625 11.4475 12.625 10C12.625 8.5525 11.4475 7.375 10 7.375Z" fill="#666666" stroke="#666666" stroke-width="0.5"/>
<path d="M9.99993 8.12488C9.78993 8.12488 9.62493 7.95988 9.62493 7.74988V6.24988C9.62493 6.03988 9.78993 5.87488 9.99993 5.87488C10.2099 5.87488 10.3749 6.03988 10.3749 6.24988V7.74988C10.3749 7.95988 10.2099 8.12488 9.99993 8.12488Z" fill="#666666" stroke="#666666" stroke-width="0.5"/>
<path d="M9.99993 14.1251C9.78993 14.1251 9.62493 13.9601 9.62493 13.7501V12.2501C9.62493 12.0401 9.78993 11.8751 9.99993 11.8751C10.2099 11.8751 10.3749 12.0401 10.3749 12.2501V13.7501C10.3749 13.9601 10.2099 14.1251 9.99993 14.1251Z" fill="#666666" stroke="#666666" stroke-width="0.5"/>
<path d="M7.75007 10.3751H6.25007C6.04007 10.3751 5.87507 10.2101 5.87507 10.0001C5.87507 9.79012 6.04007 9.62512 6.25007 9.62512H7.75007C7.96007 9.62512 8.12507 9.79012 8.12507 10.0001C8.12507 10.2101 7.96007 10.3751 7.75007 10.3751Z" fill="#666666" stroke="#666666" stroke-width="0.5"/>
<path d="M13.7499 10.3751H12.2499C12.0399 10.3751 11.8749 10.2101 11.8749 10.0001C11.8749 9.79012 12.0399 9.62512 12.2499 9.62512H13.7499C13.9599 9.62512 14.1249 9.79012 14.1249 10.0001C14.1249 10.2101 13.9599 10.3751 13.7499 10.3751Z" fill="#666666" stroke="#666666" stroke-width="0.5"/>
<path d="M10 10.5625C9.6925 10.5625 9.4375 10.3075 9.4375 10C9.4375 9.6925 9.6925 9.4375 10 9.4375C10.3075 9.4375 10.5625 9.6925 10.5625 10C10.5625 10.3075 10.3075 10.5625 10 10.5625ZM10 9.8125C9.895 9.8125 9.8125 9.895 9.8125 10C9.8125 10.21 10.1875 10.21 10.1875 10C10.1875 9.895 10.105 9.8125 10 9.8125Z" fill="#666666" stroke="#666666" stroke-width="0.75"/>
</g>
<defs>
<clipPath id="clip0_1_3880">
<rect width="20" height="20" fill="white"/>
</clipPath>
</defs>
</svg>
