<svg width="20" height="20" viewBox="0 0 20 20" fill="none" xmlns="http://www.w3.org/2000/svg">
<g clip-path="url(#clip0_1_3906)">
<path d="M13.75 5.00004V14.5834C13.75 16.425 12.2583 17.9167 10.4167 17.9167C8.575 17.9167 7.08333 16.425 7.08333 14.5834V4.16671C7.08333 3.01671 8.01667 2.08337 9.16667 2.08337C10.3167 2.08337 11.25 3.01671 11.25 4.16671V12.9167C11.25 13.375 10.875 13.75 10.4167 13.75C9.95833 13.75 9.58333 13.375 9.58333 12.9167V5.00004H8.33333V12.9167C8.33333 14.0667 9.26667 15 10.4167 15C11.5667 15 12.5 14.0667 12.5 12.9167V4.16671C12.5 2.32504 11.0083 0.833374 9.16667 0.833374C7.325 0.833374 5.83333 2.32504 5.83333 4.16671V14.5834C5.83333 17.1167 7.88333 19.1667 10.4167 19.1667C12.95 19.1667 15 17.1167 15 14.5834V5.00004H13.75Z" fill="#666666"/>
</g>
<defs>
<clipPath id="clip0_1_3906">
<rect width="20" height="20" fill="white"/>
</clipPath>
</defs>
</svg>
