<svg width="24" height="24" viewBox="0 0 24 24" fill="none" xmlns="http://www.w3.org/2000/svg">
<path fill-rule="evenodd" clip-rule="evenodd" d="M12.7071 19.7071C13.0976 19.3166 13.0976 18.6834 12.7071 18.2929L6.41418 12L12.7071 5.70711C13.0976 5.31658 13.0976 4.68342 12.7071 4.29289C12.3166 3.90237 11.6834 3.90237 11.2929 4.29289L4.99997 10.5858C4.21892 11.3668 4.21892 12.6332 4.99997 13.4142L11.2929 19.7071C11.6834 20.0976 12.3166 20.0976 12.7071 19.7071Z" fill="#666666"/>
<path fill-rule="evenodd" clip-rule="evenodd" d="M4.99997 12C4.99997 11.4477 5.44769 11 5.99997 11H19C19.5523 11 20 11.4477 20 12C20 12.5523 19.5523 13 19 13H5.99997C5.44769 13 4.99997 12.5523 4.99997 12Z" fill="#666666"/>
</svg>
