<svg width="24" height="24" viewBox="0 0 24 24" fill="none" xmlns="http://www.w3.org/2000/svg">
<path fill-rule="evenodd" clip-rule="evenodd" d="M8 3C6.89543 3 6 3.89543 6 5V9.27273C6 9.82501 5.55228 10.2727 5 10.2727C4.44772 10.2727 4 9.82501 4 9.27273V5C4 2.79086 5.79086 1 8 1H16C18.2091 1 20 2.79086 20 5V19C20 21.2091 18.2091 23 16 23H12.75C12.1977 23 11.75 22.5523 11.75 22C11.75 21.4477 12.1977 21 12.75 21H16C17.1046 21 18 20.1046 18 19V5C18 3.89543 17.1046 3 16 3H8Z" fill="#666666"/>
<path fill-rule="evenodd" clip-rule="evenodd" d="M7 22C9.76142 22 12 19.7614 12 17C12 14.2386 9.76142 12 7 12C4.23858 12 2 14.2386 2 17C2 19.7614 4.23858 22 7 22ZM7.59615 14C7.59615 13.5858 7.26037 13.25 6.84615 13.25C6.43194 13.25 6.09615 13.5858 6.09615 14V14.2543C5.19342 14.3124 4.25 14.9479 4.25 16C4.25 17.1045 5.28985 17.75 6.23077 17.75H7.76923C7.94776 17.75 8.08577 17.8093 8.16657 17.875C8.24587 17.9394 8.25 17.9878 8.25 18C8.25 18.0122 8.24587 18.0606 8.16657 18.125C8.08577 18.1907 7.94776 18.25 7.76923 18.25H6.38009C6.04478 18.25 5.74685 18.1405 5.5476 17.9786L5.47295 17.9179C5.15147 17.6567 4.67912 17.7056 4.41792 18.0271C4.15671 18.3485 4.20558 18.8209 4.52705 19.0821L4.60171 19.1427C5.02226 19.4844 5.55043 19.6849 6.09615 19.7366V20C6.09615 20.4142 6.43194 20.75 6.84615 20.75C7.26037 20.75 7.59615 20.4142 7.59615 20V19.75H7.76923C8.71015 19.75 9.75 19.1045 9.75 18C9.75 16.8955 8.71015 16.25 7.76923 16.25H6.23077C6.05224 16.25 5.91423 16.1907 5.83343 16.125C5.75413 16.0606 5.75 16.0122 5.75 16C5.75 15.9878 5.75413 15.9394 5.83343 15.875C5.91423 15.8093 6.05224 15.75 6.23077 15.75H7.61991C7.95522 15.75 8.25315 15.8595 8.4524 16.0214L8.52705 16.0821C8.84853 16.3433 9.32088 16.2944 9.58209 15.9729C9.84329 15.6515 9.79442 15.1791 9.47295 14.9179L9.39829 14.8573C8.90509 14.4565 8.26386 14.25 7.61991 14.25H7.59615V14Z" fill="#666666"/>
<path fill-rule="evenodd" clip-rule="evenodd" d="M13 15C13 14.4477 13.4477 14 14 14H15C15.5523 14 16 14.4477 16 15C16 15.5523 15.5523 16 15 16H14C13.4477 16 13 15.5523 13 15Z" fill="#666666"/>
<path fill-rule="evenodd" clip-rule="evenodd" d="M10 11C10 10.4477 10.4477 10 11 10H15C15.5523 10 16 10.4477 16 11C16 11.5523 15.5523 12 15 12H11C10.4477 12 10 11.5523 10 11Z" fill="#666666"/>
<path fill-rule="evenodd" clip-rule="evenodd" d="M8 6C8 5.44772 8.44772 5 9 5H15C15.5523 5 16 5.44772 16 6C16 6.55228 15.5523 7 15 7H9C8.44772 7 8 6.55228 8 6Z" fill="#666666"/>
</svg>
