<svg width="24" height="24" viewBox="0 0 24 24" fill="none" xmlns="http://www.w3.org/2000/svg">
<path d="M11 18.3692V16.7407C10.6392 16.1097 10.4432 15.3957 10.4432 14.66C10.4432 14.38 10.2232 14.16 9.94316 14.16C9.66316 14.16 9.44316 14.38 9.44316 14.66C9.44316 16.0504 10.0114 17.3769 11 18.3692Z" fill="#666666"/>
<path d="M9.97316 12.71C10.3468 12.71 10.6972 12.8018 11 12.9625V11.8879C10.6788 11.7792 10.3331 11.72 9.97316 11.72C8.27316 11.72 6.89316 13.04 6.89316 14.66C6.89316 16.64 7.66316 18.49 9.06316 19.88C9.68758 20.493 10.2956 20.9484 11 21.3084V20.1568C10.567 19.886 10.1687 19.5613 9.76316 19.16C8.55316 17.96 7.89316 16.36 7.89316 14.65C7.89316 13.58 8.82316 12.71 9.97316 12.71Z" fill="#666666"/>
<path d="M11 5.48515V4.48127C8.88168 4.30392 6.70734 4.69823 4.84316 5.66C3.34316 6.43 2.08316 7.53 1.09316 8.93C0.933159 9.16 0.983159 9.47 1.21316 9.63C1.30316 9.69 1.40316 9.72 1.50316 9.72C1.66316 9.72 1.81316 9.65 1.89316 9.51C2.79316 8.25 3.93316 7.25 5.29316 6.55C7.01848 5.65718 9.03858 5.30296 11 5.48515Z" fill="#666666"/>
<path d="M11 2.03532V3.03697C10.6786 3.01208 10.3506 3 10.0132 3C8.03316 3 6.15316 3.47 4.44316 4.41C4.20316 4.54 3.90316 4.45 3.76316 4.21C3.63316 3.97 3.72316 3.66 3.96316 3.53C5.82316 2.52 7.86316 2 10.0132 2C10.3482 2 10.6766 2.01163 11 2.03532Z" fill="#666666"/>
<path d="M11 7.89948V6.88146C10.6603 6.8409 10.3143 6.82 9.96316 6.82C6.73316 6.82 3.78316 8.63 2.45316 11.42C2.00316 12.37 1.77316 13.46 1.77316 14.66C1.77316 16.01 2.01316 17.31 2.50316 18.62C2.59316 18.87 2.88316 19.01 3.14316 18.91C3.40316 18.82 3.53316 18.53 3.43316 18.27C2.83316 16.67 2.76316 15.44 2.76316 14.66C2.76316 13.62 2.96316 12.67 3.35316 11.86C4.52316 9.41 7.12316 7.83 9.96316 7.83C10.3151 7.83 10.6613 7.85369 11 7.89948Z" fill="#666666"/>
<path d="M10.0032 9.27C10.3432 9.27 10.6763 9.29874 11 9.3538V10.3711C10.6788 10.3049 10.3452 10.27 10.0032 10.27C7.43316 10.27 5.34316 12.24 5.34316 14.66C5.34316 16.1 5.66316 17.43 6.27316 18.51C6.91316 19.66 7.35316 20.15 8.12316 20.93C8.31316 21.13 8.31316 21.44 8.12316 21.64C8.01316 21.74 7.88316 21.79 7.75316 21.79C7.62316 21.79 7.49316 21.74 7.40316 21.64C6.53316 20.77 6.06316 20.21 5.39316 19C4.70316 17.77 4.34316 16.27 4.34316 14.66C4.34316 11.69 6.88316 9.27 10.0032 9.27Z" fill="#666666"/>
<path fill-rule="evenodd" clip-rule="evenodd" d="M12.9983 21.95C12.4488 22.0052 12 21.5523 12 21V19.0002C12.0647 19.0001 12.1303 18.9937 12.1961 18.9806L12.9147 18.8369C14.2699 18.5658 15.5145 17.8997 16.4917 16.9225L16.7071 16.7071C17.0976 16.3166 17.0976 15.6834 16.7071 15.2929C16.3166 14.9024 15.6834 14.9024 15.2929 15.2929L15.0775 15.5083C14.3795 16.2063 13.4905 16.6821 12.5225 16.8757L12 16.9802V3.00001C12 2.44772 12.4488 1.99483 12.9983 2.04997C13.9691 2.14737 14.9222 2.38649 15.8268 2.76121C17.0401 3.26376 18.1425 4.00035 19.0711 4.92894C19.9997 5.85752 20.7362 6.95992 21.2388 8.17317C21.7413 9.38643 22 10.6868 22 12C22 13.3132 21.7413 14.6136 21.2388 15.8268C20.7362 17.0401 19.9997 18.1425 19.0711 19.0711C18.1425 19.9997 17.0401 20.7363 15.8268 21.2388C14.9222 21.6135 13.9691 21.8526 12.9983 21.95ZM17 8.00001C17 7.44772 16.5523 7.00001 16 7.00001C15.4477 7.00001 15 7.44772 15 8.00001V9.00001C15 9.55229 15.4477 10 16 10C16.5523 10 17 9.55229 17 9.00001V8.00001Z" fill="#666666"/>
</svg>
