<svg width="24" height="24" viewBox="0 0 24 24" fill="none" xmlns="http://www.w3.org/2000/svg">
<path d="M8.94629 1.32749C9.62544 1.0728 10.3746 1.0728 11.0537 1.32749L17.2012 3.63315C18.2829 4.03885 18.9998 5.07262 19 6.22788C18.9998 7.75862 17.7583 9.00034 16.2275 9.00034H16V9.59799C15.2002 10.007 14.5136 10.6057 14 11.3353V9.00034H11V13.0003H13.208C13.1224 13.3034 13.0608 13.617 13.0283 13.9388L11.9668 15.0003H5C3.89543 15.0003 3 15.8958 3 17.0003H9.9668L7.9668 19.0003H3C1.89557 19.0003 1.00023 18.1047 1 17.0003C1 15.1365 2.27482 13.5704 4 13.1263V9.00034H3.77246C2.24167 9.00034 1.00023 7.75862 1 6.22788C1.00019 5.07262 1.71713 4.03885 2.79883 3.63315L8.94629 1.32749ZM6 13.0003H9V9.00034H6V13.0003ZM10.3516 3.19956C10.1252 3.11466 9.87482 3.11466 9.64844 3.19956L3.50098 5.50522C3.19988 5.6182 3.00019 5.90631 3 6.22788C3.00023 6.65405 3.34624 7.00034 3.77246 7.00034H16.2275C16.6538 7.00034 16.9998 6.65405 17 6.22788C16.9998 5.90631 16.8001 5.6182 16.499 5.50522L10.3516 3.19956Z" fill="#666666"/>
<path d="M14.6161 14.2018C14.909 13.9089 15.3839 13.9089 15.6768 14.2018C15.9697 14.4947 15.9697 14.9696 15.6768 15.2625L11.845 19.0943C11.7914 19.1479 11.7649 19.2233 11.7732 19.2987L11.9141 20.572C11.927 20.688 12.019 20.78 12.135 20.793L13.4008 20.9332C13.4773 20.9416 13.5535 20.9144 13.6072 20.8593L13.8627 20.5983C13.8848 20.5757 13.9017 20.5487 13.9138 20.5195L14.3378 19.5058C14.5268 19.0532 14.8971 18.7001 15.3584 18.5336L16.0041 18.3008C16.0671 18.2781 16.119 18.2312 16.147 18.1703L16.638 17.0966C16.8105 16.72 17.2565 16.5546 17.6331 16.7271C18.0095 16.8997 18.1743 17.345 18.0018 17.7215L17.5101 18.7946C17.3144 19.2216 16.9556 19.5528 16.5137 19.7123L15.868 19.945C15.8022 19.9688 15.7494 20.0192 15.7223 20.0838L15.2984 21.0975C15.2132 21.3015 15.0895 21.4876 14.9351 21.6458L14.6803 21.9075C14.3038 22.293 13.7706 22.4842 13.235 22.4247L11.9693 22.2832C11.1561 22.1926 10.5144 21.5509 10.4239 20.7377L10.2823 19.4651C10.2236 18.9367 10.4084 18.4095 10.7843 18.0336L14.6161 14.2018Z" fill="#666666"/>
<path d="M19.0356 13.6715C19.4262 14.062 19.4262 14.6952 19.0356 15.0857C18.6451 15.4762 18.0119 15.4762 17.6214 15.0857C17.2309 14.6952 17.2309 14.062 17.6214 13.6715C18.0119 13.281 18.6451 13.281 19.0356 13.6715Z" fill="#666666"/>
<path d="M17.7699 18.3394C18.6 18.4565 19.4459 18.3098 20.1881 17.9201C20.9303 17.5303 21.5313 16.9173 21.9062 16.1675C22.2811 15.4177 22.4109 14.5691 22.2774 13.7415C22.1439 12.9139 21.7537 12.1492 21.1621 11.5553C20.5704 10.9615 19.8071 10.5686 18.98 10.432C18.1529 10.2955 17.3038 10.4222 16.5527 10.7944C15.8015 11.1666 15.1863 11.7653 14.7938 12.5061C14.4014 13.2469 14.2516 14.0922 14.3657 14.9227L15.839 14.7204C15.7673 14.1987 15.8614 13.6676 16.108 13.2023C16.3545 12.7369 16.741 12.3608 17.2129 12.127C17.6848 11.8932 18.2182 11.8135 18.7378 11.8993C19.2574 11.9851 19.7369 12.2319 20.1086 12.605C20.4803 12.9781 20.7254 13.4585 20.8093 13.9784C20.8931 14.4983 20.8116 15.0314 20.576 15.5024C20.3405 15.9734 19.963 16.3586 19.4967 16.6034C19.0305 16.8482 18.4991 16.9404 17.9776 16.8668L17.7699 18.3394Z" fill="#666666"/>
</svg>
