<svg width="24" height="24" viewBox="0 0 24 24" fill="none" xmlns="http://www.w3.org/2000/svg">
<path fill-rule="evenodd" clip-rule="evenodd" d="M20 7.99999V7.35405L12 4.15405L4 7.35405L4 7.99999H20ZM22 7.99999V7.35405C22 6.53624 21.5021 5.80083 20.7428 5.4971L12.7428 2.2971C12.266 2.10637 11.734 2.10637 11.2572 2.2971L3.25722 5.4971C2.4979 5.80083 2 6.53624 2 7.35405V7.99999C2 9.10456 2.89543 9.99999 4 9.99999H20C21.1046 9.99999 22 9.10456 22 7.99999Z" fill="#666666"/>
<path fill-rule="evenodd" clip-rule="evenodd" d="M12 7.99999C12.5523 7.99999 13 8.4477 13 8.99999V17C13 17.5523 12.5523 18 12 18C11.4477 18 11 17.5523 11 17V8.99999C11 8.4477 11.4477 7.99999 12 7.99999Z" fill="#666666"/>
<path fill-rule="evenodd" clip-rule="evenodd" d="M18 7.99999C18.5523 7.99999 19 8.4477 19 8.99999V17C19 17.5523 18.5523 18 18 18C17.4477 18 17 17.5523 17 17V8.99999C17 8.4477 17.4477 7.99999 18 7.99999Z" fill="#666666"/>
<path fill-rule="evenodd" clip-rule="evenodd" d="M6 7.99999C6.55228 7.99999 7 8.4477 7 8.99999V17C7 17.5523 6.55228 18 6 18C5.44772 18 5 17.5523 5 17V8.99999C5 8.4477 5.44772 7.99999 6 7.99999Z" fill="#666666"/>
<path fill-rule="evenodd" clip-rule="evenodd" d="M20 20V19C20 18.4477 19.5523 18 19 18H5C4.44772 18 4 18.4477 4 19V20H20ZM22 21V19C22 17.3431 20.6569 16 19 16H5C3.34315 16 2 17.3431 2 19V21C2 21.5523 2.44772 22 3 22H21C21.5523 22 22 21.5523 22 21Z" fill="#666666"/>
</svg>
