<svg width="24" height="24" viewBox="0 0 24 24" fill="none" xmlns="http://www.w3.org/2000/svg">
<path fill-rule="evenodd" clip-rule="evenodd" d="M6 8C6.55228 8 7 8.44772 7 9V17C7 17.5523 6.55228 18 6 18C5.44772 18 5 17.5523 5 17V9C5 8.44772 5.44772 8 6 8Z" fill="#666666"/>
<path fill-rule="evenodd" clip-rule="evenodd" d="M2.29289 2.29289C2.68342 1.90237 3.31658 1.90237 3.70711 2.29289L21.7071 20.2929C22.0976 20.6834 22.0976 21.3166 21.7071 21.7071C21.3166 22.0976 20.6834 22.0976 20.2929 21.7071L2.29289 3.70711C1.90237 3.31658 1.90237 2.68342 2.29289 2.29289Z" fill="#666666"/>
<path fill-rule="evenodd" clip-rule="evenodd" d="M20 7.35407V8H11.4142L13.4142 10H20C21.1046 10 22 9.10457 22 8V7.35407C22 6.53626 21.5021 5.80084 20.7428 5.49711L12.7428 2.29711C12.266 2.10638 11.734 2.10638 11.2572 2.29711L7.29587 3.88165L8.83449 5.42027L12 4.15407L20 7.35407ZM8.58579 8H4L4 7.35407L6.81418 6.22839L5.29289 4.70711C5.28713 4.70134 5.28145 4.69553 5.27586 4.68966L3.25722 5.49711C2.4979 5.80084 2 6.53626 2 7.35407V8C2 9.10457 2.89543 10 4 10H10.5858L8.58579 8Z" fill="#666666"/>
<path fill-rule="evenodd" clip-rule="evenodd" d="M11 10.4142V17C11 17.5523 11.4477 18 12 18C12.5523 18 13 17.5523 13 17V12.4142L11 10.4142ZM13 9.58579V9C13 8.44772 12.5523 8 12 8C11.8305 8 11.6708 8.04219 11.5309 8.11665L13 9.58579Z" fill="#666666"/>
<path fill-rule="evenodd" clip-rule="evenodd" d="M17 16.4142V17C17 17.5523 17.4477 18 18 18C18.1695 18 18.3292 17.9578 18.4691 17.8834L17 16.4142ZM19 15.5858V9C19 8.44772 18.5523 8 18 8C17.4477 8 17 8.44772 17 9V13.5858L19 15.5858Z" fill="#666666"/>
<path fill-rule="evenodd" clip-rule="evenodd" d="M16.5858 16H5C3.34315 16 2 17.3431 2 19V21C2 21.5523 2.44772 22 3 22H21C21.5523 22 22 21.5523 22 21C21.7441 21 21.4882 20.9024 21.2929 20.7071L20 19.4142V20H4V19C4 18.4477 4.44772 18 5 18H18.5858L16.5858 16ZM21.9669 18.5527C21.7727 17.2539 20.7461 16.2273 19.4473 16.0331L21.9669 18.5527Z" fill="#666666"/>
</svg>
