<svg width="24" height="24" viewBox="0 0 24 24" fill="none" xmlns="http://www.w3.org/2000/svg">
<path fill-rule="evenodd" clip-rule="evenodd" d="M4 9L4 19H20V9H4ZM2 9V19C2 20.1046 2.89543 21 4 21H20C21.1046 21 22 20.1046 22 19V9C22 7.89543 21.1046 7 20 7H4C2.89543 7 2 7.89543 2 9Z" fill="#666666"/>
<path fill-rule="evenodd" clip-rule="evenodd" d="M11 11C10.4477 11 10 11.4477 10 12C10 12.5523 10.4477 13 11 13H13C13.5523 13 14 12.5523 14 12C14 11.4477 13.5523 11 13 11H11ZM11 15C10.4477 15 10 15.4477 10 16C10 16.5523 10.4477 17 11 17H13C13.5523 17 14 16.5523 14 16C14 15.4477 13.5523 15 13 15H11ZM16 12C16 11.4477 16.4477 11 17 11C17.5523 11 18 11.4477 18 12C18 12.5523 17.5523 13 17 13C16.4477 13 16 12.5523 16 12ZM17 15C16.4477 15 16 15.4477 16 16C16 16.5523 16.4477 17 17 17C17.5523 17 18 16.5523 18 16C18 15.4477 17.5523 15 17 15Z" fill="#666666"/>
<path fill-rule="evenodd" clip-rule="evenodd" d="M2 5V19C2 20.1046 2.89543 21 4 21H10C11.1046 21 12 20.1046 12 19V5C12 3.89543 11.1046 3 10 3H4C2.89543 3 2 3.89543 2 5ZM8 6C8 5.44772 8.44772 5 9 5C9.55228 5 10 5.44772 10 6C10 6.55228 9.55228 7 9 7C8.44772 7 8 6.55228 8 6ZM8 10C8 9.44772 8.44772 9 9 9C9.55228 9 10 9.44772 10 10C10 10.5523 9.55228 11 9 11C8.44772 11 8 10.5523 8 10ZM5 13C4.44772 13 4 13.4477 4 14C4 14.5523 4.44772 15 5 15C5.55228 15 6 14.5523 6 14C6 13.4477 5.55228 13 5 13ZM8 14C8 13.4477 8.44772 13 9 13C9.55228 13 10 13.4477 10 14C10 14.5523 9.55228 15 9 15C8.44772 15 8 14.5523 8 14ZM8 18C8 17.4477 8.44772 17 9 17C9.55228 17 10 17.4477 10 18C10 18.5523 9.55228 19 9 19C8.44772 19 8 18.5523 8 18ZM5 9C4.44772 9 4 9.44772 4 10C4 10.5523 4.44772 11 5 11C5.55228 11 6 10.5523 6 10C6 9.44772 5.55228 9 5 9ZM5 5C4.44772 5 4 5.44772 4 6C4 6.55228 4.44772 7 5 7C5.55228 7 6 6.55228 6 6C6 5.44772 5.55228 5 5 5ZM4 18C4 17.4477 4.44772 17 5 17C5.55228 17 6 17.4477 6 18C6 18.5523 5.55228 19 5 19C4.44772 19 4 18.5523 4 18Z" fill="#666666"/>
<path fill-rule="evenodd" clip-rule="evenodd" d="M2 19C2 20.1046 2.89543 21 4 21H10C11.1046 21 12 20.1046 12 19V5C12 3.89543 11.1046 3 10 3H4C2.89543 3 2 3.89543 2 5V19ZM4 14C4 14.5523 4.44772 15 5 15C5.55228 15 6 14.5523 6 14C6 13.4477 5.55228 13 5 13C4.44772 13 4 13.4477 4 14ZM4 10C4 10.5523 4.44772 11 5 11C5.55228 11 6 10.5523 6 10C6 9.44772 5.55228 9 5 9C4.44772 9 4 9.44772 4 10ZM9 19C9.55228 19 10 18.5523 10 18C10 17.4477 9.55228 17 9 17C8.44772 17 8 17.4477 8 18C8 18.5523 8.44772 19 9 19ZM5 19C5.55228 19 6 18.5523 6 18C6 17.4477 5.55228 17 5 17C4.44772 17 4 17.4477 4 18C4 18.5523 4.44772 19 5 19ZM9 7C9.55228 7 10 6.55228 10 6C10 5.44772 9.55228 5 9 5C8.44772 5 8 5.44772 8 6C8 6.55228 8.44772 7 9 7ZM9 11C9.55228 11 10 10.5523 10 10C10 9.44772 9.55228 9 9 9C8.44772 9 8 9.44772 8 10C8 10.5523 8.44772 11 9 11ZM9 15C9.55228 15 10 14.5523 10 14C10 13.4477 9.55228 13 9 13C8.44772 13 8 13.4477 8 14C8 14.5523 8.44772 15 9 15ZM5 7C5.55228 7 6 6.55228 6 6C6 5.44772 5.55228 5 5 5C4.44772 5 4 5.44772 4 6C4 6.55228 4.44772 7 5 7Z" fill="#666666"/>
</svg>
