<svg width="24" height="24" viewBox="0 0 24 24" fill="none" xmlns="http://www.w3.org/2000/svg">
<path fill-rule="evenodd" clip-rule="evenodd" d="M19 21C20.6569 21 22 19.6569 22 18V8C22 6.34315 20.6569 5 19 5H17.4142C17.149 5 16.8946 4.89464 16.7071 4.70711L15.5858 3.58579C15.2107 3.21071 14.702 3 14.1716 3H9.82843C9.29799 3 8.78929 3.21071 8.41421 3.58579L7.29289 4.70711C7.10536 4.89464 6.851 5 6.58579 5H5C3.34315 5 2 6.34315 2 8V18C2 19.6569 3.34315 21 5 21H19ZM14 13C14 14.1046 13.1046 15 12 15C10.8954 15 10 14.1046 10 13C10 11.8954 10.8954 11 12 11C13.1046 11 14 11.8954 14 13ZM16 13C16 15.2091 14.2091 17 12 17C9.79086 17 8 15.2091 8 13C8 10.7909 9.79086 9 12 9C14.2091 9 16 10.7909 16 13Z" fill="#666666"/>
</svg>
