<svg width="24" height="24" viewBox="0 0 24 24" fill="none" xmlns="http://www.w3.org/2000/svg">
<path fill-rule="evenodd" clip-rule="evenodd" d="M19 7C19.5523 7 20 7.44772 20 8V18C20 18.5523 19.5523 19 19 19H5C4.44772 19 4 18.5523 4 18V8C4 7.44772 4.44772 7 5 7H6.58579C7.38143 7 8.1445 6.68393 8.70711 6.12132L9.82843 5L14.1716 5L15.2929 6.12132C15.8555 6.68393 16.6186 7 17.4142 7H19ZM22 8V18C22 19.6569 20.6569 21 19 21H5C3.34315 21 2 19.6569 2 18V8C2 6.34315 3.34315 5 5 5H6.58579C6.851 5 7.10536 4.89464 7.29289 4.70711L8.41421 3.58579C8.78929 3.21071 9.29799 3 9.82843 3H14.1716C14.702 3 15.2107 3.21071 15.5858 3.58579L16.7071 4.70711C16.8946 4.89464 17.149 5 17.4142 5H19C20.6569 5 22 6.34315 22 8ZM14 13C14 14.1046 13.1046 15 12 15C10.8954 15 10 14.1046 10 13C10 11.8954 10.8954 11 12 11C13.1046 11 14 11.8954 14 13ZM16 13C16 15.2091 14.2091 17 12 17C9.79086 17 8 15.2091 8 13C8 10.7909 9.79086 9 12 9C14.2091 9 16 10.7909 16 13Z" fill="#666666"/>
</svg>
