<svg width="20" height="20" viewBox="0 0 20 20" fill="none" xmlns="http://www.w3.org/2000/svg">
<path d="M13.0177 18.004H6.98055C6.89488 18.004 6.80921 17.964 6.7578 17.8954C6.7064 17.8268 6.68355 17.7354 6.7064 17.6497C7.08907 16.1413 8.44272 15.0843 10.002 15.0843C11.5613 15.0843 12.9149 16.1356 13.2976 17.6497C13.3204 17.7354 13.2976 17.8268 13.2462 17.8954C13.1948 17.964 13.1091 18.004 13.0234 18.004H13.0177ZM7.37465 17.4326H12.6293C12.201 16.3699 11.1729 15.6557 10.002 15.6557C8.83111 15.6557 7.80302 16.3699 7.37465 17.4326ZM17.7184 15.9928H13.6917C13.5318 15.9928 13.4061 15.8671 13.4061 15.7071C13.4061 15.5471 13.5318 15.4214 13.6917 15.4214H17.3243C17.0044 14.6215 16.3304 14.0044 15.4908 13.7644C14.5313 13.4845 13.4918 13.7359 12.7664 14.4215C12.6522 14.5301 12.4694 14.5244 12.3609 14.4101C12.2524 14.2958 12.2581 14.113 12.3723 14.0044C13.2405 13.1817 14.497 12.8788 15.6508 13.2159C16.7988 13.5473 17.6955 14.4786 17.9925 15.6385C18.0154 15.7242 17.9925 15.8156 17.9411 15.8842C17.8897 15.9528 17.804 15.9928 17.7184 15.9928ZM6.3123 15.9928H2.28562C2.19994 15.9928 2.11427 15.9528 2.06287 15.8842C2.01146 15.8156 1.98861 15.7242 2.01146 15.6385C2.30846 14.4786 3.20519 13.5473 4.35322 13.2159C5.50125 12.8845 6.7578 13.1874 7.63168 14.0044C7.74591 14.113 7.75162 14.2958 7.6431 14.4101C7.53458 14.5244 7.35181 14.5301 7.23758 14.4215C6.5122 13.7359 5.46698 13.4845 4.51314 13.7644C3.67925 14.0044 2.99957 14.6272 2.67972 15.4214H6.3123C6.47222 15.4214 6.59788 15.5471 6.59788 15.7071C6.59788 15.8671 6.47222 15.9928 6.3123 15.9928ZM10.002 14.9872C9.01388 14.9872 8.20855 14.1815 8.20855 13.1931C8.20855 12.2046 9.01388 11.399 10.002 11.399C10.9901 11.399 11.7954 12.2046 11.7954 13.1931C11.7954 14.1815 10.9901 14.9872 10.002 14.9872ZM10.002 11.9646C9.32802 11.9646 8.77971 12.5132 8.77971 13.1874C8.77971 13.8616 9.32802 14.4101 10.002 14.4101C10.676 14.4101 11.2243 13.8616 11.2243 13.1874C11.2243 12.5132 10.676 11.9646 10.002 11.9646ZM14.6969 12.9702C13.7088 12.9702 12.9035 12.1646 12.9035 11.1762C12.9035 10.1877 13.7088 9.38208 14.6969 9.38208C15.685 9.38208 16.4904 10.1877 16.4904 11.1762C16.4904 12.1646 15.685 12.9702 14.6969 12.9702ZM14.6969 9.94773C14.023 9.94773 13.4746 10.4962 13.4746 11.1704C13.4746 11.8447 14.023 12.3932 14.6969 12.3932C15.3709 12.3932 15.9192 11.8447 15.9192 11.1704C15.9192 10.4962 15.3709 9.94773 14.6969 9.94773ZM5.30705 12.976C4.31895 12.976 3.51361 12.1703 3.51361 11.1819C3.51361 10.1934 4.31895 9.38779 5.30705 9.38779C6.29516 9.38779 7.1005 10.1934 7.1005 11.1819C7.1005 12.1703 6.29516 12.976 5.30705 12.976ZM5.30705 9.95344C4.63309 9.95344 4.08477 10.502 4.08477 11.1762C4.08477 11.8504 4.63309 12.3989 5.30705 12.3989C5.98102 12.3989 6.52934 11.8504 6.52934 11.1762C6.52934 10.502 5.98102 9.95344 5.30705 9.95344Z" fill="#666666"/>
<path d="M11.5456 13.1926C11.5453 12.3424 10.8514 11.6487 10.0016 11.6487C9.15199 11.6489 8.4589 12.3425 8.45866 13.1926C8.45866 14.043 9.15184 14.7374 10.0016 14.7375C10.8516 14.7375 11.5456 14.0431 11.5456 13.1926ZM10.0016 15.3342C8.55723 15.3344 7.3035 16.3135 6.94889 17.7112L6.94792 17.7141C6.94762 17.7152 6.94665 17.7188 6.94792 17.7249C6.94937 17.7315 6.95304 17.7391 6.95768 17.7454C6.95769 17.7454 6.95957 17.7478 6.96452 17.7502C6.96982 17.7528 6.97576 17.7541 6.98014 17.7542H13.0231C13.0275 17.7542 13.0334 17.7527 13.0387 17.7502C13.0438 17.7478 13.0465 17.7454 13.0465 17.7454C13.0511 17.7392 13.0539 17.7314 13.0553 17.7249C13.0566 17.7188 13.0566 17.7153 13.0563 17.7141L13.0553 17.7112C12.7008 16.3083 11.4466 15.3342 10.0016 15.3342ZM10.0016 15.4055C11.2762 15.4055 12.3951 16.1835 12.861 17.3391L12.9997 17.6829H7.00456L7.14323 17.3391C7.60906 16.1836 8.72723 15.4057 10.0016 15.4055ZM10.0016 15.9055C9.06608 15.9056 8.23027 16.406 7.77507 17.1829H12.2292C11.7739 16.4058 10.9374 15.9055 10.0016 15.9055ZM6.33854 15.6809C6.33348 15.6758 6.32505 15.6711 6.31217 15.6711H2.30925L2.44792 15.3284C2.79602 14.464 3.53469 13.7864 4.44303 13.5247L4.63835 13.4739C5.62251 13.2553 6.66836 13.5398 7.40885 14.2395L7.40983 14.2405C7.41602 14.2463 7.42463 14.2496 7.43522 14.2493C7.44598 14.2489 7.45497 14.2445 7.46159 14.2375C7.46743 14.2314 7.47167 14.2228 7.47135 14.2122C7.47099 14.2015 7.46646 14.1924 7.45964 14.1858H7.45866C6.64895 13.43 5.4849 13.1496 4.42253 13.4563C3.36053 13.7629 2.52884 14.6256 2.25358 15.7004L2.2526 15.7034C2.25229 15.7049 2.25235 15.7085 2.25358 15.7141C2.25506 15.7207 2.25868 15.7284 2.26335 15.7346C2.26416 15.7354 2.26645 15.7367 2.27018 15.7385C2.27563 15.7411 2.28139 15.7424 2.28581 15.7424H6.31217C6.32498 15.7424 6.33347 15.7387 6.33854 15.7336C6.34358 15.7286 6.34826 15.7201 6.34831 15.7073C6.34831 15.6944 6.34357 15.686 6.33854 15.6809ZM16.2399 11.176C16.2398 10.3256 15.5468 9.63209 14.6969 9.63208C13.847 9.63208 13.1531 10.3256 13.153 11.176C13.153 12.0265 13.847 12.72 14.6969 12.72C15.5469 12.72 16.2399 12.0265 16.2399 11.176ZM10.9743 13.1877C10.9743 12.6515 10.5374 12.2151 10.0016 12.2151C9.46598 12.2153 9.02995 12.6516 9.02995 13.1877C9.03015 13.7237 9.46611 14.1602 10.0016 14.1604C10.5373 14.1604 10.9741 13.7238 10.9743 13.1877ZM6.27897 11.176C6.2789 10.6399 5.84295 10.2035 5.30729 10.2034C4.77152 10.2034 4.33471 10.6399 4.33464 11.176C4.33464 11.7122 4.77148 12.1487 5.30729 12.1487C5.843 12.1486 6.27897 11.7122 6.27897 11.176ZM15.6696 11.1702C15.6694 10.6341 15.2327 10.1975 14.6969 10.1975C14.1612 10.1975 13.7244 10.6341 13.7243 11.1702C13.7243 11.7064 14.1611 12.1428 14.6969 12.1428C15.2327 12.1428 15.6696 11.7064 15.6696 11.1702ZM6.85026 11.1819C6.85026 10.3315 6.15714 9.63807 5.30729 9.63794C4.45734 9.63794 3.76335 10.3314 3.76335 11.1819C3.76335 12.0324 4.45734 12.7258 5.30729 12.7258C6.15713 12.7257 6.85026 12.0323 6.85026 11.1819ZM13.6657 15.7336C13.6708 15.7386 13.6794 15.7424 13.6921 15.7424H17.7184C17.7229 15.7424 17.7286 15.7411 17.734 15.7385C17.7379 15.7366 17.7402 15.7353 17.7409 15.7346C17.7456 15.7284 17.7492 15.7208 17.7507 15.7141V15.7004C17.4754 14.6256 16.6436 13.7629 15.5817 13.4563H15.5807C14.5787 13.1635 13.4927 13.3919 12.6989 14.0491L12.5446 14.1858C12.5377 14.1924 12.5332 14.2014 12.5329 14.2122C12.5326 14.2229 12.5368 14.2313 12.5426 14.2375C12.5493 14.2445 12.5583 14.249 12.569 14.2493C12.5796 14.2495 12.5883 14.2463 12.5944 14.2405V14.2395C13.3836 13.4936 14.5142 13.22 15.5583 13.5237H15.5592C16.4739 13.7851 17.208 14.4575 17.5563 15.3284L17.693 15.6711H13.6921C13.6792 15.6711 13.6708 15.6759 13.6657 15.6809C13.6606 15.686 13.6559 15.6943 13.6559 15.7073C13.656 15.7201 13.6607 15.7286 13.6657 15.7336ZM12.0456 13.1926C12.0456 13.9571 11.6222 14.6243 10.9987 14.9749C12.2275 15.3221 13.2116 16.2958 13.5387 17.5852C13.5837 17.7538 13.5375 17.923 13.446 18.0452C13.3441 18.1811 13.1819 18.2542 13.0231 18.2542H6.98014C6.82152 18.254 6.6591 18.181 6.55729 18.0452C6.46589 17.923 6.41962 17.7536 6.46452 17.5852C6.7915 16.3008 7.77571 15.3236 9.00456 14.9749C8.38137 14.6242 7.95866 13.9568 7.95866 13.1926C7.9589 12.0665 8.87568 11.1489 10.0016 11.1487C11.1277 11.1487 12.0453 12.0664 12.0456 13.1926ZM11.4743 13.1877C11.4741 13.9998 10.8136 14.6604 10.0016 14.6604C9.1898 14.6602 8.53015 13.9996 8.52995 13.1877C8.52995 12.3757 9.18967 11.7153 10.0016 11.7151C10.8138 11.7151 11.4743 12.3755 11.4743 13.1877ZM7.35026 11.1819C7.35026 11.9529 6.9201 12.6248 6.28776 12.9729C6.84558 13.1295 7.36816 13.4156 7.80241 13.8215L7.80436 13.8235C8.01709 14.0261 8.02847 14.3669 7.82389 14.5823C7.62138 14.7952 7.28055 14.8075 7.0651 14.6028V14.6018C6.40426 13.9779 5.45144 13.7495 4.58366 14.0042L4.58268 14.0051C3.94879 14.1875 3.41231 14.614 3.08268 15.1711H6.31217C6.61025 15.1711 6.84831 15.4093 6.84831 15.7073C6.8482 16.0052 6.61019 16.2424 6.31217 16.2424H2.28581C2.12714 16.2424 1.96486 16.1702 1.86296 16.0344C1.77175 15.9128 1.72617 15.7443 1.77018 15.5764C2.08901 14.3317 3.04997 13.332 4.28385 12.9758C4.29424 12.9728 4.3047 12.9699 4.3151 12.967C3.68884 12.6172 3.26335 11.9484 3.26335 11.1819C3.26335 10.0554 4.18103 9.13794 5.30729 9.13794C6.43345 9.13807 7.35026 10.0555 7.35026 11.1819ZM6.77897 11.176C6.77897 11.9881 6.11931 12.6486 5.30729 12.6487C4.49517 12.6487 3.83464 11.9882 3.83464 11.176C3.83471 10.3639 4.49521 9.70337 5.30729 9.70337C6.11926 9.7035 6.7789 10.364 6.77897 11.176ZM16.7399 11.176C16.7399 11.9455 16.3116 12.6164 15.6813 12.9651C15.6945 12.9688 15.7082 12.972 15.7214 12.9758H15.7204C16.9543 13.3321 17.9163 14.3317 18.235 15.5764H18.234C18.278 15.7443 18.2325 15.9128 18.1413 16.0344C18.0394 16.1702 17.8771 16.2424 17.7184 16.2424H13.6921C13.394 16.2424 13.156 16.0052 13.1559 15.7073C13.1559 15.4093 13.394 15.1711 13.6921 15.1711H16.9225C16.5944 14.6114 16.0616 14.1879 15.4225 14.0051L15.4206 14.0042C14.601 13.7651 13.7169 13.9516 13.0651 14.4905L12.9382 14.6028C12.7226 14.8073 12.3818 14.7954 12.1794 14.5823C11.9748 14.3668 11.987 14.026 12.1999 13.8235V13.8225C12.6328 13.4122 13.156 13.1237 13.7155 12.967C13.0835 12.6189 12.653 11.9468 12.653 11.176C12.6531 10.0496 13.5707 9.13208 14.6969 9.13208C15.8231 9.13209 16.7398 10.0496 16.7399 11.176ZM16.1696 11.1702C16.1696 11.9824 15.5091 12.6428 14.6969 12.6428C13.8848 12.6428 13.2243 11.9824 13.2243 11.1702C13.2244 10.3581 13.8849 9.69751 14.6969 9.69751C15.509 9.69752 16.1694 10.3581 16.1696 11.1702Z" fill="#666666"/>
<path d="M14.3599 2.00012H6.98054C6.45507 2.00012 6.0267 2.42865 6.0267 2.9543V7.65662C6.0267 8.18228 6.45507 8.6108 6.98054 8.6108H7.53456L9.1795 10.2563C9.26518 10.342 9.38512 10.3877 9.49935 10.3877C9.55647 10.3877 9.61358 10.3763 9.6707 10.3535C9.84205 10.2849 9.95057 10.1249 9.95628 9.93637V8.6108H14.3656C14.8911 8.6108 15.3195 8.18228 15.3195 7.65662V2.9543C15.3195 2.42865 14.8911 2.00012 14.3656 2.00012H14.3599ZM14.7426 7.65662C14.7426 7.86803 14.5713 8.03944 14.3599 8.03944H9.66499C9.50506 8.03944 9.37941 8.16514 9.37941 8.32512V9.65069L7.85441 8.12514C7.80301 8.07372 7.72876 8.03944 7.6545 8.03944H6.98625C6.77492 8.03944 6.60357 7.86803 6.60357 7.65662V2.9543C6.60357 2.7429 6.77492 2.57149 6.98625 2.57149H14.3656C14.577 2.57149 14.7483 2.7429 14.7483 2.9543V7.65662H14.7426Z" fill="#666666"/>
<path d="M14.4984 2.95422C14.4983 2.88084 14.4387 2.82141 14.3656 2.82141H6.98666C6.91351 2.82141 6.85389 2.88084 6.85385 2.95422V7.65637C6.85385 7.72979 6.91349 7.78918 6.98666 7.78918H7.65463C7.80211 7.78922 7.93848 7.85522 8.03158 7.94836L9.12924 9.04602V8.32532C9.12924 8.02735 9.36729 7.78918 9.66537 7.78918H14.3597C14.4329 7.78918 14.4925 7.72979 14.4925 7.65637V7.40637H14.4984V2.95422ZM14.9984 7.90637H14.9408C14.8439 8.13151 14.6204 8.28918 14.3597 8.28918H9.66537C9.65252 8.28918 9.64407 8.2939 9.639 8.29895C9.63394 8.30402 9.62924 8.31235 9.62924 8.32532V10.0919C9.67527 10.0555 9.70425 9.999 9.70639 9.92883V8.36047H14.3656C14.7529 8.36047 15.0697 8.04404 15.0697 7.65637V2.95422C15.0696 2.56659 14.7529 2.25012 14.3656 2.25012H6.9808C6.59351 2.25012 6.27674 2.56659 6.2767 2.95422V7.65637C6.2767 8.04404 6.59349 8.36047 6.9808 8.36047H7.63803L9.35678 10.0792C9.39306 10.1155 9.44785 10.1378 9.49935 10.1378C9.50321 10.1378 9.50705 10.1361 9.51107 10.1359L7.67807 8.30188C7.67478 8.29859 7.66864 8.29483 7.66244 8.29211C7.65646 8.28954 7.65365 8.28918 7.65463 8.28918H6.98666C6.63717 8.28918 6.35385 8.00576 6.35385 7.65637V2.95422C6.35389 2.60487 6.6372 2.32141 6.98666 2.32141H14.3656C14.715 2.32141 14.9983 2.60487 14.9984 2.95422V7.90637ZM15.5697 7.65637C15.5697 8.32001 15.0292 8.86047 14.3656 8.86047H10.2064V9.94348C10.1978 10.2268 10.0314 10.4778 9.764 10.5851C9.67965 10.6188 9.59067 10.6378 9.49935 10.6378C9.32243 10.6378 9.13735 10.5678 9.00228 10.4327L7.431 8.86047H6.9808C6.31718 8.86047 5.7767 8.32001 5.7767 7.65637V2.95422C5.77674 2.29062 6.3172 1.75012 6.9808 1.75012H14.3656C15.0292 1.75012 15.5696 2.29062 15.5697 2.95422V7.65637Z" fill="#666666"/>
<path d="M13.0005 6.59924H8.3227C8.16277 6.59924 8.03712 6.47358 8.03712 6.31366C8.03712 6.15373 8.16277 6.02808 8.3227 6.02808H13.0005C13.1604 6.02808 13.2861 6.15373 13.2861 6.31366C13.2861 6.47358 13.1604 6.59924 13.0005 6.59924Z" fill="#666666"/>
<path d="M13.0264 6.28784C13.0214 6.28285 13.0136 6.27819 13.001 6.27808H8.32227C8.30962 6.27817 8.30188 6.28284 8.29688 6.28784C8.29188 6.29284 8.28722 6.30057 8.28712 6.31323C8.28712 6.32614 8.29183 6.33454 8.29688 6.3396C8.30189 6.34457 8.30967 6.34927 8.32227 6.34937H13.001C13.0136 6.34925 13.0214 6.34458 13.0264 6.3396C13.0314 6.33454 13.0361 6.32614 13.0361 6.31323C13.036 6.3006 13.0314 6.29284 13.0264 6.28784ZM13.5361 6.31323C13.5361 6.61107 13.2988 6.84911 13.001 6.84937H8.32227C8.02448 6.84914 7.78712 6.61109 7.78712 6.31323C7.78734 6.01558 8.02462 5.7783 8.32227 5.77808H13.001C13.2986 5.77833 13.5359 6.0156 13.5361 6.31323Z" fill="#666666"/>
<path d="M13.0005 4.58801H8.3227C8.16277 4.58801 8.03712 4.46235 8.03712 4.30243C8.03712 4.1425 8.16277 4.01685 8.3227 4.01685H13.0005C13.1604 4.01685 13.2861 4.1425 13.2861 4.30243C13.2861 4.46235 13.1604 4.58801 13.0005 4.58801Z" fill="#666666"/>
<path d="M13.0264 4.27661C13.0214 4.27162 13.0136 4.26696 13.001 4.26685H8.32227C8.30962 4.26694 8.30188 4.27161 8.29688 4.27661C8.29188 4.28161 8.28722 4.28934 8.28712 4.302C8.28712 4.31491 8.29183 4.32331 8.29688 4.32837C8.30189 4.33334 8.30967 4.33804 8.32227 4.33813H13.001C13.0136 4.33802 13.0214 4.33335 13.0264 4.32837C13.0314 4.32331 13.0361 4.31491 13.0361 4.302C13.036 4.28937 13.0314 4.28161 13.0264 4.27661ZM13.5361 4.302C13.5361 4.59984 13.2988 4.83788 13.001 4.83813H8.32227C8.02448 4.83791 7.78712 4.59986 7.78712 4.302C7.78734 4.00435 8.02462 3.76707 8.32227 3.76685H13.001C13.2986 3.7671 13.5359 4.00437 13.5361 4.302Z" fill="#666666"/>
</svg>
