<svg width="24" height="24" viewBox="0 0 24 24" fill="none" xmlns="http://www.w3.org/2000/svg">
<path fill-rule="evenodd" clip-rule="evenodd" d="M16.3367 10L15.2938 8.37773C14.7418 7.51906 13.791 7 12.7702 7H7.74097C7.38211 7 7.05077 7.19229 6.87272 7.50386L5.44636 10L16.3367 10ZM19.0095 10.4592L16.9761 7.29621C16.0561 5.8651 14.4716 5 12.7702 5H7.74097C6.6644 5 5.67037 5.57686 5.13624 6.51158L3.70987 9.00772C2.94798 10.341 3.91071 12 5.44636 12H18.1683C18.9595 12 19.4373 11.1248 19.0095 10.4592Z" fill="#666666"/>
<path fill-rule="evenodd" clip-rule="evenodd" d="M11 6C11.5523 6 12 6.3731 12 6.83333V10.1667C12 10.6269 11.5523 11 11 11C10.4477 11 10 10.6269 10 10.1667V6.83333C10 6.3731 10.4477 6 11 6Z" fill="#666666"/>
<path fill-rule="evenodd" clip-rule="evenodd" d="M20 15C20 13.3431 18.6569 12 17 12H5C4.44772 12 4 12.4477 4 13V15H20ZM22 16V15C22 12.2386 19.7614 10 17 10H5C3.34315 10 2 11.3431 2 13V16C2 16.5523 2.44772 17 3 17H6C6 16.4477 6.44772 16 7 16C7.55228 16 8 16.4477 8 17H16C16 16.4477 16.4477 16 17 16C17.5523 16 18 16.4477 18 17H21C21.5523 17 22 16.5523 22 16Z" fill="#666666"/>
<path fill-rule="evenodd" clip-rule="evenodd" d="M17 16C16.4477 16 16 16.4477 16 17C16 17.5523 16.4477 18 17 18C17.5523 18 18 17.5523 18 17C18 16.4477 17.5523 16 17 16ZM20 17C20 18.6569 18.6569 20 17 20C15.3431 20 14 18.6569 14 17C14 15.3431 15.3431 14 17 14C18.6569 14 20 15.3431 20 17Z" fill="#666666"/>
<path fill-rule="evenodd" clip-rule="evenodd" d="M7 16C6.44772 16 6 16.4477 6 17C6 17.5523 6.44772 18 7 18C7.55228 18 8 17.5523 8 17C8 16.4477 7.55228 16 7 16ZM10 17C10 18.6569 8.65685 20 7 20C5.34315 20 4 18.6569 4 17C4 15.3431 5.34315 14 7 14C8.65685 14 10 15.3431 10 17Z" fill="#666666"/>
</svg>
