<svg width="24" height="24" viewBox="0 0 24 24" fill="none" xmlns="http://www.w3.org/2000/svg">
<path fill-rule="evenodd" clip-rule="evenodd" d="M20 17V7C20 6.44772 19.5523 6 19 6H5C4.44772 6 4 6.44772 4 7V17C4 17.5523 4.44772 18 5 18H19C19.5523 18 20 17.5523 20 17ZM22 17V7C22 5.34315 20.6569 4 19 4H5C3.34315 4 2 5.34315 2 7V17C2 18.6569 3.34315 20 5 20H19C20.6569 20 22 18.6569 22 17Z" fill="#666666"/>
<path fill-rule="evenodd" clip-rule="evenodd" d="M2 9C2 8.44772 2.44772 8 3 8H21C21.5523 8 22 8.44772 22 9C22 9.55228 21.5523 10 21 10H3C2.44772 10 2 9.55228 2 9Z" fill="#666666"/>
<path fill-rule="evenodd" clip-rule="evenodd" d="M6 14C6 13.4477 6.44772 13 7 13H12C12.5523 13 13 13.4477 13 14C13 14.5523 12.5523 15 12 15H7C6.44772 15 6 14.5523 6 14Z" fill="#666666"/>
</svg>
