<svg width="24" height="24" viewBox="0 0 24 24" fill="none" xmlns="http://www.w3.org/2000/svg">
<path fill-rule="evenodd" clip-rule="evenodd" d="M4 12C4 7.55883 7.55883 4 12 4C16.4412 4 20 7.55883 20 12C20 16.4412 16.4412 20 12 20C11.4477 20 11 19.5523 11 19C11 18.4477 11.4477 18 12 18C15.3366 18 18 15.3366 18 12C18 8.6634 15.3366 6 12 6C8.6634 6 6 8.6634 6 12C6 12.6001 6.08587 13.1763 6.24505 13.7181C6.40075 14.248 6.09741 14.8037 5.56753 14.9594C5.03764 15.1151 4.48187 14.8118 4.32617 14.2819C4.11346 13.558 4 12.7919 4 12Z" fill="#666666"/>
<path fill-rule="evenodd" clip-rule="evenodd" d="M11.8462 7.25C12.2604 7.25 12.5962 7.58579 12.5962 8V8.58333H12.6199C13.3287 8.58333 13.9951 8.88891 14.4764 9.41041L14.5511 9.49129C14.8321 9.79566 14.8131 10.2702 14.5087 10.5511C14.2043 10.8321 13.7298 10.8131 13.4489 10.5087L13.3742 10.4278C13.1632 10.1992 12.8904 10.0833 12.6199 10.0833H11.2308C11.0206 10.0833 10.75 10.2868 10.75 10.6667C10.75 11.0465 11.0206 11.25 11.2308 11.25H12.7692C13.9186 11.25 14.75 12.2404 14.75 13.3333C14.75 14.4263 13.9186 15.4167 12.7692 15.4167H12.5962V16C12.5962 16.4142 12.2604 16.75 11.8462 16.75C11.4319 16.75 11.0962 16.4142 11.0962 16V15.4002C10.495 15.3304 9.94006 15.0408 9.52356 14.5896L9.4489 14.5087C9.16794 14.2043 9.18692 13.7298 9.49129 13.4489C9.79566 13.1679 10.2702 13.1869 10.5511 13.4913L10.6258 13.5722C10.8368 13.8008 11.1096 13.9167 11.3801 13.9167H12.7692C12.9794 13.9167 13.25 13.7132 13.25 13.3333C13.25 12.9535 12.9794 12.75 12.7692 12.75H11.2308C10.0814 12.75 9.25 11.7596 9.25 10.6667C9.25 9.61688 10.0171 8.6617 11.0962 8.58791V8C11.0962 7.58579 11.4319 7.25 11.8462 7.25Z" fill="#666666"/>
<path fill-rule="evenodd" clip-rule="evenodd" d="M6.21087 22.2212C6.58156 22.6306 7.21395 22.662 7.62335 22.2913C8.03274 21.9206 8.06412 21.2882 7.69343 20.8789L6.89766 20H12C12.5523 20 13 19.5523 13 19C13 18.4477 12.5523 18 12 18H6.91362L7.69343 17.1388C8.06412 16.7294 8.03274 16.097 7.62335 15.7263C7.21395 15.3556 6.58156 15.387 6.21087 15.7964L4.51763 17.6664C4.18424 18.0346 4.01196 18.496 4.00077 18.9604C4.00026 18.9735 4 18.9867 4 19C4 19.0072 4.00008 19.0143 4.00023 19.0215C4.00323 19.498 4.1757 19.9736 4.51763 20.3512L6.21087 22.2212Z" fill="#666666"/>
</svg>
