<svg width="24" height="24" viewBox="0 0 24 24" fill="none" xmlns="http://www.w3.org/2000/svg">
<path fill-rule="evenodd" clip-rule="evenodd" d="M5.86859 16.9738C6.42081 16.4652 7.14031 16.1834 7.88661 16.1834H19C19.5523 16.1834 20 15.7298 20 15.1703V6.05239C20 4.93336 19.1046 4.0262 18 4.0262H5C4.44772 4.0262 4 4.47978 4 5.0393V18.6947L5.86859 16.9738ZM3.67267 21.7345C3.0303 22.3262 2 21.8644 2 20.9849V5.0393C2 3.36074 3.34315 2 5 2H18C20.2091 2 22 3.81432 22 6.05239V15.1703C22 16.8488 20.6569 18.2096 19 18.2096H7.88661C7.63784 18.2096 7.39801 18.3035 7.21393 18.473L3.67267 21.7345Z" fill="#666666"/>
<path fill-rule="evenodd" clip-rule="evenodd" d="M6 12.131C6 11.5715 6.44772 11.1179 7 11.1179H17C17.5523 11.1179 18 11.5715 18 12.131C18 12.6905 17.5523 13.1441 17 13.1441H7C6.44772 13.1441 6 12.6905 6 12.131Z" fill="#666666"/>
<path fill-rule="evenodd" clip-rule="evenodd" d="M6 8.07859C6 7.51907 6.44772 7.06549 7 7.06549H17C17.5523 7.06549 18 7.51907 18 8.07859C18 8.63811 17.5523 9.09169 17 9.09169H7C6.44772 9.09169 6 8.63811 6 8.07859Z" fill="#666666"/>
</svg>
