<svg width="24" height="24" viewBox="0 0 24 24" fill="none" xmlns="http://www.w3.org/2000/svg">
<path d="M2 5C2 3.34315 3.34315 2 5 2H18C20.2091 2 22 3.79086 22 6V6.5C22 7.05228 21.5523 7.5 21 7.5C20.4477 7.5 20 7.05228 20 6.5V6C20 4.89543 19.1046 4 18 4H5C4.44772 4 4 4.44772 4 5V18.8691L5.65625 17.0068C6.22554 16.3665 7.04162 16 7.89844 16H11.5C12.0523 16 12.5 16.4477 12.5 17C12.5 17.5523 12.0523 18 11.5 18H7.89844C7.6128 18 7.34016 18.1224 7.15039 18.3359L4.62109 21.1816C3.70473 22.2124 2 21.5638 2 20.1846V5Z" fill="#666666"/>
<path d="M11.5 13H7C6.44772 13 6 12.5523 6 12C6 11.4477 6.44772 11 7 11H11.5C12.0523 11 12.5 11.4477 12.5 12C12.5 12.5523 12.0523 13 11.5 13Z" fill="#666666"/>
<path d="M11.5 9H7C6.44772 9 6 8.55228 6 8C6 7.44772 6.44772 7 7 7H11.5C12.0523 7 12.5 7.44772 12.5 8C12.5 8.55228 12.0523 9 11.5 9Z" fill="#666666"/>
<path d="M17.8271 15.1759C18.2177 14.7854 18.8507 14.7854 19.2412 15.1759L21.1846 17.1192C21.9656 17.9002 21.9655 19.1663 21.1846 19.9474L19.2412 21.8907C18.8507 22.2812 18.2177 22.2812 17.8271 21.8907C17.4368 21.5002 17.4367 20.8671 17.8271 20.4767L18.7705 19.5333H15C14.4477 19.5333 14 19.0856 14 18.5333C14.0001 17.9811 14.4478 17.5333 15 17.5333H18.7705L17.8271 16.5899C17.4366 16.1994 17.4366 15.5664 17.8271 15.1759Z" fill="#666666"/>
<path d="M18.0597 14.0077C17.6692 14.3982 17.0361 14.3982 16.6456 14.0077L14.7023 12.0644C13.9213 11.2834 13.9214 10.0173 14.7023 9.23625L16.6456 7.29289C17.0361 6.90238 17.6692 6.90242 18.0597 7.29289C18.4501 7.68343 18.4502 8.31648 18.0597 8.70695L17.1163 9.65031H20.8868C21.4391 9.65031 21.8868 10.098 21.8868 10.6503C21.8868 11.2025 21.4391 11.6503 20.8868 11.6503H17.1163L18.0597 12.5937C18.4502 12.9842 18.4502 13.6172 18.0597 14.0077Z" fill="#666666"/>
</svg>
