<svg width="24" height="24" viewBox="0 0 24 24" fill="none" xmlns="http://www.w3.org/2000/svg">
<path fill-rule="evenodd" clip-rule="evenodd" d="M20 12C20 7.58172 16.4183 4 12 4C7.58172 4 4 7.58172 4 12C4 16.4183 7.58172 20 12 20C16.4183 20 20 16.4183 20 12ZM12.2038 15.0457C11.4277 15.7961 10.1962 15.7953 9.42116 15.0438L7.30385 12.9906C6.90737 12.6062 6.89763 11.9731 7.2821 11.5766C7.66657 11.1801 8.29966 11.1704 8.69615 11.5548L10.8135 13.608L15.8048 8.78114C16.2019 8.39722 16.8349 8.40783 17.2189 8.80484C17.6028 9.20186 17.5922 9.83493 17.1952 10.2189L12.2038 15.0457Z" fill="#666666"/>
</svg>
