<svg width="24" height="24" viewBox="0 0 24 24" fill="none" xmlns="http://www.w3.org/2000/svg">
<path fill-rule="evenodd" clip-rule="evenodd" d="M2 12C2 6.44772 6.44772 2 12 2C17.5523 2 22 6.44772 22 12C22 17.5523 17.5523 22 12 22C6.44772 22 2 17.5523 2 12ZM12 4C7.55228 4 4 7.55228 4 12C4 16.4477 7.55228 20 12 20C16.4477 20 20 16.4477 20 12C20 7.55228 16.4477 4 12 4Z" fill="#666666"/>
<path fill-rule="evenodd" clip-rule="evenodd" d="M9.42116 15.0438C10.1962 15.7953 11.4277 15.7961 12.2038 15.0457L17.1952 10.2189C17.5922 9.83493 17.6028 9.20186 17.2189 8.80484C16.8349 8.40783 16.2019 8.39722 15.8048 8.78114L10.8135 13.608L8.69615 11.5548C8.29966 11.1704 7.66657 11.1801 7.2821 11.5766C6.89763 11.9731 6.90737 12.6062 7.30385 12.9906L9.42116 15.0438Z" fill="#666666"/>
</svg>
