<svg width="16" height="16" viewBox="0 0 16 16" fill="none" xmlns="http://www.w3.org/2000/svg">
<g clip-path="url(#clip0_1_3414)">
<path fill-rule="evenodd" clip-rule="evenodd" d="M0 8C0 3.55817 3.55817 0 8 0C12.4418 0 16 3.55817 16 8C16 12.4418 12.4418 16 8 16C3.55817 16 0 12.4418 0 8ZM8 1.6C4.44183 1.6 1.6 4.44183 1.6 8C1.6 11.5582 4.44183 14.4 8 14.4C11.5582 14.4 14.4 11.5582 14.4 8C14.4 4.44183 11.5582 1.6 8 1.6Z" fill="#999999"/>
<path fill-rule="evenodd" clip-rule="evenodd" d="M5.93693 10.435C6.55694 11.0362 7.54219 11.0369 8.16302 10.4366L12.1561 6.57509C12.4737 6.26795 12.4822 5.76148 12.1751 5.44387C11.8679 5.12626 11.3615 5.11777 11.0439 5.42491L7.05077 9.28638L5.35692 7.64386C5.03973 7.33628 4.53326 7.34408 4.22568 7.66127C3.9181 7.97845 3.9259 8.48493 4.24308 8.7925L5.93693 10.435Z" fill="#999999"/>
</g>
<defs>
<clipPath id="clip0_1_3414">
<rect width="16" height="16" fill="white"/>
</clipPath>
</defs>
</svg>
