<svg width="24" height="24" viewBox="0 0 24 24" fill="none" xmlns="http://www.w3.org/2000/svg">
<path fill-rule="evenodd" clip-rule="evenodd" d="M1 7.00002C1 5.34316 2.34315 4.00002 4 4.00002H14.5C15.0523 4.00002 15.5 4.44773 15.5 5.00002C15.5 5.5523 15.0523 6.00002 14.5 6.00002H4C3.44772 6.00002 3 6.44773 3 7.00002V17C3 17.5523 3.44772 18 4 18H20C20.5523 18 21 17.5523 21 17V11.5C21 10.9477 21.4477 10.5 22 10.5C22.5523 10.5 23 10.9477 23 11.5V17C23 18.6569 21.6569 20 20 20H4C2.34315 20 1 18.6569 1 17V7.00002Z" fill="#666666"/>
<path fill-rule="evenodd" clip-rule="evenodd" d="M19.9382 3.00071C20.4903 2.98932 20.9472 3.42771 20.9586 3.97987L21.041 7.97902C21.0524 8.53119 20.614 8.98804 20.0619 8.99943C19.5097 9.01082 19.0529 8.57243 19.0415 8.02026L18.959 4.02111C18.9476 3.46895 19.386 3.01209 19.9382 3.00071Z" fill="#666666"/>
<path fill-rule="evenodd" clip-rule="evenodd" d="M22.9993 5.93817C23.0107 6.49033 22.5723 6.94719 22.0202 6.95857L18.021 7.04105C17.4689 7.05244 17.012 6.61405 17.0006 6.06189C16.9892 5.50972 17.4276 5.05287 17.9798 5.04148L21.9789 4.959C22.5311 4.94761 22.988 5.386 22.9993 5.93817Z" fill="#666666"/>
<path fill-rule="evenodd" clip-rule="evenodd" d="M11 14C11 13.4477 11.4477 13 12 13H18C18.5523 13 19 13.4477 19 14C19 14.5523 18.5523 15 18 15H12C11.4477 15 11 14.5523 11 14Z" fill="#666666"/>
<path fill-rule="evenodd" clip-rule="evenodd" d="M11 10C11 9.44773 11.4477 9.00002 12 9.00002H16C16.5523 9.00002 17 9.44773 17 10C17 10.5523 16.5523 11 16 11H12C11.4477 11 11 10.5523 11 10Z" fill="#666666"/>
<path fill-rule="evenodd" clip-rule="evenodd" d="M6.84615 7.25002C7.26037 7.25002 7.59615 7.5858 7.59615 8.00002V8.58335H7.61991C8.32871 8.58335 8.99506 8.88893 9.47644 9.41043L9.5511 9.49131C9.83206 9.79567 9.81308 10.2702 9.50871 10.5511C9.20434 10.8321 8.72985 10.8131 8.4489 10.5087L8.37424 10.4278C8.16318 10.1992 7.89038 10.0834 7.61991 10.0834H6.23077C6.02064 10.0834 5.75 10.2869 5.75 10.6667C5.75 11.0465 6.02064 11.25 6.23077 11.25H7.76923C8.91857 11.25 9.75 12.2404 9.75 13.3334C9.75 14.4263 8.91857 15.4167 7.76923 15.4167H7.59615V16C7.59615 16.4142 7.26037 16.75 6.84615 16.75C6.43194 16.75 6.09615 16.4142 6.09615 16V15.4003C5.49503 15.3304 4.94006 15.0408 4.52356 14.5896L4.4489 14.5087C4.16794 14.2044 4.18692 13.7299 4.49129 13.4489C4.79566 13.168 5.27015 13.1869 5.5511 13.4913L5.62576 13.5722C5.83682 13.8008 6.10962 13.9167 6.38009 13.9167H7.76923C7.97936 13.9167 8.25 13.7132 8.25 13.3334C8.25 12.9535 7.97936 12.75 7.76923 12.75H6.23077C5.08143 12.75 4.25 11.7596 4.25 10.6667C4.25 9.6169 5.01707 8.66172 6.09615 8.58793V8.00002C6.09615 7.5858 6.43194 7.25002 6.84615 7.25002Z" fill="#666666"/>
</svg>
