<svg width="24" height="24" viewBox="0 0 24 24" fill="none" xmlns="http://www.w3.org/2000/svg">
<path d="M3 15V5C3 4.44772 3.44772 4 4 4H20C20.5523 4 21 4.44772 21 5V15C21 15.5523 20.5523 16 20 16H17V18H20C21.6569 18 23 16.6569 23 15V5C23 3.34315 21.6569 2 20 2H4C2.34315 2 1 3.34315 1 5V15C1 16.6569 2.34315 18 4 18H13V16H4C3.44772 16 3 15.5523 3 15Z" fill="#666666"/>
<path d="M18 12C18.5523 12 19 11.5523 19 11C19 10.4477 18.5523 10 18 10H12C11.4477 10 11 10.4477 11 11C11 11.5523 11.4477 12 12 12H18Z" fill="#666666"/>
<path d="M11 8C11 7.44772 11.4477 7 12 7H18C18.5523 7 19 7.44772 19 8C19 8.55228 18.5523 9 18 9H12C11.4477 9 11 8.55228 11 8Z" fill="#666666"/>
<path d="M7.59615 6C7.59615 5.58579 7.26037 5.25 6.84615 5.25C6.43194 5.25 6.09615 5.58579 6.09615 6V6.58791C5.01707 6.6617 4.25 7.61688 4.25 8.66667C4.25 9.75961 5.08143 10.75 6.23077 10.75H7.76923C7.97936 10.75 8.25 10.9535 8.25 11.3333C8.25 11.7132 7.97936 11.9167 7.76923 11.9167H6.38009C6.10962 11.9167 5.83682 11.8008 5.62576 11.5722L5.5511 11.4913C5.27015 11.1869 4.79566 11.1679 4.49129 11.4489C4.18692 11.7298 4.16794 12.2043 4.4489 12.5087L4.52356 12.5896C4.94006 13.0408 5.49503 13.3304 6.09615 13.4002V14C6.09615 14.4142 6.43194 14.75 6.84615 14.75C7.26037 14.75 7.59615 14.4142 7.59615 14V13.4167H7.76923C8.91857 13.4167 9.75 12.4263 9.75 11.3333C9.75 10.2404 8.91857 9.25 7.76923 9.25H6.23077C6.02064 9.25 5.75 9.04649 5.75 8.66667C5.75 8.28685 6.02064 8.08333 6.23077 8.08333H7.61991C7.89038 8.08333 8.16318 8.19919 8.37424 8.42783L8.4489 8.50871C8.72985 8.81308 9.20434 8.83206 9.50871 8.5511C9.81308 8.27015 9.83206 7.79566 9.5511 7.49129L9.47644 7.41041C8.99506 6.88891 8.32871 6.58333 7.61991 6.58333H7.59615V6Z" fill="#666666"/>
<path fill-rule="evenodd" clip-rule="evenodd" d="M17.7071 20.1214C18.0976 19.7309 18.0976 19.0977 17.7071 18.7072C17.3166 18.3167 16.6834 18.3167 16.2929 18.7072L16 19.0001L16 14C16 13.4477 15.5523 13 15 13C14.4477 13 14 13.4477 14 14L14 19.0001L13.7071 18.7072C13.3166 18.3167 12.6834 18.3167 12.2929 18.7072C11.9024 19.0977 11.9024 19.7309 12.2929 20.1214L13.5858 21.4143C14.3668 22.1954 15.6332 22.1954 16.4142 21.4143L17.7071 20.1214Z" fill="#666666"/>
</svg>
