<svg width="24" height="24" viewBox="0 0 24 24" fill="none" xmlns="http://www.w3.org/2000/svg">
<path fill-rule="evenodd" clip-rule="evenodd" d="M2.99997 4V14C2.99997 14.5523 3.44769 15 3.99997 15H20C20.5523 15 21 14.5523 21 14V4C21 3.44772 20.5523 3 20 3H3.99997C3.44769 3 2.99997 3.44772 2.99997 4ZM0.999971 4V14C0.999971 15.6569 2.34312 17 3.99997 17H20C21.6568 17 23 15.6569 23 14V4C23 2.34315 21.6568 1 20 1H3.99997C2.34312 1 0.999971 2.34315 0.999971 4Z" fill="#666666"/>
<path fill-rule="evenodd" clip-rule="evenodd" d="M11 11C11 10.4477 11.4477 10 12 10H18C18.5523 10 19 10.4477 19 11C19 11.5523 18.5523 12 18 12H12C11.4477 12 11 11.5523 11 11Z" fill="#666666"/>
<path fill-rule="evenodd" clip-rule="evenodd" d="M11 7C11 6.44772 11.4477 6 12 6H18C18.5523 6 19 6.44772 19 7C19 7.55228 18.5523 8 18 8H12C11.4477 8 11 7.55228 11 7Z" fill="#666666"/>
<path fill-rule="evenodd" clip-rule="evenodd" d="M6.84613 4.25C7.26034 4.25 7.59613 4.58579 7.59613 5V5.58333H7.61988C8.32868 5.58333 8.99503 5.88891 9.47642 6.41041L9.55107 6.49129C9.83203 6.79566 9.81305 7.27015 9.50868 7.5511C9.20432 7.83206 8.72982 7.81308 8.44887 7.50871L8.37421 7.42783C8.16315 7.19919 7.89035 7.08333 7.61988 7.08333H6.23074C6.02061 7.08333 5.74997 7.28685 5.74997 7.66667C5.74997 8.04649 6.02061 8.25 6.23074 8.25H7.7692C8.91854 8.25 9.74997 9.24039 9.74997 10.3333C9.74997 11.4263 8.91854 12.4167 7.7692 12.4167H7.59613V13C7.59613 13.4142 7.26034 13.75 6.84613 13.75C6.43191 13.75 6.09613 13.4142 6.09613 13V12.4002C5.495 12.3304 4.94003 12.0408 4.52353 11.5896L4.44887 11.5087C4.16792 11.2043 4.1869 10.7298 4.49126 10.4489C4.79563 10.1679 5.27012 10.1869 5.55107 10.4913L5.62573 10.5722C5.83679 10.8008 6.10959 10.9167 6.38006 10.9167H7.7692C7.97933 10.9167 8.24997 10.7132 8.24997 10.3333C8.24997 9.95351 7.97933 9.75 7.7692 9.75H6.23074C5.0814 9.75 4.24997 8.75961 4.24997 7.66667C4.24997 6.61688 5.01704 5.6617 6.09613 5.58791V5C6.09613 4.58579 6.43191 4.25 6.84613 4.25Z" fill="#666666"/>
<path fill-rule="evenodd" clip-rule="evenodd" d="M20.7071 18.2929C20.3166 17.9024 19.6834 17.9024 19.2929 18.2929C18.9023 18.6834 18.9023 19.3166 19.2929 19.7071L19.5858 20H14C13.4477 20 13 20.4478 13 21C13 21.5523 13.4477 22 14 22H19.5857L19.2929 22.2929C18.9023 22.6834 18.9023 23.3166 19.2929 23.7071C19.6834 24.0976 20.3166 24.0976 20.7071 23.7071L22 22.4142C22.781 21.6332 22.781 20.3668 22 19.5858L20.7071 18.2929Z" fill="#666666"/>
<path fill-rule="evenodd" clip-rule="evenodd" d="M2.87856 23.7071C3.26908 24.0976 3.90225 24.0976 4.29277 23.7071C4.6833 23.3166 4.6833 22.6834 4.29277 22.2929L3.99988 22L14 22C14.5523 22 15 21.5523 15 21C15 20.4477 14.5523 20 14 20L3.99988 20L4.29277 19.7071C4.6833 19.3166 4.6833 18.6834 4.29277 18.2929C3.90225 17.9024 3.26908 17.9024 2.87856 18.2929L1.58566 19.5858C0.804617 20.3668 0.804615 21.6332 1.58566 22.4142L2.87856 23.7071Z" fill="#666666"/>
</svg>
