<svg width="24" height="24" viewBox="0 0 24 24" fill="none" xmlns="http://www.w3.org/2000/svg">
<path fill-rule="evenodd" clip-rule="evenodd" d="M3 7V17C3 17.5523 3.44772 18 4 18H20C20.5523 18 21 17.5523 21 17V7C21 6.44772 20.5523 6 20 6H4C3.44772 6 3 6.44772 3 7ZM1 7V17C1 18.6569 2.34315 20 4 20H20C21.6569 20 23 18.6569 23 17V7C23 5.34315 21.6569 4 20 4H4C2.34315 4 1 5.34315 1 7Z" fill="#666666"/>
<path fill-rule="evenodd" clip-rule="evenodd" d="M11 14C11 13.4477 11.4477 13 12 13H18C18.5523 13 19 13.4477 19 14C19 14.5523 18.5523 15 18 15H12C11.4477 15 11 14.5523 11 14Z" fill="#666666"/>
<path fill-rule="evenodd" clip-rule="evenodd" d="M11 10C11 9.44772 11.4477 9 12 9H18C18.5523 9 19 9.44772 19 10C19 10.5523 18.5523 11 18 11H12C11.4477 11 11 10.5523 11 10Z" fill="#666666"/>
<path fill-rule="evenodd" clip-rule="evenodd" d="M6.84615 7.25C7.26037 7.25 7.59615 7.58579 7.59615 8V8.58333H7.61991C8.32871 8.58333 8.99506 8.88891 9.47644 9.41041L9.5511 9.49129C9.83206 9.79566 9.81308 10.2702 9.50871 10.5511C9.20434 10.8321 8.72985 10.8131 8.4489 10.5087L8.37424 10.4278C8.16318 10.1992 7.89038 10.0833 7.61991 10.0833H6.23077C6.02064 10.0833 5.75 10.2868 5.75 10.6667C5.75 11.0465 6.02064 11.25 6.23077 11.25H7.76923C8.91857 11.25 9.75 12.2404 9.75 13.3333C9.75 14.4263 8.91857 15.4167 7.76923 15.4167H7.59615V16C7.59615 16.4142 7.26037 16.75 6.84615 16.75C6.43194 16.75 6.09615 16.4142 6.09615 16V15.4002C5.49503 15.3304 4.94006 15.0408 4.52356 14.5896L4.4489 14.5087C4.16794 14.2043 4.18692 13.7298 4.49129 13.4489C4.79566 13.1679 5.27015 13.1869 5.5511 13.4913L5.62576 13.5722C5.83682 13.8008 6.10962 13.9167 6.38009 13.9167H7.76923C7.97936 13.9167 8.25 13.7132 8.25 13.3333C8.25 12.9535 7.97936 12.75 7.76923 12.75H6.23077C5.08143 12.75 4.25 11.7596 4.25 10.6667C4.25 9.61688 5.01707 8.6617 6.09615 8.58791V8C6.09615 7.58579 6.43194 7.25 6.84615 7.25Z" fill="#666666"/>
</svg>
