<svg width="24" height="24" viewBox="0 0 24 24" fill="none" xmlns="http://www.w3.org/2000/svg">
<path fill-rule="evenodd" clip-rule="evenodd" d="M20.1248 13.1764C19.7342 12.7859 19.1011 12.7859 18.7106 13.1764C18.32 13.567 18.32 14.2001 18.7106 14.5907L19.654 15.5341H15.8835C15.3313 15.5341 14.8835 15.9818 14.8835 16.5341C14.8835 17.0864 15.3313 17.5341 15.8835 17.5341H19.654L18.7106 18.4776C18.32 18.8681 18.32 19.5013 18.7106 19.8918C19.1011 20.2823 19.7342 20.2823 20.1248 19.8918L22.0682 17.9483C22.8493 17.1673 22.8493 15.901 22.0682 15.1199L20.1248 13.1764Z" fill="#666666"/>
<path fill-rule="evenodd" clip-rule="evenodd" d="M17.461 11.8236C17.8515 12.2141 18.4847 12.2141 18.8752 11.8236C19.2657 11.433 19.2657 10.7999 18.8752 10.4093L17.9317 9.4659H21.7021C22.2544 9.4659 22.7021 9.01819 22.7021 8.4659C22.7021 7.91362 22.2544 7.4659 21.7021 7.4659H17.9317L18.8752 6.52246C19.2657 6.13193 19.2657 5.49877 18.8752 5.10824C18.4847 4.71772 17.8515 4.71772 17.461 5.10824L15.5175 7.05169C14.7365 7.83274 14.7365 9.09907 15.5175 9.88012L17.461 11.8236Z" fill="#666666"/>
<path fill-rule="evenodd" clip-rule="evenodd" d="M8.76923 6C5.61431 6 3 8.65443 3 12C3 15.3456 5.61431 18 8.76923 18C9.53144 18 10.2573 17.8468 10.9216 17.5687C11.4425 17.3507 11.9271 17.0552 12.3618 16.6948C12.787 16.3424 13.4174 16.4013 13.7699 16.8265C14.1223 17.2517 14.0634 17.8821 13.6382 18.2346C13.0549 18.7181 12.401 19.1176 11.6938 19.4136C10.7903 19.7918 9.80239 20 8.76923 20C4.44707 20 1 16.3864 1 12C1 7.61358 4.44707 4 8.76923 4C9.80239 4 10.7903 4.20819 11.6938 4.58638C12.401 4.88239 13.0549 5.28186 13.6382 5.76543C14.0634 6.11789 14.1223 6.7483 13.7699 7.17349C13.4174 7.59869 12.787 7.65764 12.3618 7.30518C11.9271 6.94481 11.4425 6.64931 10.9216 6.43127C10.2573 6.1532 9.53144 6 8.76923 6Z" fill="#666666"/>
<path fill-rule="evenodd" clip-rule="evenodd" d="M9 8C9.55229 8 10 8.44772 10 9V12C10 12.5523 9.55229 13 9 13C8.44772 13 8 12.5523 8 12V9C8 8.44772 8.44772 8 9 8Z" fill="#666666"/>
<path fill-rule="evenodd" clip-rule="evenodd" d="M9.83205 11.4453C10.1384 11.9048 10.0142 12.5257 9.5547 12.8321L6.5547 14.8321C6.09517 15.1384 5.4743 15.0142 5.16795 14.5547C4.8616 14.0952 4.98577 13.4743 5.4453 13.1679L8.4453 11.168C8.90483 10.8616 9.5257 10.9858 9.83205 11.4453Z" fill="#666666"/>
</svg>
