<svg width="24" height="24" viewBox="0 0 24 24" fill="none" xmlns="http://www.w3.org/2000/svg">
<path fill-rule="evenodd" clip-rule="evenodd" d="M6.19526 6.19526C6.45561 5.93491 6.87772 5.93491 7.13807 6.19526L17.8047 16.8619C18.0651 17.1223 18.0651 17.5444 17.8047 17.8047C17.5444 18.0651 17.1223 18.0651 16.8619 17.8047L6.19526 7.13807C5.93491 6.87772 5.93491 6.45561 6.19526 6.19526Z" fill="#666666"/>
<path fill-rule="evenodd" clip-rule="evenodd" d="M6.19526 17.8047C5.93491 17.5444 5.93491 17.1223 6.19526 16.8619L16.8619 6.19526C17.1223 5.93491 17.5444 5.93491 17.8047 6.19526C18.0651 6.45561 18.0651 6.87772 17.8047 7.13807L7.13807 17.8047C6.87772 18.0651 6.45561 18.0651 6.19526 17.8047Z" fill="#666666"/>
</svg>
