<svg width="24" height="24" viewBox="0 0 24 24" fill="none" xmlns="http://www.w3.org/2000/svg">
<path d="M3.77393 20.2495C3.64111 20.1167 3.55257 19.959 3.5083 19.7764C3.46403 19.5993 3.46403 19.4194 3.5083 19.2368C3.55257 19.0597 3.63835 18.9103 3.76562 18.7886L10.5308 12.0234L3.76562 5.2583C3.63835 5.13656 3.55257 4.98714 3.5083 4.81006C3.46403 4.63298 3.46403 4.45312 3.5083 4.27051C3.55257 4.08789 3.64111 3.93018 3.77393 3.79736C3.90674 3.66455 4.06169 3.57601 4.23877 3.53174C4.42139 3.48747 4.60124 3.48747 4.77832 3.53174C4.9554 3.57601 5.11035 3.66178 5.24316 3.78906L12 10.5542L18.7568 3.79736C18.8896 3.66455 19.0446 3.57601 19.2217 3.53174C19.3988 3.48747 19.5758 3.48747 19.7529 3.53174C19.93 3.57601 20.085 3.66455 20.2178 3.79736C20.3561 3.93018 20.4474 4.08789 20.4917 4.27051C20.536 4.44759 20.536 4.62467 20.4917 4.80176C20.4474 4.97884 20.3589 5.13379 20.2261 5.2666L13.4692 12.0234L20.2261 18.7803C20.3589 18.9131 20.4447 19.0653 20.4834 19.2368C20.5277 19.4139 20.5277 19.591 20.4834 19.7681C20.4447 19.9507 20.3561 20.1112 20.2178 20.2495C20.085 20.3823 19.93 20.4709 19.7529 20.5151C19.5758 20.5594 19.3988 20.5594 19.2217 20.5151C19.0446 20.4709 18.8896 20.3823 18.7568 20.2495L12 13.4927L5.24316 20.2578C5.11035 20.3851 4.9554 20.4709 4.77832 20.5151C4.60124 20.5594 4.42415 20.5594 4.24707 20.5151C4.06999 20.4709 3.91227 20.3823 3.77393 20.2495Z" fill="#666666"/>
</svg>
