<svg width="24" height="24" viewBox="0 0 24 24" fill="none" xmlns="http://www.w3.org/2000/svg">
<path fill-rule="evenodd" clip-rule="evenodd" d="M20 12C20 7.58172 16.4183 4 12 4C7.58172 4 4 7.58172 4 12C4 16.4183 7.58172 20 12 20C16.4183 20 20 16.4183 20 12ZM15.5355 8.46446C15.926 8.85499 15.926 9.48815 15.5355 9.87868L13.4142 11.9999L15.5356 14.1213C15.9261 14.5118 15.9261 15.145 15.5356 15.5355C15.1451 15.9261 14.5119 15.9261 14.1214 15.5355L12 13.4142L9.87862 15.5355C9.48809 15.9261 8.85493 15.9261 8.4644 15.5355C8.07388 15.145 8.07388 14.5118 8.4644 14.1213L10.5858 11.9999L8.46452 9.87868C8.07399 9.48815 8.07399 8.85499 8.46452 8.46446C8.85504 8.07394 9.48821 8.07394 9.87873 8.46446L12 10.5857L14.1213 8.46446C14.5118 8.07394 15.1449 8.07394 15.5355 8.46446Z" fill="#666666"/>
</svg>
