<svg width="24" height="24" viewBox="0 0 24 24" fill="none" xmlns="http://www.w3.org/2000/svg">
<path fill-rule="evenodd" clip-rule="evenodd" d="M12 14C13.1046 14 14 13.1046 14 12C14 10.8954 13.1046 10 12 10C10.8954 10 10 10.8954 10 12C10 13.1046 10.8954 14 12 14ZM12 16C14.2091 16 16 14.2091 16 12C16 9.79086 14.2091 8 12 8C9.79086 8 8 9.79086 8 12C8 14.2091 9.79086 16 12 16Z" fill="#666666"/>
<path fill-rule="evenodd" clip-rule="evenodd" d="M19.3906 15.0469C19.2827 15.3121 19.6163 15.745 19.9474 16.1748C20.2904 16.6202 20.6309 17.0622 20.4749 17.3106C19.6864 18.5663 18.6265 19.6344 17.3775 20.4325C17.1188 20.5978 16.652 20.2635 16.1819 19.9269C15.7306 19.6036 15.2762 19.2782 15 19.3906C14.7543 19.4907 14.6869 20.028 14.6194 20.566C14.5486 21.1301 14.4777 21.6948 14.2012 21.757C13.4929 21.916 12.7563 22 12 22C11.2437 22 10.5071 21.916 9.79883 21.757C9.52171 21.6947 9.42645 21.1277 9.33149 20.5624C9.24131 20.0256 9.1514 19.4904 8.90625 19.3906C8.62968 19.278 8.19693 19.6046 7.76792 19.9283C7.32235 20.2645 6.88083 20.5976 6.62253 20.4325C5.3735 19.6344 4.31361 18.5663 3.52507 17.3106C3.43467 17.1666 3.51105 16.9576 3.65805 16.7206C3.65792 16.7208 3.65819 16.7203 3.65805 16.7206C3.76462 16.5489 3.90861 16.3618 4.05264 16.1748C4.38373 15.745 4.71726 15.3121 4.60938 15.0469C4.51203 14.8076 3.97657 14.7351 3.43997 14.6624C2.87743 14.5862 2.31364 14.5099 2.25209 14.2411C2.08713 13.5206 2 12.7705 2 12C2 11.2561 2.08123 10.5312 2.2353 9.8336C2.30108 9.53577 2.86537 9.45746 3.42957 9.37915C3.96493 9.30485 4.5002 9.23056 4.60938 8.96875C4.71935 8.70503 4.39736 8.25121 4.07711 7.79985C3.74411 7.33051 3.413 6.86384 3.57142 6.61633C4.35124 5.398 5.38798 4.35993 6.60521 3.57855C6.87051 3.40825 7.34287 3.73405 7.81866 4.06222C8.27401 4.3763 8.7325 4.69254 9.01562 4.57812C9.26647 4.47676 9.34164 3.94464 9.41688 3.41194C9.49596 2.85212 9.57513 2.29166 9.85839 2.22986C10.5483 2.07932 11.2649 2 12 2C12.7351 2 13.4517 2.07932 14.1416 2.22986C14.4326 2.29334 14.4918 2.85054 14.5511 3.40835C14.6077 3.94021 14.6643 4.47262 14.9219 4.57812C15.1971 4.69086 15.6731 4.37701 16.1469 4.06456C16.6426 3.73772 17.136 3.41241 17.3948 3.57855C18.612 4.35993 19.6488 5.398 20.4286 6.61633C20.5947 6.87586 20.2625 7.30985 19.927 7.74818C19.6038 8.17046 19.2774 8.59678 19.3906 8.875C19.4922 9.1246 20.0274 9.22767 20.5646 9.33112C21.1323 9.44042 21.7021 9.55015 21.7647 9.8336C21.9188 10.5312 22 11.2561 22 12C22 12.7439 21.9188 13.4688 21.7647 14.1664C21.7022 14.4493 21.1343 14.5386 20.5677 14.6277C20.4838 14.6409 20.4 14.6541 20.3179 14.6679C20.2431 14.6805 20.1697 14.6935 20.0989 14.7076C19.7483 14.7773 19.4621 14.8712 19.3906 15.0469ZM3.67027 16.7236C3.68095 16.7264 3.67979 16.7266 3.66901 16.7233C3.66943 16.7234 3.66985 16.7235 3.67027 16.7236ZM12.6086 4.02271C12.4079 4.00767 12.205 4 12 4C11.7803 4 11.5629 4.00881 11.3482 4.02606C11.3165 4.2247 11.2741 4.45352 11.2166 4.66513C11.1648 4.85557 11.0733 5.14219 10.9023 5.43393C10.7336 5.72171 10.389 6.18024 9.76497 6.43244C9.20035 6.66061 8.67937 6.61535 8.34762 6.54418C8.0172 6.4733 7.74214 6.34912 7.55659 6.25415C7.31648 6.13127 7.07572 5.97616 6.88584 5.84781C6.516 6.15567 6.17428 6.49625 5.86519 6.86503C5.99223 7.04833 6.14183 7.27492 6.26202 7.4998C6.3572 7.67789 6.48612 7.94796 6.56302 8.27401C6.63891 8.59575 6.70372 9.14281 6.45531 9.73851C6.20437 10.3403 5.76359 10.6816 5.4686 10.8566C5.174 11.0314 4.8842 11.1251 4.68892 11.1784C4.46956 11.2383 4.2325 11.2817 4.02893 11.3135C4.00979 11.5395 4 11.7684 4 12C4 12.245 4.01096 12.4872 4.03236 12.7259C4.23291 12.7563 4.46424 12.797 4.67741 12.8525C4.86364 12.9009 5.14692 12.9872 5.43622 13.1499C5.71438 13.3063 6.19911 13.6472 6.46194 14.2932C6.70706 14.8957 6.63576 15.4476 6.54922 15.7813C6.46297 16.1138 6.32264 16.385 6.22091 16.5609C6.10782 16.7565 5.97133 16.9516 5.84952 17.1162C6.15204 17.4794 6.48612 17.8154 6.8475 18.1201C7.01291 18.0006 7.20957 17.8667 7.40753 17.7561C7.58897 17.6547 7.86505 17.518 8.20287 17.4374C8.54656 17.3554 9.08149 17.3026 9.66041 17.5383C10.2831 17.7918 10.6232 18.251 10.7848 18.5219C10.9526 18.8034 11.0467 19.0809 11.1013 19.2672C11.1694 19.4994 11.2206 19.7538 11.2586 19.9662C11.5024 19.9886 11.7497 20 12 20C12.2294 20 12.4563 19.9904 12.6802 19.9716C12.7087 19.7738 12.7471 19.5476 12.8002 19.3383C12.8482 19.1487 12.9344 18.8604 13.1001 18.5658C13.2619 18.278 13.6049 17.7992 14.2458 17.5383C14.8283 17.3011 15.364 17.3577 15.695 17.4345C16.0258 17.5112 16.2996 17.6413 16.4818 17.7388C16.7107 17.8613 16.9404 18.0141 17.125 18.1432C17.4969 17.8325 17.8403 17.4886 18.1505 17.1162C18.0287 16.9516 17.8922 16.7565 17.7791 16.5609C17.6774 16.385 17.537 16.1138 17.4508 15.7813C17.3642 15.4476 17.2929 14.8957 17.5381 14.2932C17.7908 13.6719 18.2479 13.3299 18.5269 13.1643C18.8132 12.9944 19.0953 12.9008 19.2844 12.8469C19.5121 12.782 19.7603 12.7339 19.9701 12.6981C19.9899 12.4684 20 12.2356 20 12C20 11.7474 19.9884 11.498 19.9656 11.2522C19.7454 11.2081 19.4733 11.1482 19.2267 11.0698C19.0406 11.0106 18.7675 10.9109 18.4919 10.7396C18.2265 10.5747 17.7849 10.2354 17.5381 9.62866C17.3041 9.05349 17.3538 8.52067 17.437 8.17196C17.5182 7.83132 17.6567 7.5539 17.7594 7.37195C17.8661 7.18279 17.9942 6.99539 18.1103 6.83589C17.8029 6.47265 17.4637 6.13712 17.0971 5.83364C16.894 5.96633 16.6261 6.13516 16.3622 6.26587C16.1784 6.35684 15.9072 6.47588 15.5847 6.54441C15.2678 6.61174 14.7391 6.66453 14.1638 6.42889C13.5406 6.17363 13.1942 5.71342 13.0201 5.40634C12.8477 5.10204 12.7611 4.80458 12.7136 4.60871C12.6666 4.415 12.6332 4.20801 12.6086 4.02271Z" fill="#666666"/>
</svg>
