<svg width="24" height="24" viewBox="0 0 24 24" fill="none" xmlns="http://www.w3.org/2000/svg">
<path d="M7 19C7.55228 19 8 19.4477 8 20C8 20.5523 7.55228 21 7 21H3C2.44772 21 2 20.5523 2 20C2 19.4477 2.44772 19 3 19H7ZM13 19C13.5523 19 14 19.4477 14 20C14 20.5523 13.5523 21 13 21H11C10.4477 21 10 20.5523 10 20C10 19.4477 10.4477 19 11 19H13ZM21 19C21.5523 19 22 19.4477 22 20C22 20.5523 21.5523 21 21 21H17C16.4477 21 16 20.5523 16 20C16 19.4477 16.4477 19 17 19H21ZM7 15C7.55228 15 8 15.4477 8 16C8 16.5523 7.55228 17 7 17H3C2.44772 17 2 16.5523 2 16C2 15.4477 2.44772 15 3 15H7ZM13 15C13.5523 15 14 15.4477 14 16C14 16.5523 13.5523 17 13 17H11C10.4477 17 10 16.5523 10 16C10 15.4477 10.4477 15 11 15H13ZM21 15C21.5523 15 22 15.4477 22 16C22 16.5523 21.5523 17 21 17H17C16.4477 17 16 16.5523 16 16C16 15.4477 16.4477 15 17 15H21ZM7 11C7.55228 11 8 11.4477 8 12C8 12.5523 7.55228 13 7 13H3C2.44772 13 2 12.5523 2 12C2 11.4477 2.44772 11 3 11H7ZM13 11C13.5523 11 14 11.4477 14 12C14 12.5523 13.5523 13 13 13H11C10.4477 13 10 12.5523 10 12C10 11.4477 10.4477 11 11 11H13ZM21 11C21.5523 11 22 11.4477 22 12C22 12.5523 21.5523 13 21 13H17C16.4477 13 16 12.5523 16 12C16 11.4477 16.4477 11 17 11H21ZM7 7C7.55228 7 8 7.44772 8 8C8 8.55228 7.55228 9 7 9H3C2.44772 9 2 8.55228 2 8C2 7.44772 2.44772 7 3 7H7ZM13 7C13.5523 7 14 7.44772 14 8C14 8.55228 13.5523 9 13 9H11C10.4477 9 10 8.55228 10 8C10 7.44772 10.4477 7 11 7H13ZM21 7C21.5523 7 22 7.44772 22 8C22 8.55228 21.5523 9 21 9H17C16.4477 9 16 8.55228 16 8C16 7.44772 16.4477 7 17 7H21ZM7 3C7.55228 3 8 3.44772 8 4C8 4.55228 7.55228 5 7 5H3C2.44772 5 2 4.55228 2 4C2 3.44772 2.44772 3 3 3H7ZM13 3C13.5523 3 14 3.44772 14 4C14 4.55228 13.5523 5 13 5H11C10.4477 5 10 4.55228 10 4C10 3.44772 10.4477 3 11 3H13ZM21 3C21.5523 3 22 3.44772 22 4C22 4.55228 21.5523 5 21 5H17C16.4477 5 16 4.55228 16 4C16 3.44772 16.4477 3 17 3H21Z" fill="#666666"/>
</svg>
