<svg width="24" height="24" viewBox="0 0 24 24" fill="none" xmlns="http://www.w3.org/2000/svg">
<path d="M7 15V5C7 3.34315 8.34315 2 10 2H13.1602C14.3278 2 15.4373 2.51003 16.1973 3.39648L20.0371 7.87695C20.6583 8.60183 21 9.52484 21 10.4795V15C21 16.6569 19.6569 18 18 18V16C18.5523 16 19 15.5523 19 15V10.4795C19 10.0021 18.8292 9.54017 18.5186 9.17773L14.6787 4.69824C14.3463 4.31053 13.8802 4.06668 13.3779 4.01172L13.1602 4H10C9.44772 4 9 4.44772 9 5V15C9 15.5523 9.44772 16 10 16V18C8.34315 18 7 16.6569 7 15ZM18 16V18H10V16H18Z" fill="#666666"/>
<path d="M3 19V9C3 7.34315 4.34315 6 6 6H8V8H6C5.44772 8 5 8.44772 5 9V19C5 19.5523 5.44772 20 6 20H14C14.5523 20 15 19.5523 15 19V17H17V19C17 20.6569 15.6569 22 14 22H6C4.34315 22 3 20.6569 3 19Z" fill="#666666"/>
<path d="M13 7V3C13 2.44772 13.4477 2 14 2C14.5523 2 15 2.44772 15 3V7C15 7.55228 15.4477 8 16 8H19C19.5523 8 20 8.44772 20 9C20 9.55228 19.5523 10 19 10H16C14.3431 10 13 8.65685 13 7Z" fill="#666666"/>
</svg>
