<svg width="24" height="24" viewBox="0 0 24 24" fill="none" xmlns="http://www.w3.org/2000/svg">
<path d="M6 8V5C6 4.44772 6.44772 4 7 4H17C17.5523 4 18 4.44771 18 5V8H19C19.3506 8 19.6872 8.06015 20 8.17071V5C20 3.34315 18.6569 2 17 2H7C5.34315 2 4 3.34315 4 5V8.17071C4.31278 8.06015 4.64936 8 5 8H6Z" fill="#666666"/>
<path d="M6 19H5C4.64936 19 4.31278 18.9398 4 18.8293V19C4 20.6569 5.34315 22 7 22H17C18.6569 22 20 20.6569 20 19V18.8293C19.6872 18.9398 19.3506 19 19 19H18C18 19.5523 17.5523 20 17 20H7C6.44771 20 6 19.5523 6 19Z" fill="#666666"/>
<path fill-rule="evenodd" clip-rule="evenodd" d="M4 11V16C4 16.5523 4.44772 17 5 17H19C19.5523 17 20 16.5523 20 16V11C20 10.4477 19.5523 10 19 10H5C4.44772 10 4 10.4477 4 11ZM2 11V16C2 17.6569 3.34315 19 5 19H19C20.6569 19 22 17.6569 22 16V11C22 9.34315 20.6569 8 19 8H5C3.34315 8 2 9.34315 2 11Z" fill="#666666"/>
<path d="M16.0151 16L14.2241 10.9893H15.3213L16.5894 14.6978L17.8164 10.9893H18.8896L17.0952 16H16.0151Z" fill="#666666"/>
<path d="M9.81152 14.3696L10.7959 14.2739C10.8551 14.6043 10.9748 14.847 11.1548 15.002C11.3371 15.1569 11.582 15.2344 11.8896 15.2344C12.2155 15.2344 12.4604 15.166 12.6245 15.0293C12.7909 14.8903 12.874 14.7285 12.874 14.5439C12.874 14.4255 12.8387 14.3252 12.7681 14.2432C12.6997 14.1589 12.5789 14.0859 12.4058 14.0244C12.2873 13.9834 12.0173 13.9105 11.5957 13.8057C11.0534 13.6712 10.6729 13.506 10.4541 13.3101C10.1465 13.0343 9.99268 12.6982 9.99268 12.3018C9.99268 12.0465 10.0645 11.8084 10.208 11.5874C10.3538 11.3641 10.5623 11.1943 10.8335 11.0781C11.1069 10.9619 11.4362 10.9038 11.8213 10.9038C12.4502 10.9038 12.923 11.0417 13.2397 11.3174C13.5588 11.5931 13.7262 11.9611 13.7422 12.4214L12.7305 12.4658C12.6872 12.2083 12.5938 12.0238 12.4502 11.9121C12.3089 11.7982 12.0959 11.7412 11.811 11.7412C11.5171 11.7412 11.2869 11.8016 11.1206 11.9224C11.0135 11.9998 10.96 12.1035 10.96 12.2334C10.96 12.3519 11.0101 12.4533 11.1104 12.5376C11.238 12.6447 11.5479 12.7563 12.04 12.8726C12.5322 12.9888 12.8957 13.1095 13.1304 13.2349C13.3674 13.3579 13.5519 13.5277 13.6841 13.7441C13.8185 13.9583 13.8857 14.2238 13.8857 14.5405C13.8857 14.8276 13.806 15.0965 13.6465 15.3472C13.487 15.5978 13.2614 15.7847 12.9697 15.9077C12.6781 16.0285 12.3146 16.0889 11.8794 16.0889C11.2459 16.0889 10.7594 15.943 10.4199 15.6514C10.0804 15.3574 9.8776 14.9302 9.81152 14.3696Z" fill="#666666"/>
<path d="M8.21533 14.1577L9.19629 14.4688C9.0459 15.0156 8.79525 15.4224 8.44434 15.689C8.0957 15.9533 7.65251 16.0854 7.11475 16.0854C6.44938 16.0854 5.90251 15.8587 5.47412 15.4053C5.04574 14.9495 4.83154 14.3275 4.83154 13.5391C4.83154 12.7051 5.04688 12.0579 5.47754 11.5977C5.9082 11.1351 6.47445 10.9038 7.17627 10.9038C7.78923 10.9038 8.28711 11.085 8.66992 11.4473C8.89779 11.6615 9.06869 11.9691 9.18262 12.3701L8.18115 12.6094C8.12191 12.3496 7.99772 12.1445 7.80859 11.9941C7.62174 11.8438 7.39388 11.7686 7.125 11.7686C6.75358 11.7686 6.45166 11.9019 6.21924 12.1685C5.98909 12.4351 5.87402 12.8669 5.87402 13.4639C5.87402 14.0973 5.98796 14.5485 6.21582 14.8174C6.44369 15.0863 6.73991 15.2207 7.10449 15.2207C7.37337 15.2207 7.60465 15.1353 7.79834 14.9644C7.99202 14.7935 8.13102 14.5246 8.21533 14.1577Z" fill="#666666"/>
</svg>
