<svg width="24" height="24" viewBox="0 0 24 24" fill="none" xmlns="http://www.w3.org/2000/svg">
<path d="M8 6C8 4.88562 7.11438 4 6 4C4.88562 4 4 4.88562 4 6C4 7.11438 4.88562 8 6 8C7.11438 8 8 7.11438 8 6ZM10 6C10 8.21895 8.21895 10 6 10C3.78105 10 2 8.21895 2 6C2 3.78105 3.78105 2 6 2C8.21895 2 10 3.78105 10 6Z" fill="#666666"/>
<path d="M8 18C8 16.8856 7.11438 16 6 16C4.88562 16 4 16.8856 4 18C4 19.1144 4.88562 20 6 20C7.11438 20 8 19.1144 8 18ZM10 18C10 20.219 8.21895 22 6 22C3.78105 22 2 20.219 2 18C2 15.781 3.78105 14 6 14C8.21895 14 10 15.781 10 18Z" fill="#666666"/>
<path d="M22.1211 20L20.1562 20.0576C18.7801 20.0979 17.4482 19.5691 16.4746 18.5957L6.87891 9L9 6.87891L22.1211 20ZM12 11C11.4477 11 11 11.4477 11 12C11 12.5523 11.4477 13 12 13C12.5523 13 13 12.5523 13 12C13 11.4477 12.5523 11 12 11Z" fill="#666666"/>
<path d="M20.1562 3.94238L22.1211 4L9 17.1211L6.87891 15L16.4746 5.4043C17.4482 4.43093 18.7801 3.90207 20.1562 3.94238ZM12 11C11.4477 11 11 11.4477 11 12C11 12.5523 11.4477 13 12 13C12.5523 13 13 12.5523 13 12C13 11.4477 12.5523 11 12 11Z" fill="#666666"/>
</svg>
