<svg width="24" height="24" viewBox="0 0 24 24" fill="none" xmlns="http://www.w3.org/2000/svg">
<path fill-rule="evenodd" clip-rule="evenodd" d="M3 12C3 7.00327 7.00327 3 12 3C12.5523 3 13 3.44772 13 4C13 4.55228 12.5523 5 12 5C8.10784 5 5 8.10784 5 12C5 13.6863 5.58204 15.2204 6.55463 16.4203C6.9024 16.8493 6.8365 17.479 6.40746 17.8268C5.97841 18.1746 5.34868 18.1087 5.00092 17.6796C3.74675 16.1323 3 14.1561 3 12ZM17.5925 6.17319C18.0216 5.82543 18.6513 5.89132 18.9991 6.32037C20.2533 7.86769 21 9.84391 21 12C21 16.9967 16.9967 21 12 21C11.4477 21 11 20.5523 11 20C11 19.4477 11.4477 19 12 19C15.8922 19 19 15.8922 19 12C19 10.3137 18.418 8.77965 17.4454 7.57973C17.0976 7.15068 17.1635 6.52095 17.5925 6.17319Z" fill="#666666"/>
<path fill-rule="evenodd" clip-rule="evenodd" d="M12.2928 22.7071C11.9023 23.0976 11.2691 23.0976 10.8786 22.7071L9.58569 21.4142C8.80464 20.6332 8.80465 19.3668 9.58569 18.5858L10.8786 17.2929C11.2691 16.9024 11.9023 16.9024 12.2928 17.2929C12.6833 17.6834 12.6833 18.3166 12.2928 18.7071L11 20L12.2928 21.2929C12.6833 21.6834 12.6833 22.3166 12.2928 22.7071Z" fill="#666666"/>
<path fill-rule="evenodd" clip-rule="evenodd" d="M11.2929 1.29289C11.6834 0.902369 12.3166 0.902369 12.7071 1.29289L14 2.58579C14.7811 3.36684 14.781 4.63317 14 5.41421L12.7071 6.70711C12.3166 7.09763 11.6834 7.09763 11.2929 6.70711C10.9024 6.31658 10.9024 5.68342 11.2929 5.29289L12.5858 4L11.2929 2.70711C10.9024 2.31658 10.9024 1.68342 11.2929 1.29289Z" fill="#666666"/>
</svg>
