<svg width="32" height="26" viewBox="0 0 32 26" fill="none" xmlns="http://www.w3.org/2000/svg">
<path d="M16.3994 9.33333C10.5861 9.33333 4.39941 7.69333 4.39941 4.66667C4.39941 1.64 10.5861 0 16.3994 0C22.2127 0 28.3994 1.64 28.3994 4.66667C28.3994 7.69333 22.2127 9.33333 16.3994 9.33333Z" fill="white"/>
<path d="M4.39941 20.6667C4.39941 23.6933 10.5861 25.3333 16.3994 25.3333C22.2127 25.3333 28.3994 23.6933 28.3994 20.6667V4.66667C28.3994 4.29333 28.1061 4 27.7327 4H5.06608C4.69275 4 4.39941 4.29333 4.39941 4.66667V20.6667Z" fill="white"/>
<path d="M16.3994 9.33333C10.5861 9.33333 4.39941 7.69333 4.39941 4.66667C4.39941 1.64 10.5861 0 16.3994 0C22.2127 0 28.3994 1.64 28.3994 4.66667C28.3994 7.69333 22.2127 9.33333 16.3994 9.33333ZM16.3994 1.33333C9.79941 1.33333 5.73275 3.28 5.73275 4.66667C5.73275 6.05333 9.78608 8 16.3994 8C23.0127 8 27.0661 6.05333 27.0661 4.66667C27.0661 3.28 23.0127 1.33333 16.3994 1.33333Z" fill="#3C3C3C"/>
<path d="M16.3994 14.6668C10.5861 14.6668 4.39941 13.0268 4.39941 10.0002C4.39941 9.62683 4.69275 9.3335 5.06608 9.3335C5.43941 9.3335 5.73275 9.62683 5.73275 10.0002C5.73275 11.3868 9.78608 13.3335 16.3994 13.3335C23.0127 13.3335 27.0661 11.3868 27.0661 10.0002C27.0661 9.62683 27.3594 9.3335 27.7327 9.3335C28.1061 9.3335 28.3994 9.62683 28.3994 10.0002C28.3994 13.0268 22.2127 14.6668 16.3994 14.6668Z" fill="#3C3C3C"/>
<path d="M16.3994 19.9998C10.5861 19.9998 4.39941 18.3598 4.39941 15.3332C4.39941 14.9598 4.69275 14.6665 5.06608 14.6665C5.43941 14.6665 5.73275 14.9598 5.73275 15.3332C5.73275 16.7198 9.78608 18.6665 16.3994 18.6665C23.0127 18.6665 27.0661 16.7198 27.0661 15.3332C27.0661 14.9598 27.3594 14.6665 27.7327 14.6665C28.1061 14.6665 28.3994 14.9598 28.3994 15.3332C28.3994 18.3598 22.2127 19.9998 16.3994 19.9998Z" fill="#3C3C3C"/>
<path d="M16.3994 25.3333C10.5861 25.3333 4.39941 23.6933 4.39941 20.6667V4.66667C4.39941 4.29333 4.69275 4 5.06608 4C5.43941 4 5.73275 4.29333 5.73275 4.66667V20.6667C5.73275 22.0533 9.78608 24 16.3994 24C23.0127 24 27.0661 22.0533 27.0661 20.6667V4.66667C27.0661 4.29333 27.3594 4 27.7327 4C28.1061 4 28.3994 4.29333 28.3994 4.66667V20.6667C28.3994 23.6933 22.2127 25.3333 16.3994 25.3333Z" fill="#3C3C3C"/>
</svg>
