<svg width="24" height="24" viewBox="0 0 24 24" fill="none" xmlns="http://www.w3.org/2000/svg">
<path d="M18 6.38574L12 4.13574L6 6.38574V11.0996C6 13.2047 6.61661 15.099 7.87988 16.8369C9.02104 18.4068 10.3874 19.4045 12 19.9189C13.6126 19.4045 14.979 18.4068 16.1201 16.8369C17.3834 15.099 18 13.2047 18 11.0996V6.38574ZM20 11.0996C20 13.6329 19.2456 15.9377 17.7373 18.0127L17.4502 18.3926C15.9887 20.2506 14.172 21.4531 12 22C9.82802 21.4531 8.01127 20.2506 6.5498 18.3926L6.2627 18.0127C4.75436 15.9377 4 13.6329 4 11.0996V5L12 2L20 5V11.0996Z" fill="#666666"/>
</svg>
