<svg width="24" height="24" viewBox="0 0 24 24" fill="none" xmlns="http://www.w3.org/2000/svg">
<path fill-rule="evenodd" clip-rule="evenodd" d="M2 12C2 6.44772 6.44772 2 12 2C12.7618 2 13.5043 2.08391 14.2183 2.24365C14.7573 2.36423 15.0965 2.89889 14.9759 3.43785C14.8553 3.97682 14.3206 4.31598 13.7817 4.1954C13.2107 4.06765 12.6146 4 12 4C7.55228 4 4 7.55228 4 12C4 16.4477 7.55228 20 12 20C16.4477 20 20 16.4477 20 12C20 11.3854 19.9323 10.7893 19.8046 10.2183C19.684 9.67937 20.0232 9.1447 20.5621 9.02412C21.1011 8.90355 21.6358 9.24271 21.7563 9.78167C21.9161 10.4957 22 11.2382 22 12C22 17.5523 17.5523 22 12 22C6.44772 22 2 17.5523 2 12ZM16 5C16 4.44772 16.4477 4 17 4H21C21.5523 4 22 4.44772 22 5C22 5.55228 21.5523 6 21 6H17C16.4477 6 16 5.55228 16 5ZM12 5C12.5523 5 13 5.44772 13 6V7H13.2574C14.3182 7 15.3356 7.42143 16.0858 8.17157L16.2071 8.29289C16.5976 8.68342 16.5976 9.31658 16.2071 9.70711C15.8166 10.0976 15.1834 10.0976 14.7929 9.70711L14.6716 9.58579C14.2965 9.21071 13.7878 9 13.2574 9H11C10.4477 9 10 9.44772 10 10C10 10.5523 10.4477 11 11 11H13.5C15.1569 11 16.5 12.3431 16.5 14C16.5 15.6569 15.1569 17 13.5 17H13V18C13 18.5523 12.5523 19 12 19C11.4477 19 11 18.5523 11 18V17C11 16.9975 11 16.9951 11 16.9926C10.0277 16.9336 9.10697 16.5212 8.41421 15.8284L8.29289 15.7071C7.90237 15.3166 7.90237 14.6834 8.29289 14.2929C8.68342 13.9024 9.31658 13.9024 9.70711 14.2929L9.82843 14.4142C10.2035 14.7893 10.7122 15 11.2426 15H13.5C14.0523 15 14.5 14.5523 14.5 14C14.5 13.4477 14.0523 13 13.5 13H11C9.34315 13 8 11.6569 8 10C8 8.34315 9.34315 7 11 7V6C11 5.44772 11.4477 5 12 5Z" fill="#666666"/>
</svg>
