<svg width="24" height="24" viewBox="0 0 24 24" fill="none" xmlns="http://www.w3.org/2000/svg">
<path fill-rule="evenodd" clip-rule="evenodd" d="M6 19.7889V4.04137C6 3.48147 6.44772 3.02758 7 3.02758H17C17.5523 3.02758 18 3.48147 18 4.04137V19.7889C16.8789 19.1788 15.4594 19.3439 14.5016 20.2785L14.2857 20.4892L14.0804 20.2889C12.9188 19.1554 11.0812 19.1554 9.91959 20.2889L9.71429 20.4892L9.49839 20.2785C8.5406 19.3439 7.12108 19.1788 6 19.7889ZM4 4.04137V21.9842C4 22.8706 5.0431 23.3302 5.68232 22.7253L6.73567 21.7287C7.12421 21.361 7.72853 21.3657 8.11146 21.7394L9.02082 22.6267C9.40802 23.0045 10.0206 23.0045 10.4078 22.6267L11.3065 21.7497C11.6937 21.3719 12.3063 21.3719 12.6935 21.7497L13.5922 22.6267C13.9795 23.0045 14.592 23.0045 14.9792 22.6267L15.8885 21.7394C16.2715 21.3657 16.8758 21.361 17.2643 21.7287L18.3177 22.7253C18.9569 23.3302 20 22.8706 20 21.9842V4.04137C20 2.36167 18.6569 1 17 1H7C5.34315 1 4 2.36167 4 4.04137Z" fill="#666666"/>
<path fill-rule="evenodd" clip-rule="evenodd" d="M8 16.2068C8 15.6469 8.44772 15.193 9 15.193H15C15.5523 15.193 16 15.6469 16 16.2068C16 16.7667 15.5523 17.2206 15 17.2206H9C8.44772 17.2206 8 16.7667 8 16.2068Z" fill="#666666"/>
<path fill-rule="evenodd" clip-rule="evenodd" d="M11.8462 4.29481C12.2604 4.29481 12.5962 4.63523 12.5962 5.05516V5.64653H12.6199C13.3287 5.64653 13.9951 5.95632 14.4764 6.48501L14.5511 6.56701C14.8321 6.87557 14.8131 7.35661 14.5087 7.64144C14.2043 7.92626 13.7298 7.90702 13.4489 7.59846L13.3742 7.51646C13.1632 7.28467 12.8904 7.16722 12.6199 7.16722H11.2308C11.0206 7.16722 10.75 7.37354 10.75 7.75859C10.75 8.14365 11.0206 8.34997 11.2308 8.34997H12.7692C13.9186 8.34997 14.75 9.35402 14.75 10.462C14.75 11.57 13.9186 12.5741 12.7692 12.5741H12.5962V13.1655C12.5962 13.5854 12.2604 13.9258 11.8462 13.9258C11.4319 13.9258 11.0962 13.5854 11.0962 13.1655V12.5574C10.495 12.4866 9.94006 12.193 9.52356 11.7356L9.4489 11.6536C9.16794 11.3451 9.18692 10.864 9.49129 10.5792C9.79566 10.2944 10.2702 10.3136 10.5511 10.6222L10.6258 10.7042C10.8368 10.936 11.1096 11.0534 11.3801 11.0534H12.7692C12.9794 11.0534 13.25 10.8471 13.25 10.462C13.25 10.077 12.9794 9.87066 12.7692 9.87066H11.2308C10.0814 9.87066 9.25 8.86661 9.25 7.75859C9.25 6.69433 10.0171 5.72598 11.0962 5.65117V5.05516C11.0962 4.63523 11.4319 4.29481 11.8462 4.29481Z" fill="#666666"/>
</svg>
