<svg width="24" height="24" viewBox="0 0 24 24" fill="none" xmlns="http://www.w3.org/2000/svg">
<path fill-rule="evenodd" clip-rule="evenodd" d="M5.99997 14.2129V4C5.99997 3.44772 6.44769 3 6.99997 3H17C17.5523 3 18 3.44771 18 4V14.2129C17.0039 13.6773 15.7781 13.7447 14.8412 14.4112L14.2857 14.8064L13.739 14.4175C12.6979 13.6769 11.302 13.6769 10.2609 14.4175L9.71426 14.8064L9.15878 14.4112C8.22183 13.7447 6.99606 13.6773 5.99997 14.2129ZM3.99997 4V16.0953C3.99997 16.9012 4.90445 17.376 5.56782 16.9184L6.85187 16.0326C7.19807 15.7938 7.6567 15.7971 7.9994 16.0409L9.13457 16.8485C9.4816 17.0954 9.94691 17.0954 10.2939 16.8485L11.4203 16.0472C11.7673 15.8003 12.2326 15.8003 12.5797 16.0472L13.706 16.8485C14.053 17.0954 14.5183 17.0954 14.8654 16.8485L16.0005 16.0409C16.3432 15.7971 16.8019 15.7938 17.1481 16.0326L18.4321 16.9184C19.0955 17.376 20 16.9012 20 16.0953V4C20 2.34315 18.6568 1 17 1H6.99997C5.34312 1 3.99997 2.34315 3.99997 4Z" fill="#666666"/>
<path fill-rule="evenodd" clip-rule="evenodd" d="M7.99997 11C7.99997 10.4477 8.44769 10 8.99997 10H15C15.5523 10 16 10.4477 16 11C16 11.5523 15.5523 12 15 12H8.99997C8.44769 12 7.99997 11.5523 7.99997 11Z" fill="#666666"/>
<path fill-rule="evenodd" clip-rule="evenodd" d="M7.99997 7C7.99997 6.44772 8.44769 6 8.99997 6H15C15.5523 6 16 6.44772 16 7C16 7.55228 15.5523 8 15 8H8.99997C8.44769 8 7.99997 7.55228 7.99997 7Z" fill="#666666"/>
<path fill-rule="evenodd" clip-rule="evenodd" d="M20.7071 18.2929C20.3166 17.9024 19.6834 17.9024 19.2929 18.2929C18.9023 18.6834 18.9023 19.3166 19.2929 19.7071L19.5858 20H14C13.4477 20 13 20.4478 13 21C13 21.5523 13.4477 22 14 22H19.5857L19.2929 22.2929C18.9023 22.6834 18.9023 23.3166 19.2929 23.7071C19.6834 24.0976 20.3166 24.0976 20.7071 23.7071L22 22.4142C22.781 21.6332 22.781 20.3668 22 19.5858L20.7071 18.2929Z" fill="#666666"/>
<path fill-rule="evenodd" clip-rule="evenodd" d="M2.87856 23.7071C3.26908 24.0976 3.90225 24.0976 4.29277 23.7071C4.6833 23.3166 4.6833 22.6834 4.29277 22.2929L3.99988 22L14 22C14.5523 22 15 21.5523 15 21C15 20.4477 14.5523 20 14 20L3.99988 20L4.29277 19.7071C4.6833 19.3166 4.6833 18.6834 4.29277 18.2929C3.90225 17.9024 3.26908 17.9024 2.87856 18.2929L1.58566 19.5858C0.804617 20.3668 0.804615 21.6332 1.58566 22.4142L2.87856 23.7071Z" fill="#666666"/>
</svg>
