<svg width="24" height="24" viewBox="0 0 24 24" fill="none" xmlns="http://www.w3.org/2000/svg">
<path fill-rule="evenodd" clip-rule="evenodd" d="M6.4039 6.90384C6.4039 7.45613 6.85161 7.90384 7.4039 7.90384L16.3034 7.90384L16.3034 16.8033C16.3034 17.3556 16.7511 17.8033 17.3034 17.8033C17.8557 17.8033 18.3034 17.3556 18.3034 16.8033L18.3034 7.90384C18.3034 6.79928 17.408 5.90384 16.3034 5.90384L7.4039 5.90384C6.85161 5.90384 6.4039 6.35156 6.4039 6.90384Z" fill="#666666"/>
<path fill-rule="evenodd" clip-rule="evenodd" d="M17.3034 6.90384C17.6939 7.29437 17.6939 7.92753 17.3034 8.31806L8.11101 17.5104C7.72048 17.901 7.08732 17.901 6.69679 17.5104C6.30627 17.1199 6.30627 16.4868 6.69679 16.0962L15.8892 6.90384C16.2797 6.51332 16.9129 6.51332 17.3034 6.90384Z" fill="#666666"/>
</svg>
