<svg width="24" height="24" viewBox="0 0 24 24" fill="none" xmlns="http://www.w3.org/2000/svg">
<path fill-rule="evenodd" clip-rule="evenodd" d="M5.86859 16.9738C6.42081 16.4652 7.14031 16.1834 7.88661 16.1834H19C19.5523 16.1834 20 15.7298 20 15.1703V6.05239C20 4.93336 19.1046 4.0262 18 4.0262H5C4.44772 4.0262 4 4.47978 4 5.0393V18.6947L5.86859 16.9738ZM3.67267 21.7345C3.0303 22.3262 2 21.8644 2 20.9849V5.0393C2 3.36074 3.34315 2 5 2H18C20.2091 2 22 3.81432 22 6.05239V15.1703C22 16.8488 20.6569 18.2096 19 18.2096H7.88661C7.63784 18.2096 7.39801 18.3035 7.21393 18.473L3.67267 21.7345Z" fill="#666666"/>
<path fill-rule="evenodd" clip-rule="evenodd" d="M12 6.05239C12.5523 6.05239 13 6.50597 13 7.06549V10.1048C13 10.6643 12.5523 11.1179 12 11.1179C11.4477 11.1179 11 10.6643 11 10.1048V7.06549C11 6.50597 11.4477 6.05239 12 6.05239Z" fill="#666666"/>
<path d="M13 13.1441C13 13.7036 12.5523 14.1572 12 14.1572C11.4477 14.1572 11 13.7036 11 13.1441C11 12.5846 11.4477 12.131 12 12.131C12.5523 12.131 13 12.5846 13 13.1441Z" fill="#666666"/>
</svg>
