<svg width="24" height="24" viewBox="0 0 24 24" fill="none" xmlns="http://www.w3.org/2000/svg">
<path fill-rule="evenodd" clip-rule="evenodd" d="M6 5V19C6 19.5523 6.44772 20 7 20H17C17.5523 20 18 19.5523 18 19V10.4797C18 10.0023 17.8292 9.5406 17.5185 9.17811L13.6788 4.69842C13.2988 4.25513 12.7441 4 12.1603 4H7C6.44772 4 6 4.44772 6 5ZM4 5V19C4 20.6569 5.34315 22 7 22H17C18.6569 22 20 20.6569 20 19V10.4797C20 9.52485 19.6584 8.6015 19.037 7.87653L15.1973 3.39683C14.4374 2.51025 13.328 2 12.1603 2H7C5.34315 2 4 3.34315 4 5Z" fill="#666666"/>
<path fill-rule="evenodd" clip-rule="evenodd" d="M13 2.5C13.5523 2.5 14 2.44772 14 3V7C14 7.55228 14.4477 8 15 8H18C18.5523 8 19 8.44772 19 9C19 9.55228 18.5523 10 18 10H15C13.3431 10 12 8.65685 12 7V3C12 2.44772 12.4477 2.5 13 2.5Z" fill="#666666"/>
<path fill-rule="evenodd" clip-rule="evenodd" d="M8 17C8 16.4477 8.44772 16 9 16H13C13.5523 16 14 16.4477 14 17C14 17.5523 13.5523 18 13 18H9C8.44772 18 8 17.5523 8 17Z" fill="#666666"/>
<path fill-rule="evenodd" clip-rule="evenodd" d="M8 13C8 12.4477 8.44772 12 9 12H15C15.5523 12 16 12.4477 16 13C16 13.5523 15.5523 14 15 14H9C8.44772 14 8 13.5523 8 13Z" fill="#666666"/>
<path fill-rule="evenodd" clip-rule="evenodd" d="M8 9C8 8.44772 8.44772 8 9 8H10C10.5523 8 11 8.44772 11 9C11 9.55228 10.5523 10 10 10H9C8.44772 10 8 9.55228 8 9Z" fill="#666666"/>
</svg>
