<svg width="24" height="24" viewBox="0 0 24 24" fill="none" xmlns="http://www.w3.org/2000/svg">
<path d="M13.8877 15.5881C14.8538 15.5883 15.6374 16.372 15.6377 17.3381V20.1799C15.6377 20.5939 15.3016 20.9296 14.8877 20.9299C14.4736 20.9298 14.1377 20.594 14.1377 20.1799V18.1496L12.3857 19.9016C12.897 20.8487 12.7532 22.0556 11.9531 22.8557C10.9768 23.8318 9.39423 23.8319 8.41797 22.8557C7.44175 21.8794 7.44184 20.2968 8.41797 19.3205C9.20059 18.5379 10.3723 18.3836 11.3096 18.8557L13.0771 17.0891L11.0459 17.0881L10.9697 17.0852C10.5915 17.0468 10.2959 16.7264 10.2959 16.3381C10.2962 15.95 10.5917 15.6304 10.9697 15.592L11.0459 15.5881H13.8877ZM10.8926 20.3811C10.5021 19.9906 9.86903 19.9906 9.47852 20.3811C9.08817 20.7716 9.08808 21.4047 9.47852 21.7951C9.86899 22.1855 10.5021 22.1855 10.8926 21.7951C11.2831 21.4046 11.283 20.7716 10.8926 20.3811ZM19 7.9504C21.2091 7.9504 23 9.74127 23 11.9504C22.9998 14.1594 21.209 15.9504 19 15.9504C16.791 15.9504 15.0002 14.1594 15 11.9504C15 9.74127 16.7909 7.9504 19 7.9504ZM7.93652 8.71994C8.21113 8.4455 8.64591 8.42793 8.94043 8.66818L8.99707 8.71994L11.0068 10.7287C11.6899 11.4121 11.6899 12.521 11.0068 13.2043L8.99707 15.2131C8.70427 15.5058 8.22941 15.5057 7.93652 15.2131C7.64381 14.9202 7.64377 14.4454 7.93652 14.1526L9.37207 12.717H6.89453C6.58625 13.7482 5.63143 14.5002 4.5 14.5002C3.11935 14.5002 2.00009 13.3808 2 12.0002C2.00003 10.6195 3.1193 9.50021 4.5 9.50021C5.60694 9.50021 6.54423 10.2202 6.87305 11.217H9.37207L7.93652 9.78048L7.88477 9.72384C7.6445 9.42929 7.66201 8.99454 7.93652 8.71994ZM19 9.9504C17.8954 9.9504 17 10.8458 17 11.9504C17.0002 13.0548 17.8956 13.9504 19 13.9504C20.1044 13.9504 20.9998 13.0548 21 11.9504C21 10.8458 20.1046 9.9504 19 9.9504ZM4.5 11.0002C3.94773 11.0002 3.50003 11.4479 3.5 12.0002C3.50009 12.5524 3.94777 13.0002 4.5 13.0002C5.05223 13.0002 5.49991 12.5524 5.5 12.0002C5.49997 11.4479 5.05227 11.0002 4.5 11.0002ZM8.37012 1.12423C9.34634 0.148249 10.929 0.148324 11.9053 1.12423C12.688 1.90696 12.8424 3.07947 12.3701 4.01681L14.1367 5.78341L14.1377 3.75314L14.1406 3.67599C14.179 3.29781 14.4994 3.00314 14.8877 3.00314C15.2757 3.00344 15.5954 3.29802 15.6338 3.67599L15.6377 3.75314V6.59396C15.6375 7.56011 14.8538 8.34461 13.8877 8.34493L11.0459 8.34396C10.6318 8.34396 10.2961 8.00803 10.2959 7.59396C10.2961 7.17994 10.6318 6.84396 11.0459 6.84396H13.0762L11.3242 5.09201C10.3771 5.60321 9.1702 5.46031 8.37012 4.66036C7.39381 3.68405 7.39381 2.10054 8.37012 1.12423ZM10.8447 2.18478C10.4542 1.79466 9.8211 1.79458 9.43066 2.18478C9.04014 2.5753 9.04014 3.20929 9.43066 3.59982C9.8211 3.99008 10.4542 3.98999 10.8447 3.59982C11.2352 3.20929 11.2352 2.57529 10.8447 2.18478Z" fill="#666666"/>
</svg>
