<svg width="24" height="24" viewBox="0 0 24 24" fill="none" xmlns="http://www.w3.org/2000/svg">
<path fill-rule="evenodd" clip-rule="evenodd" d="M3 13.9999C3.55228 13.9999 4 14.4476 4 14.9999V17.9999C4 19.1045 4.89543 19.9999 6 19.9999H18C19.1046 19.9999 20 19.1045 20 17.9999V14.9999C20 14.4476 20.4477 13.9999 21 13.9999C21.5523 13.9999 22 14.4476 22 14.9999V17.9999C22 20.2091 20.2091 21.9999 18 21.9999H6C3.79086 21.9999 2 20.2091 2 17.9999V14.9999C2 14.4476 2.44772 13.9999 3 13.9999Z" fill="#666666"/>
<path fill-rule="evenodd" clip-rule="evenodd" d="M16.7332 12.3059C17.1088 11.9009 17.085 11.2682 16.68 10.8926C16.2751 10.5171 15.6424 10.5409 15.2668 10.9458L13 13.39L13 5C13 4.44772 12.5523 4 12 4C11.4477 4 11 4.44772 11 5V13.39L8.73323 10.9458C8.35767 10.5409 7.72496 10.5171 7.32002 10.8926C6.91508 11.2682 6.89126 11.9009 7.26681 12.3059L10.5336 15.8282C11.325 16.6816 12.675 16.6816 13.4664 15.8282L16.7332 12.3059Z" fill="#666666"/>
</svg>
