<svg width="20" height="20" viewBox="0 0 20 20" fill="none" xmlns="http://www.w3.org/2000/svg">
<path d="M15 17.5V15H12.5V13.3334H15V10.8334H16.6667V13.3334H19.1667V15H16.6667V17.5H15ZM4.68754 17.9167C4.39587 17.9167 4.12504 17.8403 3.87504 17.6875C3.62504 17.5348 3.42365 17.3334 3.27087 17.0834L1.31254 13.6667C1.15976 13.4167 1.08337 13.1389 1.08337 12.8334C1.08337 12.5278 1.15976 12.25 1.31254 12L6.60421 2.91671C6.75699 2.63893 6.96185 2.4306 7.21879 2.29171C7.47574 2.15282 7.75004 2.08337 8.04171 2.08337H11.9584C12.25 2.08337 12.5243 2.15282 12.7813 2.29171C13.0382 2.4306 13.2431 2.63893 13.3959 2.91671L17.125 9.31254C16.9167 9.2431 16.7084 9.19796 16.5 9.17712C16.2917 9.15629 16.0695 9.14587 15.8334 9.14587H15.4792C15.3681 9.14587 15.25 9.15976 15.125 9.18754L11.9584 3.75004H8.04171L2.75004 12.8334L4.70837 16.25H11.2917C11.4445 16.5695 11.6216 16.8681 11.823 17.1459C12.0243 17.4237 12.2639 17.6806 12.5417 17.9167H4.68754ZM6.04171 14.1667L5.43754 13.1042L9.25004 6.45837H10.75L12.8542 10.125C12.6042 10.3195 12.3855 10.5174 12.198 10.7188C12.0105 10.9202 11.8334 11.1459 11.6667 11.3959L10 8.50004L7.70837 12.5H11.125C11.0139 12.7778 10.9375 13.0521 10.8959 13.323C10.8542 13.5938 10.8334 13.875 10.8334 14.1667H6.04171Z" fill="#666666"/>
</svg>
