<svg width="24" height="24" viewBox="0 0 24 24" fill="none" xmlns="http://www.w3.org/2000/svg">
<path fill-rule="evenodd" clip-rule="evenodd" d="M4.08253 19.9109H5.91241C6.18858 19.9109 6.45343 19.8009 6.6487 19.605L19.9175 6.29444L17.829 4.08909L4.39363 17.3458L2.93327 15.8564L16.3686 2.59973C17.1987 1.7807 18.5369 1.80345 19.3388 2.65023L21.4273 4.85558C22.2051 5.67694 22.1886 6.97055 21.39 7.77165L8.12127 21.0822C7.53545 21.6699 6.7409 22 5.91241 22H3.04127C2.46619 22 2 21.5323 2 20.9555V18.0905C2 17.2504 2.33624 16.4455 2.93327 15.8564L4.39363 17.3458C4.19462 17.5421 4.08253 17.8104 4.08253 18.0905V19.9109Z" fill="#666666"/>
<path fill-rule="evenodd" clip-rule="evenodd" d="M14.8002 5.59322C15.2068 5.1853 15.8661 5.1853 16.2728 5.59322L18.3553 7.68231C18.7619 8.09023 18.7619 8.7516 18.3553 9.15952C17.9487 9.56744 17.2894 9.56744 16.8827 9.15952L14.8002 7.07043C14.3935 6.66251 14.3935 6.00114 14.8002 5.59322Z" fill="#666666"/>
</svg>
