<svg width="20" height="20" viewBox="0 0 20 20" fill="none" xmlns="http://www.w3.org/2000/svg">
<path d="M4.16667 17.5C3.70833 17.5 3.31597 17.3368 2.98958 17.0104C2.66319 16.684 2.5 16.2917 2.5 15.8333V4.16667C2.5 3.70833 2.66319 3.31597 2.98958 2.98958C3.31597 2.66319 3.70833 2.5 4.16667 2.5H15.8333C16.2917 2.5 16.684 2.66319 17.0104 2.98958C17.3368 3.31597 17.5 3.70833 17.5 4.16667V9.75C17.2361 9.625 16.9653 9.51736 16.6875 9.42708C16.4097 9.33681 16.125 9.27083 15.8333 9.22917V4.16667H4.16667V15.8333H9.20833C9.25 16.1389 9.31597 16.4306 9.40625 16.7083C9.49653 16.9861 9.60417 17.25 9.72917 17.5H4.16667ZM4.16667 15V15.8333V4.16667V9.22917V9.16667V15ZM5.83333 10C5.83333 10.4602 6.20643 10.8333 6.66667 10.8333H10.9167C11.3611 10.4167 11.8576 10.0694 12.4062 9.79167C12.9549 9.51389 13.5417 9.32639 14.1667 9.22917V9.16667H6.66667C6.20643 9.16667 5.83333 9.53976 5.83333 10ZM5.83333 6.66667C5.83333 7.1269 6.20643 7.5 6.66667 7.5H13.3333C13.7936 7.5 14.1667 7.1269 14.1667 6.66667C14.1667 6.20643 13.7936 5.83333 13.3333 5.83333H6.66667C6.20643 5.83333 5.83333 6.20643 5.83333 6.66667Z" fill="#666666"/>
<path fill-rule="evenodd" clip-rule="evenodd" d="M11.8447 13.6156C11.5943 13.8862 11.6102 14.3091 11.8802 14.5601C12.1501 14.8111 12.5719 14.7952 12.8223 14.5246L14.3335 12.891L14.3335 17.9169C14.3335 18.286 14.632 18.5853 15.0002 18.5853C15.3683 18.5853 15.6668 18.286 15.6668 17.9169L15.6668 12.891L17.178 14.5246C17.4284 14.7952 17.8502 14.8111 18.1202 14.5601C18.3901 14.3091 18.406 13.8862 18.1556 13.6156L15.9778 11.2613C15.4502 10.691 14.5502 10.691 14.0226 11.2613L11.8447 13.6156Z" fill="#666666"/>
</svg>
