<svg width="24" height="24" viewBox="0 0 24 24" fill="none" xmlns="http://www.w3.org/2000/svg">
<path fill-rule="evenodd" clip-rule="evenodd" d="M12 14C13.1046 14 14 13.1046 14 12C14 10.8954 13.1046 10 12 10C10.8954 10 10 10.8954 10 12C10 13.1046 10.8954 14 12 14ZM12 16C14.2091 16 16 14.2091 16 12C16 9.79086 14.2091 8 12 8C9.79086 8 8 9.79086 8 12C8 14.2091 9.79086 16 12 16Z" fill="#666666"/>
<path fill-rule="evenodd" clip-rule="evenodd" d="M19.9996 11.9994C19.9996 11.9992 19.9996 11.9996 19.9996 11.9994C19.9977 11.9821 19.9856 11.8762 19.9122 11.6695C19.8302 11.4386 19.6938 11.1445 19.4919 10.8025C19.0873 10.1171 18.475 9.3331 17.6956 8.59481C16.1076 7.09048 14.0751 6 12 6C9.92492 6 7.89237 7.09048 6.30437 8.59481C5.52501 9.3331 4.91271 10.1171 4.50811 10.8025C4.30622 11.1445 4.1698 11.4386 4.08779 11.6695C4.01436 11.8762 4.00234 11.9821 4.00038 11.9994C4.00036 11.9996 4.0004 11.9992 4.00038 11.9994C4.0004 11.9996 4.00036 12.0004 4.00038 12.0006C4.00234 12.0179 4.01436 12.1238 4.08779 12.3305C4.1698 12.5614 4.30622 12.8555 4.50811 13.1975C4.91271 13.8829 5.52501 14.6669 6.30437 15.4052C7.89237 16.9095 9.92492 18 12 18C14.0751 18 16.1076 16.9095 17.6956 15.4052C18.475 14.6669 19.0873 13.8829 19.4919 13.1975C19.6938 12.8555 19.8302 12.5614 19.9122 12.3305C19.9856 12.1238 19.9977 12.0179 19.9996 12.0006C19.9996 12.0004 19.9996 11.9996 19.9996 11.9994ZM12 20C17.5228 20 22 14.2857 22 12C22 9.71429 17.5228 4 12 4C6.47715 4 2 9.71429 2 12C2 14.2857 6.47715 20 12 20Z" fill="#666666"/>
</svg>
