<svg width="24" height="24" viewBox="0 0 24 24" fill="none" xmlns="http://www.w3.org/2000/svg">
<path fill-rule="evenodd" clip-rule="evenodd" d="M6.76947 5.68368C3.90805 7.5545 2 10.5078 2 12C2 14.2857 6.47715 20 12 20C14.4698 20 16.7305 18.8572 18.4751 17.3894L17.0549 15.9692C15.5787 17.1745 13.8054 18 12 18C9.92492 18 7.89237 16.9095 6.30437 15.4052C5.52501 14.6669 4.91271 13.8829 4.50811 13.1975C4.30622 12.8555 4.1698 12.5614 4.08779 12.3305C4.01436 12.1238 4.00234 12.0179 4.00038 12.0006V11.9994C4.00234 11.9821 4.01436 11.8762 4.08779 11.6695C4.1698 11.4386 4.30622 11.1445 4.50811 10.8025C4.91271 10.1171 5.52501 9.3331 6.30437 8.59481C6.8894 8.04061 7.53475 7.54258 8.22034 7.13455L6.76947 5.68368ZM18.4893 14.5751C18.8992 14.1008 19.2368 13.6295 19.4919 13.1975C19.6938 12.8555 19.8302 12.5614 19.9122 12.3305C19.9856 12.1238 19.9977 12.0179 19.9996 12.0006V11.9994C19.9977 11.9821 19.9856 11.8762 19.9122 11.6695C19.8302 11.4386 19.6938 11.1445 19.4919 10.8025C19.0873 10.1171 18.475 9.3331 17.6956 8.59481C16.1076 7.09048 14.0751 6 12 6C11.3869 6 10.7776 6.09518 10.1823 6.2681L8.6161 4.70189C9.67295 4.26427 10.8123 4 12 4C17.5228 4 22 9.71429 22 12C22 12.9547 21.2189 14.5077 19.9067 15.9925L18.4893 14.5751Z" fill="#666666"/>
<path fill-rule="evenodd" clip-rule="evenodd" d="M9.76676 8.68098C8.70096 9.39953 8 10.6179 8 12C8 14.2091 9.79086 16 12 16C13.3821 16 14.6005 15.299 15.319 14.2332L13.8492 12.7634C13.5492 13.4892 12.8342 14 12 14C10.8954 14 10 13.1046 10 12C10 11.1658 10.5108 10.4508 11.2366 10.1508L9.76676 8.68098ZM15.9991 12.0849C15.9997 12.0567 16 12.0284 16 12C16 9.79086 14.2091 8 12 8C11.9716 8 11.9433 8.0003 11.9151 8.00088L15.9991 12.0849Z" fill="#666666"/>
<path fill-rule="evenodd" clip-rule="evenodd" d="M3.29289 3.29289C3.68342 2.90237 4.31658 2.90237 4.70711 3.29289L20.7071 19.2929C21.0976 19.6834 21.0976 20.3166 20.7071 20.7071C20.3166 21.0976 19.6834 21.0976 19.2929 20.7071L3.29289 4.70711C2.90237 4.31658 2.90237 3.68342 3.29289 3.29289Z" fill="#666666"/>
</svg>
