<svg width="24" height="24" viewBox="0 0 24 24" fill="none" xmlns="http://www.w3.org/2000/svg">
<path fill-rule="evenodd" clip-rule="evenodd" d="M8 7C8.55228 7 9 7.44772 9 8V9C9 9.55229 8.55228 10 8 10C7.44772 10 7 9.55229 7 9V8C7 7.44772 7.44772 7 8 7Z" fill="#666666"/>
<path fill-rule="evenodd" clip-rule="evenodd" d="M16 7C16.5523 7 17 7.44772 17 8V9C17 9.55229 16.5523 10 16 10C15.4477 10 15 9.55229 15 9V8C15 7.44772 15.4477 7 16 7Z" fill="#666666"/>
<path fill-rule="evenodd" clip-rule="evenodd" d="M16.8944 15.5528C17.1414 16.0468 16.9412 16.6474 16.4472 16.8944L16.0249 17.1056C13.4912 18.3724 10.5088 18.3724 7.97508 17.1056L7.55279 16.8944C7.05881 16.6474 6.85858 16.0468 7.10557 15.5528C7.35256 15.0588 7.95324 14.8586 8.44721 15.1056L8.86951 15.3167C10.8402 16.3021 13.1598 16.3021 15.1305 15.3167L15.5528 15.1056C16.0468 14.8586 16.6474 15.0588 16.8944 15.5528Z" fill="#666666"/>
<path fill-rule="evenodd" clip-rule="evenodd" d="M12 8C12.5523 8 13 8.44772 13 9V12C13 13.1046 12.1046 14 11 14H10C9.44771 14 9 13.5523 9 13C9 12.4477 9.44771 12 10 12H11V9C11 8.44772 11.4477 8 12 8Z" fill="#666666"/>
<path fill-rule="evenodd" clip-rule="evenodd" d="M1 12C1 5.89216 5.89216 1 12 1C18.1078 1 23 5.89216 23 12C23 18.1078 18.1078 23 12 23C5.89216 23 1 18.1078 1 12ZM12 3C6.99673 3 3 6.99673 3 12C3 17.0033 6.99673 21 12 21C17.0033 21 21 17.0033 21 12C21 6.99673 17.0033 3 12 3Z" fill="#666666"/>
</svg>
