<svg width="24" height="24" viewBox="0 0 24 24" fill="none" xmlns="http://www.w3.org/2000/svg">
<path fill-rule="evenodd" clip-rule="evenodd" d="M8 6C8.55228 6 9 6.44772 9 7V9C9 9.55229 8.55228 10 8 10C7.44772 10 7 9.55229 7 9V7C7 6.44772 7.44772 6 8 6Z" fill="#666666"/>
<path fill-rule="evenodd" clip-rule="evenodd" d="M17 6C17.5523 6 18 6.44772 18 7V9C18 9.55229 17.5523 10 17 10C16.4477 10 16 9.55229 16 9V7C16 6.44772 16.4477 6 17 6Z" fill="#666666"/>
<path fill-rule="evenodd" clip-rule="evenodd" d="M16 2C16 1.44772 16.4477 1 17 1H18C20.7614 1 23 3.23858 23 6V7C23 7.55228 22.5523 8 22 8C21.4477 8 21 7.55228 21 7V6C21 4.34315 19.6569 3 18 3H17C16.4477 3 16 2.55228 16 2Z" fill="#666666"/>
<path fill-rule="evenodd" clip-rule="evenodd" d="M22 16C22.5523 16 23 16.4477 23 17V18C23 20.7614 20.7614 23 18 23H17C16.4477 23 16 22.5523 16 22C16 21.4477 16.4477 21 17 21H18C19.6569 21 21 19.6569 21 18V17C21 16.4477 21.4477 16 22 16Z" fill="#666666"/>
<path fill-rule="evenodd" clip-rule="evenodd" d="M6 3C4.34315 3 3 4.34315 3 6V7C3 7.55228 2.55228 8 2 8C1.44772 8 1 7.55228 1 7V6C1 3.23858 3.23858 1 6 1H7C7.55228 1 8 1.44772 8 2C8 2.55228 7.55228 3 7 3H6Z" fill="#666666"/>
<path fill-rule="evenodd" clip-rule="evenodd" d="M2 16C2.55228 16 3 16.4477 3 17V18C3 19.6569 4.34315 21 6 21H7C7.55228 21 8 21.4477 8 22C8 22.5523 7.55228 23 7 23H6C3.23858 23 1 20.7614 1 18V17C1 16.4477 1.44772 16 2 16Z" fill="#666666"/>
<path fill-rule="evenodd" clip-rule="evenodd" d="M16.8944 15.5528C17.1414 16.0468 16.9412 16.6474 16.4472 16.8944L16.0249 17.1056C13.4912 18.3724 10.5088 18.3724 7.97508 17.1056L7.55279 16.8944C7.05881 16.6474 6.85858 16.0468 7.10557 15.5528C7.35256 15.0588 7.95324 14.8586 8.44721 15.1056L8.86951 15.3167C10.8402 16.3021 13.1598 16.3021 15.1305 15.3167L15.5528 15.1056C16.0468 14.8586 16.6474 15.0588 16.8944 15.5528Z" fill="#666666"/>
<path fill-rule="evenodd" clip-rule="evenodd" d="M13 6C13.5523 6 14 6.44772 14 7V11.5C14 12.6046 13.1046 13.5 12 13.5H11C10.4477 13.5 10 13.0523 10 12.5C10 11.9477 10.4477 11.5 11 11.5H12V7C12 6.44772 12.4477 6 13 6Z" fill="#666666"/>
</svg>
