<svg width="24" height="24" viewBox="0 0 24 24" fill="none" xmlns="http://www.w3.org/2000/svg">
<path fill-rule="evenodd" clip-rule="evenodd" d="M14.0263 2.67556C14.6285 3.1579 15 3.86969 15 4.73528V8.39323L21.2442 11.7231C21.7116 11.9723 22 12.4362 22 12.9385V15.693C22 16.698 20.8989 17.3755 19.9091 16.9797L15 15.0163V17.6904L16.1709 18.2368C16.679 18.474 17 18.9586 17 19.4888V20.6002C17 21.3733 16.3284 22 15.5 22H8.5C7.67157 22 7 21.3733 7 20.6002V19.4888C7 18.9586 7.32096 18.474 7.82909 18.2368L9 17.6904V15.0163L4.09085 16.9797C3.10105 17.3755 2 16.698 2 15.693V12.9385C2 12.4362 2.28843 11.9723 2.75579 11.7231L9 8.39323V4.73528C9 3.86969 9.37149 3.1579 9.97374 2.67556C10.555 2.20999 11.2962 2 12 2C12.7038 2 13.445 2.20999 14.0263 2.67556ZM11.2763 4.09192C11.1285 4.21026 11 4.3995 11 4.73528V8.39323C11 9.06302 10.6154 9.68146 9.99228 10.0138L4 13.2093V14.9854L8.90915 13.0221C9.89895 12.6262 11 13.3038 11 14.3087V17.9787C11 18.5089 10.679 18.9936 10.1709 19.2307L9 19.7772V20.1335H15V19.7772L13.8291 19.2307C13.321 18.9936 13 18.5089 13 17.9787V14.3087C13 13.3038 14.1011 12.6262 15.0909 13.0221L20 14.9854V13.2093L14.0077 10.0138C13.3846 9.68146 13 9.06302 13 8.39323V4.73528C13 4.3995 12.8715 4.21026 12.7237 4.09192C12.555 3.95681 12.2962 3.86646 12 3.86646C11.7038 3.86646 11.445 3.95681 11.2763 4.09192Z" fill="#666666"/>
</svg>
