<svg width="24" height="24" viewBox="0 0 24 24" fill="none" xmlns="http://www.w3.org/2000/svg">
<path fill-rule="evenodd" clip-rule="evenodd" d="M2 12C2 6.44772 6.44772 2 12 2C17.5523 2 22 6.44772 22 12C22 17.5523 17.5523 22 12 22C6.44772 22 2 17.5523 2 12ZM12 4C7.55228 4 4 7.55228 4 12C4 16.4477 7.55228 20 12 20C16.4477 20 20 16.4477 20 12C20 7.55228 16.4477 4 12 4Z" fill="#999999"/>
<path d="M14.5916 13.5762C14.5916 13.916 14.3161 14.1914 13.9763 14.1914H13.6892V14.9707C13.6892 15.3983 13.3426 15.7449 12.915 15.7449C12.4875 15.7449 12.1409 15.3983 12.1409 14.9707V14.1914H9.78475C9.31912 14.1914 8.94165 13.8139 8.94165 13.3483C8.94165 13.1794 8.99238 13.0144 9.08725 12.8747L11.9438 8.66787C12.1216 8.40604 12.4175 8.24927 12.734 8.24927C13.2616 8.24927 13.6892 8.67692 13.6892 9.20446V12.9609H13.9763C14.3161 12.9609 14.5916 13.2364 14.5916 13.5762ZM12.1409 12.9609V11.6895C12.1409 11.4775 12.1494 11.1699 12.1665 10.7666C12.1818 10.4057 12.1944 10.1803 12.2042 10.0903C12.2057 10.0765 12.195 10.0642 12.1811 10.0642C12.1722 10.0642 12.1642 10.0694 12.1605 10.0775C12.0352 10.3531 11.8851 10.6221 11.7102 10.8845L10.3362 12.9609H12.1409Z" fill="#999999"/>
</svg>
