<svg width="24" height="24" viewBox="0 0 24 24" fill="none" xmlns="http://www.w3.org/2000/svg">
<path fill-rule="evenodd" clip-rule="evenodd" d="M2 12C2 11.4477 2.44772 11 3 11H21C21.5523 11 22 11.4477 22 12C22 12.5523 21.5523 13 21 13H3C2.44772 13 2 12.5523 2 12Z" fill="#666666"/>
<path fill-rule="evenodd" clip-rule="evenodd" d="M12 2C12.5523 2 13 2.44772 13 3V21C13 21.5523 12.5523 22 12 22C11.4477 22 11 21.5523 11 21V3C11 2.44772 11.4477 2 12 2Z" fill="#666666"/>
<path fill-rule="evenodd" clip-rule="evenodd" d="M16 12C16 8.48691 14.4403 5.19473 11.5896 3.91192L12.4104 2.08808C16.2263 3.80527 18 8.01309 18 12C18 15.9869 16.2263 20.1947 12.4104 21.9119L11.5896 20.0881C14.4403 18.8053 16 15.5131 16 12Z" fill="#666666"/>
<path fill-rule="evenodd" clip-rule="evenodd" d="M8 12C8 8.48691 9.55967 5.19473 12.4104 3.91192L11.5896 2.08808C7.77366 3.80527 6 8.01309 6 12C6 15.9869 7.77366 20.1947 11.5896 21.9119L12.4104 20.0881C9.55967 18.8053 8 15.5131 8 12Z" fill="#666666"/>
<path fill-rule="evenodd" clip-rule="evenodd" d="M12 4C7.58172 4 4 7.58172 4 12C4 16.4183 7.58172 20 12 20C16.4183 20 20 16.4183 20 12C20 7.58172 16.4183 4 12 4ZM2 12C2 6.47715 6.47715 2 12 2C17.5228 2 22 6.47715 22 12C22 17.5228 17.5228 22 12 22C6.47715 22 2 17.5228 2 12Z" fill="#666666"/>
</svg>
