<svg width="20" height="20" viewBox="0 0 20 20" fill="none" xmlns="http://www.w3.org/2000/svg">
<path d="M13.392 17.7546H6.60019C6.50381 17.7546 6.40743 17.7096 6.3496 17.6324C6.29177 17.5553 6.26606 17.4524 6.29177 17.356C6.72228 15.6591 8.24513 14.4699 9.99931 14.4699C11.7535 14.4699 13.2763 15.6526 13.7069 17.356C13.7326 17.4524 13.7069 17.5553 13.649 17.6324C13.5912 17.7096 13.4948 17.7546 13.3984 17.7546H13.392ZM7.04355 17.1118H12.9551C12.4731 15.9162 11.3165 15.1127 9.99931 15.1127C8.68207 15.1127 7.52547 15.9162 7.04355 17.1118ZM18.6802 15.4919H14.1502C13.9703 15.4919 13.8289 15.3505 13.8289 15.1706C13.8289 14.9906 13.9703 14.8492 14.1502 14.8492H18.2369C17.877 13.9493 17.1188 13.2551 16.1743 12.9851C15.0948 12.6701 13.9253 12.9529 13.1093 13.7243C12.9808 13.8464 12.7751 13.84 12.6531 13.7114C12.531 13.5829 12.5374 13.3772 12.6659 13.2551C13.6426 12.3294 15.0562 11.9888 16.3542 12.368C17.6457 12.7408 18.6545 13.7886 18.9887 15.0934C19.0144 15.1898 18.9887 15.2927 18.9308 15.3698C18.873 15.447 18.7766 15.4919 18.6802 15.4919ZM5.8484 15.4919H1.31839C1.22201 15.4919 1.12562 15.447 1.06779 15.3698C1.00996 15.2927 0.984261 15.1898 1.00996 15.0934C1.34409 13.7886 2.3529 12.7408 3.64444 12.368C4.93597 11.9952 6.3496 12.3359 7.33271 13.2551C7.46122 13.3772 7.46764 13.5829 7.34556 13.7114C7.22347 13.84 7.01785 13.8464 6.88934 13.7243C6.0733 12.9529 4.89742 12.6701 3.82435 12.9851C2.88622 13.2551 2.12158 13.9557 1.76175 14.8492H5.8484C6.02832 14.8492 6.16968 14.9906 6.16968 15.1706C6.16968 15.3505 6.02832 15.4919 5.8484 15.4919ZM9.99931 14.3606C8.88769 14.3606 7.98169 13.4543 7.98169 12.3423C7.98169 11.2303 8.88769 10.324 9.99931 10.324C11.1109 10.324 12.0169 11.2303 12.0169 12.3423C12.0169 13.4543 11.1109 14.3606 9.99931 14.3606ZM9.99931 10.9603C9.24109 10.9603 8.62424 11.5774 8.62424 12.3359C8.62424 13.0944 9.24109 13.7114 9.99931 13.7114C10.7575 13.7114 11.3744 13.0944 11.3744 12.3359C11.3744 11.5774 10.7575 10.9603 9.99931 10.9603ZM15.2811 12.0916C14.1695 12.0916 13.2635 11.1853 13.2635 10.0733C13.2635 8.96126 14.1695 8.05493 15.2811 8.05493C16.3927 8.05493 17.2987 8.96126 17.2987 10.0733C17.2987 11.1853 16.3927 12.0916 15.2811 12.0916ZM15.2811 8.69129C14.5229 8.69129 13.906 9.30836 13.906 10.0668C13.906 10.8253 14.5229 11.4424 15.2811 11.4424C16.0393 11.4424 16.6562 10.8253 16.6562 10.0668C16.6562 9.30836 16.0393 8.69129 15.2811 8.69129ZM4.71751 12.098C3.60589 12.098 2.69988 11.1917 2.69988 10.0797C2.69988 8.96769 3.60589 8.06136 4.71751 8.06136C5.82913 8.06136 6.73513 8.96769 6.73513 10.0797C6.73513 11.1917 5.82913 12.098 4.71751 12.098ZM4.71751 8.69772C3.95929 8.69772 3.34244 9.31479 3.34244 10.0733C3.34244 10.8318 3.95929 11.4488 4.71751 11.4488C5.47572 11.4488 6.09257 10.8318 6.09257 10.0733C6.09257 9.31479 5.47572 8.69772 4.71751 8.69772Z" fill="#666666"/>
<path d="M12.0164 12.342C12.0161 11.3855 11.2355 10.6051 10.2794 10.6051C9.32359 10.6053 8.54387 11.3856 8.54359 12.342C8.54359 13.2987 9.32342 14.0799 10.2794 14.0801C11.2356 14.0801 12.0164 13.2988 12.0164 12.342ZM10.2794 14.7513C8.65448 14.7515 7.24404 15.853 6.8451 17.4254L6.844 17.4287C6.84367 17.43 6.84257 17.434 6.844 17.4408C6.84564 17.4482 6.84976 17.4569 6.85499 17.4639C6.85499 17.4639 6.85712 17.4666 6.86268 17.4694C6.86865 17.4722 6.87532 17.4737 6.88026 17.4738H13.6786C13.6835 17.4738 13.6902 17.4722 13.6962 17.4694C13.7019 17.4666 13.705 17.4639 13.705 17.4639C13.7101 17.4569 13.7132 17.4482 13.7149 17.4408C13.7163 17.434 13.7163 17.4301 13.716 17.4287L13.7149 17.4254C13.316 15.8471 11.9051 14.7513 10.2794 14.7513ZM10.2794 14.8315C11.7133 14.8315 12.9721 15.7067 13.4962 17.0068L13.6522 17.3936H6.90772L7.06373 17.0068C7.5878 15.7069 8.84573 14.8317 10.2794 14.8315ZM10.2794 15.394C9.22693 15.3942 8.28665 15.9571 7.77455 16.8311H12.7854C12.2733 15.9569 11.3321 15.394 10.2794 15.394ZM6.15846 15.1414C6.15276 15.1357 6.14328 15.1304 6.12879 15.1304H1.6255L1.7815 14.7448C2.17312 13.7724 3.00412 13.01 4.02601 12.7156L4.24574 12.6584C5.35292 12.4125 6.5295 12.7326 7.36256 13.5198L7.36366 13.5209C7.37062 13.5274 7.3803 13.5311 7.39222 13.5308C7.40433 13.5304 7.41444 13.5254 7.42188 13.5176C7.42846 13.5106 7.43322 13.501 7.43287 13.489C7.43246 13.477 7.42737 13.4667 7.41969 13.4594H7.41859C6.50767 12.609 5.19811 12.2937 4.00294 12.6387C2.80819 12.9836 1.87255 13.9541 1.56288 15.1633L1.56178 15.1666C1.56143 15.1683 1.56149 15.1724 1.56288 15.1787C1.56454 15.1862 1.56861 15.1948 1.57386 15.2018C1.57478 15.2027 1.57735 15.2042 1.58155 15.2062C1.58768 15.2091 1.59416 15.2106 1.59913 15.2106H6.12879C6.1432 15.2106 6.15276 15.2063 6.15846 15.2007C6.16413 15.195 6.16939 15.1855 6.16944 15.171C6.16944 15.1565 6.16411 15.1471 6.15846 15.1414ZM17.2975 10.0734C17.2974 9.11666 16.5178 8.33644 15.5617 8.33643C14.6055 8.33643 13.8248 9.11665 13.8247 10.0734C13.8247 11.0301 14.6055 11.8103 15.5617 11.8103C16.5178 11.8103 17.2975 11.0301 17.2975 10.0734ZM11.3737 12.3365C11.3737 11.7333 10.8822 11.2423 10.2794 11.2423C9.67683 11.2425 9.18629 11.7334 9.18629 12.3365C9.18652 12.9395 9.67697 13.4306 10.2794 13.4308C10.8821 13.4308 11.3734 12.9396 11.3737 12.3365ZM6.09144 10.0734C6.09136 9.47027 5.60092 8.97927 4.9983 8.97913C4.39556 8.97913 3.90415 9.47018 3.90406 10.0734C3.90406 10.6766 4.39551 11.1676 4.9983 11.1676C5.60097 11.1675 6.09144 10.6765 6.09144 10.0734ZM16.6559 10.0668C16.6557 9.46367 16.1643 8.97254 15.5617 8.97253C14.959 8.97253 14.4676 9.46367 14.4674 10.0668C14.4674 10.67 14.9589 11.161 15.5617 11.161C16.1644 11.161 16.6559 10.67 16.6559 10.0668ZM6.73414 10.08C6.73414 9.12326 5.95437 8.34316 4.9983 8.34302C4.04211 8.34302 3.26136 9.12317 3.26136 10.08C3.26137 11.0367 4.04211 11.8169 4.9983 11.8169C5.95437 11.8167 6.73414 11.0366 6.73414 10.08ZM14.4015 15.2007C14.4072 15.2063 14.4169 15.2106 14.4312 15.2106H18.9608C18.9658 15.2106 18.9723 15.2091 18.9784 15.2062C18.9828 15.2041 18.9853 15.2026 18.9861 15.2018C18.9914 15.1948 18.9954 15.1862 18.9971 15.1787V15.1633C18.6875 13.9542 17.7517 12.9837 16.557 12.6387H16.5559C15.4286 12.3093 14.2069 12.5662 13.3139 13.3055L13.1403 13.4594C13.1325 13.4668 13.1275 13.4769 13.1271 13.489C13.1267 13.5011 13.1314 13.5106 13.1381 13.5176C13.1455 13.5254 13.1556 13.5304 13.1677 13.5308C13.1796 13.531 13.1894 13.5274 13.1963 13.5209V13.5198C14.0841 12.6806 15.356 12.3729 16.5307 12.7145H16.5317C17.5608 13.0086 18.3866 13.765 18.7785 14.7448L18.9323 15.1304H14.4312C14.4167 15.1304 14.4072 15.1357 14.4015 15.1414C14.3958 15.1471 14.3905 15.1564 14.3905 15.171C14.3906 15.1855 14.3958 15.195 14.4015 15.2007ZM12.5789 12.342C12.5789 13.202 12.1026 13.9526 11.4011 14.347C12.7835 14.7377 13.8906 15.8331 14.2587 17.2837C14.3092 17.4734 14.2573 17.6637 14.1543 17.8011C14.0397 17.954 13.8572 18.0363 13.6786 18.0363H6.88026C6.70181 18.0361 6.51908 17.9539 6.40455 17.8011C6.30172 17.6638 6.24967 17.4732 6.30018 17.2837C6.66804 15.8387 7.77528 14.7394 9.15773 14.347C8.45664 13.9526 7.98109 13.2018 7.98109 12.342C7.98136 11.0752 9.01274 10.0428 10.2794 10.0426C11.5463 10.0426 12.5786 11.075 12.5789 12.342ZM11.9362 12.3365C11.9359 13.2501 11.1929 13.9933 10.2794 13.9933C9.36612 13.9931 8.62402 13.2499 8.62379 12.3365C8.62379 11.423 9.36598 10.68 10.2794 10.6798C11.1931 10.6798 11.9362 11.4228 11.9362 12.3365ZM7.29664 10.08C7.29664 10.9474 6.81271 11.7033 6.10133 12.0948C6.72887 12.271 7.31678 12.5928 7.80531 13.0496L7.80751 13.0518C8.04682 13.2796 8.05963 13.663 7.82948 13.9054C7.60165 14.145 7.21822 14.1588 6.97584 13.9285V13.9274C6.23239 13.2255 5.16046 12.9685 4.18421 13.255L4.18312 13.2561C3.46999 13.4613 2.86644 13.941 2.49562 14.5679H6.12879C6.46413 14.5679 6.73194 14.8358 6.73194 15.171C6.73183 15.5061 6.46406 15.7731 6.12879 15.7731H1.59913C1.42063 15.7731 1.23806 15.6918 1.12342 15.5391C1.02082 15.4022 0.969536 15.2127 1.01905 15.0238C1.37774 13.6236 2.45881 12.4989 3.84693 12.0981C3.85862 12.0948 3.87039 12.0915 3.88209 12.0883C3.17754 11.6947 2.69887 10.9423 2.69886 10.08C2.69886 8.8127 3.73126 7.78052 4.9983 7.78052C6.26522 7.78066 7.29664 8.81279 7.29664 10.08ZM6.65394 10.0734C6.65394 10.987 5.91182 11.73 4.9983 11.7301C4.08466 11.7301 3.34156 10.9871 3.34156 10.0734C3.34165 9.15971 4.08471 8.41663 4.9983 8.41663C5.91177 8.41677 6.65386 9.1598 6.65394 10.0734ZM17.86 10.0734C17.86 10.9391 17.3782 11.6938 16.6691 12.0861C16.6839 12.0902 16.6993 12.0938 16.7141 12.0981H16.713C18.1011 12.499 19.1834 13.6235 19.542 15.0238H19.5409C19.5904 15.2127 19.5391 15.4022 19.4365 15.5391C19.3219 15.6919 19.1394 15.773 18.9608 15.7731H14.4312C14.0959 15.7731 13.8281 15.5061 13.828 15.171C13.828 14.8358 14.0958 14.5679 14.4312 14.5679H18.0654C17.6963 13.9381 17.0969 13.4617 16.3779 13.2561L16.3757 13.255C15.4538 12.9861 14.4591 13.1958 13.7258 13.8021L13.583 13.9285C13.3405 14.1586 12.9571 14.1452 12.7294 13.9054C12.4993 13.663 12.513 13.2796 12.7525 13.0518V13.0507C13.2395 12.5891 13.8281 12.2645 14.4575 12.0883C13.7465 11.6966 13.2622 10.9405 13.2622 10.0734C13.2623 8.80618 14.2947 7.77393 15.5617 7.77393C16.8286 7.77394 17.8599 8.80619 17.86 10.0734ZM17.2184 10.0668C17.2184 10.9805 16.4753 11.7235 15.5617 11.7235C14.648 11.7235 13.9049 10.9805 13.9049 10.0668C13.9051 9.1532 14.6481 8.41003 15.5617 8.41003C16.4752 8.41004 17.2182 9.1532 17.2184 10.0668Z" fill="#666666"/>
<path d="M18.6438 7.22121C18.5868 7.22121 18.5298 7.20696 18.48 7.17847L10.1816 2.75505C10.0676 2.69806 9.93229 2.69806 9.81832 2.75505L1.52707 7.17847C1.35612 7.27107 1.1353 7.20696 1.0427 7.02889C0.950102 6.85793 1.01421 6.63712 1.19229 6.54452L9.48354 2.12822C9.80408 1.95726 10.1887 1.95726 10.5093 2.12822L18.8076 6.55164C18.9786 6.64424 19.0498 6.85793 18.9572 7.03601C18.8931 7.1571 18.772 7.22121 18.6438 7.22121Z" fill="#666666" stroke="#666666" stroke-width="0.5625"/>
</svg>
