<svg width="24" height="24" viewBox="0 0 24 24" fill="none" xmlns="http://www.w3.org/2000/svg">
<path d="M20.1603 4.61006C19.0986 3.54806 17.691 2.90238 16.1935 2.79044C14.696 2.67849 13.2081 3.10772 12.0003 4.00006C10.7279 3.0537 9.14427 2.62457 7.5682 2.7991C5.99212 2.97362 4.54072 3.73884 3.50625 4.94064C2.47178 6.14245 1.9311 7.69158 1.99308 9.27607C2.05506 10.8606 2.71509 12.3627 3.84028 13.4801L11.2903 20.9301C11.3832 21.0238 11.4938 21.0982 11.6157 21.1489C11.7376 21.1997 11.8683 21.2259 12.0003 21.2259C12.1323 21.2259 12.263 21.1997 12.3849 21.1489C12.5067 21.0982 12.6173 21.0238 12.7103 20.9301L20.1603 13.4801C20.7429 12.8978 21.2051 12.2064 21.5205 11.4454C21.8358 10.6844 21.9982 9.86879 21.9982 9.04506C21.9982 8.22133 21.8358 7.40567 21.5205 6.64469C21.2051 5.88371 20.7429 5.19233 20.1603 4.61006Z" fill="#666666"/>
</svg>
