<svg width="24" height="24" viewBox="0 0 24 24" fill="none" xmlns="http://www.w3.org/2000/svg">
<path d="M13 5C9.2774 5 6.23349 7.90584 6.01281 11.573L7.29289 10.2929C7.68342 9.90237 8.31658 9.90237 8.70711 10.2929C9.09763 10.6834 9.09763 11.3166 8.70711 11.7071L6.41421 14C5.63317 14.781 4.36684 14.781 3.58579 14L1.29289 11.7071C0.902369 11.3166 0.902369 10.6834 1.29289 10.2929C1.68342 9.90237 2.31658 9.90237 2.70711 10.2929L4.00896 11.5947C4.22089 6.81226 8.16525 3 13 3C17.9706 3 22 7.02944 22 12C22 16.9706 17.9706 21 13 21C10.4449 21 8.1371 19.9339 6.50009 18.2251C6.11805 17.8262 6.13164 17.1932 6.53046 16.8112C6.92928 16.4291 7.5623 16.4427 7.94435 16.8415C9.21978 18.173 11.0125 19 13 19C16.866 19 20 15.866 20 12C20 8.13401 16.866 5 13 5Z" fill="#666666"/>
<path d="M13.0001 8C13.5524 8 14.0001 8.44772 14.0001 9V11.4648L16.5548 13.1679C17.0143 13.4743 17.1385 14.0952 16.8322 14.5547C16.5258 15.0142 15.9049 15.1384 15.4454 14.832L12.4595 12.8415C12.4305 12.8228 12.4025 12.8026 12.3756 12.7811C12.2718 12.6983 12.1883 12.5981 12.1267 12.4875C12.0545 12.3583 12.0101 12.2115 12.0016 12.0551C12.0003 12.0324 11.9998 12.0096 12.0001 11.9869V9C12.0001 8.44772 12.4478 8 13.0001 8Z" fill="#666666"/>
</svg>
