<svg width="24" height="24" viewBox="0 0 24 24" fill="none" xmlns="http://www.w3.org/2000/svg">
<path d="M21 10.151V18.9177C21 20.62 19.6569 22 18 22H16C14.8954 22 14 21.08 14 19.9452V14.8081C14 14.2406 13.5523 13.7807 13 13.7807H11C10.4477 13.7807 10 14.2406 10 14.8081V19.9452C10 21.08 9.10457 22 8 22H6C4.34315 22 3 20.62 3 18.9177V10.151C3 9.19989 3.42742 8.30202 4.15818 7.71807L10.7721 2.43285C11.4943 1.85572 12.5057 1.85572 13.2279 2.43285L19.8418 7.71806C20.5726 8.30202 21 9.19989 21 10.151Z" fill="#666666"/>
</svg>
