<svg width="24" height="24" viewBox="0 0 24 24" fill="none" xmlns="http://www.w3.org/2000/svg">
<path fill-rule="evenodd" clip-rule="evenodd" d="M19 18.9177V10.151C19 9.834 18.8575 9.5347 18.6139 9.34005L12 4.05483L5.38606 9.34005C5.14247 9.5347 5 9.834 5 10.151V18.9177C5 19.4852 5.44772 19.9452 6 19.9452H8V14.8081C8 13.1058 9.34315 11.7258 11 11.7258H13C14.6569 11.7258 16 13.1058 16 14.8081V19.9452H18C18.5523 19.9452 19 19.4852 19 18.9177ZM21 18.9177V10.151C21 9.19989 20.5726 8.30202 19.8418 7.71806L13.2279 2.43285C12.5057 1.85572 11.4943 1.85572 10.7721 2.43285L4.15818 7.71807C3.42742 8.30202 3 9.19989 3 10.151V18.9177C3 20.62 4.34315 22 6 22H8C9.10457 22 10 21.08 10 19.9452V14.8081C10 14.2406 10.4477 13.7807 11 13.7807H13C13.5523 13.7807 14 14.2406 14 14.8081V19.9452C14 21.08 14.8954 22 16 22H18C19.6569 22 21 20.62 21 18.9177Z" fill="#666666"/>
</svg>
