<svg width="24" height="24" viewBox="0 0 24 24" fill="none" xmlns="http://www.w3.org/2000/svg">
<path fill-rule="evenodd" clip-rule="evenodd" d="M6 12C6 7.55883 9.55883 4 14 4C18.4412 4 22 7.55883 22 12C22 16.4412 18.4412 20 14 20C9.55883 20 6 16.4412 6 12ZM14 6C10.6634 6 8 8.6634 8 12C8 15.3366 10.6634 18 14 18C17.3366 18 20 15.3366 20 12C20 8.6634 17.3366 6 14 6Z" fill="#666666"/>
<path fill-rule="evenodd" clip-rule="evenodd" d="M1 16C1 15.4477 1.44772 15 2 15H8C8.55228 15 9 15.4477 9 16C9 16.5523 8.55228 17 8 17H2C1.44772 17 1 16.5523 1 16Z" fill="#666666"/>
<path fill-rule="evenodd" clip-rule="evenodd" d="M3 12C3 11.4477 3.44772 11 4 11H7C7.55228 11 8 11.4477 8 12C8 12.5523 7.55228 13 7 13H4C3.44772 13 3 12.5523 3 12Z" fill="#666666"/>
<path fill-rule="evenodd" clip-rule="evenodd" d="M5 8C5 7.44772 5.44772 7 6 7H8C8.55229 7 9 7.44772 9 8C9 8.55228 8.55229 9 8 9H6C5.44772 9 5 8.55228 5 8Z" fill="#666666"/>
<path fill-rule="evenodd" clip-rule="evenodd" d="M13.8462 7.25C14.2604 7.25 14.5962 7.58579 14.5962 8V8.58333H14.6199C15.3287 8.58333 15.9951 8.88891 16.4764 9.41041L16.5511 9.49129C16.8321 9.79566 16.8131 10.2702 16.5087 10.5511C16.2043 10.8321 15.7298 10.8131 15.4489 10.5087L15.3742 10.4278C15.1632 10.1992 14.8904 10.0833 14.6199 10.0833H13.2308C13.0206 10.0833 12.75 10.2868 12.75 10.6667C12.75 11.0465 13.0206 11.25 13.2308 11.25H14.7692C15.9186 11.25 16.75 12.2404 16.75 13.3333C16.75 14.4263 15.9186 15.4167 14.7692 15.4167H14.5962V16C14.5962 16.4142 14.2604 16.75 13.8462 16.75C13.4319 16.75 13.0962 16.4142 13.0962 16V15.4002C12.495 15.3304 11.9401 15.0408 11.5236 14.5896L11.4489 14.5087C11.1679 14.2043 11.1869 13.7298 11.4913 13.4489C11.7957 13.1679 12.2702 13.1869 12.5511 13.4913L12.6258 13.5722C12.8368 13.8008 13.1096 13.9167 13.3801 13.9167H14.7692C14.9794 13.9167 15.25 13.7132 15.25 13.3333C15.25 12.9535 14.9794 12.75 14.7692 12.75H13.2308C12.0814 12.75 11.25 11.7596 11.25 10.6667C11.25 9.61688 12.0171 8.6617 13.0962 8.58791V8C13.0962 7.58579 13.4319 7.25 13.8462 7.25Z" fill="#666666"/>
</svg>
