<svg width="20" height="20" viewBox="0 0 20 20" fill="none" xmlns="http://www.w3.org/2000/svg">
<path d="M3.77778 18C3.28889 18 2.87037 17.8259 2.52222 17.4778C2.17407 17.1296 2 16.7111 2 16.2222V3.77778C2 3.28889 2.17407 2.87037 2.52222 2.52222C2.87037 2.17407 3.28889 2 3.77778 2H16.2222C16.7111 2 17.1296 2.17407 17.4778 2.52222C17.8259 2.87037 18 3.28889 18 3.77778V16.2222C18 16.7111 17.8259 17.1296 17.4778 17.4778C17.1296 17.8259 16.7111 18 16.2222 18H3.77778ZM3.77778 16.2222H16.2222V3.77778H3.77778V16.2222ZM4.66667 14.4444H15.3333L12 10L9.33333 13.5556L7.33333 10.8889L4.66667 14.4444Z" fill="#666666"/>
</svg>
