<svg width="20" height="20" viewBox="0 0 20 20" fill="none" xmlns="http://www.w3.org/2000/svg">
<path d="M4.16667 17.5C3.70833 17.5 3.31597 17.3368 2.98958 17.0104C2.66319 16.684 2.5 16.2917 2.5 15.8333V4.16667C2.5 3.70833 2.66319 3.31597 2.98958 2.98958C3.31597 2.66319 3.70833 2.5 4.16667 2.5H15.8333C16.2917 2.5 16.684 2.66319 17.0104 2.98958C17.3368 3.31597 17.5 3.70833 17.5 4.16667V9.75C17.2361 9.625 16.9653 9.51736 16.6875 9.42708C16.4097 9.33681 16.125 9.27083 15.8333 9.22917V4.16667H4.16667V15.8333H9.20833C9.25 16.1389 9.31597 16.4306 9.40625 16.7083C9.49653 16.9861 9.60417 17.25 9.72917 17.5H4.16667ZM4.16667 15V15.8333V4.16667V9.22917V9.16667V15ZM5.83333 10C5.83333 10.4602 6.20643 10.8333 6.66667 10.8333H10.9167C11.3611 10.4167 11.8576 10.0694 12.4062 9.79167C12.9549 9.51389 13.5417 9.32639 14.1667 9.22917V9.16667H6.66667C6.20643 9.16667 5.83333 9.53976 5.83333 10ZM5.83333 6.66667C5.83333 7.1269 6.20643 7.5 6.66667 7.5H13.3333C13.7936 7.5 14.1667 7.1269 14.1667 6.66667C14.1667 6.20643 13.7936 5.83333 13.3333 5.83333H6.66667C6.20643 5.83333 5.83333 6.20643 5.83333 6.66667Z" fill="#666666"/>
<path fill-rule="evenodd" clip-rule="evenodd" d="M18.1556 15.8035C18.406 15.5328 18.3901 15.11 18.1202 14.859C17.8502 14.6079 17.4284 14.6239 17.178 14.8945L15.6668 16.5281L15.6668 11.5022C15.6668 11.133 15.3684 10.8338 15.0002 10.8338C14.632 10.8338 14.3335 11.133 14.3335 11.5022V16.5281L12.8223 14.8945C12.5719 14.6239 12.1501 14.6079 11.8802 14.859C11.6102 15.11 11.5943 15.5328 11.8447 15.8035L14.0226 18.1577C14.5502 18.7281 15.4502 18.7281 15.9778 18.1577L18.1556 15.8035Z" fill="#666666"/>
</svg>
