<svg width="24" height="24" viewBox="0 0 24 24" fill="none" xmlns="http://www.w3.org/2000/svg">
<path d="M9.93538 9.07134C10.2904 8.64826 10.9211 8.59308 11.3442 8.94808C11.7673 9.30308 11.8225 9.93384 11.4675 10.3569L6.1312 16.7164L6.0665 18.5756L7.9436 18.5597L7.90819 17.426C7.8782 16.4504 8.55695 15.5948 9.51402 15.4029L11.04 15.0975L11.0772 13.4944C11.099 12.5608 11.7641 11.7659 12.6794 11.5804L13.7849 11.3568C14.326 11.2474 14.8534 11.5978 14.9631 12.1389C15.0725 12.68 14.7228 13.2081 14.1817 13.3177L13.0769 13.5406L13.0397 15.1437C13.0178 16.0787 12.3504 16.874 11.4333 17.058L9.90673 17.3642L9.94215 18.4979C9.97662 19.6194 9.08186 20.5501 7.95982 20.5595L6.08272 20.5754C4.94442 20.5848 4.02792 19.6435 4.06752 18.5058L4.13222 16.6466C4.14781 16.2007 4.31228 15.7727 4.59911 15.4309L9.93538 9.07134Z" fill="#666666"/>
<path d="M15.1864 7.48054C15.6095 7.83554 15.6647 8.4663 15.3097 8.88937C14.9547 9.31245 14.3239 9.36763 13.9009 9.01263C13.4778 8.65763 13.4226 8.02687 13.7776 7.6038C14.1326 7.18072 14.7634 7.12554 15.1864 7.48054Z" fill="#666666"/>
<path d="M13.9113 13.2064C14.9788 13.3425 16.0617 13.1306 16.9991 12.6021C17.9365 12.0737 18.6784 11.2569 19.1146 10.2731C19.5507 9.28936 19.6578 8.19113 19.42 7.14163C19.1822 6.09212 18.6121 5.14734 17.7945 4.44768C16.9769 3.74801 15.9554 3.3308 14.8818 3.25803C13.8081 3.18526 12.7396 3.46082 11.8351 4.04376C10.9306 4.6267 10.2382 5.48592 9.86096 6.49373C9.48371 7.50155 9.44167 8.60419 9.74109 9.6378L11.5266 9.12057C11.3385 8.47124 11.3649 7.77854 11.6019 7.14542C11.8389 6.51229 12.2738 5.97252 12.8421 5.60631C13.4103 5.2401 14.0816 5.06699 14.7561 5.1127C15.4305 5.15842 16.0723 5.42052 16.5859 5.86006C17.0995 6.2996 17.4577 6.89312 17.6071 7.55243C17.7565 8.21175 17.6892 8.90167 17.4152 9.51968C17.1412 10.1377 16.6751 10.6508 16.0862 10.9828C15.4973 11.3148 14.817 11.4479 14.1464 11.3624L13.9113 13.2064Z" fill="#666666"/>
</svg>
