<svg width="20" height="20" viewBox="0 0 20 20" fill="none" xmlns="http://www.w3.org/2000/svg">
<g clip-path="url(#clip0_1_3919)">
<path d="M14.1666 5.83337H10.8333V7.50004H14.1666C15.5416 7.50004 16.6666 8.62504 16.6666 10C16.6666 11.375 15.5416 12.5 14.1666 12.5H10.8333V14.1667H14.1666C16.4666 14.1667 18.3333 12.3 18.3333 10C18.3333 7.70004 16.4666 5.83337 14.1666 5.83337ZM9.16659 12.5H5.83325C4.45825 12.5 3.33325 11.375 3.33325 10C3.33325 8.62504 4.45825 7.50004 5.83325 7.50004H9.16659V5.83337H5.83325C3.53325 5.83337 1.66659 7.70004 1.66659 10C1.66659 12.3 3.53325 14.1667 5.83325 14.1667H9.16659V12.5ZM6.66659 9.16671H13.3333V10.8334H6.66659V9.16671Z" fill="#666666"/>
</g>
<defs>
<clipPath id="clip0_1_3919">
<rect width="20" height="20" fill="white"/>
</clipPath>
</defs>
</svg>
