<svg width="24" height="24" viewBox="0 0 24 24" fill="none" xmlns="http://www.w3.org/2000/svg">
<path fill-rule="evenodd" clip-rule="evenodd" d="M12 12C13.1046 12 14 11.1046 14 10C14 8.89543 13.1046 8 12 8C10.8954 8 10 8.89543 10 10C10 11.1046 10.8954 12 12 12ZM12 14C14.2091 14 16 12.2091 16 10C16 7.79086 14.2091 6 12 6C9.79086 6 8 7.79086 8 10C8 12.2091 9.79086 14 12 14Z" fill="#666666"/>
<path fill-rule="evenodd" clip-rule="evenodd" d="M17.1049 12.8383C17.7257 11.6075 18 10.6397 18 10C18 6.68629 15.3137 4 12 4C8.68629 4 6 6.68629 6 10C6 10.6397 6.2743 11.6075 6.8951 12.8383C7.49466 14.027 8.32519 15.282 9.21271 16.4406C10.0984 17.5969 11.0047 18.6101 11.727 19.3169C11.8235 19.4114 11.9146 19.4983 12 19.5777C12.0854 19.4983 12.1765 19.4114 12.273 19.3169C12.9953 18.6101 13.9016 17.5969 14.7873 16.4406C15.6748 15.282 16.5053 14.027 17.1049 12.8383ZM12 22C13 22 20 14.4183 20 10C20 5.58172 16.4183 2 12 2C7.58172 2 4 5.58172 4 10C4 14.4183 11 22 12 22Z" fill="#666666"/>
</svg>
