<svg width="24" height="24" viewBox="0 0 24 24" fill="none" xmlns="http://www.w3.org/2000/svg">
<path d="M17 20V22H7V20H17ZM18 19V12C18 11.4477 17.5523 11 17 11H7C6.44772 11 6 11.4477 6 12V19C6 19.5523 6.44772 20 7 20V22C5.34315 22 4 20.6569 4 19V12C4 10.3431 5.34315 9 7 9H17C18.6569 9 20 10.3431 20 12V19C20 20.6569 18.6569 22 17 22V20C17.5523 20 18 19.5523 18 19Z" fill="#666666"/>
<path d="M11 17V14C11 13.4477 11.4477 13 12 13C12.5523 13 13 13.4477 13 14V17L12.9951 17.1025C12.9438 17.6067 12.5177 18 12 18C11.4823 18 11.0562 17.6067 11.0049 17.1025L11 17Z" fill="#666666"/>
<path d="M15 9V6C15 4.89543 14.1046 4 13 4H11C9.89543 4 9 4.89543 9 6V9C9 9.55228 8.55228 10 8 10C7.44772 10 7 9.55228 7 9V6C7 3.79086 8.79086 2 11 2H13C15.2091 2 17 3.79086 17 6V9C17 9.55228 16.5523 10 16 10C15.4477 10 15 9.55228 15 9Z" fill="#666666"/>
</svg>
