<svg width="24" height="24" viewBox="0 0 24 24" fill="none" xmlns="http://www.w3.org/2000/svg">
<path fill-rule="evenodd" clip-rule="evenodd" d="M18 19V12C18 11.4477 17.5523 11 17 11H7C6.44772 11 6 11.4477 6 12V19C6 19.5523 6.44772 20 7 20H17C17.5523 20 18 19.5523 18 19ZM20 19V12C20 10.3431 18.6569 9 17 9H7C5.34315 9 4 10.3431 4 12V19C4 20.6569 5.34315 22 7 22H17C18.6569 22 20 20.6569 20 19Z" fill="#666666"/>
<path fill-rule="evenodd" clip-rule="evenodd" d="M12 13C12.5523 13 13 13.4477 13 14V17C13 17.5523 12.5523 18 12 18C11.4477 18 11 17.5523 11 17V14C11 13.4477 11.4477 13 12 13Z" fill="#666666"/>
<path fill-rule="evenodd" clip-rule="evenodd" d="M7 6C7 3.79086 8.79086 2 11 2H13C15.2091 2 17 3.79086 17 6V9C17 9.55228 16.5523 10 16 10C15.4477 10 15 9.55228 15 9V6C15 4.89543 14.1046 4 13 4H11C9.89543 4 9 4.89543 9 6V6.5C9 7.05228 8.55228 7.5 8 7.5C7.44772 7.5 7 7.05228 7 6.5V6Z" fill="#666666"/>
</svg>
