<svg width="24" height="24" viewBox="0 0 24 24" fill="none" xmlns="http://www.w3.org/2000/svg">
<path fill-rule="evenodd" clip-rule="evenodd" d="M8 4C6.89543 4 6 4.89543 6 6V18C6 19.1046 6.89543 20 8 20H14C14.5523 20 15 20.4477 15 21C15 21.5523 14.5523 22 14 22H8C5.79086 22 4 20.2091 4 18V6C4 3.79086 5.79086 2 8 2H14C14.5523 2 15 2.44772 15 3C15 3.55228 14.5523 4 14 4H8Z" fill="#666666"/>
<path fill-rule="evenodd" clip-rule="evenodd" d="M17.2972 8.29289C16.9306 7.90237 16.3361 7.90237 15.9694 8.29289C15.6028 8.68342 15.6028 9.31658 15.9694 9.70711L17.1833 11H11.9389C11.4204 11 11 11.4477 11 12C11 12.5523 11.4204 13 11.9389 13H17.1833L15.9694 14.2929C15.6028 14.6834 15.6028 15.3166 15.9694 15.7071C16.3361 16.0976 16.9306 16.0976 17.2972 15.7071L19.45 13.4142C20.1833 12.6332 20.1833 11.3668 19.45 10.5858L17.2972 8.29289Z" fill="#666666"/>
</svg>
