<svg width="24" height="24" viewBox="0 0 24 24" fill="none" xmlns="http://www.w3.org/2000/svg">
<path fill-rule="evenodd" clip-rule="evenodd" d="M4 7V17C4 17.5523 4.44772 18 5 18H19C19.5523 18 20 17.5523 20 17V7C20 6.44772 19.5523 6 19 6H5C4.44772 6 4 6.44772 4 7ZM2 7V17C2 18.6569 3.34315 20 5 20H19C20.6569 20 22 18.6569 22 17V7C22 5.34315 20.6569 4 19 4H5C3.34315 4 2 5.34315 2 7Z" fill="#666666"/>
<path fill-rule="evenodd" clip-rule="evenodd" d="M3.2 5.4C3.53137 4.95817 4.15817 4.86863 4.6 5.2L11.4 10.3C11.7556 10.5667 12.2444 10.5667 12.6 10.3L19.4 5.2C19.8418 4.86863 20.4686 4.95817 20.8 5.4C21.1314 5.84183 21.0418 6.46863 20.6 6.8L13.8 11.9C12.7333 12.7 11.2667 12.7 10.2 11.9L3.4 6.8C2.95817 6.46863 2.86863 5.84183 3.2 5.4Z" fill="#666666"/>
</svg>
