<svg width="24" height="24" viewBox="0 0 24 24" fill="none" xmlns="http://www.w3.org/2000/svg">
<path fill-rule="evenodd" clip-rule="evenodd" d="M1 16C1 15.4477 1.44772 15 2 15H7C7.55228 15 8 15.4477 8 16C8 16.5523 7.55228 17 7 17H2C1.44772 17 1 16.5523 1 16Z" fill="#666666"/>
<path fill-rule="evenodd" clip-rule="evenodd" d="M3 12C3 11.4477 3.44772 11 4 11H7C7.55228 11 8 11.4477 8 12C8 12.5523 7.55228 13 7 13H4C3.44772 13 3 12.5523 3 12Z" fill="#666666"/>
<path fill-rule="evenodd" clip-rule="evenodd" d="M5 8C5 7.44772 5.44772 7 6 7H8C8.55229 7 9 7.44772 9 8C9 8.55228 8.55229 9 8 9H6C5.44772 9 5 8.55228 5 8Z" fill="#666666"/>
<path fill-rule="evenodd" clip-rule="evenodd" d="M9.55499 8.8356L8.55499 14.8356C8.4534 15.4451 8.92344 16 9.54138 16H18.4586C18.9475 16 19.3646 15.6466 19.445 15.1644L20.445 9.1644C20.5466 8.55487 20.0766 8 19.4586 8H10.5414C10.0525 8 9.63535 8.35341 9.55499 8.8356ZM7.5822 8.5068L6.5822 14.5068C6.27743 16.3354 7.68756 18 9.54138 18H18.4586C19.9251 18 21.1767 16.9398 21.4178 15.4932L22.4178 9.4932C22.7226 7.6646 21.3124 6 19.4586 6H10.5414C9.07486 6 7.82329 7.06024 7.5822 8.5068Z" fill="#666666"/>
<path fill-rule="evenodd" clip-rule="evenodd" d="M21.8682 7.50386C22.1423 7.98338 21.9757 8.59423 21.4961 8.86824L15.6764 12.1938C14.6079 12.8044 13.2748 12.7005 12.3139 11.9317L8.37531 8.78087C7.94404 8.43586 7.87412 7.80657 8.21913 7.3753C8.56414 6.94404 9.19343 6.87412 9.62469 7.21913L13.5632 10.37C13.8836 10.6262 14.3279 10.6609 14.6841 10.4573L20.5039 7.13176C20.9834 6.85775 21.5942 7.02434 21.8682 7.50386Z" fill="#666666"/>
</svg>
