<svg width="24" height="24" viewBox="0 0 24 24" fill="none" xmlns="http://www.w3.org/2000/svg">
<path fill-rule="evenodd" clip-rule="evenodd" d="M2.75 7C2.75 6.30964 3.30964 5.75 4 5.75H20C20.6904 5.75 21.25 6.30964 21.25 7C21.25 7.69036 20.6904 8.25 20 8.25H4C3.30964 8.25 2.75 7.69036 2.75 7ZM2.75 12C2.75 11.3096 3.30964 10.75 4 10.75H20C20.6904 10.75 21.25 11.3096 21.25 12C21.25 12.6904 20.6904 13.25 20 13.25H4C3.30964 13.25 2.75 12.6904 2.75 12ZM2.75 17C2.75 16.3096 3.30964 15.75 4 15.75H20C20.6904 15.75 21.25 16.3096 21.25 17C21.25 17.6904 20.6904 18.25 20 18.25H4C3.30964 18.25 2.75 17.6904 2.75 17Z" fill="#666666"/>
</svg>
