<svg width="52" height="52" viewBox="0 0 52 52" fill="none" xmlns="http://www.w3.org/2000/svg">
<g clip-path="url(#clip0_1_3954)">
<path d="M35.7561 52H20.5564C17.5957 52 15.1771 49.5814 15.1771 46.6207V18.8276L13.6133 17.2638H7.54598C4.58527 17.2638 2.16667 14.8452 2.16667 11.8845V5.37931C2.16667 2.4186 4.58527 0 7.54598 0H24.9141C27.8748 0 30.2934 2.4186 30.2934 5.37931V6.50521H35.7561C38.7168 6.50521 41.1354 8.92382 41.1354 11.8845V19.5156H44.4297C47.3904 19.5156 49.809 21.9342 49.809 24.8949V29.2318C49.809 32.1925 47.3904 34.6111 44.4297 34.6111H41.1354V46.579C41.1354 49.5397 38.7168 51.9583 35.7561 51.9583V52ZM17.2621 43.3264V46.6207C17.2621 48.4346 18.7424 49.915 20.5564 49.915H35.7561C37.57 49.915 39.0504 48.4346 39.0504 46.6207V43.3264H17.2829H17.2621ZM17.2621 41.2414H39.0504V35.5493L34.1506 38.8019C33.8379 39.0104 33.4209 39.0313 33.0873 38.8436C32.7537 38.656 32.5452 38.3015 32.5452 37.9262V34.6319H31.4193C28.4586 34.6319 26.04 32.2133 26.04 29.2526V24.9158C26.04 21.9551 28.4586 19.5365 31.4193 19.5365H39.0504V11.9054C39.0504 10.0914 37.57 8.61107 35.7561 8.61107H30.2934V11.9054C30.2934 14.8661 27.8748 17.2847 24.9141 17.2847H21.6198V22.7474C21.6198 23.1644 21.3696 23.5397 20.9734 23.7065C20.5773 23.8733 20.1394 23.7899 19.8475 23.4771L17.2829 20.9126V41.2205L17.2621 41.2414ZM31.3984 21.6215C29.5845 21.6215 28.1041 23.1018 28.1041 24.9158V29.2526C28.1041 31.0666 29.5845 32.5469 31.3984 32.5469H33.5668C34.1506 32.5469 34.6093 33.0056 34.6093 33.5894V35.9872L39.4882 32.7346C39.655 32.6303 39.8635 32.5469 40.072 32.5469H44.4297C46.2437 32.5469 47.724 31.0666 47.724 29.2526V24.9158C47.724 23.1018 46.2437 21.6215 44.4297 21.6215H31.3984ZM16.9702 17.7017L19.4931 20.2245V16.2213C19.4931 15.6375 19.9518 15.1788 20.5356 15.1788H24.8724C26.6863 15.1788 28.1667 13.6985 28.1667 11.8845V5.37931C28.1667 3.56536 26.6863 2.085 24.8724 2.085H7.54598C5.73202 2.085 4.25167 3.56536 4.25167 5.37931V11.8845C4.25167 13.6985 5.73202 15.1788 7.54598 15.1788H14.0512C14.3222 15.1788 14.5933 15.2831 14.7809 15.4916L16.9285 17.6391C16.9285 17.6391 16.9702 17.6808 16.991 17.7017H16.9702ZM28.1458 48.2053C27.2701 48.2053 26.5612 47.4964 26.5612 46.6207C26.5612 45.745 27.2701 45.0361 28.1458 45.0361C29.0215 45.0361 29.7304 45.745 29.7304 46.6207C29.7304 47.4964 29.0215 48.2053 28.1458 48.2053ZM28.1458 46.1203C27.8748 46.1203 27.6454 46.3496 27.6454 46.6207C27.6454 47.1628 28.6462 47.1628 28.6462 46.6207C28.6462 46.3496 28.4169 46.1203 28.1458 46.1203Z" fill="#666666"/>
<path d="M42.2616 29.7532C41.3859 29.7532 40.677 29.0443 40.677 28.1686C40.677 27.2929 41.3859 26.584 42.2616 26.584C43.1373 26.584 43.8462 27.2929 43.8462 28.1686C43.8462 29.0443 43.1373 29.7532 42.2616 29.7532Z" fill="#666666"/>
<path d="M42.2618 27.6672C41.9907 27.6672 41.7614 27.8966 41.7614 28.1676C41.7614 28.7097 42.7622 28.7097 42.7622 28.1676C42.7622 27.8966 42.5328 27.6672 42.2618 27.6672Z" fill="#666666"/>
<path d="M37.9251 29.7532C37.0494 29.7532 36.3405 29.0443 36.3405 28.1686C36.3405 27.2929 37.0494 26.584 37.9251 26.584C38.8008 26.584 39.5097 27.2929 39.5097 28.1686C39.5097 29.0443 38.8008 29.7532 37.9251 29.7532Z" fill="#666666"/>
<path d="M37.9242 27.6672C37.6532 27.6672 37.4238 27.8966 37.4238 28.1676C37.4238 28.7097 38.4246 28.7097 38.4246 28.1676C38.4246 27.8966 38.1953 27.6672 37.9242 27.6672Z" fill="#666666"/>
<path d="M33.5875 29.7532C32.7118 29.7532 32.0029 29.0443 32.0029 28.1686C32.0029 27.2929 32.7118 26.584 33.5875 26.584C34.4632 26.584 35.1721 27.2929 35.1721 28.1686C35.1721 29.0443 34.4632 29.7532 33.5875 29.7532Z" fill="#666666"/>
<path d="M33.5877 27.6672C33.3167 27.6672 33.0873 27.8966 33.0873 28.1676C33.0873 28.7097 34.0881 28.7097 34.0881 28.1676C34.0881 27.8966 33.8588 27.6672 33.5877 27.6672Z" fill="#666666"/>
<path d="M22.7457 10.2173C21.87 10.2173 21.1611 9.5084 21.1611 8.6327C21.1611 7.757 21.87 7.0481 22.7457 7.0481C23.6214 7.0481 24.3303 7.757 24.3303 8.6327C24.3303 9.5084 23.6214 10.2173 22.7457 10.2173Z" fill="#666666"/>
<path d="M22.7459 8.13135C22.4749 8.13135 22.2455 8.3607 22.2455 8.63175C22.2455 9.1947 23.2463 9.1947 23.2463 8.63175C23.2463 8.3607 23.017 8.13135 22.7459 8.13135Z" fill="#666666"/>
<path d="M18.4092 10.2173C17.5335 10.2173 16.8246 9.5084 16.8246 8.6327C16.8246 7.757 17.5335 7.0481 18.4092 7.0481C19.2849 7.0481 19.9938 7.757 19.9938 8.6327C19.9938 9.5084 19.2849 10.2173 18.4092 10.2173Z" fill="#666666"/>
<path d="M18.4094 8.13135C18.1384 8.13135 17.909 8.3607 17.909 8.63175C17.909 9.1947 18.9098 9.1947 18.9098 8.63175C18.9098 8.3607 18.6805 8.13135 18.4094 8.13135Z" fill="#666666"/>
<path d="M14.0516 10.2173C13.1759 10.2173 12.467 9.5084 12.467 8.6327C12.467 7.757 13.1759 7.0481 14.0516 7.0481C14.9273 7.0481 15.6362 7.757 15.6362 8.6327C15.6362 9.5084 14.9273 10.2173 14.0516 10.2173Z" fill="#666666"/>
<path d="M14.0518 8.13135C13.7807 8.13135 13.5514 8.3607 13.5514 8.63175C13.5514 9.1947 14.5522 9.1947 14.5522 8.63175C14.5522 8.3607 14.3228 8.13135 14.0518 8.13135Z" fill="#666666"/>
<path d="M9.71506 10.2173C8.83935 10.2173 8.13045 9.5084 8.13045 8.6327C8.13045 7.757 8.83935 7.0481 9.71506 7.0481C10.5908 7.0481 11.2997 7.757 11.2997 8.6327C11.2997 9.5084 10.5908 10.2173 9.71506 10.2173Z" fill="#666666"/>
<path d="M9.71419 8.13135C9.44314 8.13135 9.21379 8.3607 9.21379 8.63175C9.21379 9.1947 10.2146 9.1947 10.2146 8.63175C10.2146 8.3607 9.98524 8.13135 9.71419 8.13135Z" fill="#666666"/>
</g>
<defs>
<clipPath id="clip0_1_3954">
<rect width="47.6632" height="52" fill="white" transform="translate(2.16667)"/>
</clipPath>
</defs>
</svg>
