<svg width="24" height="24" viewBox="0 0 24 24" fill="none" xmlns="http://www.w3.org/2000/svg">
<path fill-rule="evenodd" clip-rule="evenodd" d="M5 5C5 3.34315 6.34315 2 8 2H16C17.6569 2 19 3.34315 19 5V19C19 20.6569 17.6569 22 16 22H8C6.34315 22 5 20.6569 5 19V18.95C5 18.3977 5.44772 17.95 6 17.95C6.55228 17.95 7 18.3977 7 18.95V19C7 19.5523 7.44771 20 8 20H16C16.5523 20 17 19.5523 17 19V5C17 4.44772 16.5523 4 16 4H8C7.44772 4 7 4.44772 7 5V5.05C7 5.60228 6.55228 6.05 6 6.05C5.44772 6.05 5 5.60228 5 5.05V5Z" fill="#666666"/>
<path fill-rule="evenodd" clip-rule="evenodd" d="M5 12C4.44772 12 4 12.4477 4 13V14C4 14.5523 4.44772 15 5 15H7C7.55228 15 8 14.5523 8 14V13C8 12.4477 7.55228 12 7 12H5ZM2 13C2 11.3431 3.34315 10 5 10H7C8.65685 10 10 11.3431 10 13V14C10 15.6569 8.65685 17 7 17H5C3.34315 17 2 15.6569 2 14V13Z" fill="#666666"/>
<path fill-rule="evenodd" clip-rule="evenodd" d="M3 9C3 7.89543 3.89543 7 5 7H7C8.10457 7 9 7.89543 9 9V10C9 10.5523 8.55228 11 8 11C7.44772 11 7 10.5523 7 10V9H5V10C5 10.5523 4.55228 11 4 11C3.44772 11 3 10.5523 3 10V9Z" fill="#666666"/>
</svg>
