<svg width="24" height="24" viewBox="0 0 24 24" fill="none" xmlns="http://www.w3.org/2000/svg">
<path d="M17.5 7.5C17.22 7.5 17 7.28 17 7C17 6.72 17.22 6.5 17.5 6.5C18.05 6.5 18.5 6.05 18.5 5.5C18.5 4.95 18.05 4.5 17.5 4.5C16.95 4.5 16.5 4.95 16.5 5.5C16.5 5.78 16.28 6 16 6C15.72 6 15.5 5.78 15.5 5.5C15.5 4.4 16.4 3.5 17.5 3.5C18.6 3.5 19.5 4.4 19.5 5.5C19.5 6.6 18.6 7.5 17.5 7.5Z" fill="#666666"/>
<path d="M17.5 9.5C17.09 9.5 16.75 9.16 16.75 8.75C16.75 8.34 17.09 8 17.5 8C17.91 8 18.25 8.34 18.25 8.75C18.25 9.16 17.91 9.5 17.5 9.5ZM17.5 8.5C17.36 8.5 17.25 8.61 17.25 8.75C17.25 9.03 17.75 9.03 17.75 8.75C17.75 8.61 17.64 8.5 17.5 8.5Z" fill="#666666"/>
<path d="M10.5 14C10.37 14 10.24 13.95 10.15 13.85C10 13.7 9.96 13.47 10.05 13.28L11.72 9.77C11.2 8.78 10.95 7.67 11 6.54C10.97 4.85 11.64 3.16 12.84 1.94C14.04 0.71 15.71 0 17.43 0C20.21 0 22.7 1.76 23.63 4.38C24.55 7 23.72 9.93 21.55 11.68C20.39 12.61 18.93 13.13 17.44 13.13C16.31 13.13 15.2 12.84 14.22 12.28L10.72 13.95C10.65 13.98 10.58 14 10.51 14H10.5ZM17.44 1C15.99 1 14.57 1.6 13.56 2.64C12.54 3.68 11.98 5.1 12.01 6.56C11.97 7.62 12.22 8.63 12.72 9.51C12.8 9.65 12.81 9.83 12.74 9.97L11.56 12.44L14.03 11.26C14.18 11.19 14.36 11.2 14.51 11.29C15.39 11.84 16.4 12.12 17.44 12.13C18.7 12.13 19.94 11.69 20.93 10.9C22.77 9.42 23.47 6.94 22.69 4.71C21.91 2.49 19.8 1 17.44 1Z" fill="#666666"/>
<path d="M16.5 24C16.22 24 16 23.78 16 23.5V14.5C16 14.22 16.22 14 16.5 14C16.78 14 17 14.22 17 14.5V23.5C17 23.78 16.78 24 16.5 24Z" fill="#666666"/>
<path d="M0.5 24C0.22 24 0 23.78 0 23.5V5.5C0 4.12 1.12 3 2.5 3H10C10.28 3 10.5 3.22 10.5 3.5C10.5 3.78 10.28 4 10 4H2.5C1.67 4 1 4.67 1 5.5V23.5C1 23.78 0.78 24 0.5 24Z" fill="#666666"/>
<path d="M9.5 8H0.5C0.22 8 0 7.78 0 7.5C0 7.22 0.22 7 0.5 7H9.5C9.78 7 10 7.22 10 7.5C10 7.78 9.78 8 9.5 8Z" fill="#666666"/>
<path d="M8 19.5C6.48 19.5 5.25 18.27 5.25 16.75C5.25 15.23 6.48 14 8 14C9.52 14 10.75 15.23 10.75 16.75C10.75 18.27 9.52 19.5 8 19.5ZM8 15C7.04 15 6.25 15.79 6.25 16.75C6.25 17.71 7.04 18.5 8 18.5C8.96 18.5 9.75 17.71 9.75 16.75C9.75 15.79 8.96 15 8 15Z" fill="#666666"/>
<path d="M12.5 24C12.28 24 12.07 23.85 12.02 23.62C11.55 21.78 9.9 20.5 8 20.5C6.1 20.5 4.45 21.78 3.98 23.62C3.91 23.89 3.64 24.05 3.37 23.98C3.1 23.91 2.94 23.64 3.01 23.37C3.59 21.09 5.64 19.5 7.99 19.5C10.34 19.5 12.39 21.09 12.97 23.37C13.04 23.64 12.88 23.91 12.61 23.98C12.57 23.99 12.53 24 12.49 24H12.5Z" fill="#666666"/>
<path d="M9.5 6H7C6.72 6 6.5 5.78 6.5 5.5C6.5 5.22 6.72 5 7 5H9.5C9.78 5 10 5.22 10 5.5C10 5.78 9.78 6 9.5 6Z" fill="#666666"/>
</svg>
