<svg width="24" height="24" viewBox="0 0 24 24" fill="none" xmlns="http://www.w3.org/2000/svg">
<path fill-rule="evenodd" clip-rule="evenodd" d="M7 5V19C7 19.5523 7.44772 20 8 20H16C16.5523 20 17 19.5523 17 19V5C17 4.44772 16.5523 4 16 4H8C7.44772 4 7 4.44772 7 5ZM5 5V19C5 20.6569 6.34315 22 8 22H16C17.6569 22 19 20.6569 19 19V5C19 3.34315 17.6569 2 16 2H8C6.34315 2 5 3.34315 5 5Z" fill="#666666"/>
<path d="M13 17C13 17.5523 12.5523 18 12 18C11.4477 18 11 17.5523 11 17C11 16.4477 11.4477 16 12 16C12.5523 16 13 16.4477 13 17Z" fill="#666666"/>
</svg>
