<svg width="24" height="24" viewBox="0 0 24 24" fill="none" xmlns="http://www.w3.org/2000/svg">
<path fill-rule="evenodd" clip-rule="evenodd" d="M1 12C1 7.55883 4.55883 4 9 4C11.8589 4 14.3562 5.47615 15.7698 7.71663C16.0645 8.18372 15.9247 8.80127 15.4576 9.09596C14.9905 9.39065 14.373 9.25088 14.0783 8.78379C13.0202 7.10667 11.1521 6 9 6C5.6634 6 3 8.6634 3 12C3 15.3366 5.6634 18 9 18C11.1521 18 13.0202 16.8933 14.0783 15.2162C14.373 14.7491 14.9905 14.6094 15.4576 14.904C15.9247 15.1987 16.0645 15.8163 15.7698 16.2834C14.3562 18.5238 11.8589 20 9 20C4.55883 20 1 16.4412 1 12Z" fill="#666666"/>
<path fill-rule="evenodd" clip-rule="evenodd" d="M19.7071 8.29289C19.3166 7.90237 18.6834 7.90237 18.2929 8.29289C17.9024 8.68342 17.9024 9.31658 18.2929 9.70711L19.5858 11H15C14.4477 11 14 11.4477 14 12C14 12.5523 14.4477 13 15 13H19.5858L18.2929 14.2929C17.9024 14.6834 17.9024 15.3166 18.2929 15.7071C18.6834 16.0976 19.3166 16.0976 19.7071 15.7071L22 13.4142C22.781 12.6332 22.781 11.3668 22 10.5858L19.7071 8.29289Z" fill="#666666"/>
<path fill-rule="evenodd" clip-rule="evenodd" d="M8.84615 7.25C9.26037 7.25 9.59615 7.58579 9.59615 8V8.58333H9.61991C10.3287 8.58333 10.9951 8.88891 11.4764 9.41041L11.5511 9.49129C11.8321 9.79566 11.8131 10.2702 11.5087 10.5511C11.2043 10.8321 10.7298 10.8131 10.4489 10.5087L10.3742 10.4278C10.1632 10.1992 9.89038 10.0833 9.61991 10.0833H8.23077C8.02064 10.0833 7.75 10.2868 7.75 10.6667C7.75 11.0465 8.02064 11.25 8.23077 11.25H9.76923C10.9186 11.25 11.75 12.2404 11.75 13.3333C11.75 14.4263 10.9186 15.4167 9.76923 15.4167H9.59615V16C9.59615 16.4142 9.26037 16.75 8.84615 16.75C8.43194 16.75 8.09615 16.4142 8.09615 16V15.4002C7.49503 15.3304 6.94006 15.0408 6.52356 14.5896L6.4489 14.5087C6.16794 14.2043 6.18692 13.7298 6.49129 13.4489C6.79566 13.1679 7.27015 13.1869 7.5511 13.4913L7.62576 13.5722C7.83682 13.8008 8.10962 13.9167 8.38009 13.9167H9.76923C9.97936 13.9167 10.25 13.7132 10.25 13.3333C10.25 12.9535 9.97936 12.75 9.76923 12.75H8.23077C7.08143 12.75 6.25 11.7596 6.25 10.6667C6.25 9.61688 7.01707 8.6617 8.09615 8.58791V8C8.09615 7.58579 8.43194 7.25 8.84615 7.25Z" fill="#666666"/>
</svg>
