<svg width="24" height="24" viewBox="0 0 24 24" fill="none" xmlns="http://www.w3.org/2000/svg">
<path fill-rule="evenodd" clip-rule="evenodd" d="M20.1248 13.1764C19.7342 12.7859 19.1011 12.7859 18.7106 13.1764C18.32 13.567 18.32 14.2001 18.7106 14.5907L19.654 15.5341H15.8835C15.3313 15.5341 14.8835 15.9818 14.8835 16.5341C14.8835 17.0864 15.3313 17.5341 15.8835 17.5341H19.654L18.7106 18.4776C18.32 18.8681 18.32 19.5013 18.7106 19.8918C19.1011 20.2823 19.7342 20.2823 20.1248 19.8918L22.0682 17.9483C22.8493 17.1673 22.8493 15.901 22.0682 15.1199L20.1248 13.1764Z" fill="#666666"/>
<path fill-rule="evenodd" clip-rule="evenodd" d="M17.461 11.8236C17.8515 12.2141 18.4847 12.2141 18.8752 11.8236C19.2657 11.433 19.2657 10.7999 18.8752 10.4093L17.9317 9.4659H21.7021C22.2544 9.4659 22.7021 9.01819 22.7021 8.4659C22.7021 7.91362 22.2544 7.4659 21.7021 7.4659H17.9317L18.8752 6.52246C19.2657 6.13193 19.2657 5.49877 18.8752 5.10824C18.4847 4.71772 17.8515 4.71772 17.461 5.10824L15.5175 7.05169C14.7365 7.83274 14.7365 9.09907 15.5175 9.88012L17.461 11.8236Z" fill="#666666"/>
<path fill-rule="evenodd" clip-rule="evenodd" d="M8.84615 7.25C9.26037 7.25 9.59615 7.58579 9.59615 8V8.58333H9.61991C10.3287 8.58333 10.9951 8.88891 11.4764 9.41041L11.5511 9.49129C11.8321 9.79566 11.8131 10.2702 11.5087 10.5511C11.2043 10.8321 10.7298 10.8131 10.4489 10.5087L10.3742 10.4278C10.1632 10.1992 9.89038 10.0833 9.61991 10.0833H8.23077C8.02064 10.0833 7.75 10.2868 7.75 10.6667C7.75 11.0465 8.02064 11.25 8.23077 11.25H9.76923C10.9186 11.25 11.75 12.2404 11.75 13.3333C11.75 14.4263 10.9186 15.4167 9.76923 15.4167H9.59615V16C9.59615 16.4142 9.26037 16.75 8.84615 16.75C8.43194 16.75 8.09615 16.4142 8.09615 16V15.4002C7.49503 15.3304 6.94006 15.0408 6.52356 14.5896L6.4489 14.5087C6.16794 14.2043 6.18692 13.7298 6.49129 13.4489C6.79566 13.1679 7.27015 13.1869 7.5511 13.4913L7.62576 13.5722C7.83682 13.8008 8.10962 13.9167 8.38009 13.9167H9.76923C9.97936 13.9167 10.25 13.7132 10.25 13.3333C10.25 12.9535 9.97936 12.75 9.76923 12.75H8.23077C7.08143 12.75 6.25 11.7596 6.25 10.6667C6.25 9.61688 7.01707 8.6617 8.09615 8.58791V8C8.09615 7.58579 8.43194 7.25 8.84615 7.25Z" fill="#666666"/>
<path fill-rule="evenodd" clip-rule="evenodd" d="M8.76923 6C5.61431 6 3 8.65443 3 12C3 15.3456 5.61431 18 8.76923 18C9.53144 18 10.2573 17.8468 10.9216 17.5687C11.4425 17.3507 11.9271 17.0552 12.3618 16.6948C12.787 16.3424 13.4174 16.4013 13.7699 16.8265C14.1223 17.2517 14.0634 17.8821 13.6382 18.2346C13.0549 18.7181 12.401 19.1176 11.6938 19.4136C10.7903 19.7918 9.80239 20 8.76923 20C4.44707 20 1 16.3864 1 12C1 7.61358 4.44707 4 8.76923 4C9.80239 4 10.7903 4.20819 11.6938 4.58638C12.401 4.88239 13.0549 5.28186 13.6382 5.76543C14.0634 6.11789 14.1223 6.7483 13.7699 7.17349C13.4174 7.59869 12.787 7.65764 12.3618 7.30518C11.9271 6.94481 11.4425 6.64931 10.9216 6.43127C10.2573 6.1532 9.53144 6 8.76923 6Z" fill="#666666"/>
</svg>
