<svg width="20" height="20" viewBox="0 0 20 20" fill="none" xmlns="http://www.w3.org/2000/svg">
<path d="M18.5833 18.5834C18.2612 18.9055 17.7388 18.9055 17.4167 18.5834L15.75 16.9167C15.4444 17.0973 15.125 17.2396 14.7917 17.3438C14.4583 17.448 14.1111 17.5 13.75 17.5C12.7083 17.5 11.8229 17.1355 11.0937 16.4063C10.3646 15.6771 10 14.7917 10 13.75C10 12.7084 10.3646 11.823 11.0937 11.0938C11.8229 10.3646 12.7083 10 13.75 10C14.7917 10 15.6771 10.3646 16.4062 11.0938C17.1354 11.823 17.5 12.7084 17.5 13.75C17.5 14.1112 17.4479 14.4584 17.3437 14.7917C17.2396 15.125 17.0972 15.4445 16.9167 15.75L18.5833 17.4167C18.9055 17.7389 18.9055 18.2612 18.5833 18.5834ZM13.75 15.8334C14.3333 15.8334 14.8264 15.632 15.2292 15.2292C15.6319 14.8264 15.8333 14.3334 15.8333 13.75C15.8333 13.1667 15.6319 12.6737 15.2292 12.2709C14.8264 11.8681 14.3333 11.6667 13.75 11.6667C13.1667 11.6667 12.6736 11.8681 12.2708 12.2709C11.8681 12.6737 11.6667 13.1667 11.6667 13.75C11.6667 14.3334 11.8681 14.8264 12.2708 15.2292C12.6736 15.632 13.1667 15.8334 13.75 15.8334ZM17.5 7.50004C17.5 7.96028 17.1269 8.33337 16.6667 8.33337C16.2064 8.33337 15.8333 7.96028 15.8333 7.50004V4.16671H14.1667V5.66671C14.1667 6.21899 13.719 6.66671 13.1667 6.66671H6.83333C6.28105 6.66671 5.83333 6.21899 5.83333 5.66671V4.16671H4.16667V15.8334H7.5C7.96024 15.8334 8.33333 16.2065 8.33333 16.6667C8.33333 17.1269 7.96024 17.5 7.5 17.5H4.16667C3.70833 17.5 3.31597 17.3368 2.98958 17.0105C2.66319 16.6841 2.5 16.2917 2.5 15.8334V4.16671C2.5 3.70837 2.66319 3.31601 2.98958 2.98962C3.31597 2.66323 3.70833 2.50004 4.16667 2.50004H7.64583C7.79861 2.01393 8.09722 1.61462 8.54167 1.30212C8.98611 0.989624 9.47222 0.833374 10 0.833374C10.5556 0.833374 11.0521 0.989624 11.4896 1.30212C11.9271 1.61462 12.2222 2.01393 12.375 2.50004H15.8333C16.2917 2.50004 16.684 2.66323 17.0104 2.98962C17.3368 3.31601 17.5 3.70837 17.5 4.16671V7.50004ZM10 4.16671C10.2361 4.16671 10.434 4.08685 10.5937 3.92712C10.7535 3.7674 10.8333 3.56948 10.8333 3.33337C10.8333 3.09726 10.7535 2.89935 10.5937 2.73962C10.434 2.5799 10.2361 2.50004 10 2.50004C9.76389 2.50004 9.56597 2.5799 9.40625 2.73962C9.24653 2.89935 9.16667 3.09726 9.16667 3.33337C9.16667 3.56948 9.24653 3.7674 9.40625 3.92712C9.56597 4.08685 9.76389 4.16671 10 4.16671Z" fill="#666666"/>
</svg>
