<svg width="24" height="24" viewBox="0 0 24 24" fill="none" xmlns="http://www.w3.org/2000/svg">
<path fill-rule="evenodd" clip-rule="evenodd" d="M8.89717 3.48222C9.14111 3.97771 8.93718 4.57714 8.44169 4.82108C5.80174 6.12076 4 8.83146 4 12C4 16.4477 7.55228 20 12 20C16.4477 20 20 16.4477 20 12C20 8.83146 18.1983 6.12076 15.5583 4.82108C15.0628 4.57714 14.8589 3.97771 15.1028 3.48222C15.3468 2.98673 15.9462 2.7828 16.4417 3.02674C19.7466 4.65381 22 8.04893 22 12C22 17.5523 17.5523 22 12 22C6.44772 22 2 17.5523 2 12C2 8.04893 4.25336 4.65381 7.55831 3.02674C8.0538 2.7828 8.65323 2.98673 8.89717 3.48222Z" fill="#666666"/>
<path fill-rule="evenodd" clip-rule="evenodd" d="M12 12C11.4477 12 11 11.5523 11 11V2C11 1.44771 11.4477 1 12 1C12.5523 1 13 1.44771 13 2V11C13 11.5523 12.5523 12 12 12Z" fill="#666666"/>
</svg>
