<svg width="24" height="24" viewBox="0 0 24 24" fill="none" xmlns="http://www.w3.org/2000/svg">
<path fill-rule="evenodd" clip-rule="evenodd" d="M2 12C2 6.44772 6.44772 2 12 2C17.5523 2 22 6.44772 22 12C22 17.5523 17.5523 22 12 22C6.44772 22 2 17.5523 2 12ZM12 4C7.55228 4 4 7.55228 4 12C4 16.4477 7.55228 20 12 20C16.4477 20 20 16.4477 20 12C20 7.55228 16.4477 4 12 4Z" fill="#999999"/>
<path d="M12.8365 14.9528C12.8365 15.3902 12.4819 15.7449 12.0444 15.7449C11.607 15.7449 11.2523 15.3902 11.2523 14.9528V11.4075L11.2677 10.6948L11.2933 9.91553C11.0302 10.1787 10.8473 10.3513 10.7448 10.4333L10.3593 10.7431C10.0966 10.9542 9.71245 10.9121 9.50175 10.649C9.29083 10.3857 9.33388 10.0012 9.59781 9.79106L11.2705 8.45932C11.4413 8.32332 11.6532 8.24927 11.8715 8.24927C12.4045 8.24927 12.8365 8.68132 12.8365 9.21427V14.9528Z" fill="#999999"/>
</svg>
