<svg width="24" height="24" viewBox="0 0 24 24" fill="none" xmlns="http://www.w3.org/2000/svg">
<path d="M14 8C14 10.2091 12.2091 12 10 12C7.79086 12 6 10.2091 6 8C6 5.79086 7.79086 4 10 4C12.2091 4 14 5.79086 14 8Z" fill="#666666"/>
<path fill-rule="evenodd" clip-rule="evenodd" d="M19.4368 13.9684C20.8867 13.7569 22 12.5085 22 11C22 9.34315 20.6569 8 19 8C17.3431 8 16 9.34315 16 11C16 12.1104 16.6033 13.0799 17.5 13.5987V19.2929C17.5 19.4255 17.5527 19.5527 17.6464 19.6464L18.605 20.605C18.8157 20.8157 19.1628 20.7965 19.349 20.5638L20.7204 18.8495C20.8796 18.6505 20.8637 18.3637 20.6836 18.1836L19.5 17L20.6464 15.8536C20.8417 15.6583 20.8417 15.3417 20.6464 15.1464L19.5 14L19.4368 13.9684ZM20 10C20 10.5523 19.5523 11 19 11C18.4477 11 18 10.5523 18 10C18 9.44772 18.4477 9 19 9C19.5523 9 20 9.44772 20 10Z" fill="#666666"/>
<path fill-rule="evenodd" clip-rule="evenodd" d="M15.4226 13.7302C14.6397 13.2663 13.726 13 12.75 13H7.25C4.35051 13 2 15.3505 2 18.25C2 19.2165 2.7835 20 3.75 20H15.5C15.7761 20 16 19.7761 16 19.5V14.3542C15.7886 14.1649 15.5951 13.956 15.4226 13.7302Z" fill="#666666"/>
</svg>
