<svg width="24" height="24" viewBox="0 0 24 24" fill="none" xmlns="http://www.w3.org/2000/svg">
<path fill-rule="evenodd" clip-rule="evenodd" d="M5 10C4.44772 10 4 10.4477 4 11V16C4 16.5523 4.44772 17 5 17H19C19.5523 17 20 16.5523 20 16V11C20 10.4477 19.5523 10 19 10H5ZM18 8V5C18 4.44771 17.5523 4 17 4H7C6.44772 4 6 4.44772 6 5V8H18ZM4 8.17071V5C4 3.34315 5.34315 2 7 2H17C18.6569 2 20 3.34315 20 5V8.17071C21.1649 8.58242 21.9995 9.69313 22 10.9989V16.0011C21.9995 17.3069 21.1649 18.4176 20 18.8293V19C20 19.7656 19.7132 20.4642 19.2412 20.9942C18.6918 21.6113 17.8913 22 17 22H7C6.10874 22 5.30826 21.6113 4.75879 20.9943C4.28681 20.4642 4 19.7656 4 19V18.8293C2.83515 18.4176 2.00049 17.3069 2 16.0011V10.9989C2.00049 9.69313 2.83515 8.58242 4 8.17071ZM6 19C6 19.5523 6.44772 20 7 20H17C17.5523 20 18 19.5523 18 19H6Z" fill="#666666"/>
<path d="M5.50928 16V10.9893H7.13281C7.74805 10.9893 8.14909 11.0143 8.33594 11.0645C8.62305 11.1396 8.86344 11.3037 9.05713 11.5566C9.25081 11.8073 9.34766 12.132 9.34766 12.5308C9.34766 12.8384 9.29183 13.097 9.18018 13.3066C9.06852 13.5163 8.92611 13.6815 8.75293 13.8022C8.58203 13.9207 8.40771 13.9993 8.22998 14.0381C7.98844 14.0859 7.63867 14.1099 7.18066 14.1099H6.521V16H5.50928ZM6.521 11.8369V13.2588H7.07471C7.47347 13.2588 7.74007 13.2326 7.87451 13.1802C8.00895 13.1278 8.11377 13.0457 8.18896 12.9341C8.26644 12.8224 8.30518 12.6925 8.30518 12.5444C8.30518 12.3621 8.25163 12.2118 8.14453 12.0933C8.03744 11.9748 7.90186 11.9007 7.73779 11.8711C7.61702 11.8483 7.37435 11.8369 7.00977 11.8369H6.521Z" fill="#666666"/>
<path d="M10.1748 10.9893H12.0239C12.4409 10.9893 12.7588 11.0212 12.9775 11.085C13.2715 11.1715 13.5233 11.3254 13.7329 11.5464C13.9425 11.7674 14.1021 12.0386 14.2114 12.3599C14.3208 12.6789 14.3755 13.0731 14.3755 13.5425C14.3755 13.9549 14.3242 14.3104 14.2217 14.6089C14.0964 14.9735 13.9175 15.2686 13.6851 15.4941C13.5096 15.665 13.2726 15.7983 12.9741 15.894C12.7508 15.9647 12.4523 16 12.0786 16H10.1748V10.9893ZM11.1865 11.8369V15.1558H11.9419C12.2244 15.1558 12.4284 15.1398 12.5537 15.1079C12.7178 15.0669 12.8534 14.9974 12.9604 14.8994C13.0698 14.8014 13.1587 14.6408 13.2271 14.4175C13.2954 14.1919 13.3296 13.8854 13.3296 13.498C13.3296 13.1107 13.2954 12.8133 13.2271 12.606C13.1587 12.3986 13.063 12.2368 12.9399 12.1206C12.8169 12.0044 12.6608 11.9258 12.4717 11.8848C12.3304 11.8529 12.0535 11.8369 11.6411 11.8369H11.1865Z" fill="#666666"/>
<path d="M15.2437 16V10.9893H18.6787V11.8369H16.2554V13.0229H18.3472V13.8706H16.2554V16H15.2437Z" fill="#666666"/>
</svg>
