<svg width="20" height="20" viewBox="0 0 20 20" fill="none" xmlns="http://www.w3.org/2000/svg">
<path fill-rule="evenodd" clip-rule="evenodd" d="M16.667 6.45508C16.925 6.45521 17.1718 6.55998 17.3525 6.74414C17.5327 6.92814 17.6338 7.17703 17.6338 7.43457V16.6436H17.667C17.8367 16.6436 17.998 16.7126 18.1162 16.833C18.2342 16.9533 18.2998 17.1154 18.2998 17.2832C18.2996 17.4508 18.2342 17.6132 18.1162 17.7334C17.998 17.8535 17.8365 17.9228 17.667 17.9229H2.33301C2.16348 17.9228 2.00195 17.8535 1.88379 17.7334C1.76584 17.6132 1.70038 17.4508 1.7002 17.2832C1.7002 17.1154 1.76584 16.9533 1.88379 16.833C2.00199 16.7126 2.16326 16.6436 2.33301 16.6436H2.36719V14.2266C2.36719 13.9687 2.46785 13.7202 2.64844 13.5361C2.82927 13.352 3.07593 13.2471 3.33398 13.2471H4.66699C4.92498 13.2472 5.17179 13.352 5.35254 13.5361C5.5329 13.7202 5.63379 13.9689 5.63379 14.2266V16.6436H6.36719V10.8311C6.36719 10.5732 6.46785 10.3247 6.64844 10.1406C6.82927 9.95651 7.07593 9.85156 7.33398 9.85156H8.66699C8.92498 9.85169 9.17179 9.95646 9.35254 10.1406C9.5329 10.3247 9.63379 10.5734 9.63379 10.8311V16.6436H10.3672V12.1895C10.3672 11.9316 10.4679 11.6831 10.6484 11.499C10.8293 11.3148 11.0758 11.21 11.334 11.21H12.667C12.925 11.2101 13.1718 11.3149 13.3525 11.499C13.5327 11.683 13.6338 11.9319 13.6338 12.1895V16.6436H14.3672V7.43457C14.3672 7.1767 14.4679 6.92819 14.6484 6.74414C14.8293 6.55987 15.0758 6.45508 15.334 6.45508H16.667ZM3.63379 16.6436H4.36719V14.5264H3.63379V16.6436ZM7.63379 16.6436H8.36719V11.1309H7.63379V16.6436ZM11.6338 16.6436H12.3672V12.4893H11.6338V16.6436ZM15.6338 16.6436H16.3672V7.73438H15.6338V16.6436Z" fill="#666666"/>
<path d="M16.334 1.7002C16.5037 1.70033 16.666 1.76925 16.7842 1.88965C16.9019 2.00993 16.9678 2.17223 16.9678 2.33984V5.05664C16.9678 5.2243 16.902 5.38655 16.7842 5.50684C16.666 5.62723 16.5037 5.69616 16.334 5.69629C16.1642 5.69629 16.002 5.62719 15.8838 5.50684C15.7658 5.38653 15.7002 5.22441 15.7002 5.05664V4.01172L13.0352 6.93652L13.0342 6.93555C12.7783 7.21725 12.4476 7.41914 12.0811 7.51465C11.7144 7.61007 11.3284 7.5952 10.9697 7.47266L8.49023 6.63086C8.37762 6.59228 8.2553 6.58319 8.13867 6.60547C8.02221 6.62785 7.91216 6.68067 7.82031 6.75879L4.39355 9.67285L4.36328 9.69824L4.32812 9.71582C4.22429 9.76476 4.109 9.78168 3.99512 9.77051C3.99199 9.77034 3.98847 9.76963 3.98535 9.76953C3.97321 9.76819 3.96033 9.7687 3.94824 9.7666C3.87274 9.75989 3.7983 9.74229 3.72949 9.70996C3.64654 9.67091 3.57254 9.61428 3.5127 9.54492L3.50781 9.54004C3.45437 9.47477 3.41397 9.39875 3.38965 9.31836C3.36528 9.23776 3.35715 9.15302 3.36523 9.06934C3.37334 8.98555 3.39804 8.90353 3.4375 8.8291C3.47687 8.75501 3.53037 8.68844 3.5957 8.63477L7.01758 5.73145C7.27397 5.51207 7.58231 5.36259 7.91211 5.29785C8.24184 5.23321 8.58257 5.25639 8.90137 5.36328L11.3828 6.20508L11.3838 6.20605C11.5107 6.24981 11.6477 6.25505 11.7773 6.22168C11.9071 6.18821 12.0259 6.11678 12.1182 6.01562L12.1191 6.01465L14.9092 2.97949H13.667C13.4975 2.9794 13.3359 2.91019 13.2178 2.79004C13.0997 2.66975 13.0342 2.50765 13.0342 2.33984C13.0342 2.17197 13.0997 2.00999 13.2178 1.88965C13.336 1.76937 13.4974 1.70028 13.667 1.7002H16.334Z" fill="#666666"/>
</svg>
