<svg width="24" height="24" viewBox="0 0 24 24" fill="none" xmlns="http://www.w3.org/2000/svg">
<path d="M12.75 11C13.2219 11 13.6792 11.0629 14.1143 11.1797C13.6996 11.727 13.3855 12.3541 13.1982 13.0342C13.0516 13.0139 12.9023 13 12.75 13H7.25C5.53923 13 4.13844 14.3219 4.01074 16H10.9668L8.9668 18H3.75C2.7835 18 2 17.2165 2 16.25C2 13.3505 4.35051 11 7.25 11H12.75ZM10 2C12.2091 2 14 3.79086 14 6C14 8.20914 12.2091 10 10 10C7.79086 10 6 8.20914 6 6C6 3.79086 7.79086 2 10 2ZM10 4C8.89543 4 8 4.89543 8 6C8 7.10457 8.89543 8 10 8C11.1046 8 12 7.10457 12 6C12 4.89543 11.1046 4 10 4Z" fill="#666666"/>
<path d="M14.6161 14.2019C14.909 13.909 15.3839 13.909 15.6768 14.2019C15.9697 14.4948 15.9697 14.9697 15.6768 15.2626L11.845 19.0943C11.7914 19.148 11.7649 19.2233 11.7732 19.2987L11.9141 20.5721C11.927 20.6881 12.019 20.78 12.135 20.793L13.4008 20.9332C13.4773 20.9417 13.5535 20.9144 13.6072 20.8593L13.8627 20.5983C13.8848 20.5757 13.9017 20.5487 13.9138 20.5196L14.3378 19.5059C14.5268 19.0533 14.8971 18.7001 15.3584 18.5336L16.0041 18.3009C16.0671 18.2782 16.119 18.2312 16.147 18.1704L16.638 17.0966C16.8105 16.72 17.2565 16.5546 17.6331 16.7272C18.0095 16.8998 18.1743 17.345 18.0018 17.7215L17.5101 18.7946C17.3144 19.2217 16.9556 19.5529 16.5137 19.7124L15.868 19.9451C15.8022 19.9688 15.7494 20.0193 15.7223 20.0839L15.2984 21.0976C15.2132 21.3015 15.0895 21.4877 14.9351 21.6458L14.6803 21.9076C14.3038 22.2931 13.7706 22.4843 13.235 22.4248L11.9693 22.2832C11.1561 22.1927 10.5144 21.551 10.4239 20.7378L10.2823 19.4651C10.2236 18.9368 10.4084 18.4096 10.7843 18.0337L14.6161 14.2019Z" fill="#666666"/>
<path d="M19.0356 13.6716C19.4262 14.0621 19.4262 14.6952 19.0356 15.0858C18.6451 15.4763 18.0119 15.4763 17.6214 15.0858C17.2309 14.6952 17.2309 14.0621 17.6214 13.6716C18.0119 13.281 18.6451 13.281 19.0356 13.6716Z" fill="#666666"/>
<path d="M17.7699 18.3395C18.6 18.4565 19.4459 18.3098 20.1881 17.9201C20.9303 17.5304 21.5313 16.9173 21.9062 16.1676C22.2811 15.4178 22.4109 14.5691 22.2774 13.7416C22.1439 12.914 21.7537 12.1492 21.1621 11.5554C20.5704 10.9616 19.8071 10.5686 18.98 10.4321C18.1529 10.2955 17.3038 10.4223 16.5527 10.7945C15.8015 11.1666 15.1863 11.7654 14.7938 12.5062C14.4014 13.2469 14.2516 14.0923 14.3657 14.9228L15.839 14.7205C15.7673 14.1987 15.8614 13.6677 16.108 13.2023C16.3545 12.737 16.741 12.3608 17.2129 12.127C17.6848 11.8932 18.2182 11.8136 18.7378 11.8994C19.2574 11.9851 19.7369 12.232 20.1086 12.605C20.4803 12.9781 20.7254 13.4585 20.8093 13.9784C20.8931 14.4983 20.8116 15.0314 20.576 15.5025C20.3405 15.9735 19.963 16.3586 19.4967 16.6035C19.0305 16.8483 18.4991 16.9404 17.9776 16.8669L17.7699 18.3395Z" fill="#666666"/>
</svg>
