<svg width="24" height="24" viewBox="0 0 24 24" fill="none" xmlns="http://www.w3.org/2000/svg">
<g clip-path="url(#clip0_1_3987)">
<path d="M13.2542 13.1067C13.2542 13.1067 13.158 13.1067 13.1195 13.0875C12.9174 13.0297 12.7827 12.8373 12.7827 12.6255V10.0562C11.6471 9.83484 10.7811 8.82442 10.7811 7.62153V2.61752C10.7811 1.25104 11.8973 0.134766 13.2638 0.134766H19.2686C20.6351 0.134766 21.7514 1.25104 21.7514 2.61752V7.62153C21.7514 8.98801 20.6351 10.1043 19.2686 10.1043H15.5156L13.6584 12.895C13.5718 13.0297 13.4178 13.1067 13.2542 13.1067ZM13.2542 1.08745C12.417 1.08745 11.7338 1.77069 11.7338 2.6079V7.62153C11.7338 8.45874 12.417 9.14198 13.2542 9.14198C13.5236 9.14198 13.7354 9.35369 13.7354 9.62314V11.0377L14.8613 9.35369C14.9479 9.21897 15.1018 9.14198 15.2654 9.14198H19.2686C20.1058 9.14198 20.7891 8.45874 20.7891 7.62153V2.61752C20.7891 1.78031 20.1058 1.09708 19.2686 1.09708H13.2638L13.2542 1.08745ZM18.2582 7.09226H14.255C13.9856 7.09226 13.7739 6.88056 13.7739 6.61111C13.7739 6.34166 13.9856 6.12995 14.255 6.12995H18.2582C18.5277 6.12995 18.7394 6.34166 18.7394 6.61111C18.7394 6.88056 18.5277 7.09226 18.2582 7.09226ZM18.2582 4.08986H14.255C13.9856 4.08986 13.7739 3.87815 13.7739 3.6087C13.7739 3.33926 13.9856 3.12755 14.255 3.12755H18.2582C18.5277 3.12755 18.7394 3.33926 18.7394 3.6087C18.7394 3.87815 18.5277 4.08986 18.2582 4.08986Z" fill="#666666"/>
<path d="M9.31836 2.51163H7.73055C7.4611 2.51163 7.24939 2.29992 7.24939 2.03047C7.24939 1.76102 7.4611 1.54932 7.73055 1.54932H9.31836C9.5878 1.54932 9.79951 1.76102 9.79951 2.03047C9.79951 2.29992 9.5878 2.51163 9.31836 2.51163Z" fill="#666666"/>
<path d="M13.7546 24H4.73776C3.37128 24 2.255 22.8837 2.255 21.5076V2.48276C2.255 1.11628 3.37128 0 4.73776 0H10.2422C10.5116 0 10.7233 0.211708 10.7233 0.481155C10.7233 0.750601 10.5116 0.96231 10.2422 0.96231H4.73776C3.90055 0.96231 3.21731 1.64555 3.21731 2.48276V19.0249H15.2751V12.4908C15.2751 12.2213 15.4868 12.0096 15.7562 12.0096C16.0257 12.0096 16.2374 12.2213 16.2374 12.4908V21.5076C16.2374 22.8741 15.1211 23.9904 13.7546 23.9904V24ZM3.21731 19.9872V21.5076C3.21731 22.3448 3.90055 23.0281 4.73776 23.0281H13.7546C14.5918 23.0281 15.2751 22.3448 15.2751 21.5076V19.9872H3.21731ZM9.24137 22.239C8.8372 22.239 8.51002 21.9118 8.51002 21.5076C8.51002 21.1034 8.8372 20.7763 9.24137 20.7763C9.64554 20.7763 9.97273 21.1034 9.97273 21.5076C9.97273 21.9118 9.64554 22.239 9.24137 22.239ZM9.24137 21.2767C9.11627 21.2767 9.01042 21.3825 9.01042 21.5076C9.01042 21.7674 9.47233 21.7674 9.47233 21.5076C9.47233 21.3825 9.36647 21.2767 9.24137 21.2767Z" fill="#666666"/>
<path d="M8.73135 4.30142H2.73616C2.46671 4.30142 2.255 4.08971 2.255 3.82027C2.255 3.55082 2.46671 3.33911 2.73616 3.33911H8.73135C9.00079 3.33911 9.2125 3.55082 9.2125 3.82027C9.2125 4.08971 9.00079 4.30142 8.73135 4.30142Z" fill="#666666"/>
<path d="M12.9848 17.8702C12.8308 17.8702 12.6768 17.7932 12.5806 17.6489C12.3881 17.3505 11.4354 17.0041 10.5212 16.6673L10.2133 16.5518C10.0305 16.4845 9.78989 16.3112 9.68403 15.8782C9.59743 15.5029 9.61667 14.8293 9.88612 14.531C10.3095 14.0787 10.5116 13.4628 10.4539 12.8566C10.4828 12.4331 10.3673 12.106 10.1459 11.8654C9.91499 11.6248 9.60705 11.4901 9.26062 11.4997C8.90456 11.4997 8.57738 11.6248 8.34642 11.8654C8.11547 12.106 8.00962 12.4331 8.03849 12.7603C7.98075 13.4628 8.18283 14.0691 8.60625 14.5213C8.88532 14.8197 8.90456 15.5029 8.80833 15.8686C8.70248 16.3016 8.4619 16.4748 8.27906 16.5422L7.97112 16.6577C7.05693 16.9945 6.11387 17.3409 5.9214 17.6392C5.77706 17.8606 5.47874 17.9279 5.25741 17.7836C5.03608 17.6392 4.96872 17.3409 5.11306 17.1196C5.47874 16.5518 6.38331 16.215 7.64394 15.7627L7.88452 15.6761C7.93263 15.5414 7.91339 15.2335 7.87489 15.1276C7.31675 14.531 7.01844 13.6456 7.10505 12.7699C7.04731 12.2599 7.24939 11.6537 7.67281 11.211C8.0866 10.7683 8.66399 10.547 9.27986 10.5374C9.838 10.5278 10.4443 10.7683 10.8677 11.211C11.2815 11.6537 11.4932 12.2599 11.4354 12.8566C11.522 13.6553 11.2237 14.531 10.6175 15.1853C10.6175 15.2335 10.5982 15.5414 10.6463 15.6761L10.8773 15.7627C12.1379 16.2246 13.0425 16.5614 13.4178 17.1292C13.5621 17.3505 13.4948 17.6489 13.2734 17.7932C13.1965 17.8413 13.1002 17.8702 13.0136 17.8702H12.9848Z" fill="#666666"/>
</g>
<defs>
<clipPath id="clip0_1_3987">
<rect width="19.4868" height="24" fill="white" transform="translate(2.255)"/>
</clipPath>
</defs>
</svg>
