<svg width="20" height="20" viewBox="0 0 20 20" fill="none" xmlns="http://www.w3.org/2000/svg">
<path d="M14.929 19H7.42898C7.21898 19 7.05398 18.835 7.05398 18.625V16.75H6.60398C5.13398 16.75 3.97898 15.595 3.97898 14.125V12.25H1.80398C1.68398 12.25 1.57148 12.19 1.50398 12.1C1.43648 12.0025 1.41398 11.8825 1.45148 11.7625C1.60898 11.26 1.76648 10.7575 1.91648 10.2475C3.28898 5.7025 4.70648 1 10.579 1C13.939 1 16.8865 3.1225 17.914 6.2875C18.9265 9.3925 17.8765 12.775 15.304 14.7625V18.625C15.304 18.835 15.139 19 14.929 19ZM7.80398 18.25H14.554V14.575C14.554 14.455 14.614 14.3425 14.704 14.275C17.1265 12.4975 18.124 9.3775 17.194 6.52C16.279 3.715 13.564 1.7575 10.579 1.7575C5.26148 1.75 3.98648 5.98 2.62898 10.465C2.52398 10.81 2.41898 11.155 2.31398 11.5H4.35398C4.56398 11.5 4.72898 11.665 4.72898 11.875V14.125C4.72898 15.1975 5.53148 16 6.60398 16H7.42898C7.63898 16 7.80398 16.165 7.80398 16.375V18.25Z" fill="#666666" stroke="#666666" stroke-width="0.75"/>
<path d="M10.7291 9.175C9.96409 9.175 9.45409 8.515 9.45409 7.9C9.45409 7.285 9.96409 6.625 10.7291 6.625C11.3816 6.625 12.0041 7.2475 12.0041 7.9C12.0041 8.515 11.4941 9.175 10.7291 9.175ZM10.7291 7.375C10.4216 7.375 10.2041 7.6525 10.2041 7.9C10.2041 8.1475 10.4216 8.425 10.7291 8.425C11.0366 8.425 11.2541 8.1475 11.2541 7.9C11.2541 7.6525 10.9691 7.375 10.7291 7.375Z" fill="#666666" stroke="#666666" stroke-width="0.5"/>
<path d="M10.7289 12.325C10.2039 12.325 9.76142 12.01 9.55892 11.485L9.25142 10.5625C9.22142 10.4575 9.09392 10.3525 8.98142 10.3525L8.05142 10.5775C7.94642 10.6 7.85642 10.6075 7.76642 10.6075C7.30892 10.6075 6.91142 10.375 6.72392 10.0075C6.50642 9.565 6.52142 8.9125 6.98642 8.5675L7.62392 7.93C7.69892 7.855 7.69892 7.7125 7.62392 7.6375L6.94892 6.9625C6.59642 6.4975 6.52142 5.9725 6.73142 5.5525C6.94892 5.11 7.48892 4.8625 8.04392 4.975L8.95892 5.2075C9.05642 5.2075 9.22142 5.2075 9.25142 5.05L9.56642 4.105C9.65642 3.625 10.1589 3.25 10.7439 3.25C11.3289 3.25 11.7114 3.67 11.9064 4.06L12.2289 5.0125C12.2589 5.1175 12.3864 5.2225 12.4989 5.2225L13.4289 4.9975C13.5339 4.975 13.6239 4.9675 13.7139 4.9675C14.1714 4.9675 14.5689 5.2 14.7564 5.5675C14.9739 6.01 14.9589 6.6625 14.4939 7.0075L13.8564 7.645C13.7814 7.72 13.7814 7.8625 13.8564 7.9375L14.5314 8.6125C14.8839 9.0775 14.9589 9.6025 14.7489 10.0225C14.5239 10.465 13.9989 10.7125 13.4364 10.6L12.5214 10.3675C12.4239 10.36 12.2589 10.3675 12.2289 10.525L11.9139 11.47C11.8239 11.95 11.3214 12.325 10.7364 12.325H10.7289ZM8.97392 9.61C9.42392 9.61 9.85892 9.94 9.96392 10.36L10.2564 11.23C10.3164 11.3725 10.4514 11.575 10.7289 11.575C10.9239 11.575 11.1489 11.47 11.1864 11.275L11.5014 10.33C11.5914 9.85 12.1614 9.4975 12.7014 9.6325L13.6014 9.8575C13.6014 9.8575 13.6614 9.865 13.7064 9.865C13.8789 9.865 14.0214 9.79 14.0814 9.6775C14.1564 9.52 14.1114 9.295 13.9689 9.0925L13.3314 8.455C12.9564 8.08 12.9564 7.4725 13.3314 7.0975L14.0064 6.4225C14.1714 6.295 14.1714 6.0475 14.0889 5.8825C14.0214 5.74 13.8114 5.665 13.6014 5.71L12.7164 5.9275C12.6489 5.9425 12.5739 5.95 12.5064 5.95C12.0564 5.95 11.6214 5.62 11.5164 5.2L11.2239 4.33C11.1489 4.18 10.9614 3.985 10.7514 3.985C10.5414 3.985 10.3314 4.09 10.2939 4.285L9.97892 5.23C9.88892 5.71 9.31892 6.0625 8.77892 5.9275L7.87892 5.7025C7.87892 5.7025 7.81892 5.695 7.78142 5.695C7.60892 5.695 7.46642 5.77 7.40642 5.8825C7.33142 6.04 7.37642 6.265 7.51892 6.4675L8.15642 7.105C8.53142 7.48 8.53142 8.0875 8.15642 8.4625L7.48142 9.1375C7.31642 9.265 7.31642 9.5125 7.39892 9.6775C7.46642 9.82 7.67642 9.895 7.88642 9.85L8.77142 9.6325C8.83892 9.6175 8.91392 9.61 8.98142 9.61H8.97392Z" fill="#666666" stroke="#666666" stroke-width="0.5"/>
</svg>
