<svg width="20" height="20" viewBox="0 0 20 20" fill="none" xmlns="http://www.w3.org/2000/svg">
<path fill-rule="evenodd" clip-rule="evenodd" d="M12.292 10.834C12.4403 10.834 12.5869 10.841 12.7314 10.8555C14.9411 11.0761 16.667 12.9413 16.667 15.209C16.6667 16.0142 16.0133 16.667 15.208 16.667H4.79199C3.98674 16.667 3.33327 16.0142 3.33301 15.209C3.33301 12.9413 5.05893 11.0761 7.26855 10.8555C7.41309 10.841 7.55968 10.834 7.70801 10.834H12.292ZM7.70801 12.5C6.2825 12.5001 5.11426 13.6017 5.00781 15H14.9922C14.8857 13.6018 13.7174 12.5002 12.292 12.5H7.70801Z" fill="#666666"/>
<path d="M10 5C9.07953 5 8.33301 5.74652 8.33301 6.66699C8.33309 7.52974 8.98891 8.23968 9.8291 8.3252L10 8.33398V10C9.15463 10 8.38253 9.68563 7.79492 9.16699C7.10294 8.55624 6.66704 7.6625 6.66699 6.66699C6.66699 4.82604 8.15905 3.33398 10 3.33398V5Z" fill="#666666"/>
<path d="M11.0195 3.29982C11.2641 3.29985 11.5035 3.32605 11.7332 3.37647C11.7874 3.38851 11.8246 3.42395 11.8493 3.46059C11.8733 3.49608 11.8888 3.53838 11.8995 3.57836C11.9208 3.6578 11.9311 3.75678 11.9404 3.84476C11.9498 3.93319 11.9587 4.01265 11.9739 4.07376C11.9814 4.10389 11.9898 4.12468 11.9971 4.13732C11.9993 4.14119 12.0005 4.14423 12.0017 4.14573C12.004 4.14588 12.0105 4.14642 12.0231 4.14386C12.0412 4.14008 12.0662 4.13067 12.0965 4.11582C12.1582 4.08555 12.2297 4.03935 12.3075 3.98777C12.3856 3.93595 12.4719 3.87762 12.55 3.84102C12.5893 3.82264 12.6327 3.80763 12.6755 3.80176C12.719 3.79591 12.7705 3.79905 12.8167 3.82887C13.2219 4.09058 13.5672 4.43879 13.8268 4.84676C13.8851 4.93891 13.8444 5.04274 13.8101 5.10755C13.7719 5.17961 13.7121 5.25727 13.6596 5.32627C13.6061 5.39657 13.5583 5.45954 13.5276 5.51508C13.4967 5.57114 13.4993 5.59372 13.4997 5.5964C13.4976 5.59127 13.4961 5.59499 13.5099 5.60388C13.5239 5.61276 13.5462 5.62275 13.5769 5.63285C13.6388 5.6532 13.7188 5.66899 13.8073 5.68613C13.8968 5.70347 13.9974 5.72205 14.0768 5.74969C14.1165 5.76354 14.1572 5.78187 14.1911 5.80671C14.2168 5.82558 14.2426 5.85181 14.2589 5.88616L14.2719 5.92448L14.3063 6.10114C14.3355 6.27955 14.35 6.46319 14.35 6.64981C14.35 6.89879 14.3232 7.14242 14.2719 7.37608C14.2599 7.43044 14.2244 7.46819 14.1892 7.49292C14.1547 7.51713 14.1129 7.53462 14.0731 7.54713C13.9938 7.57192 13.8943 7.58635 13.8055 7.60041C13.7784 7.60469 13.7514 7.60913 13.7255 7.6135C13.7022 7.61745 13.6792 7.62137 13.6577 7.62565C13.6033 7.63653 13.5598 7.6489 13.5295 7.6621L13.5267 7.66304L13.6577 7.93691C13.6604 7.94045 13.6633 7.94452 13.6661 7.94812C13.72 8.01853 13.7809 8.0976 13.8203 8.16965C13.8401 8.20586 13.8582 8.24669 13.8659 8.28836C13.8736 8.33122 13.8717 8.3827 13.8426 8.4295C13.5802 8.84984 13.2268 9.20722 12.8111 9.4745C12.7648 9.50427 12.7136 9.50822 12.6699 9.50161C12.6273 9.49507 12.585 9.47781 12.5472 9.45861C12.472 9.42037 12.3889 9.36046 12.3149 9.30719C12.2406 9.25363 12.173 9.20566 12.1142 9.17446C12.0852 9.15913 12.0623 9.15026 12.0454 9.14642C12.0371 9.14457 12.0316 9.14443 12.0287 9.14455C12.0287 9.14455 12.0258 9.1481 12.024 9.15109C12.0166 9.16411 12.0088 9.18578 12.0008 9.21652C11.9847 9.27854 11.9739 9.35909 11.9627 9.44833C11.9516 9.53741 11.9392 9.63701 11.9172 9.71659C11.9061 9.75658 11.891 9.79923 11.8679 9.83436C11.8443 9.87015 11.8073 9.90703 11.7527 9.91942C11.5169 9.97268 11.2711 9.99977 11.0195 9.9998C11.013 9.9998 11.0065 9.99891 11 9.99887V9.15296C11.0065 9.15308 11.013 9.15483 11.0195 9.15483C11.0661 9.15481 11.1131 9.15081 11.1589 9.14829C11.1665 9.10412 11.1728 9.05724 11.184 9.01275C11.2005 8.94718 11.2314 8.84335 11.2909 8.73701C11.349 8.63313 11.475 8.45748 11.71 8.36126C11.9228 8.2743 12.1175 8.29536 12.2359 8.32294C12.3543 8.35056 12.452 8.39671 12.5147 8.43043C12.5676 8.45894 12.6201 8.49252 12.6671 8.5239C12.7434 8.45595 12.8161 8.38382 12.8836 8.30705C12.8566 8.26807 12.8292 8.22542 12.8046 8.18273C12.7696 8.12175 12.7185 8.0243 12.6875 7.90419C12.6565 7.78375 12.6313 7.58121 12.721 7.35926C12.8138 7.12997 12.9807 7.00389 13.0806 6.94425C13.1833 6.88304 13.2843 6.85069 13.3492 6.83208C13.4001 6.8175 13.4535 6.80454 13.5034 6.79469C13.5061 6.7469 13.5099 6.6984 13.5099 6.64981C13.5099 6.59459 13.5051 6.5395 13.5016 6.4853C13.4459 6.47287 13.3844 6.45882 13.3269 6.44044C13.2631 6.42004 13.1661 6.38512 13.0676 6.3236C12.9727 6.2643 12.8116 6.13899 12.721 5.91513C12.6354 5.70352 12.654 5.50835 12.6838 5.38235C12.713 5.25936 12.7627 5.15954 12.7981 5.09633C12.8209 5.05582 12.8456 5.01556 12.8706 4.97856C12.8036 4.90349 12.7324 4.83191 12.6569 4.76544C12.6014 4.80047 12.5381 4.84089 12.4738 4.87293C12.4108 4.90431 12.314 4.94641 12.1988 4.97108C12.0855 4.99522 11.8923 5.01466 11.6821 4.92808C11.4539 4.83393 11.3283 4.66417 11.2658 4.55326C11.2039 4.44342 11.1725 4.33705 11.1561 4.26911C11.1467 4.2299 11.1412 4.18852 11.1347 4.14947C11.0969 4.14775 11.0579 4.14481 11.0195 4.1448C11.013 4.1448 11.0065 4.14467 11 4.1448V3.29982C11.0065 3.29978 11.013 3.29982 11.0195 3.29982Z" fill="#666666"/>
<path d="M11.0195 5.25149C11.7871 5.25173 12.4095 5.87772 12.4097 6.64981C12.4096 7.42197 11.7872 8.0479 11.0195 8.04814C11.013 8.04813 11.0065 8.04636 11 8.04627V7.20036C11.0065 7.20059 11.013 7.20316 11.0195 7.20316C11.3228 7.20292 11.5695 6.95492 11.5696 6.64981C11.5694 6.34477 11.3228 6.09671 11.0195 6.09647C11.013 6.09647 11.0065 6.0981 11 6.09834V5.25243C11.0065 5.25233 11.013 5.25149 11.0195 5.25149Z" fill="#666666"/>
</svg>
