<svg width="24" height="24" viewBox="0 0 24 24" fill="none" xmlns="http://www.w3.org/2000/svg">
<path fill-rule="evenodd" clip-rule="evenodd" d="M8.72198 13.0262C6.07044 13.291 4 15.5287 4 18.25C4 19.2165 4.7835 20 5.75 20H18.25C19.2165 20 20 19.2165 20 18.25C20 15.5287 17.9296 13.291 15.278 13.0262C15.1044 13.0089 14.9282 13 14.75 13H9.25C9.07178 13 8.89564 13.0089 8.72198 13.0262ZM9.35418 11C10.0593 11.6224 10.9856 12 12 12C13.0144 12 13.9407 11.6224 14.6458 11C15.4762 10.2671 16 9.19469 16 8C16 5.79086 14.2091 4 12 4C9.79086 4 8 5.79086 8 8C8 9.19469 8.52375 10.2671 9.35418 11Z" fill="#666666"/>
</svg>
