<svg width="24" height="24" viewBox="0 0 24 24" fill="none" xmlns="http://www.w3.org/2000/svg">
<path fill-rule="evenodd" clip-rule="evenodd" d="M2.49008 7.34535C1.55973 4.74037 3.49092 2 6.25704 2H8.382C9.13954 2 9.83207 2.428 10.1708 3.10557L11.4997 5.7632C11.9507 6.66536 11.6595 7.76223 10.8202 8.32173L9.95925 8.8957C9.57649 9.15088 9.44363 9.65114 9.64936 10.0626C10.3775 11.5188 11.5058 12.7373 12.9019 13.5749L13.8793 14.1613C14.337 14.436 14.9297 14.3027 15.2258 13.8586L15.7278 13.1056C16.2434 12.3322 17.2238 12.0159 18.0942 12.3423L20.7023 13.3203C21.4829 13.6131 22 14.3593 22 15.193V17.743C22 20.5091 19.2597 22.4403 16.6547 21.51L13.8011 20.4908C9.00108 18.7765 5.22351 14.999 3.50921 10.1989L2.49008 7.34535ZM6.25704 4C4.87398 4 3.90839 5.37019 4.37356 6.67268L5.3927 9.52625C6.90531 13.7616 10.2385 17.0947 14.4738 18.6073L17.3274 19.6265C18.6298 20.0916 20 19.126 20 17.743V15.193L17.3919 14.215L16.8899 14.968C16.0016 16.3004 14.2234 16.7002 12.8503 15.8763L11.8729 15.2899C10.1506 14.2565 8.75874 12.7535 7.86051 10.957C7.2037 9.64341 7.62784 8.04628 8.84985 7.2316L9.71081 6.65763L8.382 4H6.25704Z" fill="#666666"/>
</svg>
