<svg width="24" height="24" viewBox="0 0 24 24" fill="none" xmlns="http://www.w3.org/2000/svg">
<path fill-rule="evenodd" clip-rule="evenodd" d="M13.4612 6H6.82222C5.09176 6 3.72012 7.46004 3.82806 9.18714L3.97654 11.5627C3.98304 11.6667 3.99766 11.7701 4.02027 11.8718L5.43029 18.2169C5.53197 18.6745 5.93778 19 6.40648 19H7.99996C7.99996 17.3431 9.34311 16 11 16C12.6568 16 14 17.3431 14 19H15.4586C15.9474 19 16.3646 18.6466 16.445 18.1644L16.7626 16.2589C17.0468 14.5535 18.332 13.1991 20 12.814V9.75C20 9.61193 19.888 9.5 19.75 9.5C18.6483 9.5 17.611 8.98132 16.95 8.10001L18.55 6.9C18.8332 7.27771 19.2778 7.5 19.75 7.5C20.9926 7.5 22 8.50736 22 9.75V13.0683C22 13.8945 21.4027 14.5996 20.5877 14.7354C19.6379 14.8937 18.8936 15.6379 18.7353 16.5877L18.4178 18.4932C18.1767 19.9398 16.9251 21 15.4586 21H14C12.8954 21 12 20.1046 12 19C12 18.4477 11.5522 18 11 18C10.4477 18 9.99996 18.4477 9.99996 19C9.99996 20.1046 9.10453 21 7.99996 21H6.40648C5.00038 21 3.78294 20.0234 3.47792 18.6508L2.06789 12.3057C2.02268 12.1022 1.99343 11.8955 1.98043 11.6875L1.83196 9.31189C1.65205 6.4334 3.93811 4 6.82222 4H12.5L12.7697 3.66287C13.8633 2.29581 15.5191 1.5 17.2698 1.5C17.8947 1.5 18.3532 2.08723 18.2016 2.69345L17.6154 5.03824L15.6751 4.55317L15.871 3.76964C15.275 4.00831 14.7424 4.39851 14.3314 4.91226L13.4612 6ZM17.6154 5.03824L15.6751 4.55317C15.456 5.42958 15.6435 6.35806 16.1855 7.08077L16.95 8.10001L18.55 6.9L17.7855 5.88078C17.6049 5.63987 17.5424 5.33038 17.6154 5.03824Z" fill="#666666"/>
<path d="M16 10C16 10.5523 15.5522 11 15 11C14.4477 11 14 10.5523 14 10C14 9.44772 14.4477 9 15 9C15.5522 9 16 9.44772 16 10Z" fill="#666666"/>
<path fill-rule="evenodd" clip-rule="evenodd" d="M6.99996 8C6.99996 7.44772 7.44768 7 7.99996 7H11C11.5522 7 12 7.44772 12 8C12 8.55228 11.5522 9 11 9H7.99996C7.44768 9 6.99996 8.55228 6.99996 8Z" fill="#666666"/>
</svg>
