<svg width="24" height="24" viewBox="0 0 24 24" fill="none" xmlns="http://www.w3.org/2000/svg">
<path fill-rule="evenodd" clip-rule="evenodd" d="M5.5 2C4.675 2 4 2.675 4 3.5C4 4.325 4.675 5 5.5 5C6.325 5 7 4.325 7 3.5C7 2.675 6.325 2 5.5 2ZM17.5 2C16.675 2 16 2.675 16 3.5C16 4.325 16.675 5 17.5 5C18.325 5 19 4.325 19 3.5C19 2.675 18.325 2 17.5 2ZM10 3.5C10 2.675 10.675 2 11.5 2C12.325 2 13 2.675 13 3.5C13 4.325 12.325 5 11.5 5C10.675 5 10 4.325 10 3.5Z" fill="#666666"/>
<path fill-rule="evenodd" clip-rule="evenodd" d="M5.5 14C4.675 14 4 14.675 4 15.5C4 16.325 4.675 17 5.5 17C6.325 17 7 16.325 7 15.5C7 14.675 6.325 14 5.5 14ZM17.5 14C16.675 14 16 14.675 16 15.5C16 16.325 16.675 17 17.5 17C18.325 17 19 16.325 19 15.5C19 14.675 18.325 14 17.5 14ZM10 15.5C10 14.675 10.675 14 11.5 14C12.325 14 13 14.675 13 15.5C13 16.325 12.325 17 11.5 17C10.675 17 10 16.325 10 15.5Z" fill="#666666"/>
<path d="M11.5 20C10.675 20 10 20.675 10 21.5C10 22.325 10.675 23 11.5 23C12.325 23 13 22.325 13 21.5C13 20.675 12.325 20 11.5 20Z" fill="#666666"/>
<path fill-rule="evenodd" clip-rule="evenodd" d="M5.5 8C4.675 8 4 8.675 4 9.5C4 10.325 4.675 11 5.5 11C6.325 11 7 10.325 7 9.5C7 8.675 6.325 8 5.5 8ZM17.5 8C16.675 8 16 8.675 16 9.5C16 10.325 16.675 11 17.5 11C18.325 11 19 10.325 19 9.5C19 8.675 18.325 8 17.5 8ZM10 9.5C10 8.675 10.675 8 11.5 8C12.325 8 13 8.675 13 9.5C13 10.325 12.325 11 11.5 11C10.675 11 10 10.325 10 9.5Z" fill="#666666"/>
</svg>
