<svg width="24" height="24" viewBox="0 0 24 24" fill="none" xmlns="http://www.w3.org/2000/svg">
<path fill-rule="evenodd" clip-rule="evenodd" d="M5 18C3.34315 18 2 16.6569 2 15V9C2 7.34315 3.34315 6 5 6H19C20.6569 6 22 7.34315 22 9V15C22 16.6569 20.6569 18 19 18H17.95C17.3977 18 16.95 17.5523 16.95 17C16.95 16.4477 17.3977 16 17.95 16H19C19.5523 16 20 15.5523 20 15V9C20 8.44771 19.5523 8 19 8H5C4.44772 8 4 8.44771 4 9V15C4 15.5523 4.44772 16 5 16H6.05C6.60228 16 7.05 16.4477 7.05 17C7.05 17.5523 6.60228 18 6.05 18H5Z" fill="#666666"/>
<path fill-rule="evenodd" clip-rule="evenodd" d="M8 4V6H16V4H8ZM6 3V6C6 7.10457 6.89543 8 8 8H16C17.1046 8 18 7.10457 18 6V3C18 2.44772 17.5523 2 17 2H7C6.44772 2 6 2.44772 6 3Z" fill="#666666"/>
<path fill-rule="evenodd" clip-rule="evenodd" d="M8 20H16V16H8V20ZM6 15V21C6 21.5523 6.44772 22 7 22H17C17.5523 22 18 21.5523 18 21V15C18 14.4477 17.5523 14 17 14H7C6.44772 14 6 14.4477 6 15Z" fill="#666666"/>
<path d="M18 11C18 11.5523 17.5523 12 17 12C16.4477 12 16 11.5523 16 11C16 10.4477 16.4477 10 17 10C17.5523 10 18 10.4477 18 11Z" fill="#666666"/>
</svg>
