<svg width="24" height="24" viewBox="0 0 24 24" fill="none" xmlns="http://www.w3.org/2000/svg">
<path fill-rule="evenodd" clip-rule="evenodd" d="M8 3C6.89543 3 6 3.89543 6 5V9.27273C6 9.82501 5.55228 10.2727 5 10.2727C4.44772 10.2727 4 9.82501 4 9.27273V5C4 2.79086 5.79086 1 8 1H16C18.2091 1 20 2.79086 20 5V19C20 21.2091 18.2091 23 16 23H12.75C12.1977 23 11.75 22.5523 11.75 22C11.75 21.4477 12.1977 21 12.75 21H16C17.1046 21 18 20.1046 18 19V5C18 3.89543 17.1046 3 16 3H8Z" fill="#666666"/>
<path fill-rule="evenodd" clip-rule="evenodd" d="M5 18V19C5 19.5523 5.44772 20 6 20H8C8.55228 20 9 19.5523 9 19V18C9 17.4477 8.55228 17 8 17H6C5.44772 17 5 17.4477 5 18ZM3 18V19C3 20.6569 4.34315 22 6 22H8C9.65685 22 11 20.6569 11 19V18C11 16.3431 9.65685 15 8 15H6C4.34315 15 3 16.3431 3 18Z" fill="#666666"/>
<path fill-rule="evenodd" clip-rule="evenodd" d="M4 14C4 12.8954 4.89543 12 6 12H8C9.10457 12 10 12.8954 10 14V15C10 15.5523 9.55228 16 9 16C8.44772 16 8 15.5523 8 15V14H6V15C6 15.5523 5.55228 16 5 16C4.44772 16 4 15.5523 4 15V14Z" fill="#666666"/>
<path fill-rule="evenodd" clip-rule="evenodd" d="M13 15C13 14.4477 13.4477 14 14 14H15C15.5523 14 16 14.4477 16 15C16 15.5523 15.5523 16 15 16H14C13.4477 16 13 15.5523 13 15Z" fill="#666666"/>
<path fill-rule="evenodd" clip-rule="evenodd" d="M10 11C10 10.4477 10.4477 10 11 10H15C15.5523 10 16 10.4477 16 11C16 11.5523 15.5523 12 15 12H11C10.4477 12 10 11.5523 10 11Z" fill="#666666"/>
<path fill-rule="evenodd" clip-rule="evenodd" d="M8 6C8 5.44772 8.44772 5 9 5H15C15.5523 5 16 5.44772 16 6C16 6.55228 15.5523 7 15 7H9C8.44772 7 8 6.55228 8 6Z" fill="#666666"/>
</svg>
