<svg width="24" height="24" viewBox="0 0 24 24" fill="none" xmlns="http://www.w3.org/2000/svg">
<path fill-rule="evenodd" clip-rule="evenodd" d="M2 12C2 6.44772 6.44772 2 12 2C17.5523 2 22 6.44772 22 12C22 17.5523 17.5523 22 12 22C6.44772 22 2 17.5523 2 12ZM12 4C7.55228 4 4 7.55228 4 12C4 16.4477 7.55228 20 12 20C16.4477 20 20 16.4477 20 12C20 7.55228 16.4477 4 12 4Z" fill="#666666"/>
<path d="M12 17C12 17.5523 11.5523 18 11 18C10.4477 18 10 17.5523 10 17C10 16.4477 10.4477 16 11 16C11.5523 16 12 16.4477 12 17Z" fill="#666666"/>
<path fill-rule="evenodd" clip-rule="evenodd" d="M8.70711 6.87868C9.26972 6.31607 10.0328 6 10.8284 6H13C14.6569 6 16 7.34314 16 9V10.3077C16 11.9645 14.6569 13.3077 13 13.3077L12 13.3077V14C12 14.5523 11.5523 15 11 15C10.4477 15 10 14.5523 10 14V13.3077C10 12.2031 10.8954 11.3077 12 11.3077L13 11.3077C13.5523 11.3077 14 10.86 14 10.3077V9C14 8.44772 13.5523 8 13 8H10.8284C10.5632 8 10.3089 8.10536 10.1213 8.29289L9.70711 8.70711C9.31658 9.09763 8.68342 9.09763 8.29289 8.70711C7.90237 8.31658 7.90237 7.68342 8.29289 7.29289L8.70711 6.87868Z" fill="#666666"/>
</svg>
