<svg width="24" height="24" viewBox="0 0 24 24" fill="none" xmlns="http://www.w3.org/2000/svg">
<path d="M5 2C5.55228 2 6 2.44772 6 3V8.2C6 8.56931 6.20355 8.90856 6.52941 9.08235L7 9.33333V3C7 2.44772 7.44772 2 8 2C8.55228 2 9 2.44772 9 3V9.33333L9.47059 9.08235C9.79645 8.90856 10 8.56931 10 8.2V3C10 2.44772 10.4477 2 11 2C11.5523 2 12 2.44772 12 3V8.2C12 9.30794 11.3894 10.3257 10.4118 10.8471L9 11.6V21C9 21.5523 8.55228 22 8 22C7.44772 22 7 21.5523 7 21V11.6L5.58824 10.8471C4.61064 10.3257 4 9.30793 4 8.2V3C4 2.44772 4.44772 2 5 2Z" fill="#666666"/>
<path fill-rule="evenodd" clip-rule="evenodd" d="M15 14H18V21C18 21.5523 18.4477 22 19 22C19.5523 22 20 21.5523 20 21V3C20 2.44772 19.5523 2 19 2C16.2386 2 14 4.23858 14 7V13C14 13.5523 14.4477 14 15 14ZM18 4.17071C16.8348 4.58254 16 5.69378 16 7V12H18V4.17071Z" fill="#666666"/>
</svg>
