<svg width="20" height="20" viewBox="0 0 20 20" fill="none" xmlns="http://www.w3.org/2000/svg">
<path d="M17.003 13.8284H14.0022C13.8155 13.8284 13.6688 13.6753 13.6688 13.4805C13.6688 13.2856 13.8155 13.1326 14.0022 13.1326H17.003C17.1897 13.1326 17.3364 12.9795 17.3364 12.7847V3.04351C17.3364 2.84869 17.1897 2.69561 17.003 2.69561H3.00011C2.8134 2.69561 2.66671 2.84869 2.66671 3.04351V12.7847C2.66671 12.9795 2.8134 13.1326 3.00011 13.1326H6.00094C6.18765 13.1326 6.33434 13.2856 6.33434 13.4805C6.33434 13.6753 6.18765 13.8284 6.00094 13.8284H3.00011C2.44666 13.8284 1.9999 13.3622 1.9999 12.7847V3.04351C1.9999 2.466 2.44666 1.99982 3.00011 1.99982H17.003C17.5565 1.99982 18.0032 2.466 18.0032 3.04351V12.7847C18.0032 13.3622 17.5565 13.8284 17.003 13.8284Z" fill="#666666" stroke="#666666" stroke-width="0.6"/>
<path d="M2.3333 6.5225C2.24662 6.5225 2.15993 6.48771 2.09992 6.41813C1.96656 6.27897 1.96656 6.06327 2.09992 5.92411L5.76735 2.10419C5.90071 1.96503 6.10742 1.96503 6.24078 2.10419C6.37414 2.24335 6.37414 2.45904 6.24078 2.5982L2.56668 6.41813C2.5 6.48771 2.41332 6.5225 2.3333 6.5225Z" fill="#666666" stroke="#666666" stroke-width="0.6"/>
<path d="M14.0022 13.828C13.9155 13.828 13.8289 13.7932 13.7689 13.7237C13.6355 13.5845 13.6355 13.3688 13.7689 13.2297L17.4363 9.40277C17.5696 9.26361 17.7764 9.26361 17.9097 9.40277C18.0431 9.54193 18.0431 9.75763 17.9097 9.89679L14.2423 13.7237C14.1756 13.7932 14.0889 13.828 14.0089 13.828H14.0022Z" fill="#666666" stroke="#666666" stroke-width="0.6"/>
<path d="M11.6685 18.0029C11.5685 18.0029 11.4751 17.9612 11.4151 17.8777L10.0015 16.1104L8.58784 17.8777C8.49449 17.989 8.34779 18.0307 8.22109 17.982C8.08773 17.9333 8.00105 17.8011 8.00105 17.655V13.4454C8.00105 13.3063 8.08107 13.1741 8.20776 13.1254C8.33445 13.0697 8.47448 13.1045 8.5745 13.2019C9.32132 14.0021 10.6883 13.9951 11.4284 13.2019C11.5218 13.1045 11.6685 13.0697 11.7952 13.1254C11.9219 13.181 12.0019 13.3063 12.0019 13.4454V17.655C12.0019 17.8011 11.9152 17.9333 11.7818 17.982C11.7418 17.996 11.7085 18.0029 11.6685 18.0029ZM10.0015 15.2197C10.1015 15.2197 10.1948 15.2684 10.2549 15.345L11.3351 16.6948V14.1482C10.5282 14.6353 9.46802 14.6283 8.66785 14.1482V16.6948L9.74808 15.345C9.81476 15.2684 9.90811 15.2197 10.0015 15.2197Z" fill="#666666" stroke="#666666" stroke-width="0.6"/>
<path d="M10.0015 14.5241C8.52789 14.5241 7.33431 13.2786 7.33431 11.7409C7.33431 10.2032 8.52789 8.9577 10.0015 8.9577C11.4752 8.9577 12.6688 10.2032 12.6688 11.7409C12.6688 13.2786 11.4752 14.5241 10.0015 14.5241ZM10.0015 9.6535C8.9013 9.6535 8.00111 10.5928 8.00111 11.7409C8.00111 12.889 8.9013 13.8283 10.0015 13.8283C11.1018 13.8283 12.0019 12.889 12.0019 11.7409C12.0019 10.5928 11.1018 9.6535 10.0015 9.6535Z" fill="#666666" stroke="#666666" stroke-width="0.6"/>
<path d="M13.3356 6.87011H6.6675C6.4808 6.87011 6.3341 6.71704 6.3341 6.52222C6.3341 6.32739 6.4808 6.17432 6.6675 6.17432H13.3356C13.5223 6.17432 13.669 6.32739 13.669 6.52222C13.669 6.71704 13.5223 6.87011 13.3356 6.87011Z" fill="#666666" stroke="#666666" stroke-width="0.6"/>
</svg>
