<svg width="20" height="20" viewBox="0 0 20 20" fill="none" xmlns="http://www.w3.org/2000/svg">
<g clip-path="url(#clip0_1_4396)">
<path d="M4.69206 8.0968C4.45369 8.33516 4.53218 8.739 4.84248 8.87073L6.29376 9.48684C6.53151 9.01133 6.78577 8.54243 7.05655 8.08013C7.32732 7.61783 7.61461 7.17534 7.91841 6.75267L6.35319 6.43566L4.69206 8.0968ZM7.24477 10.2001L9.87988 12.8352C10.6328 12.4918 11.3394 12.1021 11.9998 11.6663C12.6603 11.2304 13.1952 10.8077 13.6047 10.3982C14.6746 9.32834 15.4605 8.23203 15.9624 7.1093C16.3425 6.25902 16.5901 5.32541 16.7051 4.30847C16.7664 3.76575 16.3142 3.31356 15.7715 3.37492C14.7546 3.48989 13.821 3.73744 12.9707 4.11756C11.848 4.61949 10.7516 5.4054 9.68175 6.47529C9.27228 6.88476 8.84961 7.4197 8.41373 8.08013C7.97785 8.74056 7.58819 9.44721 7.24477 10.2001ZM11.7819 8.29807C11.5177 8.0339 11.3857 7.70699 11.3857 7.31734C11.3857 6.92768 11.5177 6.60077 11.7819 6.3366C12.0461 6.07243 12.373 5.94034 12.7626 5.94034C13.1523 5.94034 13.4792 6.07243 13.7434 6.3366C14.0075 6.60077 14.1396 6.92768 14.1396 7.31734C14.1396 7.70699 14.0075 8.0339 13.7434 8.29807C13.4792 8.56224 13.1523 8.69433 12.7626 8.69433C12.373 8.69433 12.0461 8.56224 11.7819 8.29807ZM11.2092 15.2375C11.341 15.5478 11.7448 15.6263 11.9832 15.3879L13.6443 13.7268L13.3273 12.1616C12.9046 12.4654 12.4621 12.7527 11.9998 13.0234C11.5376 13.2942 11.0686 13.5485 10.5931 13.7862L11.2092 15.2375ZM17.1114 2.10594C17.5882 2.10875 17.9712 2.49178 17.9743 2.96856C17.9838 4.44174 17.7491 5.80218 17.2701 7.04986C16.7021 8.52922 15.7643 9.92272 14.4566 11.2304L14.417 11.27L14.3774 11.3096L14.8133 13.489C14.8529 13.6872 14.843 13.8787 14.7836 14.0636C14.7241 14.2485 14.6217 14.4136 14.4765 14.5589L12.0813 16.9681C11.6063 17.4459 10.7987 17.2919 10.533 16.6727L9.40437 14.0438L6.03619 10.6756L3.40723 9.54702C2.78812 9.28124 2.63408 8.47372 3.11188 7.9987L5.52105 5.60353C5.66635 5.45823 5.83146 5.35587 6.01638 5.29643C6.2013 5.23699 6.39282 5.22708 6.59095 5.26671L8.77036 5.70259C8.78357 5.68938 8.79678 5.67947 8.80998 5.67287C8.82319 5.66627 8.8364 5.65636 8.84961 5.64315C10.1573 4.33551 11.5508 3.3944 13.0301 2.81982C14.2778 2.33523 15.6382 2.09727 17.1114 2.10594ZM3.44071 13.073C3.90301 12.6107 4.46767 12.3762 5.1347 12.3696C5.80174 12.363 6.3664 12.5908 6.8287 13.0531C7.291 13.5154 7.51885 14.0801 7.51224 14.7471C7.50564 15.4142 7.27119 15.9788 6.80889 16.4411C6.46547 16.7846 5.93382 17.0685 5.21396 17.2931C4.49409 17.5176 3.41429 17.729 1.97456 17.9271C2.17269 16.4874 2.38072 15.4043 2.59866 14.6778C2.8166 13.9513 3.09729 13.4164 3.44071 13.073ZM4.27285 13.9249C4.08793 14.123 3.92282 14.4334 3.77753 14.8561C3.63223 15.2788 3.50675 15.8203 3.40108 16.4808C4.06151 16.3751 4.60306 16.2496 5.02573 16.1043C5.44841 15.959 5.75881 15.7939 5.95694 15.609C6.2079 15.3845 6.33668 15.1038 6.34329 14.767C6.34989 14.4301 6.23432 14.1362 5.99656 13.8853C5.7456 13.6475 5.45171 13.532 5.11489 13.5386C4.77807 13.5452 4.49739 13.674 4.27285 13.9249Z" fill="#666666" stroke="#666666" stroke-width="0.5"/>
</g>
<defs>
<clipPath id="clip0_1_4396">
<rect width="20" height="20" fill="white"/>
</clipPath>
</defs>
</svg>
