<svg width="24" height="24" viewBox="0 0 24 24" fill="none" xmlns="http://www.w3.org/2000/svg">
<path fill-rule="evenodd" clip-rule="evenodd" d="M7 9H17C17.5523 9 18 8.55229 18 8C18 7.44771 17.5523 7 17 7H7C6.44772 7 6 7.44772 6 8C6 8.55228 6.44772 9 7 9ZM7 11H17C18.6569 11 20 9.65685 20 8C20 6.34315 18.6569 5 17 5H7C5.34315 5 4 6.34315 4 8C4 9.65685 5.34315 11 7 11Z" fill="#666666"/>
<path fill-rule="evenodd" clip-rule="evenodd" d="M7 17H17C17.5523 17 18 16.5523 18 16C18 15.4477 17.5523 15 17 15H7C6.44772 15 6 15.4477 6 16C6 16.5523 6.44772 17 7 17ZM7 19H17C18.6569 19 20 17.6569 20 16C20 14.3431 18.6569 13 17 13H7C5.34315 13 4 14.3431 4 16C4 17.6569 5.34315 19 7 19Z" fill="#666666"/>
</svg>
