<svg width="20" height="20" viewBox="0 0 20 20" fill="none" xmlns="http://www.w3.org/2000/svg">
<g clip-path="url(#clip0_1_3913)">
<path d="M12.9167 9.16663C13.6071 9.16663 14.1667 8.60698 14.1667 7.91663C14.1667 7.22627 13.6071 6.66663 12.9167 6.66663C12.2264 6.66663 11.6667 7.22627 11.6667 7.91663C11.6667 8.60698 12.2264 9.16663 12.9167 9.16663Z" fill="#666666"/>
<path d="M7.08341 9.16663C7.77377 9.16663 8.33341 8.60698 8.33341 7.91663C8.33341 7.22627 7.77377 6.66663 7.08341 6.66663C6.39306 6.66663 5.83341 7.22627 5.83341 7.91663C5.83341 8.60698 6.39306 9.16663 7.08341 9.16663Z" fill="#666666"/>
<path d="M10.0001 13.3333C8.76675 13.3333 7.70841 12.6583 7.12508 11.6666H5.73341C6.40008 13.375 8.05841 14.5833 10.0001 14.5833C11.9417 14.5833 13.6001 13.375 14.2667 11.6666H12.8751C12.2917 12.6583 11.2334 13.3333 10.0001 13.3333ZM9.99175 1.66663C5.39175 1.66663 1.66675 5.39996 1.66675 9.99996C1.66675 14.6 5.39175 18.3333 9.99175 18.3333C14.6001 18.3333 18.3334 14.6 18.3334 9.99996C18.3334 5.39996 14.6001 1.66663 9.99175 1.66663ZM10.0001 16.6666C6.31675 16.6666 3.33341 13.6833 3.33341 9.99996C3.33341 6.31663 6.31675 3.33329 10.0001 3.33329C13.6834 3.33329 16.6667 6.31663 16.6667 9.99996C16.6667 13.6833 13.6834 16.6666 10.0001 16.6666Z" fill="#666666"/>
</g>
<defs>
<clipPath id="clip0_1_3913">
<rect width="20" height="20" fill="white"/>
</clipPath>
</defs>
</svg>
