<svg width="24" height="24" viewBox="0 0 24 24" fill="none" xmlns="http://www.w3.org/2000/svg">
<path fill-rule="evenodd" clip-rule="evenodd" d="M3 9.5C3 5.89216 5.89216 3 9.5 3C13.1078 3 16 5.89216 16 9.5C16 13.1078 13.1078 16 9.5 16C5.89216 16 3 13.1078 3 9.5ZM9.5 5C6.99673 5 5 6.99673 5 9.5C5 12.0033 6.99673 14 9.5 14C12.0033 14 14 12.0033 14 9.5C14 6.99673 12.0033 5 9.5 5Z" fill="#666666"/>
<path fill-rule="evenodd" clip-rule="evenodd" d="M20.7071 20.7071C20.3166 21.0976 19.6834 21.0976 19.2929 20.7071L13.2929 14.7071C12.9024 14.3166 12.9024 13.6834 13.2929 13.2929C13.6834 12.9024 14.3166 12.9024 14.7071 13.2929L20.7071 19.2929C21.0976 19.6834 21.0976 20.3166 20.7071 20.7071Z" fill="#666666"/>
</svg>
