<svg width="24" height="24" viewBox="0 0 24 24" fill="none" xmlns="http://www.w3.org/2000/svg">
<path fill-rule="evenodd" clip-rule="evenodd" d="M15.8206 7.57247C16.0567 8.2212 15.7222 8.9385 15.0735 9.17462L9.42753 11.2296C8.77881 11.4657 8.0615 11.1312 7.82539 10.4825C7.58927 9.83378 7.92376 9.11647 8.57248 8.88036L14.2185 6.82538C14.8672 6.58927 15.5845 6.92375 15.8206 7.57247Z" fill="#666666"/>
<path fill-rule="evenodd" clip-rule="evenodd" d="M7.82538 13.5725C8.0615 12.9238 8.7788 12.5893 9.42753 12.8254L15.0735 14.8804C15.7222 15.1165 16.0567 15.8338 15.8206 16.4825C15.5845 17.1312 14.8672 17.4657 14.2185 17.2296L8.57247 15.1746C7.92375 14.9385 7.58927 14.2212 7.82538 13.5725Z" fill="#666666"/>
<path fill-rule="evenodd" clip-rule="evenodd" d="M18 8C19.1046 8 20 7.10457 20 6C20 4.89543 19.1046 4 18 4C16.8954 4 16 4.89543 16 6C16 7.10457 16.8954 8 18 8ZM18 10C20.2091 10 22 8.20914 22 6C22 3.79086 20.2091 2 18 2C15.7909 2 14 3.79086 14 6C14 8.20914 15.7909 10 18 10Z" fill="#666666"/>
<path fill-rule="evenodd" clip-rule="evenodd" d="M18 20C19.1046 20 20 19.1046 20 18C20 16.8954 19.1046 16 18 16C16.8954 16 16 16.8954 16 18C16 19.1046 16.8954 20 18 20ZM18 22C20.2091 22 22 20.2091 22 18C22 15.7909 20.2091 14 18 14C15.7909 14 14 15.7909 14 18C14 20.2091 15.7909 22 18 22Z" fill="#666666"/>
<path fill-rule="evenodd" clip-rule="evenodd" d="M6 14C7.10457 14 8 13.1046 8 12C8 10.8954 7.10457 10 6 10C4.89543 10 4 10.8954 4 12C4 13.1046 4.89543 14 6 14ZM6 16C8.20914 16 10 14.2091 10 12C10 9.79086 8.20914 8 6 8C3.79086 8 2 9.79086 2 12C2 14.2091 3.79086 16 6 16Z" fill="#666666"/>
</svg>
