<svg width="24" height="24" viewBox="0 0 24 24" fill="none" xmlns="http://www.w3.org/2000/svg">
<path fill-rule="evenodd" clip-rule="evenodd" d="M4 12C4 10.3432 5.34315 9.00001 7 9.00001H8C8.55228 9.00001 9 9.44773 9 10C9 10.5523 8.55228 11 8 11H7C6.44772 11 6 11.4477 6 12V19C6 19.5523 6.44772 20 7 20H17C17.5523 20 18 19.5523 18 19V12C18 11.4477 17.5523 11 17 11H16C15.4477 11 15 10.5523 15 10C15 9.44773 15.4477 9.00001 16 9.00001H17C18.6569 9.00001 20 10.3432 20 12V19C20 20.6569 18.6569 22 17 22H7C5.34315 22 4 20.6569 4 19V12Z" fill="#666666"/>
<path fill-rule="evenodd" clip-rule="evenodd" d="M7.29554 5.7903C6.90357 6.17938 6.90123 6.81254 7.29031 7.2045C7.67939 7.59647 8.31255 7.59881 8.70452 7.20973L11 4.93112L11 13.4683C11 14.0206 11.4477 14.4683 12 14.4683C12.5523 14.4683 13 14.0206 13 13.4683V4.93111L15.2955 7.20973C15.6875 7.59881 16.3207 7.59647 16.7097 7.2045C17.0988 6.81254 17.0965 6.17938 16.7045 5.7903L13.409 2.51905C12.6292 1.74495 11.3709 1.74495 10.591 2.51905L7.29554 5.7903Z" fill="#666666"/>
</svg>
