<svg width="24" height="24" viewBox="0 0 24 24" fill="none" xmlns="http://www.w3.org/2000/svg">
<path d="M16.167 2.0019C16.3434 1.98959 16.5193 2.03369 16.669 2.12788C16.8188 2.22228 16.9349 2.36259 17 2.52729L18.667 6.69331C18.6711 6.74601 18.6711 6.79979 18.667 6.85249C18.6748 6.90196 18.6748 6.95243 18.667 7.0019C18.6635 7.5836 18.5073 8.15428 18.2149 8.65717C18.1407 8.78482 18.0576 8.90643 17.9678 9.02241C16.8171 9.1329 15.7705 9.59938 14.9375 10.3085C14.5999 10.2662 14.2696 10.1731 13.959 10.0302C13.528 9.8319 13.1438 9.54404 12.833 9.18549C12.5203 9.53999 12.1359 9.82397 11.7051 10.0185C11.2741 10.2131 10.8059 10.3144 10.333 10.3144C9.86022 10.3144 9.39287 10.213 8.96193 10.0185C8.53092 9.82393 8.14582 9.54017 7.83302 9.18549C7.52233 9.54387 7.13889 9.83194 6.70802 10.0302C6.27688 10.2285 5.80757 10.3322 5.33302 10.3349V17.0019H7.83302V12.8349C7.83315 12.6141 7.92105 12.4022 8.07716 12.246C8.23344 12.0898 8.44599 12.0019 8.66701 12.0019H12C12.2209 12.0019 12.4326 12.0899 12.5889 12.246C12.7451 12.4022 12.8329 12.6141 12.833 12.8349V14.1337L11.167 15.7998V13.6689H9.50002V17.0019H9.96486L8.29787 18.6689H4.50001C4.27911 18.6689 4.06739 18.5809 3.91114 18.4248C3.75486 18.2685 3.667 18.0559 3.667 17.8349V9.83491C3.16809 9.54697 2.75206 9.1351 2.45996 8.63862C2.16786 8.14205 2.00928 7.57794 2 7.0019C2.01092 6.94912 2.03099 6.89878 2.05859 6.85249C2.05458 6.79979 2.05458 6.74601 2.05859 6.69331L3.72461 2.52729C3.78637 2.37224 3.89405 2.23906 4.03223 2.14545C4.17035 2.05197 4.33322 2.00174 4.50001 2.0019H16.167ZM5.06641 3.66889L3.667 7.1269C3.6752 7.34564 3.72615 7.56074 3.81739 7.75971C3.90873 7.95878 4.03866 8.1381 4.19922 8.28706C4.52343 8.58782 4.95361 8.74788 5.39552 8.73139C5.61439 8.72319 5.83024 8.67137 6.02931 8.58003C6.22803 8.48876 6.4069 8.35944 6.55568 8.19917C6.70464 8.0386 6.8213 7.84983 6.89747 7.64448C6.97358 7.4392 7.00822 7.22068 7.00001 7.0019C7.00005 6.78098 7.08796 6.56927 7.24415 6.41303C7.40036 6.25683 7.61213 6.16898 7.83302 6.16889C8.05404 6.16889 8.26659 6.25675 8.42287 6.41303C8.57896 6.56925 8.66697 6.78106 8.66701 7.0019C8.66701 7.44393 8.84273 7.86805 9.15529 8.18061C9.46775 8.49294 9.89123 8.66881 10.333 8.66889C10.775 8.66889 11.1992 8.49312 11.5117 8.18061C11.8243 7.86805 12 7.44393 12 7.0019C12.0001 6.78098 12.088 6.56927 12.2442 6.41303C12.4004 6.25683 12.6121 6.16898 12.833 6.16889C13.054 6.16889 13.2666 6.25675 13.4229 6.41303C13.579 6.56925 13.667 6.78106 13.667 7.0019C13.667 7.44393 13.8427 7.86805 14.1553 8.18061C14.4678 8.49294 14.8912 8.66881 15.333 8.66889C15.7542 8.67008 16.1606 8.51155 16.4698 8.22553C16.779 7.93952 16.9684 7.54692 17 7.1269L15.5996 3.66889H5.06641Z" fill="#666666"/>
<path d="M14.6161 14.2018C14.909 13.9089 15.3839 13.9089 15.6768 14.2018C15.9697 14.4947 15.9697 14.9696 15.6768 15.2625L11.845 19.0943C11.7914 19.1479 11.7649 19.2233 11.7732 19.2987L11.9141 20.572C11.927 20.6881 12.019 20.78 12.135 20.793L13.4008 20.9332C13.4773 20.9416 13.5535 20.9144 13.6072 20.8593L13.8627 20.5983C13.8848 20.5757 13.9017 20.5487 13.9138 20.5195L14.3378 19.5058C14.5268 19.0532 14.8971 18.7001 15.3584 18.5336L16.0041 18.3008C16.0671 18.2781 16.119 18.2312 16.147 18.1703L16.638 17.0966C16.8105 16.72 17.2565 16.5546 17.6331 16.7271C18.0095 16.8997 18.1743 17.345 18.0018 17.7215L17.5101 18.7946C17.3144 19.2216 16.9556 19.5528 16.5137 19.7123L15.868 19.945C15.8022 19.9688 15.7494 20.0192 15.7223 20.0838L15.2984 21.0975C15.2132 21.3015 15.0895 21.4876 14.9351 21.6458L14.6803 21.9075C14.3038 22.293 13.7706 22.4842 13.235 22.4247L11.9693 22.2832C11.1561 22.1926 10.5144 21.5509 10.4239 20.7377L10.2823 19.4651C10.2236 18.9367 10.4084 18.4095 10.7843 18.0336L14.6161 14.2018Z" fill="#666666"/>
<path d="M19.0356 13.6715C19.4262 14.062 19.4262 14.6952 19.0356 15.0857C18.6451 15.4762 18.0119 15.4762 17.6214 15.0857C17.2309 14.6952 17.2309 14.062 17.6214 13.6715C18.0119 13.281 18.6451 13.281 19.0356 13.6715Z" fill="#666666"/>
<path d="M17.7699 18.3394C18.6 18.4565 19.4459 18.3098 20.1881 17.9201C20.9303 17.5303 21.5313 16.9173 21.9062 16.1675C22.2811 15.4177 22.4109 14.5691 22.2774 13.7415C22.1439 12.9139 21.7537 12.1492 21.1621 11.5553C20.5704 10.9615 19.8071 10.5686 18.98 10.432C18.1529 10.2955 17.3038 10.4223 16.5527 10.7944C15.8015 11.1666 15.1863 11.7653 14.7938 12.5061C14.4014 13.2469 14.2516 14.0922 14.3657 14.9227L15.839 14.7204C15.7673 14.1987 15.8614 13.6676 16.108 13.2023C16.3545 12.7369 16.741 12.3608 17.2129 12.127C17.6848 11.8932 18.2182 11.8135 18.7378 11.8993C19.2574 11.9851 19.7369 12.2319 20.1086 12.605C20.4803 12.9781 20.7254 13.4585 20.8093 13.9784C20.8931 14.4983 20.8116 15.0314 20.576 15.5024C20.3405 15.9734 19.963 16.3586 19.4967 16.6034C19.0305 16.8482 18.4991 16.9404 17.9776 16.8668L17.7699 18.3394Z" fill="#666666"/>
</svg>
