<svg width="24" height="24" viewBox="0 0 24 24" fill="none" xmlns="http://www.w3.org/2000/svg">
<path d="M20.6667 8.85204C20.6707 8.79934 20.6707 8.74641 20.6667 8.69371L19 4.52704C18.9349 4.36234 18.819 4.22266 18.6692 4.12826C18.5194 4.03386 18.3433 3.98965 18.1667 4.00204H6.5C6.3331 4.00188 6.17 4.05184 6.03182 4.14545C5.89364 4.23905 5.78675 4.37199 5.725 4.52704L4.05833 8.69371C4.05432 8.74641 4.05432 8.79934 4.05833 8.85204C4.03064 8.89843 4.01092 8.94914 4 9.00204C4.00928 9.57808 4.16769 10.1419 4.45979 10.6384C4.75189 11.135 5.1677 11.5474 5.66667 11.8354V19.8354C5.66667 20.0564 5.75446 20.2684 5.91074 20.4246C6.06702 20.5809 6.27899 20.6687 6.5 20.6687H18.1667C18.3877 20.6687 18.5996 20.5809 18.7559 20.4246C18.9122 20.2684 19 20.0564 19 19.8354V11.8687C19.5038 11.5779 19.9227 11.1602 20.2151 10.6573C20.5075 10.1544 20.6632 9.58376 20.6667 9.00204C20.6745 8.95235 20.6745 8.90174 20.6667 8.85204ZM13.1667 19.002H11.5V15.6687H13.1667V19.002ZM17.3333 19.002H14.8333V14.8354C14.8333 14.6144 14.7455 14.4024 14.5893 14.2461C14.433 14.0898 14.221 14.002 14 14.002H10.6667C10.4457 14.002 10.2337 14.0898 10.0774 14.2461C9.92113 14.4024 9.83333 14.6144 9.83333 14.8354V19.002H7.33333V12.3354C7.80789 12.3327 8.27641 12.2287 8.70754 12.0304C9.13868 11.8321 9.5225 11.544 9.83333 11.1854C10.1461 11.5401 10.5308 11.8241 10.9619 12.0187C11.3929 12.2133 11.8604 12.3139 12.3333 12.3139C12.8063 12.3139 13.2738 12.2133 13.7048 12.0187C14.1358 11.8241 14.5205 11.5401 14.8333 11.1854C15.1442 11.544 15.528 11.8321 15.9591 12.0304C16.3903 12.2287 16.8588 12.3327 17.3333 12.3354V19.002ZM17.3333 10.6687C16.8913 10.6687 16.4674 10.4931 16.1548 10.1806C15.8423 9.86799 15.6667 9.44407 15.6667 9.00204C15.6667 8.78103 15.5789 8.56907 15.4226 8.41279C15.2663 8.25651 15.0543 8.16871 14.8333 8.16871C14.6123 8.16871 14.4004 8.25651 14.2441 8.41279C14.0878 8.56907 14 8.78103 14 9.00204C14 9.44407 13.8244 9.86799 13.5118 10.1806C13.1993 10.4931 12.7754 10.6687 12.3333 10.6687C11.8913 10.6687 11.4674 10.4931 11.1548 10.1806C10.8423 9.86799 10.6667 9.44407 10.6667 9.00204C10.6667 8.78103 10.5789 8.56907 10.4226 8.41279C10.2663 8.25651 10.0543 8.16871 9.83333 8.16871C9.61232 8.16871 9.40036 8.25651 9.24408 8.41279C9.0878 8.56907 9 8.78103 9 9.00204C9.00821 9.22091 8.97323 9.43926 8.89705 9.64461C8.82088 9.84996 8.705 10.0383 8.55604 10.1989C8.40708 10.3594 8.22795 10.4891 8.02888 10.5804C7.82981 10.6718 7.6147 10.723 7.39583 10.7312C6.95381 10.7478 6.5233 10.5881 6.19902 10.2873C6.03845 10.1383 5.90879 9.95916 5.81745 9.76009C5.72611 9.56102 5.67487 9.34591 5.66667 9.12704L7.06667 5.66871H17.6L19 9.12704C18.9684 9.54706 18.779 9.93954 18.4698 10.2255C18.1606 10.5116 17.7545 10.6699 17.3333 10.6687Z" fill="#666666"/>
</svg>
