<svg width="24" height="24" viewBox="0 0 24 24" fill="none" xmlns="http://www.w3.org/2000/svg">
<path d="M13 17V7C13 6.44772 13.4477 6 14 6C14.5523 6 15 6.44772 15 7V17C15 17.5523 14.5523 18 14 18C13.4477 18 13 17.5523 13 17ZM9 15V9C9 8.44772 9.44772 8 10 8C10.5523 8 11 8.44772 11 9V15C11 15.5523 10.5523 16 10 16C9.44772 16 9 15.5523 9 15ZM5 14V10C5 9.44772 5.44772 9 6 9C6.55228 9 7 9.44772 7 10V14C7 14.5523 6.55228 15 6 15C5.44772 15 5 14.5523 5 14ZM17 14V10C17 9.44772 17.4477 9 18 9C18.5523 9 19 9.44772 19 10V14C19 14.5523 18.5523 15 18 15C17.4477 15 17 14.5523 17 14Z" fill="#666666"/>
</svg>
