<svg width="24" height="24" viewBox="0 0 24 24" fill="none" xmlns="http://www.w3.org/2000/svg">
<path fill-rule="evenodd" clip-rule="evenodd" d="M4 13V19C4 19.5523 4.44772 20 5 20H19C19.5523 20 20 19.5523 20 19V13C20 12.4477 19.5523 12 19 12H5C4.44772 12 4 12.4477 4 13ZM2 13V19C2 20.6569 3.34315 22 5 22H19C20.6569 22 22 20.6569 22 19V13C22 11.3431 20.6569 10 19 10H5C3.34315 10 2 11.3431 2 13Z" fill="#666666"/>
<path fill-rule="evenodd" clip-rule="evenodd" d="M20 7C20 7.55228 19.5523 8 19 8H5C4.44771 8 4 7.55228 4 7C4 6.44772 4.44771 6 5 6H19C19.5523 6 20 6.44772 20 7Z" fill="#666666"/>
<path fill-rule="evenodd" clip-rule="evenodd" d="M18 3C18 3.55228 17.5523 4 17 4H7C6.44771 4 6 3.55228 6 3C6 2.44772 6.44771 2 7 2H17C17.5523 2 18 2.44772 18 3Z" fill="#666666"/>
<path d="M10 13.809C10 13.4373 10.3912 13.1956 10.7236 13.3618L15.1056 15.5528C15.4741 15.737 15.4741 16.263 15.1056 16.4472L10.7236 18.6382C10.3912 18.8044 10 18.5627 10 18.191V13.809Z" fill="#666666"/>
</svg>
