<svg width="24" height="24" viewBox="0 0 24 24" fill="none" xmlns="http://www.w3.org/2000/svg">
<path fill-rule="evenodd" clip-rule="evenodd" d="M11.1227 18.7997L18.7997 11.1227C18.9797 10.9427 19.0808 10.6987 19.0808 10.4441V4.91925H13.5559C13.3013 4.91925 13.0573 5.02035 12.8773 5.20031L11.5202 3.8432C12.0601 3.30331 12.7923 3 13.5559 3H20.0404C20.5704 3 21 3.42964 21 3.95962V10.4441C21 11.2077 20.6967 11.9399 20.1568 12.4798L12.4798 20.1568C11.3555 21.2811 9.53274 21.2811 8.40848 20.1568L3.8432 15.5915C2.71893 14.4673 2.71893 12.6445 3.8432 11.5202L11.5202 3.8432L12.8773 5.20031L5.20031 12.8773C4.82556 13.2521 4.82556 13.8597 5.20031 14.2344L9.76559 18.7997C10.1403 19.1744 10.7479 19.1744 11.1227 18.7997Z" fill="#666666"/>
<path d="M17.1615 8.27793C17.1615 9.07291 16.517 9.71736 15.7221 9.71736C14.9271 9.71736 14.2826 9.07291 14.2826 8.27793C14.2826 7.48295 14.9271 6.83849 15.7221 6.83849C16.517 6.83849 17.1615 7.48295 17.1615 8.27793Z" fill="#666666"/>
</svg>
