<svg width="24" height="24" viewBox="0 0 24 24" fill="none" xmlns="http://www.w3.org/2000/svg">
<path fill-rule="evenodd" clip-rule="evenodd" d="M2 12C2 6.44772 6.44772 2 12 2C17.5523 2 22 6.44772 22 12C22 17.5523 17.5523 22 12 22C6.44772 22 2 17.5523 2 12ZM12 4C7.55228 4 4 7.55228 4 12C4 16.4477 7.55228 20 12 20C16.4477 20 20 16.4477 20 12C20 7.55228 16.4477 4 12 4Z" fill="#999999"/>
<path d="M14.5828 10.0685C14.5828 10.5367 14.4409 10.9349 14.1572 11.2631C13.8762 11.5882 13.4827 11.8126 12.9768 11.9364C12.9685 11.9384 12.9626 11.9458 12.9626 11.9543C12.9626 11.9636 12.9696 11.9714 12.9789 11.9726C13.5758 12.0491 14.0284 12.233 14.3367 12.5243C14.6477 12.8148 14.8032 13.2079 14.8032 13.7035C14.8032 14.4247 14.5417 14.9869 14.0188 15.3903C13.4958 15.7902 12.749 15.9901 11.7783 15.9901C11.1174 15.9901 10.5173 15.901 9.97819 15.7227C9.75425 15.6487 9.61475 15.4322 9.61475 15.1963C9.61475 14.7565 10.086 14.4609 10.5098 14.5783C10.5309 14.5842 10.5522 14.5899 10.5735 14.5956C10.9221 14.6879 11.2673 14.734 11.6091 14.734C12.1321 14.734 12.5183 14.6451 12.7678 14.4674C13.0173 14.2897 13.1421 14.0043 13.1421 13.6112C13.1421 13.2592 12.9985 13.0096 12.7114 12.8627C12.4243 12.7157 11.9663 12.6422 11.3374 12.6422C11.0231 12.6422 10.7683 12.3874 10.7683 12.0731V12.0065C10.7683 11.6865 11.0277 11.4271 11.3477 11.4271C11.9287 11.4271 12.3525 11.3519 12.6191 11.2015C12.8892 11.0477 13.0242 10.7863 13.0242 10.4171C13.0242 9.84973 12.6687 9.56604 11.9578 9.56604C11.7117 9.56604 11.4604 9.60706 11.2041 9.68909C11.1185 9.71685 11.0296 9.75145 10.9374 9.79291C10.6017 9.94375 10.1936 9.86953 9.98851 9.56403C9.78585 9.26217 9.85715 8.84738 10.1843 8.68885C10.741 8.41915 11.3697 8.2843 12.0706 8.2843C12.8464 8.2843 13.4583 8.44153 13.906 8.75598C14.3572 9.07043 14.5828 9.50793 14.5828 10.0685Z" fill="#999999"/>
</svg>
