<svg width="24" height="24" viewBox="0 0 24 24" fill="none" xmlns="http://www.w3.org/2000/svg">
<path fill-rule="evenodd" clip-rule="evenodd" d="M20 12C20 7.58172 16.4183 4 12 4C7.58172 4 4 7.58172 4 12C4 16.4183 7.58172 20 12 20C16.4183 20 20 16.4183 20 12ZM12 7C12.5523 7 13 7.44772 13 8V11.5L16.6 14.2C17.0418 14.5314 17.1314 15.1582 16.8 15.6C16.4686 16.0418 15.8418 16.1314 15.4 15.8L11.4093 12.807C11.3918 12.7941 11.3747 12.7808 11.3581 12.7669C11.1517 12.5939 11.0161 12.339 11.0013 12.0523C11.0002 12.031 10.9998 12.0097 11 11.9884V8C11 7.44772 11.4477 7 12 7Z" fill="#666666"/>
</svg>
