<svg width="24" height="24" viewBox="0 0 24 24" fill="none" xmlns="http://www.w3.org/2000/svg">
<path fill-rule="evenodd" clip-rule="evenodd" d="M2 12C2 6.44772 6.44772 2 12 2C17.5523 2 22 6.44772 22 12C22 17.5523 17.5523 22 12 22C6.44772 22 2 17.5523 2 12ZM12 4C7.55228 4 4 7.55228 4 12C4 16.4477 7.55228 20 12 20C16.4477 20 20 16.4477 20 12C20 7.55228 16.4477 4 12 4Z" fill="#666666"/>
<path fill-rule="evenodd" clip-rule="evenodd" d="M12 7C12.5523 7 13 7.44772 13 8V12C13 12.5523 12.5523 13 12 13C11.4477 13 11 12.5523 11 12V8C11 7.44772 11.4477 7 12 7Z" fill="#666666"/>
<path fill-rule="evenodd" clip-rule="evenodd" d="M11.2 11.4C11.5314 10.9582 12.1582 10.8686 12.6 11.2L16.6 14.2C17.0418 14.5314 17.1314 15.1582 16.8 15.6C16.4686 16.0418 15.8418 16.1314 15.4 15.8L11.4 12.8C10.9582 12.4686 10.8686 11.8418 11.2 11.4Z" fill="#666666"/>
</svg>
