<svg width="24" height="24" viewBox="0 0 24 24" fill="none" xmlns="http://www.w3.org/2000/svg">
<path d="M2.33339 15.5754L6.8439 11.0662C6.7495 10.6057 6.70268 10.1366 6.70419 9.6665C6.70454 8.37739 7.02923 7.10918 7.64826 5.97907C8.26729 4.84897 9.16067 3.89345 10.2458 3.20085C11.331 2.50824 12.5729 2.1009 13.8568 2.01647C15.1407 1.93204 16.4251 2.17324 17.5913 2.7178C17.739 2.78542 17.8681 2.88816 17.9672 3.0171C18.0663 3.14603 18.1325 3.29727 18.1601 3.45766C18.1875 3.61602 18.1765 3.77867 18.1278 3.93183C18.0792 4.08499 17.9944 4.22414 17.8807 4.33749L13.5398 8.67669L15.336 10.4763L19.6669 6.12716C19.781 6.01498 19.9203 5.93191 20.0731 5.88493C20.226 5.83796 20.3878 5.82845 20.5451 5.85721C20.7041 5.8838 20.8544 5.94863 20.983 6.04614C21.1116 6.14365 21.2147 6.27094 21.2835 6.41711C21.8288 7.58939 22.0694 8.88083 21.9827 10.1713C21.8961 11.4617 21.4851 12.7092 20.788 13.7978C20.0909 14.8864 19.1304 15.7806 17.9957 16.3973C16.861 17.014 15.5891 17.3332 14.2982 17.3251C13.829 17.3266 13.3608 17.2797 12.9011 17.1851L8.40062 21.7043C8.30785 21.798 8.19748 21.8723 8.07588 21.9231C7.95428 21.9739 7.82385 22 7.69211 22C7.56038 22 7.42995 21.9739 7.30834 21.9231C7.18674 21.8723 7.07637 21.798 6.9836 21.7043C6.89007 21.6113 6.81583 21.5007 6.76517 21.3789C6.71451 21.2571 6.68843 21.1264 6.68843 20.9944C6.68843 20.8624 6.71451 20.7317 6.76517 20.6099C6.81583 20.488 6.89007 20.3775 6.9836 20.2845L11.8733 15.3854C11.9955 15.2638 12.147 15.176 12.3132 15.1304C12.4793 15.0849 12.6543 15.0832 12.8213 15.1255C13.3031 15.2548 13.7994 15.322 14.2982 15.3254C15.0446 15.332 15.7849 15.1906 16.4765 14.9093C17.1681 14.628 17.7973 14.2124 18.3278 13.6864C18.8584 13.1603 19.2799 12.5344 19.5679 11.8444C19.8559 11.1545 20.0049 10.4143 20.0062 9.6665C20.0075 9.33158 19.9808 8.99714 19.9264 8.66669L16.0146 12.596C15.9218 12.6897 15.8115 12.764 15.6899 12.8148C15.5683 12.8656 15.4378 12.8917 15.3061 12.8917C15.1744 12.8917 15.0439 12.8656 14.9223 12.8148C14.8007 12.764 14.6903 12.6897 14.5976 12.596L11.4243 9.38655C11.2444 9.20012 11.1439 8.95097 11.1439 8.69168C11.1439 8.43239 11.2444 8.18324 11.4243 7.99681L15.3061 4.07754C14.9762 4.02357 14.6424 3.99681 14.3082 3.99756C12.8093 4.00021 11.3727 4.59864 10.3138 5.66148C9.25482 6.72433 8.66007 8.16473 8.66008 9.6665C8.66356 10.1662 8.73063 10.6635 8.85965 11.1462C8.9019 11.3135 8.9002 11.4889 8.85474 11.6554C8.80927 11.8218 8.72158 11.9736 8.6002 12.096L3.71049 16.9951C3.52258 17.1834 3.26772 17.2892 3.00198 17.2892C2.73624 17.2892 2.48138 17.1834 2.29347 16.9951C2.10557 16.8069 2 16.5515 2 16.2853C2 16.019 2.10557 15.7637 2.29347 15.5754H2.33339Z" fill="#666666"/>
</svg>
