<svg width="20" height="20" viewBox="0 0 20 20" fill="none" xmlns="http://www.w3.org/2000/svg">
<path d="M13.392 15.7543H6.60019C6.50381 15.7543 6.40743 15.7093 6.3496 15.6322C6.29177 15.555 6.26606 15.4522 6.29177 15.3558C6.72228 13.6588 8.24513 12.4697 9.99931 12.4697C11.7535 12.4697 13.2763 13.6524 13.7069 15.3558C13.7326 15.4522 13.7069 15.555 13.649 15.6322C13.5912 15.7093 13.4948 15.7543 13.3984 15.7543H13.392ZM7.04355 15.1115H12.9551C12.4731 13.9159 11.3165 13.1125 9.99931 13.1125C8.68207 13.1125 7.52547 13.9159 7.04355 15.1115ZM18.6802 13.4917H14.1502C13.9703 13.4917 13.8289 13.3503 13.8289 13.1703C13.8289 12.9903 13.9703 12.8489 14.1502 12.8489H18.2369C17.877 11.949 17.1188 11.2548 16.1743 10.9848C15.0948 10.6699 13.9253 10.9527 13.1093 11.724C12.9808 11.8462 12.7751 11.8397 12.6531 11.7112C12.531 11.5826 12.5374 11.3769 12.6659 11.2548C13.6426 10.3292 15.0562 9.98853 16.3542 10.3678C17.6457 10.7406 18.6545 11.7883 18.9887 13.0932C19.0144 13.1896 18.9887 13.2924 18.9308 13.3696C18.873 13.4467 18.7766 13.4917 18.6802 13.4917ZM5.8484 13.4917H1.31839C1.22201 13.4917 1.12562 13.4467 1.06779 13.3696C1.00996 13.2924 0.984261 13.1896 1.00996 13.0932C1.34409 11.7883 2.3529 10.7406 3.64444 10.3678C4.93597 9.99496 6.3496 10.3356 7.33271 11.2548C7.46122 11.3769 7.46764 11.5826 7.34556 11.7112C7.22347 11.8397 7.01785 11.8462 6.88934 11.724C6.0733 10.9527 4.89742 10.6699 3.82435 10.9848C2.88622 11.2548 2.12158 11.9554 1.76175 12.8489H5.8484C6.02832 12.8489 6.16968 12.9903 6.16968 13.1703C6.16968 13.3503 6.02832 13.4917 5.8484 13.4917ZM9.99931 12.3604C8.88769 12.3604 7.98169 11.4541 7.98169 10.3421C7.98169 9.23004 8.88769 8.32372 9.99931 8.32372C11.1109 8.32372 12.0169 9.23004 12.0169 10.3421C12.0169 11.4541 11.1109 12.3604 9.99931 12.3604ZM9.99931 8.96007C9.24109 8.96007 8.62424 9.57715 8.62424 10.3356C8.62424 11.0941 9.24109 11.7112 9.99931 11.7112C10.7575 11.7112 11.3744 11.0941 11.3744 10.3356C11.3744 9.57715 10.7575 8.96007 9.99931 8.96007ZM15.2811 10.0914C14.1695 10.0914 13.2635 9.18505 13.2635 8.07303C13.2635 6.96101 14.1695 6.05469 15.2811 6.05469C16.3927 6.05469 17.2987 6.96101 17.2987 8.07303C17.2987 9.18505 16.3927 10.0914 15.2811 10.0914ZM15.2811 6.69104C14.5229 6.69104 13.906 7.30812 13.906 8.0666C13.906 8.82509 14.5229 9.44216 15.2811 9.44216C16.0393 9.44216 16.6562 8.82509 16.6562 8.0666C16.6562 7.30812 16.0393 6.69104 15.2811 6.69104ZM4.71751 10.0978C3.60589 10.0978 2.69988 9.19148 2.69988 8.07946C2.69988 6.96744 3.60589 6.06112 4.71751 6.06112C5.82913 6.06112 6.73513 6.96744 6.73513 8.07946C6.73513 9.19148 5.82913 10.0978 4.71751 10.0978ZM4.71751 6.69747C3.95929 6.69747 3.34244 7.31454 3.34244 8.07303C3.34244 8.83152 3.95929 9.44859 4.71751 9.44859C5.47572 9.44859 6.09257 8.83152 6.09257 8.07303C6.09257 7.31454 5.47572 6.69747 4.71751 6.69747Z" fill="#666666"/>
<path d="M12.0164 10.342C12.0161 9.38549 11.2355 8.6051 10.2794 8.6051C9.32359 8.60532 8.54387 9.38563 8.54359 10.342C8.54359 11.2987 9.32342 12.0799 10.2794 12.0801C11.2356 12.0801 12.0164 11.2988 12.0164 10.342ZM10.2794 12.7513C8.65448 12.7515 7.24404 13.853 6.8451 15.4254L6.844 15.4287C6.84367 15.43 6.84257 15.434 6.844 15.4408C6.84564 15.4482 6.84976 15.4569 6.85499 15.4639C6.85499 15.4639 6.85712 15.4666 6.86268 15.4694C6.86865 15.4722 6.87532 15.4737 6.88026 15.4738H13.6786C13.6835 15.4738 13.6902 15.4722 13.6962 15.4694C13.7019 15.4666 13.705 15.4639 13.705 15.4639C13.7101 15.4569 13.7132 15.4482 13.7149 15.4408C13.7163 15.434 13.7163 15.4301 13.716 15.4287L13.7149 15.4254C13.316 13.8471 11.9051 12.7513 10.2794 12.7513ZM10.2794 12.8315C11.7133 12.8315 12.9721 13.7067 13.4962 15.0068L13.6522 15.3936H6.90772L7.06373 15.0068C7.5878 13.7069 8.84573 12.8317 10.2794 12.8315ZM10.2794 13.394C9.22693 13.3942 8.28665 13.9571 7.77455 14.8311H12.7854C12.2733 13.9569 11.3321 13.394 10.2794 13.394ZM6.15846 13.1414C6.15276 13.1357 6.14328 13.1304 6.12879 13.1304H1.6255L1.7815 12.7448C2.17312 11.7724 3.00412 11.01 4.02601 10.7156L4.24574 10.6584C5.35292 10.4125 6.5295 10.7326 7.36256 11.5198L7.36366 11.5209C7.37062 11.5274 7.3803 11.5311 7.39222 11.5308C7.40433 11.5304 7.41444 11.5254 7.42188 11.5176C7.42846 11.5106 7.43322 11.501 7.43287 11.489C7.43246 11.477 7.42737 11.4667 7.41969 11.4594H7.41859C6.50767 10.609 5.19811 10.2937 4.00294 10.6387C2.80819 10.9836 1.87255 11.9541 1.56288 13.1633L1.56178 13.1666C1.56143 13.1683 1.56149 13.1724 1.56288 13.1787C1.56454 13.1862 1.56861 13.1948 1.57386 13.2018C1.57478 13.2027 1.57735 13.2042 1.58155 13.2062C1.58768 13.2091 1.59416 13.2106 1.59913 13.2106H6.12879C6.1432 13.2106 6.15276 13.2063 6.15846 13.2007C6.16413 13.195 6.16939 13.1855 6.16944 13.171C6.16944 13.1565 6.16411 13.1471 6.15846 13.1414ZM17.2975 8.07336C17.2974 7.11666 16.5178 6.33644 15.5617 6.33643C14.6055 6.33643 13.8248 7.11665 13.8247 8.07336C13.8247 9.03015 14.6055 9.8103 15.5617 9.8103C16.5178 9.81029 17.2975 9.03014 17.2975 8.07336ZM11.3737 10.3365C11.3737 9.7333 10.8822 9.24231 10.2794 9.24231C9.67683 9.24253 9.18629 9.73343 9.18629 10.3365C9.18652 10.9395 9.67697 11.4306 10.2794 11.4308C10.8821 11.4308 11.3734 10.9396 11.3737 10.3365ZM6.09144 8.07336C6.09136 7.47027 5.60092 6.97927 4.9983 6.97913C4.39556 6.97913 3.90415 7.47018 3.90406 8.07336C3.90406 8.67661 4.39551 9.1676 4.9983 9.1676C5.60097 9.16746 6.09144 8.67653 6.09144 8.07336ZM16.6559 8.06677C16.6557 7.46367 16.1643 6.97254 15.5617 6.97253C14.959 6.97253 14.4676 7.46367 14.4674 8.06677C14.4674 8.67002 14.9589 9.16101 15.5617 9.16101C16.1644 9.161 16.6559 8.67002 16.6559 8.06677ZM6.73414 8.07996C6.73414 7.12326 5.95437 6.34316 4.9983 6.34302C4.04211 6.34302 3.26136 7.12317 3.26136 8.07996C3.26137 9.03673 4.04211 9.81689 4.9983 9.81689C5.95437 9.81675 6.73414 9.03664 6.73414 8.07996ZM14.4015 13.2007C14.4072 13.2063 14.4169 13.2106 14.4312 13.2106H18.9608C18.9658 13.2106 18.9723 13.2091 18.9784 13.2062C18.9828 13.2041 18.9853 13.2026 18.9861 13.2018C18.9914 13.1948 18.9954 13.1862 18.9971 13.1787V13.1633C18.6875 11.9542 17.7517 10.9837 16.557 10.6387H16.5559C15.4286 10.3093 14.2069 10.5662 13.3139 11.3055L13.1403 11.4594C13.1325 11.4668 13.1275 11.4769 13.1271 11.489C13.1267 11.5011 13.1314 11.5106 13.1381 11.5176C13.1455 11.5254 13.1556 11.5304 13.1677 11.5308C13.1796 11.531 13.1894 11.5274 13.1963 11.5209V11.5198C14.0841 10.6806 15.356 10.3729 16.5307 10.7145H16.5317C17.5608 11.0086 18.3866 11.765 18.7785 12.7448L18.9323 13.1304H14.4312C14.4167 13.1304 14.4072 13.1357 14.4015 13.1414C14.3958 13.1471 14.3905 13.1564 14.3905 13.171C14.3906 13.1855 14.3958 13.195 14.4015 13.2007ZM12.5789 10.342C12.5789 11.202 12.1026 11.9526 11.4011 12.347C12.7835 12.7377 13.8906 13.8331 14.2587 15.2837C14.3092 15.4734 14.2573 15.6637 14.1543 15.8011C14.0397 15.954 13.8572 16.0363 13.6786 16.0363H6.88026C6.70181 16.0361 6.51908 15.9539 6.40455 15.8011C6.30172 15.6638 6.24967 15.4732 6.30018 15.2837C6.66804 13.8387 7.77528 12.7394 9.15773 12.347C8.45664 11.9526 7.98109 11.2018 7.98109 10.342C7.98136 9.07516 9.01274 8.04282 10.2794 8.0426C11.5463 8.0426 12.5786 9.07502 12.5789 10.342ZM11.9362 10.3365C11.9359 11.2501 11.1929 11.9933 10.2794 11.9933C9.36612 11.9931 8.62402 11.2499 8.62379 10.3365C8.62379 9.42296 9.36598 8.68003 10.2794 8.67981C11.1931 8.67981 11.9362 9.42283 11.9362 10.3365ZM7.29664 8.07996C7.29664 8.94736 6.81271 9.70328 6.10133 10.0948C6.72887 10.271 7.31678 10.5928 7.80531 11.0496L7.80751 11.0518C8.04682 11.2796 8.05963 11.663 7.82948 11.9054C7.60165 12.145 7.21822 12.1588 6.97584 11.9285V11.9274C6.23239 11.2255 5.16046 10.9685 4.18421 11.255L4.18312 11.2561C3.46999 11.4613 2.86644 11.941 2.49562 12.5679H6.12879C6.46413 12.5679 6.73194 12.8358 6.73194 13.171C6.73183 13.5061 6.46406 13.7731 6.12879 13.7731H1.59913C1.42063 13.7731 1.23806 13.6918 1.12342 13.5391C1.02082 13.4022 0.969536 13.2127 1.01905 13.0238C1.37774 11.6236 2.45881 10.4989 3.84693 10.0981C3.85862 10.0948 3.87039 10.0915 3.88209 10.0883C3.17754 9.69473 2.69887 8.94228 2.69886 8.07996C2.69886 6.8127 3.73126 5.78052 4.9983 5.78052C6.26522 5.78066 7.29664 6.81279 7.29664 8.07996ZM6.65394 8.07336C6.65394 8.987 5.91182 9.72996 4.9983 9.7301C4.08466 9.7301 3.34156 8.98709 3.34156 8.07336C3.34165 7.15971 4.08471 6.41663 4.9983 6.41663C5.91177 6.41677 6.65386 7.1598 6.65394 8.07336ZM17.86 8.07336C17.86 8.93907 17.3782 9.69383 16.6691 10.0861C16.6839 10.0902 16.6993 10.0938 16.7141 10.0981H16.713C18.1011 10.499 19.1834 11.6235 19.542 13.0238H19.5409C19.5904 13.2127 19.5391 13.4022 19.4365 13.5391C19.3219 13.6919 19.1394 13.773 18.9608 13.7731H14.4312C14.0959 13.7731 13.8281 13.5061 13.828 13.171C13.828 12.8358 14.0958 12.5679 14.4312 12.5679H18.0654C17.6963 11.9381 17.0969 11.4617 16.3779 11.2561L16.3757 11.255C15.4538 10.9861 14.4591 11.1958 13.7258 11.8021L13.583 11.9285C13.3405 12.1586 12.9571 12.1452 12.7294 11.9054C12.4993 11.663 12.513 11.2796 12.7525 11.0518V11.0507C13.2395 10.5891 13.8281 10.2645 14.4575 10.0883C13.7465 9.69658 13.2622 8.94049 13.2622 8.07336C13.2623 6.80618 14.2947 5.77393 15.5617 5.77393C16.8286 5.77394 17.8599 6.80619 17.86 8.07336ZM17.2184 8.06677C17.2184 8.98049 16.4753 9.7235 15.5617 9.72351C14.648 9.72351 13.9049 8.98049 13.9049 8.06677C13.9051 7.1532 14.6481 6.41003 15.5617 6.41003C16.4752 6.41004 17.2182 7.1532 17.2184 8.06677Z" fill="#666666"/>
</svg>
