<svg width="24" height="24" viewBox="0 0 24 24" fill="none" xmlns="http://www.w3.org/2000/svg">
<path fill-rule="evenodd" clip-rule="evenodd" d="M7.1289 8L7.8203 19.0624C7.85324 19.5894 8.29029 20 8.81835 20H15.1816C15.7097 20 16.1468 19.5894 16.1797 19.0624L16.8711 8H7.1289ZM5.8242 19.1871C5.92301 20.7682 7.23416 22 8.81835 22H15.1816C16.7658 22 18.077 20.7682 18.1758 19.1871L19 6H5L5.8242 19.1871Z" fill="#666666"/>
<path fill-rule="evenodd" clip-rule="evenodd" d="M9.25222 6L9.38534 4.88179C9.44522 4.37878 9.87177 4 10.3783 4H13.6217C14.1282 4 14.5548 4.37878 14.6147 4.88179L14.7478 6H9.25222ZM7.39936 4.64536C7.57901 3.13634 8.85865 2 10.3783 2H13.6217C15.1414 2 16.421 3.13634 16.6006 4.64536L17 8H7L7.39936 4.64536Z" fill="#666666"/>
<path fill-rule="evenodd" clip-rule="evenodd" d="M10 10C10.5523 10 11 10.4477 11 11V17C11 17.5523 10.5523 18 10 18C9.44772 18 9 17.5523 9 17V11C9 10.4477 9.44772 10 10 10Z" fill="#666666"/>
<path fill-rule="evenodd" clip-rule="evenodd" d="M14 10C14.5523 10 15 10.4477 15 11V17C15 17.5523 14.5523 18 14 18C13.4477 18 13 17.5523 13 17V11C13 10.4477 13.4477 10 14 10Z" fill="#666666"/>
<path fill-rule="evenodd" clip-rule="evenodd" d="M3 7C3 6.44772 3.44772 6 4 6H20C20.5523 6 21 6.44772 21 7C21 7.55228 20.5523 8 20 8H4C3.44772 8 3 7.55228 3 7Z" fill="#666666"/>
</svg>
