<svg width="24" height="24" viewBox="0 0 24 24" fill="none" xmlns="http://www.w3.org/2000/svg">
<path fill-rule="evenodd" clip-rule="evenodd" d="M8 13C8.55228 13 9 13.4477 9 14V21C9 21.5523 8.55228 22 8 22C7.44772 22 7 21.5523 7 21V14C7 13.4477 7.44772 13 8 13Z" fill="#666666"/>
<path fill-rule="evenodd" clip-rule="evenodd" d="M16 12C16.5523 12 17 12.4477 17 13V21C17 21.5523 16.5523 22 16 22C15.4477 22 15 21.5523 15 21V13C15 12.4477 15.4477 12 16 12Z" fill="#666666"/>
<path fill-rule="evenodd" clip-rule="evenodd" d="M16 2C12.6863 2 10 4.68629 10 8V8.16667L11 9.5L12 15V16.4722C13.0615 17.4223 14.4633 18 16 18C19.3137 18 22 15.3137 22 12V8C22 4.68629 19.3137 2 16 2ZM12 8C12 5.79086 13.7909 4 16 4C18.2091 4 20 5.79086 20 8V12C20 14.2091 18.2091 16 16 16C13.7909 16 12 14.2091 12 12V8Z" fill="#666666"/>
<path fill-rule="evenodd" clip-rule="evenodd" d="M3 11C3 8.23858 5.23858 6 8 6C10.7614 6 13 8.23858 13 11V14C13 16.7614 10.7614 19 8 19C5.23858 19 3 16.7614 3 14V11ZM8 8C6.34315 8 5 9.34315 5 11V14C5 15.6569 6.34315 17 8 17C9.65685 17 11 15.6569 11 14V11C11 9.34315 9.65685 8 8 8Z" fill="#666666"/>
</svg>
