<svg width="20" height="20" viewBox="0 0 20 20" fill="none" xmlns="http://www.w3.org/2000/svg">
<path d="M2.08735 14.0615C2.41191 14.386 2.93857 14.386 3.26313 14.0615L7.11957 10.2041C7.42637 9.89743 7.92411 9.89742 8.2309 10.2041L10.3022 12.2754C10.6924 12.6656 11.3246 12.6661 11.7153 12.2764L15.5659 8.43262L15.4526 11.3652C15.4337 11.8537 15.8138 12.2644 16.3022 12.2822C16.7906 12.3 17.2019 11.9181 17.2211 11.4297L17.3872 7.17969C17.4272 6.15009 16.5828 5.30562 15.5532 5.3457L11.3032 5.51074C10.8146 5.5298 10.4329 5.94215 10.4506 6.43066C10.4686 6.91901 10.8792 7.29929 11.3676 7.28027L14.3168 7.16602C14.3207 7.16608 14.3763 7.16684 14.4614 7.17188L11.7153 9.91699C11.3247 10.3072 10.6916 10.3074 10.3012 9.91699L8.36274 7.97754C7.98321 7.59817 7.36799 7.5989 6.98871 7.97852L2.08735 12.8857C1.76314 13.2104 1.76292 13.7371 2.08735 14.0615Z" fill="#666666"/>
</svg>
