<svg width="20" height="20" viewBox="0 0 20 20" fill="none" xmlns="http://www.w3.org/2000/svg">
<path d="M2.25386 5.5874C2.57842 5.26293 3.10509 5.26292 3.42965 5.5874L7.28609 9.44482C7.59289 9.7515 8.09062 9.7515 8.39742 9.44482L10.4687 7.37354C10.8589 6.98332 11.4912 6.98283 11.8818 7.37256L15.7324 11.2163L15.6191 8.28369C15.6002 7.79525 15.9803 7.3845 16.4687 7.3667C16.9571 7.34894 17.3684 7.73085 17.3877 8.21924L17.5537 12.4692C17.5937 13.4988 16.7493 14.3433 15.7197 14.3032L11.4697 14.1382C10.9811 14.1191 10.5994 13.7068 10.6171 13.2183C10.6351 12.7299 11.0457 12.3496 11.5341 12.3687L14.4834 12.4829C14.4872 12.4829 14.5428 12.4821 14.6279 12.4771L11.8818 9.73193C11.4912 9.34172 10.8582 9.34151 10.4677 9.73193L8.52925 11.6714C8.14973 12.0508 7.5345 12.05 7.15523 11.6704L2.25386 6.76318C1.92966 6.43854 1.92944 5.91182 2.25386 5.5874Z" fill="#666666"/>
</svg>
