<svg width="24" height="24" viewBox="0 0 24 24" fill="none" xmlns="http://www.w3.org/2000/svg">
<path fill-rule="evenodd" clip-rule="evenodd" d="M21.7408 5.20953C21.8742 4.58702 21.3997 4 20.763 4H4L5.6347 11.6286C5.9311 13.0118 7.15349 14 8.5681 14H17.4319C18.8465 14 20.0689 13.0118 20.3653 11.6286L21.7408 5.20953ZM19.526 6L18.4097 11.2095C18.3109 11.6706 17.9034 12 17.4319 12H8.5681C8.09657 12 7.6891 11.6706 7.5903 11.2095L6.47397 6H19.526Z" fill="#666666"/>
<path fill-rule="evenodd" clip-rule="evenodd" d="M1.5 3C1.5 2.44772 1.94772 2 2.5 2H3C3.94427 2 4.83344 2.44458 5.4 3.2L6.3 4.4C6.63137 4.84183 6.54183 5.46863 6.1 5.8C5.65817 6.13137 5.03137 6.04183 4.7 5.6L3.8 4.4C3.61115 4.14819 3.31476 4 3 4H2.5C1.94772 4 1.5 3.55228 1.5 3Z" fill="#666666"/>
<path fill-rule="evenodd" clip-rule="evenodd" d="M8 17C7.44772 17 7 17.4477 7 18C7 18.5523 7.44772 19 8 19C8.55228 19 9 18.5523 9 18C9 17.4477 8.55228 17 8 17ZM11 18C11 19.6569 9.65685 21 8 21C6.34315 21 5 19.6569 5 18C5 16.3431 6.34315 15 8 15C9.65685 15 11 16.3431 11 18ZM17 17C16.4477 17 16 17.4477 16 18C16 18.5523 16.4477 19 17 19C17.5523 19 18 18.5523 18 18C18 17.4477 17.5523 17 17 17ZM20 18C20 19.6569 18.6569 21 17 21C15.3431 21 14 19.6569 14 18C14 16.3431 15.3431 15 17 15C18.6569 15 20 16.3431 20 18Z" fill="#666666"/>
<path fill-rule="evenodd" clip-rule="evenodd" d="M7.76861 12.0272C8.30587 11.8993 8.84511 12.2311 8.97303 12.7684L9.55952 15.2316C9.66677 15.6821 10.0693 16 10.5323 16H18.0002C18.5525 16 19.0002 16.4477 19.0002 17C19.0002 17.5523 18.5523 18 18 18C18 17.4477 17.5523 17 17 17C16.4477 17 16 17.4477 16 18L10.5323 18C9.91988 18 9.34275 17.8146 8.86126 17.4915C8.74679 17.298 8.56897 17.1465 8.35637 17.0654C8.00137 16.6916 7.73982 16.2237 7.61391 15.6948L7.02742 13.2316C6.8995 12.6943 7.23134 12.1551 7.76861 12.0272Z" fill="#666666"/>
</svg>
