<svg width="24" height="24" viewBox="0 0 24 24" fill="none" xmlns="http://www.w3.org/2000/svg">
<path fill-rule="evenodd" clip-rule="evenodd" d="M2 12C2 6.44772 6.44772 2 12 2C17.5523 2 22 6.44772 22 12C22 17.5523 17.5523 22 12 22C6.44772 22 2 17.5523 2 12ZM12 4C7.55228 4 4 7.55228 4 12C4 16.4477 7.55228 20 12 20C16.4477 20 20 16.4477 20 12C20 7.55228 16.4477 4 12 4Z" fill="#999999"/>
<path d="M14.637 15.204C14.637 15.5721 14.3386 15.8705 13.9705 15.8705H10.1784C9.74697 15.8705 9.39722 15.5207 9.39722 15.0893C9.39722 14.8836 9.47836 14.6862 9.62304 14.5399L11.2788 12.8661C11.8359 12.2953 12.2 11.9005 12.3708 11.6818C12.5417 11.4596 12.6648 11.2545 12.74 11.0665C12.8152 10.8785 12.8528 10.6837 12.8528 10.4821C12.8528 10.1813 12.769 9.9574 12.6016 9.81042C12.4375 9.66345 12.217 9.58997 11.9402 9.58997C11.6497 9.58997 11.3677 9.65662 11.0942 9.78992C10.9898 9.84081 10.8837 9.89992 10.7758 9.96725C10.463 10.1625 10.0464 10.132 9.80853 9.85024C9.56973 9.56738 9.60087 9.13939 9.90127 8.92307C10.0469 8.81819 10.1779 8.73459 10.2944 8.67224C10.5371 8.54236 10.802 8.44324 11.0891 8.37488C11.3762 8.3031 11.6975 8.26721 12.053 8.26721C12.5212 8.26721 12.9348 8.35266 13.2937 8.52356C13.6526 8.69446 13.9312 8.93372 14.1294 9.24133C14.3276 9.54895 14.4268 9.901 14.4268 10.2975C14.4268 10.6427 14.3652 10.9674 14.2422 11.2716C14.1226 11.5724 13.9346 11.8817 13.6782 12.1996C13.4253 12.5175 12.9775 12.9703 12.335 13.5582L11.3869 14.4509C11.3768 14.4603 11.3711 14.4735 11.3711 14.4874C11.3711 14.515 11.3935 14.5375 11.4212 14.5375H13.9705C14.3386 14.5375 14.637 14.8359 14.637 15.204Z" fill="#999999"/>
</svg>
