<svg width="24" height="24" viewBox="0 0 24 24" fill="none" xmlns="http://www.w3.org/2000/svg">
<path fill-rule="evenodd" clip-rule="evenodd" d="M6 11V19C6 19.5523 6.44772 20 7 20H17C17.5523 20 18 19.5523 18 19V11C18 10.4477 17.5523 10 17 10H7C6.44772 10 6 10.4477 6 11ZM4 11V19C4 20.6569 5.34315 22 7 22H17C18.6569 22 20 20.6569 20 19V11C20 9.34315 18.6569 8 17 8H7C5.34315 8 4 9.34315 4 11Z" fill="#666666"/>
<path fill-rule="evenodd" clip-rule="evenodd" d="M10 4C8.89543 4 8 4.89543 8 6V10H6V6C6 3.79086 7.79086 2 10 2H14C16.2091 2 18 3.79086 18 6V10H16V6C16 4.89543 15.1046 4 14 4H10Z" fill="#666666"/>
<path d="M11 6C11 6.55228 10.5523 7 10 7C9.44772 7 9 6.55228 9 6C9 5.44772 9.44772 5 10 5C10.5523 5 11 5.44772 11 6Z" fill="#666666"/>
<path d="M15 6C15 6.55228 14.5523 7 14 7C13.4477 7 13 6.55228 13 6C13 5.44772 13.4477 5 14 5C14.5523 5 15 5.44772 15 6Z" fill="#666666"/>
</svg>
