<svg width="20" height="20" viewBox="0 0 20 20" fill="none" xmlns="http://www.w3.org/2000/svg">
<path d="M10.3291 9.1665C9.62401 9.59105 9.01651 10.1604 8.54688 10.8335H6.875C5.44933 10.8335 4.28118 11.9351 4.1748 13.3335H7.56055C7.52162 13.6056 7.50001 13.8836 7.5 14.1665C7.5 14.4493 7.52164 14.7274 7.56055 14.9995H3.95801C3.15274 14.9993 2.5 14.3468 2.5 13.5415C2.5 11.2739 4.22513 9.40883 6.43457 9.18799C6.57928 9.17354 6.72648 9.1665 6.875 9.1665H10.3291ZM9.16699 1.6665C11.0077 1.66668 12.4998 3.15882 12.5 4.99951C12.5 5.99509 12.0631 6.88872 11.3711 7.49951C10.7836 8.01804 10.0122 8.33342 9.16699 8.3335C8.32162 8.3335 7.54953 8.01815 6.96191 7.49951C6.26996 6.88873 5.83301 5.99504 5.83301 4.99951C5.83318 3.15871 7.32615 1.6665 9.16699 1.6665ZM9.16699 3.3335C8.24663 3.3335 7.50018 4.07919 7.5 4.99951C7.5 5.91999 8.24652 6.6665 9.16699 6.6665C10.0873 6.66633 10.833 5.91988 10.833 4.99951C10.8328 4.0793 10.0872 3.33367 9.16699 3.3335Z" fill="#666666"/>
<path fill-rule="evenodd" clip-rule="evenodd" d="M13.334 12.375C14.3232 12.3753 15.125 13.1777 15.125 14.167C15.1248 15.1562 14.3231 15.9577 13.334 15.958C12.3446 15.958 11.5422 15.1564 11.542 14.167C11.542 13.1775 12.3445 12.375 13.334 12.375ZM13.334 13.458C12.9428 13.458 12.625 13.7758 12.625 14.167C12.6252 14.558 12.9429 14.875 13.334 14.875C13.7248 14.8747 14.0418 14.5579 14.042 14.167C14.042 13.776 13.7249 13.4583 13.334 13.458Z" fill="#666666"/>
<path fill-rule="evenodd" clip-rule="evenodd" d="M13.334 9.875C13.6491 9.87504 13.9569 9.90905 14.2529 9.97363C14.323 9.98908 14.3714 10.034 14.4033 10.0811C14.4341 10.1265 14.4539 10.1802 14.4678 10.2314C14.4953 10.3333 14.5085 10.4604 14.5205 10.5732C14.5326 10.6865 14.5439 10.7879 14.5635 10.8662C14.5732 10.905 14.5834 10.932 14.5928 10.9482C14.6017 10.9636 14.6051 10.9618 14.5986 10.959C14.6009 10.9592 14.6094 10.9596 14.627 10.9561C14.6503 10.9512 14.6816 10.9399 14.7207 10.9209C14.8004 10.8821 14.8926 10.8222 14.9932 10.7559C15.0938 10.6895 15.205 10.6153 15.3057 10.5684C15.3562 10.5448 15.4116 10.5251 15.4668 10.5176C15.523 10.51 15.5897 10.5144 15.6494 10.5527C16.1715 10.888 16.6167 11.3338 16.9512 11.8564C17.0263 11.9745 16.9739 12.1074 16.9297 12.1904C16.8804 12.2829 16.8031 12.3822 16.7354 12.4707C16.6664 12.5608 16.605 12.6417 16.5654 12.7129C16.5228 12.7897 16.5293 12.8174 16.5293 12.8174C16.5265 12.8104 16.5248 12.8146 16.543 12.8262C16.5609 12.8376 16.5894 12.8503 16.6289 12.8633C16.7088 12.8893 16.8118 12.9097 16.9258 12.9316C17.0411 12.9539 17.1701 12.9783 17.2725 13.0137C17.3237 13.0314 17.3762 13.055 17.4199 13.0869C17.4531 13.1111 17.4868 13.1443 17.5078 13.1885L17.5244 13.2373L17.5684 13.4639C17.606 13.6926 17.625 13.9277 17.625 14.167C17.625 14.4859 17.5905 14.7973 17.5244 15.0967C17.5089 15.1664 17.4633 15.2144 17.418 15.2461C17.3734 15.2772 17.32 15.2994 17.2686 15.3154C17.1661 15.3473 17.0377 15.3667 16.9229 15.3848C16.888 15.3903 16.8536 15.3958 16.8203 15.4014C16.79 15.4065 16.7602 15.4115 16.7324 15.417C16.662 15.431 16.6066 15.4469 16.5674 15.4639L16.5645 15.4648L16.7334 15.8154C16.737 15.8201 16.7405 15.8253 16.7441 15.8301C16.8136 15.9203 16.8916 16.021 16.9424 16.1133C16.9679 16.1597 16.9911 16.2122 17.001 16.2656C17.011 16.3206 17.0083 16.3863 16.9707 16.4463C16.6324 16.9849 16.1773 17.4427 15.6416 17.7852C15.5819 17.8233 15.5163 17.8278 15.46 17.8193C15.4051 17.811 15.3506 17.7893 15.3018 17.7646C15.2049 17.7157 15.0982 17.6395 15.0029 17.5713C14.9069 17.5025 14.8201 17.4404 14.7441 17.4004C14.7067 17.3807 14.677 17.3692 14.6553 17.3643C14.6445 17.3619 14.6375 17.3621 14.6338 17.3623C14.6323 17.3642 14.6302 17.3671 14.6279 17.3711C14.6183 17.3878 14.608 17.4147 14.5977 17.4541C14.5769 17.5336 14.5632 17.6365 14.5488 17.751C14.5345 17.8654 14.5187 17.9935 14.4902 18.0957C14.476 18.1469 14.4565 18.2011 14.4268 18.2461C14.3963 18.2919 14.3486 18.3386 14.2783 18.3545C13.9745 18.4227 13.6582 18.458 13.334 18.458C13.0097 18.458 12.6926 18.4228 12.3887 18.3545C12.3192 18.3388 12.2714 18.2927 12.2402 18.248C12.2094 18.2039 12.1882 18.1508 12.1719 18.0996C12.1393 17.9976 12.1179 17.8697 12.0986 17.7549C12.0795 17.6407 12.0621 17.5377 12.0381 17.458C12.0262 17.4186 12.0135 17.3914 12.0029 17.374C11.9921 17.3562 11.9887 17.3588 11.9971 17.3623C11.9949 17.362 11.9877 17.3613 11.9746 17.3643C11.9544 17.369 11.9269 17.38 11.8916 17.3994C11.8193 17.4392 11.737 17.5013 11.6455 17.5703C11.5554 17.6383 11.4537 17.7144 11.3604 17.7637C11.3133 17.7885 11.2605 17.8108 11.2061 17.8193C11.1497 17.8281 11.0846 17.8229 11.0254 17.7852C10.4897 17.4427 10.0346 16.9849 9.69629 16.4463C9.65228 16.3762 9.65611 16.2994 9.67188 16.2393C9.68746 16.1798 9.71889 16.1207 9.75195 16.0674C9.80026 15.9896 9.86407 15.9064 9.92285 15.8301C9.99336 15.7385 10.0575 15.6561 10.0986 15.584C10.1188 15.5486 10.1297 15.5207 10.1348 15.501C10.1364 15.4945 10.1374 15.4895 10.1377 15.4863C10.1359 15.4851 10.133 15.4833 10.1299 15.4814C10.1132 15.4719 10.086 15.4617 10.0469 15.4512C9.96746 15.4299 9.8642 15.4149 9.75 15.3994C9.63596 15.384 9.50871 15.3676 9.40723 15.3389C9.35643 15.3244 9.30328 15.3045 9.25879 15.2754C9.21361 15.2457 9.16651 15.1982 9.15039 15.1279C9.07965 14.8189 9.04202 14.4972 9.04199 14.167C9.04199 13.848 9.07649 13.5367 9.14258 13.2373L9.15918 13.1885C9.1802 13.1436 9.21404 13.1098 9.24902 13.085C9.29413 13.0529 9.34776 13.0313 9.39941 13.0156C9.50222 12.9845 9.63092 12.967 9.74512 12.9512C9.85915 12.9353 9.96178 12.9208 10.041 12.8984C10.0801 12.8874 10.1078 12.8757 10.125 12.8652C10.1416 12.8551 10.1408 12.8504 10.1387 12.8555C10.1366 12.8604 10.1406 12.8563 10.1357 12.835C10.1309 12.8138 10.1191 12.7852 10.0996 12.748C10.0598 12.6725 9.99874 12.5852 9.93066 12.4893C9.86319 12.3942 9.78793 12.2882 9.73926 12.1924C9.7148 12.1442 9.69236 12.09 9.68359 12.0361C9.67476 11.9813 9.67864 11.9161 9.7168 11.8564L9.84668 11.6641C10.1632 11.2239 10.5614 10.8462 11.0186 10.5527C11.0779 10.5148 11.1432 10.5091 11.2002 10.5166C11.2555 10.524 11.3099 10.5446 11.3594 10.5684C11.4578 10.6157 11.5656 10.6903 11.6621 10.7568C11.759 10.8237 11.847 10.8832 11.9238 10.9219C11.9617 10.9409 11.9921 10.9524 12.0146 10.957C12.0249 10.9591 12.0324 10.9591 12.0371 10.959C12.0391 10.9589 12.042 10.959 12.042 10.959L12.043 10.958C12.0352 10.9612 12.0388 10.964 12.0488 10.9473C12.0588 10.9306 12.0702 10.904 12.0811 10.8652C12.1031 10.7866 12.1178 10.6847 12.1338 10.5713C12.1498 10.4578 12.1669 10.3302 12.1973 10.2285C12.2125 10.1776 12.2339 10.1246 12.2646 10.0801C12.2964 10.0344 12.3451 9.98889 12.415 9.97363L12.6387 9.93066C12.8649 9.89384 13.0975 9.875 13.334 9.875ZM13.1641 10.9648C13.1531 11.0229 13.1439 11.0849 13.1279 11.1436C13.105 11.228 13.0634 11.3593 12.9844 11.4941C12.9064 11.6271 12.7443 11.8436 12.4492 11.9629C12.1833 12.0704 11.9382 12.0484 11.7852 12.0156C11.633 11.9829 11.5071 11.9259 11.4248 11.8838C11.3516 11.8463 11.28 11.801 11.2158 11.7598C11.1167 11.847 11.0232 11.9403 10.9355 12.0391C10.9751 12.099 11.0169 12.1654 11.0527 12.2324C11.0949 12.3113 11.1539 12.4354 11.1895 12.5859C11.2244 12.7344 11.2559 12.9914 11.1387 13.2725C11.0202 13.5566 10.8121 13.7169 10.6758 13.7979C10.5397 13.8786 10.4069 13.9216 10.3203 13.9453C10.2582 13.9623 10.1929 13.9741 10.1318 13.9854C10.1285 14.0453 10.125 14.106 10.125 14.167C10.125 14.2337 10.1298 14.2997 10.1338 14.3652C10.1925 14.3757 10.2553 14.386 10.3145 14.4014C10.3969 14.4229 10.5267 14.462 10.6602 14.5371C10.7886 14.6094 11.0173 14.7696 11.1416 15.0752C11.2573 15.3597 11.2236 15.6192 11.1836 15.7734C11.1437 15.9273 11.0794 16.0517 11.0342 16.1299C11.0025 16.1847 10.9655 16.238 10.9307 16.2881C11.0143 16.3827 11.1031 16.4724 11.1973 16.5566C11.248 16.5222 11.3035 16.4873 11.3594 16.4561C11.4401 16.411 11.5665 16.3478 11.7227 16.3105C11.8817 16.2727 12.1333 16.2473 12.4062 16.3584C12.7006 16.4784 12.8601 16.6954 12.9346 16.8203C13.012 16.9502 13.0549 17.0768 13.0791 17.1592C13.099 17.227 13.1144 17.2988 13.1279 17.3652C13.1959 17.3695 13.2648 17.375 13.334 17.375C13.394 17.375 13.4536 17.3704 13.5127 17.3672C13.5225 17.3105 13.5314 17.2505 13.5459 17.1934C13.5672 17.1094 13.606 16.977 13.6826 16.8408C13.7574 16.7078 13.9194 16.4819 14.2227 16.3584C14.4972 16.2468 14.7487 16.2742 14.9014 16.3096C15.0539 16.345 15.179 16.4041 15.2598 16.4473C15.3282 16.4839 15.3962 16.527 15.457 16.5674C15.5554 16.4803 15.6483 16.3875 15.7354 16.2891C15.7005 16.2391 15.6655 16.1846 15.6338 16.1299C15.5886 16.0518 15.5233 15.9273 15.4834 15.7734C15.4434 15.6192 15.4097 15.3596 15.5254 15.0752C15.6449 14.7814 15.8605 14.6204 15.9893 14.5439C16.1216 14.4655 16.2513 14.4233 16.335 14.3994C16.4007 14.3807 16.4697 14.3652 16.5342 14.3525C16.5377 14.2912 16.542 14.2294 16.542 14.167C16.542 14.0961 16.5367 14.0256 16.5322 13.9561C16.4603 13.9401 16.3809 13.922 16.3066 13.8984C16.2244 13.8723 16.0997 13.8269 15.9727 13.748C15.8504 13.6721 15.6421 13.5124 15.5254 13.2256C15.4151 12.9545 15.4391 12.7044 15.4775 12.543C15.5152 12.3853 15.5793 12.2578 15.625 12.1768C15.6544 12.1247 15.6864 12.073 15.7188 12.0254C15.6323 11.9292 15.5407 11.8381 15.4434 11.7529C15.3718 11.7978 15.2899 11.8486 15.207 11.8896C15.1259 11.9298 15.002 11.984 14.8535 12.0156C14.7077 12.0466 14.4588 12.072 14.1875 11.9609C13.8931 11.8402 13.7309 11.6226 13.6504 11.4805C13.5706 11.3395 13.5309 11.2032 13.5098 11.1162C13.4976 11.066 13.4898 11.0139 13.4814 10.9639C13.4327 10.9617 13.3834 10.958 13.334 10.958C13.2771 10.958 13.2201 10.9619 13.1641 10.9648Z" fill="#666666"/>
</svg>
