<svg width="24" height="24" viewBox="0 0 24 24" fill="none" xmlns="http://www.w3.org/2000/svg">
<path fill-rule="evenodd" clip-rule="evenodd" d="M6 5C4.89543 5 4 5.89543 4 7V17C4 18.1046 4.89543 19 6 19H17C18.1046 19 19 18.1046 19 17V16H21V17C21 19.2091 19.2091 21 17 21H6C3.79086 21 2 19.2091 2 17V7C2 4.79086 3.79086 3 6 3H17C19.2091 3 21 4.79086 21 7V8H19V7C19 5.89543 18.1046 5 17 5H6Z" fill="#666666"/>
<path fill-rule="evenodd" clip-rule="evenodd" d="M15 9V15H21V9H15ZM13 9V15C13 16.1046 13.8954 17 15 17H21C22.1046 17 23 16.1046 23 15V9C23 7.89543 22.1046 7 21 7H15C13.8954 7 13 7.89543 13 9Z" fill="#666666"/>
<path d="M19 12C19 12.5523 18.5523 13 18 13C17.4477 13 17 12.5523 17 12C17 11.4477 17.4477 11 18 11C18.5523 11 19 11.4477 19 12Z" fill="#666666"/>
</svg>
