<svg width="24" height="24" viewBox="0 0 24 24" fill="none" xmlns="http://www.w3.org/2000/svg">
<path fill-rule="evenodd" clip-rule="evenodd" d="M12 8.5C12.5523 8.5 13 8.94772 13 9.5V13.5C13 14.0523 12.5523 14.5 12 14.5C11.4477 14.5 11 14.0523 11 13.5V9.5C11 8.94772 11.4477 8.5 12 8.5Z" fill="#666666"/>
<path d="M13 16.5C13 17.0523 12.5523 17.5 12 17.5C11.4477 17.5 11 17.0523 11 16.5C11 15.9477 11.4477 15.5 12 15.5C12.5523 15.5 13 15.9477 13 16.5Z" fill="#666666"/>
<path fill-rule="evenodd" clip-rule="evenodd" d="M19.7942 18.5L12 5L4.20574 18.5H19.7942ZM13.732 4C12.9622 2.66667 11.0377 2.66667 10.2679 4L2.47369 17.5C1.70389 18.8333 2.66614 20.5 4.20574 20.5H19.7942C21.3338 20.5 22.2961 18.8333 21.5263 17.5L13.732 4Z" fill="#666666"/>
</svg>
