<svg width="24" height="24" viewBox="0 0 24 24" fill="none" xmlns="http://www.w3.org/2000/svg">
<path fill-rule="evenodd" clip-rule="evenodd" d="M11.5048 23.0002H9.02177C8.78909 23.0002 8.59981 22.8109 8.59981 22.5783V20.1617H4.58259C4.26134 20.1617 4 19.9004 4 19.5791V17.6267C4 17.4969 4.04406 17.3693 4.12407 17.2672L11.2375 8.19265H4.90084C4.57956 8.19265 4.31819 7.93131 4.31819 7.61003V5.44545C4.31819 5.12423 4.57956 4.86286 4.90084 4.86286H8.59758V2.44635C8.59758 2.21367 8.78684 2.02441 9.01952 2.02441H11.5026C11.7352 2.02441 11.9245 2.21367 11.9245 2.44635V4.86286H15.7027C16.0239 4.86286 16.2853 5.12423 16.2853 5.44545V7.31297C16.2853 7.44238 16.2414 7.5698 16.1617 7.67174L9.00302 16.8318L15.7027 16.8313C16.0239 16.8313 16.2853 17.0926 16.2853 17.4138V19.5784C16.2853 19.8997 16.0239 20.161 15.7027 20.161L11.9267 20.1617V22.5783C11.9267 22.8109 11.7375 23.0002 11.5048 23.0002Z" fill="#666666"/>
<path fill-rule="evenodd" clip-rule="evenodd" d="M19.4698 3.76279H20.1535C20.3301 3.76279 20.479 3.71178 20.6001 3.6093C20.7116 3.52558 20.7674 3.39538 20.7674 3.2186C20.7674 3.05116 20.7068 2.91643 20.586 2.81395C20.5023 2.73023 20.3395 2.68837 20.0977 2.68837H19.4698V3.76279ZM20.586 4.15349L21.3116 5.64651H20.7535L20.0837 4.2093H19.4698V5.64651H18.9814V2.22791H20.1674C20.5209 2.22791 20.7905 2.31643 20.9767 2.49302C21.1721 2.66047 21.2698 2.89767 21.2698 3.20465C21.2698 3.49305 21.1767 3.73026 20.9907 3.91628C20.8976 4.00942 20.7626 4.08852 20.586 4.15349ZM21.2977 6.1907C21.679 5.97677 21.9766 5.67922 22.1907 5.29767C22.4045 4.9164 22.5116 4.48375 22.5116 4C22.5116 3.52558 22.4045 3.09542 22.1907 2.70935C21.9766 2.32345 21.679 2.0234 21.2977 1.8093C20.9161 1.59538 20.4836 1.48837 20.0001 1.48837C19.5256 1.48837 19.0976 1.59787 18.7163 1.81632C18.3347 2.03496 18.0347 2.335 17.8162 2.71628C17.5976 3.09782 17.4884 3.52558 17.4884 4C17.4884 4.48375 17.5952 4.9164 17.8093 5.29767C18.0231 5.67922 18.3232 5.97677 18.7093 6.1907C19.0952 6.4048 19.5256 6.51163 20.0001 6.51163C20.4836 6.51163 20.9161 6.4048 21.2977 6.1907ZM21.5349 1.3907C21.9905 1.65119 22.3487 2.00945 22.6093 2.46512C22.8696 2.92096 23 3.43271 23 4C23 4.56756 22.8696 5.07922 22.6093 5.53488C22.3487 5.99082 21.9905 6.34899 21.5349 6.6093C21.079 6.8698 20.5673 7 20.0001 7C19.4325 7 18.9208 6.8698 18.4651 6.6093C18.0092 6.34899 17.651 5.99082 17.3907 5.53488C17.1302 5.07922 17 4.56756 17 4C17 3.43271 17.1302 2.92096 17.3907 2.46512C17.651 2.00945 18.0092 1.65119 18.4651 1.3907C18.9208 1.13038 19.4325 1 20.0001 1C20.5673 1 21.079 1.13038 21.5349 1.3907Z" fill="#666666"/>
</svg>
