<svg width="24" height="24" viewBox="0 0 24 24" fill="none" xmlns="http://www.w3.org/2000/svg">
<path fill-rule="evenodd" clip-rule="evenodd" d="M3 10C3 6.11438 6.11438 3 10 3C13.8856 3 17 6.11438 17 10C17 13.8856 13.8856 17 10 17C6.11438 17 3 13.8856 3 10ZM10 5C7.21895 5 5 7.21895 5 10C5 12.781 7.21895 15 10 15C12.781 15 15 12.781 15 10C15 7.21895 12.781 5 10 5Z" fill="#666666"/>
<path fill-rule="evenodd" clip-rule="evenodd" d="M13 10C13 10.5523 12.5523 11 12 11H8C7.44772 11 7 10.5523 7 10C7 9.44772 7.44772 9 8 9H12C12.5523 9 13 9.44772 13 10Z" fill="#666666"/>
<path fill-rule="evenodd" clip-rule="evenodd" d="M20.7071 20.7071C20.3166 21.0976 19.6834 21.0976 19.2929 20.7071L13.9967 15.4109C13.6061 15.0204 13.6061 14.3872 13.9967 13.9967C14.3872 13.6061 15.0204 13.6061 15.4109 13.9967L20.7071 19.2929C21.0976 19.6834 21.0976 20.3166 20.7071 20.7071Z" fill="#666666"/>
</svg>
