<svg width="32" height="12" viewBox="0 0 32 12" fill="none" xmlns="http://www.w3.org/2000/svg">
<g clip-path="url(#clip0_1_2934)">
<path d="M27.8938 10.3689H26.3689V11.8938H27.8938V10.3689Z" fill="#FB6400"/>
<path d="M23.2743 3.57581L24.182 10.3955L25.0896 3.57581H26.505L25.1809 11.8938H23.1681L21.8573 3.57581H23.2743Z" fill="#FB6400"/>
<path d="M4.78485 3.57577H4V4.68086H4.78485V11.8938H6.16372V4.68086H7.13274V3.57577H6.16372V1.88496C6.16372 1.63772 6.21515 1.45022 6.33462 1.3208C6.45409 1.19303 6.63661 1.13164 6.88551 1.13164H7.1344V0H6.63496C6.02102 0 5.43197 0.129425 5.14989 0.396571C4.86947 0.663717 4.78485 1.07688 4.78485 1.66759V3.57577Z" fill="#FB6400"/>
<path d="M8.948 3.57581H7.56415V11.8938H8.948V3.57581Z" fill="#FB6400"/>
<path d="M15.333 8.20686H18.2168V5.64326C18.2135 4.11007 17.4751 3.4812 16.0797 3.4812C14.6261 3.4812 13.9458 4.10841 13.9458 5.65321V9.86616C13.9491 11.2716 14.8003 11.9983 16.078 11.9983C17.3556 11.9983 18.2135 11.3993 18.2168 9.86616V9.20078H16.8811C16.8811 9.20078 16.8827 9.79315 16.8827 9.9906C16.8827 10.5531 16.672 10.943 16.1062 10.943C15.5404 10.943 15.333 10.5498 15.333 9.98894V8.20686ZM15.333 5.36616C15.333 4.89658 15.4558 4.4104 16.1012 4.4104C16.7467 4.4104 16.8794 4.88994 16.8794 5.3645V7.08518H15.333V5.36616Z" fill="#FB6400"/>
<path d="M12.0575 7.16478C11.0138 6.24719 10.9275 6.12108 10.9275 5.44243C10.9275 4.86334 10.9773 4.51157 11.4967 4.51157C12.016 4.51157 12.084 4.86002 12.084 5.44907V6.21732H13.4165V4.96456C13.4115 3.9806 12.6548 3.47949 11.4668 3.47949C10.297 3.47949 9.53371 3.86943 9.52708 5.44243C9.52542 5.70958 9.52708 5.70958 9.52708 5.6067C9.52874 6.10117 9.53205 6.88436 10.7533 7.93303L11.1034 8.23336C12.0044 8.99332 12.1023 9.08458 12.099 9.98724C12.099 10.5448 12.0641 10.9662 11.4801 10.9662C10.896 10.9662 10.8595 10.5414 10.8595 10.2793V9.21566H9.45905V10.3141C9.45905 11.6648 10.3385 12 11.4784 12C12.6183 12 13.4994 11.6631 13.4994 9.92418V9.77982C13.4961 8.56522 13.2754 8.23834 12.0575 7.16478Z" fill="#FB6400"/>
<path d="M20.0669 4.43198V3.57578H18.8058V11.8938H20.1665V6.0979C20.1665 5.6499 20.3125 5.35454 20.5664 5.18032C20.807 5.01439 21.104 4.95797 21.4806 4.95299V3.4812C20.7588 3.49613 20.4485 3.63883 20.0818 4.40211L20.0669 4.43198Z" fill="#FB6400"/>
</g>
<defs>
<clipPath id="clip0_1_2934">
<rect width="23.8938" height="12" fill="white" transform="translate(4)"/>
</clipPath>
</defs>
</svg>
