<svg width="94" height="12" viewBox="0 0 94 12" fill="none" xmlns="http://www.w3.org/2000/svg">
<path fill-rule="evenodd" clip-rule="evenodd" d="M14 3.99999V3.67703L10 2.07703L6 3.67703L6 3.99999H14ZM15 3.99999V3.67703C15 3.26812 14.751 2.90041 14.3714 2.74855L10.3714 1.14855C10.133 1.05319 9.86702 1.05319 9.62861 1.14855L5.62861 2.74855C5.24895 2.90041 5 3.26812 5 3.67703V3.99999C5 4.55228 5.44772 4.99999 6 4.99999H14C14.5523 4.99999 15 4.55228 15 3.99999Z" fill="white"/>
<path fill-rule="evenodd" clip-rule="evenodd" d="M10 3.99999C10.2761 3.99999 10.5 4.22385 10.5 4.49999V8.49999C10.5 8.77614 10.2761 8.99999 10 8.99999C9.72386 8.99999 9.5 8.77614 9.5 8.49999V4.49999C9.5 4.22385 9.72386 3.99999 10 3.99999Z" fill="white"/>
<path fill-rule="evenodd" clip-rule="evenodd" d="M13 3.99999C13.2761 3.99999 13.5 4.22385 13.5 4.49999V8.49999C13.5 8.77614 13.2761 8.99999 13 8.99999C12.7239 8.99999 12.5 8.77614 12.5 8.49999V4.49999C12.5 4.22385 12.7239 3.99999 13 3.99999Z" fill="white"/>
<path fill-rule="evenodd" clip-rule="evenodd" d="M7 3.99999C7.27614 3.99999 7.5 4.22385 7.5 4.49999V8.49999C7.5 8.77614 7.27614 8.99999 7 8.99999C6.72386 8.99999 6.5 8.77614 6.5 8.49999V4.49999C6.5 4.22385 6.72386 3.99999 7 3.99999Z" fill="white"/>
<path fill-rule="evenodd" clip-rule="evenodd" d="M14 9.99999V9.49999C14 9.22385 13.7761 8.99999 13.5 8.99999H6.5C6.22386 8.99999 6 9.22385 6 9.49999V9.99999H14ZM15 10.5V9.49999C15 8.67157 14.3284 7.99999 13.5 7.99999H6.5C5.67157 7.99999 5 8.67157 5 9.49999V10.5C5 10.7761 5.22386 11 5.5 11H14.5C14.7761 11 15 10.7761 15 10.5Z" fill="white"/>
<path d="M20.799 9.5V2.22727H25.3089V3.17188H21.8963V5.38778H24.9858V6.32884H21.8963V9.5H20.799ZM26.812 9.5V4.04545H27.8738V9.5H26.812ZM27.3482 3.20384C27.1635 3.20384 27.0049 3.14228 26.8723 3.01918C26.7421 2.8937 26.677 2.74455 26.677 2.57173C26.677 2.39654 26.7421 2.2474 26.8723 2.12429C27.0049 1.99882 27.1635 1.93608 27.3482 1.93608C27.5329 1.93608 27.6903 1.99882 27.8205 2.12429C27.9531 2.2474 28.0194 2.39654 28.0194 2.57173C28.0194 2.74455 27.9531 2.8937 27.8205 3.01918C27.6903 3.14228 27.5329 3.20384 27.3482 3.20384ZM29.541 9.5V4.04545H30.5673V4.91193H30.6241C30.7235 4.61837 30.8987 4.38755 31.1497 4.21946C31.403 4.04901 31.6895 3.96378 32.0091 3.96378C32.0753 3.96378 32.1535 3.96615 32.2434 3.97088C32.3358 3.97562 32.408 3.98153 32.4601 3.98864V5.00426C32.4174 4.99242 32.3417 4.9794 32.2328 4.9652C32.1239 4.94863 32.015 4.94034 31.9061 4.94034C31.6551 4.94034 31.4314 4.99361 31.2349 5.10014C31.0408 5.20431 30.8869 5.34991 30.7733 5.53693C30.6596 5.72159 30.6028 5.93229 30.6028 6.16903V9.5H29.541ZM37.7051 5.37713L36.7427 5.54759C36.7025 5.42448 36.6386 5.30729 36.551 5.19602C36.4657 5.08475 36.3497 4.99361 36.203 4.92259C36.0562 4.85156 35.8727 4.81605 35.6525 4.81605C35.3519 4.81605 35.1009 4.88352 34.8997 5.01847C34.6985 5.15104 34.5978 5.32268 34.5978 5.53338C34.5978 5.71567 34.6653 5.86245 34.8003 5.97372C34.9352 6.08499 35.153 6.17614 35.4537 6.24716L36.3201 6.44602C36.822 6.56203 37.1961 6.74077 37.4423 6.98224C37.6885 7.22372 37.8116 7.53741 37.8116 7.9233C37.8116 8.25 37.7169 8.54119 37.5275 8.79688C37.3405 9.05019 37.0789 9.24905 36.7427 9.39347C36.4089 9.53788 36.0218 9.61009 35.5815 9.61009C34.9707 9.61009 34.4724 9.47988 34.0865 9.21946C33.7006 8.95668 33.4638 8.58381 33.3763 8.10085L34.4025 7.9446C34.4664 8.21212 34.5978 8.41454 34.7967 8.55185C34.9956 8.68679 35.2548 8.75426 35.5744 8.75426C35.9224 8.75426 36.2006 8.68205 36.4089 8.53764C36.6173 8.39086 36.7214 8.21212 36.7214 8.00142C36.7214 7.83097 36.6575 7.68774 36.5297 7.57173C36.4042 7.45573 36.2112 7.36813 35.9508 7.30895L35.0275 7.10653C34.5185 6.99053 34.1421 6.80587 33.8983 6.55256C33.6568 6.29924 33.5361 5.97846 33.5361 5.5902C33.5361 5.26823 33.626 4.98651 33.8059 4.74503C33.9859 4.50355 34.2344 4.31534 34.5517 4.1804C34.8689 4.04309 35.2323 3.97443 35.6419 3.97443C36.2314 3.97443 36.6954 4.10227 37.0339 4.35795C37.3725 4.61127 37.5962 4.95099 37.7051 5.37713ZM41.764 4.04545V4.89773H38.7846V4.04545H41.764ZM39.5836 2.73864H40.6454V7.89844C40.6454 8.1044 40.6762 8.25947 40.7378 8.36364C40.7993 8.46544 40.8786 8.53527 40.9757 8.57315C41.0751 8.60866 41.1828 8.62642 41.2988 8.62642C41.3841 8.62642 41.4586 8.6205 41.5226 8.60866C41.5865 8.59683 41.6362 8.58736 41.6717 8.58026L41.8635 9.45739C41.8019 9.48106 41.7143 9.50473 41.6007 9.52841C41.487 9.55445 41.345 9.56866 41.1745 9.57102C40.8952 9.57576 40.6348 9.52604 40.3933 9.42188C40.1518 9.31771 39.9565 9.15672 39.8074 8.93892C39.6582 8.72112 39.5836 8.44768 39.5836 8.11861V2.73864ZM46.1479 9.5V2.22727H50.6579V3.17188H47.2452V5.38778H50.3347V6.32884H47.2452V9.5H46.1479ZM52.1609 9.5V4.04545H53.2227V9.5H52.1609ZM52.6971 3.20384C52.5124 3.20384 52.3538 3.14228 52.2213 3.01918C52.091 2.8937 52.0259 2.74455 52.0259 2.57173C52.0259 2.39654 52.091 2.2474 52.2213 2.12429C52.3538 1.99882 52.5124 1.93608 52.6971 1.93608C52.8818 1.93608 53.0392 1.99882 53.1694 2.12429C53.302 2.2474 53.3683 2.39654 53.3683 2.57173C53.3683 2.74455 53.302 2.8937 53.1694 3.01918C53.0392 3.14228 52.8818 3.20384 52.6971 3.20384ZM55.9517 6.26136V9.5H54.8899V4.04545H55.9091V4.93324H55.9766C56.1021 4.64441 56.2986 4.41241 56.5661 4.23722C56.836 4.06203 57.1757 3.97443 57.5852 3.97443C57.9569 3.97443 58.2825 4.05256 58.5618 4.20881C58.8412 4.36269 59.0578 4.59233 59.2117 4.89773C59.3656 5.20312 59.4425 5.58073 59.4425 6.03054V9.5H58.3807V6.15838C58.3807 5.76302 58.2777 5.45407 58.0718 5.23153C57.8658 5.00663 57.5829 4.89418 57.223 4.89418C56.9768 4.89418 56.7578 4.94744 56.5661 5.05398C56.3767 5.16051 56.2263 5.31676 56.1151 5.52273C56.0062 5.72633 55.9517 5.97254 55.9517 6.26136ZM62.6927 9.62074C62.347 9.62074 62.0345 9.55682 61.7552 9.42898C61.4758 9.29877 61.2545 9.11056 61.0911 8.86435C60.9301 8.61813 60.8496 8.31629 60.8496 7.95881C60.8496 7.65104 60.9088 7.39773 61.0272 7.19886C61.1456 7 61.3054 6.84257 61.5066 6.72656C61.7078 6.61056 61.9327 6.52296 62.1813 6.46378C62.4299 6.40459 62.6832 6.35961 62.9413 6.32884C63.268 6.29096 63.5331 6.26018 63.7367 6.23651C63.9403 6.21046 64.0883 6.16903 64.1806 6.11222C64.2729 6.0554 64.3191 5.96307 64.3191 5.83523V5.81037C64.3191 5.50024 64.2315 5.25994 64.0563 5.08949C63.8835 4.91903 63.6254 4.83381 63.2822 4.83381C62.9247 4.83381 62.643 4.91312 62.437 5.07173C62.2334 5.22798 62.0925 5.40199 62.0144 5.59375L61.0165 5.36648C61.1349 5.03504 61.3077 4.76752 61.535 4.56392C61.7646 4.35795 62.0286 4.20881 62.3269 4.11648C62.6252 4.02178 62.9389 3.97443 63.268 3.97443C63.4858 3.97443 63.7166 4.00047 63.9604 4.05256C64.2066 4.10227 64.4363 4.1946 64.6493 4.32955C64.8648 4.46449 65.0412 4.65743 65.1785 4.90838C65.3158 5.15696 65.3844 5.48011 65.3844 5.87784V9.5H64.3475V8.75426H64.3049C64.2362 8.89157 64.1333 9.02652 63.9959 9.15909C63.8586 9.29167 63.6823 9.40175 63.4668 9.48935C63.2514 9.57694 62.9933 9.62074 62.6927 9.62074ZM62.9235 8.76847C63.2171 8.76847 63.468 8.71046 63.6763 8.59446C63.887 8.47846 64.0468 8.32694 64.1557 8.13991C64.267 7.95052 64.3226 7.74811 64.3226 7.53267V6.82955C64.2848 6.86742 64.2114 6.90294 64.1025 6.93608C63.9959 6.96686 63.874 6.99408 63.7367 7.01776C63.5994 7.03906 63.4656 7.05919 63.3354 7.07812C63.2052 7.0947 63.0963 7.1089 63.0087 7.12074C62.8028 7.14678 62.6145 7.19058 62.4441 7.25213C62.276 7.31368 62.1411 7.40246 62.0393 7.51847C61.9398 7.6321 61.8901 7.78362 61.8901 7.97301C61.8901 8.2358 61.9872 8.43466 62.1813 8.5696C62.3754 8.70218 62.6228 8.76847 62.9235 8.76847ZM68.0993 6.26136V9.5H67.0375V4.04545H68.0567V4.93324H68.1241C68.2496 4.64441 68.4461 4.41241 68.7136 4.23722C68.9835 4.06203 69.3232 3.97443 69.7328 3.97443C70.1045 3.97443 70.43 4.05256 70.7094 4.20881C70.9887 4.36269 71.2053 4.59233 71.3592 4.89773C71.5131 5.20312 71.5901 5.58073 71.5901 6.03054V9.5H70.5283V6.15838C70.5283 5.76302 70.4253 5.45407 70.2193 5.23153C70.0133 5.00663 69.7304 4.89418 69.3706 4.89418C69.1244 4.89418 68.9054 4.94744 68.7136 5.05398C68.5242 5.16051 68.3739 5.31676 68.2626 5.52273C68.1537 5.72633 68.0993 5.97254 68.0993 6.26136ZM75.5505 9.61009C75.0225 9.61009 74.568 9.49053 74.1868 9.25142C73.808 9.00994 73.5168 8.67732 73.3132 8.25355C73.1096 7.82978 73.0078 7.34446 73.0078 6.79759C73.0078 6.24361 73.112 5.75473 73.3203 5.33097C73.5287 4.90483 73.8222 4.57221 74.201 4.3331C74.5798 4.09399 75.0261 3.97443 75.5398 3.97443C75.9541 3.97443 76.3234 4.05137 76.6478 4.20526C76.9721 4.35677 77.2337 4.56984 77.4326 4.84446C77.6338 5.11908 77.7533 5.43987 77.7912 5.80682H76.7578C76.701 5.55114 76.5708 5.33097 76.3672 5.14631C76.166 4.96165 75.8961 4.86932 75.5576 4.86932C75.2616 4.86932 75.0024 4.94744 74.7799 5.10369C74.5597 5.25758 74.3881 5.47775 74.2649 5.7642C74.1418 6.0483 74.0803 6.38447 74.0803 6.77273C74.0803 7.17045 74.1407 7.51373 74.2614 7.80256C74.3821 8.09138 74.5526 8.3151 74.7728 8.47372C74.9953 8.63234 75.2569 8.71165 75.5576 8.71165C75.7588 8.71165 75.9411 8.67495 76.1044 8.60156C76.2702 8.5258 76.4086 8.41809 76.5199 8.27841C76.6336 8.13873 76.7129 7.97064 76.7578 7.77415H77.7912C77.7533 8.12689 77.6385 8.44176 77.4468 8.71875C77.255 8.99574 76.9981 9.21354 76.6762 9.37216C76.3566 9.53078 75.9813 9.61009 75.5505 9.61009ZM79.1655 9.5V4.04545H80.2273V9.5H79.1655ZM79.7017 3.20384C79.5171 3.20384 79.3585 3.14228 79.2259 3.01918C79.0957 2.8937 79.0306 2.74455 79.0306 2.57173C79.0306 2.39654 79.0957 2.2474 79.2259 2.12429C79.3585 1.99882 79.5171 1.93608 79.7017 1.93608C79.8864 1.93608 80.0438 1.99882 80.174 2.12429C80.3066 2.2474 80.3729 2.39654 80.3729 2.57173C80.3729 2.74455 80.3066 2.8937 80.174 3.01918C80.0438 3.14228 79.8864 3.20384 79.7017 3.20384ZM83.4819 9.62074C83.1363 9.62074 82.8238 9.55682 82.5444 9.42898C82.2651 9.29877 82.0437 9.11056 81.8804 8.86435C81.7194 8.61813 81.6389 8.31629 81.6389 7.95881C81.6389 7.65104 81.6981 7.39773 81.8164 7.19886C81.9348 7 82.0946 6.84257 82.2958 6.72656C82.4971 6.61056 82.722 6.52296 82.9706 6.46378C83.2191 6.40459 83.4725 6.35961 83.7305 6.32884C84.0572 6.29096 84.3224 6.26018 84.526 6.23651C84.7296 6.21046 84.8775 6.16903 84.9699 6.11222C85.0622 6.0554 85.1083 5.96307 85.1083 5.83523V5.81037C85.1083 5.50024 85.0208 5.25994 84.8456 5.08949C84.6727 4.91903 84.4147 4.83381 84.0714 4.83381C83.7139 4.83381 83.4322 4.91312 83.2262 5.07173C83.0226 5.22798 82.8818 5.40199 82.8037 5.59375L81.8058 5.36648C81.9242 5.03504 82.097 4.76752 82.3243 4.56392C82.5539 4.35795 82.8179 4.20881 83.1162 4.11648C83.4145 4.02178 83.7281 3.97443 84.0572 3.97443C84.275 3.97443 84.5058 4.00047 84.7497 4.05256C84.9959 4.10227 85.2255 4.1946 85.4386 4.32955C85.654 4.46449 85.8304 4.65743 85.9677 4.90838C86.105 5.15696 86.1737 5.48011 86.1737 5.87784V9.5H85.1368V8.75426H85.0941C85.0255 8.89157 84.9225 9.02652 84.7852 9.15909C84.6479 9.29167 84.4715 9.40175 84.2561 9.48935C84.0406 9.57694 83.7826 9.62074 83.4819 9.62074ZM83.7128 8.76847C84.0063 8.76847 84.2573 8.71046 84.4656 8.59446C84.6763 8.47846 84.8361 8.32694 84.945 8.13991C85.0563 7.95052 85.1119 7.74811 85.1119 7.53267V6.82955C85.074 6.86742 85.0006 6.90294 84.8917 6.93608C84.7852 6.96686 84.6633 6.99408 84.526 7.01776C84.3886 7.03906 84.2549 7.05919 84.1247 7.07812C83.9945 7.0947 83.8856 7.1089 83.798 7.12074C83.592 7.14678 83.4038 7.19058 83.2333 7.25213C83.0653 7.31368 82.9303 7.40246 82.8285 7.51847C82.7291 7.6321 82.6794 7.78362 82.6794 7.97301C82.6794 8.2358 82.7764 8.43466 82.9706 8.5696C83.1647 8.70218 83.4121 8.76847 83.7128 8.76847ZM88.8885 2.22727V9.5H87.8267V2.22727H88.8885Z" fill="white"/>
</svg>
